%TF.GenerationSoftware,KiCad,Pcbnew,8.0.2*%
%TF.CreationDate,2024-07-15T20:50:26+07:00*%
%TF.ProjectId,chroma-pixel-h743,6368726f-6d61-42d7-9069-78656c2d6837,rev?*%
%TF.SameCoordinates,Original*%
%TF.FileFunction,Legend,Top*%
%TF.FilePolarity,Positive*%
%FSLAX46Y46*%
G04 Gerber Fmt 4.6, Leading zero omitted, Abs format (unit mm)*
G04 Created by KiCad (PCBNEW 8.0.2) date 2024-07-15 20:50:26*
%MOMM*%
%LPD*%
G01*
G04 APERTURE LIST*
%ADD10C,0.500000*%
%ADD11C,0.150000*%
%ADD12C,0.250000*%
%ADD13C,0.120000*%
%ADD14C,0.127000*%
%ADD15C,0.300000*%
%ADD16C,0.000000*%
%ADD17C,0.200000*%
%ADD18C,0.100000*%
G04 APERTURE END LIST*
D10*
X130776937Y-81682361D02*
X130872175Y-81777600D01*
X130872175Y-81777600D02*
X130776937Y-81872838D01*
X130776937Y-81872838D02*
X130681699Y-81777600D01*
X130681699Y-81777600D02*
X130776937Y-81682361D01*
X130776937Y-81682361D02*
X130776937Y-81872838D01*
X159301137Y-75306961D02*
X159396375Y-75402200D01*
X159396375Y-75402200D02*
X159301137Y-75497438D01*
X159301137Y-75497438D02*
X159205899Y-75402200D01*
X159205899Y-75402200D02*
X159301137Y-75306961D01*
X159301137Y-75306961D02*
X159301137Y-75497438D01*
X174464937Y-94026761D02*
X174560175Y-94122000D01*
X174560175Y-94122000D02*
X174464937Y-94217238D01*
X174464937Y-94217238D02*
X174369699Y-94122000D01*
X174369699Y-94122000D02*
X174464937Y-94026761D01*
X174464937Y-94026761D02*
X174464937Y-94217238D01*
D11*
X118338600Y-56997600D02*
X118338600Y-63093600D01*
X118338600Y-63093600D02*
X120929400Y-63093600D01*
X117932200Y-56591200D02*
X118338600Y-56997600D01*
X147485100Y-123635600D02*
X146951700Y-124169000D01*
X146951700Y-123102200D01*
X147485100Y-123635600D01*
G36*
X147485100Y-123635600D02*
G01*
X146951700Y-124169000D01*
X146951700Y-123102200D01*
X147485100Y-123635600D01*
G37*
D12*
X165048549Y-75870154D02*
X165524739Y-75870154D01*
X164953311Y-76155869D02*
X165286644Y-75155869D01*
X165286644Y-75155869D02*
X165619977Y-76155869D01*
X166477120Y-76155869D02*
X165905692Y-76155869D01*
X166191406Y-76155869D02*
X166191406Y-75155869D01*
X166191406Y-75155869D02*
X166096168Y-75298726D01*
X166096168Y-75298726D02*
X166000930Y-75393964D01*
X166000930Y-75393964D02*
X165905692Y-75441583D01*
X163990780Y-49474225D02*
X163990780Y-48998035D01*
X163990780Y-48998035D02*
X164990780Y-48998035D01*
X164514590Y-49807559D02*
X164514590Y-50140892D01*
X163990780Y-50283749D02*
X163990780Y-49807559D01*
X163990780Y-49807559D02*
X164990780Y-49807559D01*
X164990780Y-49807559D02*
X164990780Y-50283749D01*
X163990780Y-50712321D02*
X164990780Y-50712321D01*
X164990780Y-50712321D02*
X164990780Y-50950416D01*
X164990780Y-50950416D02*
X164943161Y-51093273D01*
X164943161Y-51093273D02*
X164847923Y-51188511D01*
X164847923Y-51188511D02*
X164752685Y-51236130D01*
X164752685Y-51236130D02*
X164562209Y-51283749D01*
X164562209Y-51283749D02*
X164419352Y-51283749D01*
X164419352Y-51283749D02*
X164228876Y-51236130D01*
X164228876Y-51236130D02*
X164133638Y-51188511D01*
X164133638Y-51188511D02*
X164038400Y-51093273D01*
X164038400Y-51093273D02*
X163990780Y-50950416D01*
X163990780Y-50950416D02*
X163990780Y-50712321D01*
X163990780Y-52236130D02*
X163990780Y-51664702D01*
X163990780Y-51950416D02*
X164990780Y-51950416D01*
X164990780Y-51950416D02*
X164847923Y-51855178D01*
X164847923Y-51855178D02*
X164752685Y-51759940D01*
X164752685Y-51759940D02*
X164705066Y-51664702D01*
X153662939Y-55305152D02*
X153662939Y-55971819D01*
X153424844Y-54924200D02*
X153186749Y-55638485D01*
X153186749Y-55638485D02*
X153805796Y-55638485D01*
X154377225Y-54971819D02*
X154472463Y-54971819D01*
X154472463Y-54971819D02*
X154567701Y-55019438D01*
X154567701Y-55019438D02*
X154615320Y-55067057D01*
X154615320Y-55067057D02*
X154662939Y-55162295D01*
X154662939Y-55162295D02*
X154710558Y-55352771D01*
X154710558Y-55352771D02*
X154710558Y-55590866D01*
X154710558Y-55590866D02*
X154662939Y-55781342D01*
X154662939Y-55781342D02*
X154615320Y-55876580D01*
X154615320Y-55876580D02*
X154567701Y-55924200D01*
X154567701Y-55924200D02*
X154472463Y-55971819D01*
X154472463Y-55971819D02*
X154377225Y-55971819D01*
X154377225Y-55971819D02*
X154281987Y-55924200D01*
X154281987Y-55924200D02*
X154234368Y-55876580D01*
X154234368Y-55876580D02*
X154186749Y-55781342D01*
X154186749Y-55781342D02*
X154139130Y-55590866D01*
X154139130Y-55590866D02*
X154139130Y-55352771D01*
X154139130Y-55352771D02*
X154186749Y-55162295D01*
X154186749Y-55162295D02*
X154234368Y-55067057D01*
X154234368Y-55067057D02*
X154281987Y-55019438D01*
X154281987Y-55019438D02*
X154377225Y-54971819D01*
X110273377Y-57214969D02*
X109701949Y-57214969D01*
X109987663Y-57214969D02*
X109987663Y-56214969D01*
X109987663Y-56214969D02*
X109892425Y-56357826D01*
X109892425Y-56357826D02*
X109797187Y-56453064D01*
X109797187Y-56453064D02*
X109701949Y-56500683D01*
X110892425Y-56214969D02*
X110987663Y-56214969D01*
X110987663Y-56214969D02*
X111082901Y-56262588D01*
X111082901Y-56262588D02*
X111130520Y-56310207D01*
X111130520Y-56310207D02*
X111178139Y-56405445D01*
X111178139Y-56405445D02*
X111225758Y-56595921D01*
X111225758Y-56595921D02*
X111225758Y-56834016D01*
X111225758Y-56834016D02*
X111178139Y-57024492D01*
X111178139Y-57024492D02*
X111130520Y-57119730D01*
X111130520Y-57119730D02*
X111082901Y-57167350D01*
X111082901Y-57167350D02*
X110987663Y-57214969D01*
X110987663Y-57214969D02*
X110892425Y-57214969D01*
X110892425Y-57214969D02*
X110797187Y-57167350D01*
X110797187Y-57167350D02*
X110749568Y-57119730D01*
X110749568Y-57119730D02*
X110701949Y-57024492D01*
X110701949Y-57024492D02*
X110654330Y-56834016D01*
X110654330Y-56834016D02*
X110654330Y-56595921D01*
X110654330Y-56595921D02*
X110701949Y-56405445D01*
X110701949Y-56405445D02*
X110749568Y-56310207D01*
X110749568Y-56310207D02*
X110797187Y-56262588D01*
X110797187Y-56262588D02*
X110892425Y-56214969D01*
X111844806Y-56214969D02*
X111940044Y-56214969D01*
X111940044Y-56214969D02*
X112035282Y-56262588D01*
X112035282Y-56262588D02*
X112082901Y-56310207D01*
X112082901Y-56310207D02*
X112130520Y-56405445D01*
X112130520Y-56405445D02*
X112178139Y-56595921D01*
X112178139Y-56595921D02*
X112178139Y-56834016D01*
X112178139Y-56834016D02*
X112130520Y-57024492D01*
X112130520Y-57024492D02*
X112082901Y-57119730D01*
X112082901Y-57119730D02*
X112035282Y-57167350D01*
X112035282Y-57167350D02*
X111940044Y-57214969D01*
X111940044Y-57214969D02*
X111844806Y-57214969D01*
X111844806Y-57214969D02*
X111749568Y-57167350D01*
X111749568Y-57167350D02*
X111701949Y-57119730D01*
X111701949Y-57119730D02*
X111654330Y-57024492D01*
X111654330Y-57024492D02*
X111606711Y-56834016D01*
X111606711Y-56834016D02*
X111606711Y-56595921D01*
X111606711Y-56595921D02*
X111654330Y-56405445D01*
X111654330Y-56405445D02*
X111701949Y-56310207D01*
X111701949Y-56310207D02*
X111749568Y-56262588D01*
X111749568Y-56262588D02*
X111844806Y-56214969D01*
X112606711Y-57214969D02*
X112606711Y-56548302D01*
X112606711Y-56643540D02*
X112654330Y-56595921D01*
X112654330Y-56595921D02*
X112749568Y-56548302D01*
X112749568Y-56548302D02*
X112892425Y-56548302D01*
X112892425Y-56548302D02*
X112987663Y-56595921D01*
X112987663Y-56595921D02*
X113035282Y-56691159D01*
X113035282Y-56691159D02*
X113035282Y-57214969D01*
X113035282Y-56691159D02*
X113082901Y-56595921D01*
X113082901Y-56595921D02*
X113178139Y-56548302D01*
X113178139Y-56548302D02*
X113320996Y-56548302D01*
X113320996Y-56548302D02*
X113416235Y-56595921D01*
X113416235Y-56595921D02*
X113463854Y-56691159D01*
X113463854Y-56691159D02*
X113463854Y-57214969D01*
X113892425Y-56929254D02*
X114368615Y-56929254D01*
X113797187Y-57214969D02*
X114130520Y-56214969D01*
X114130520Y-56214969D02*
X114463853Y-57214969D01*
X122173301Y-63160659D02*
X122316158Y-63208278D01*
X122316158Y-63208278D02*
X122363777Y-63255897D01*
X122363777Y-63255897D02*
X122411396Y-63351135D01*
X122411396Y-63351135D02*
X122411396Y-63493992D01*
X122411396Y-63493992D02*
X122363777Y-63589230D01*
X122363777Y-63589230D02*
X122316158Y-63636850D01*
X122316158Y-63636850D02*
X122220920Y-63684469D01*
X122220920Y-63684469D02*
X121839968Y-63684469D01*
X121839968Y-63684469D02*
X121839968Y-62684469D01*
X121839968Y-62684469D02*
X122173301Y-62684469D01*
X122173301Y-62684469D02*
X122268539Y-62732088D01*
X122268539Y-62732088D02*
X122316158Y-62779707D01*
X122316158Y-62779707D02*
X122363777Y-62874945D01*
X122363777Y-62874945D02*
X122363777Y-62970183D01*
X122363777Y-62970183D02*
X122316158Y-63065421D01*
X122316158Y-63065421D02*
X122268539Y-63113040D01*
X122268539Y-63113040D02*
X122173301Y-63160659D01*
X122173301Y-63160659D02*
X121839968Y-63160659D01*
X123268539Y-63684469D02*
X123268539Y-63160659D01*
X123268539Y-63160659D02*
X123220920Y-63065421D01*
X123220920Y-63065421D02*
X123125682Y-63017802D01*
X123125682Y-63017802D02*
X122935206Y-63017802D01*
X122935206Y-63017802D02*
X122839968Y-63065421D01*
X123268539Y-63636850D02*
X123173301Y-63684469D01*
X123173301Y-63684469D02*
X122935206Y-63684469D01*
X122935206Y-63684469D02*
X122839968Y-63636850D01*
X122839968Y-63636850D02*
X122792349Y-63541611D01*
X122792349Y-63541611D02*
X122792349Y-63446373D01*
X122792349Y-63446373D02*
X122839968Y-63351135D01*
X122839968Y-63351135D02*
X122935206Y-63303516D01*
X122935206Y-63303516D02*
X123173301Y-63303516D01*
X123173301Y-63303516D02*
X123268539Y-63255897D01*
X124173301Y-63636850D02*
X124078063Y-63684469D01*
X124078063Y-63684469D02*
X123887587Y-63684469D01*
X123887587Y-63684469D02*
X123792349Y-63636850D01*
X123792349Y-63636850D02*
X123744730Y-63589230D01*
X123744730Y-63589230D02*
X123697111Y-63493992D01*
X123697111Y-63493992D02*
X123697111Y-63208278D01*
X123697111Y-63208278D02*
X123744730Y-63113040D01*
X123744730Y-63113040D02*
X123792349Y-63065421D01*
X123792349Y-63065421D02*
X123887587Y-63017802D01*
X123887587Y-63017802D02*
X124078063Y-63017802D01*
X124078063Y-63017802D02*
X124173301Y-63065421D01*
X124601873Y-63684469D02*
X124601873Y-62684469D01*
X124697111Y-63303516D02*
X124982825Y-63684469D01*
X124982825Y-63017802D02*
X124601873Y-63398754D01*
X125554254Y-63684469D02*
X125459016Y-63636850D01*
X125459016Y-63636850D02*
X125411397Y-63541611D01*
X125411397Y-63541611D02*
X125411397Y-62684469D01*
X125935207Y-63684469D02*
X125935207Y-63017802D01*
X125935207Y-62684469D02*
X125887588Y-62732088D01*
X125887588Y-62732088D02*
X125935207Y-62779707D01*
X125935207Y-62779707D02*
X125982826Y-62732088D01*
X125982826Y-62732088D02*
X125935207Y-62684469D01*
X125935207Y-62684469D02*
X125935207Y-62779707D01*
X126839968Y-63017802D02*
X126839968Y-63827326D01*
X126839968Y-63827326D02*
X126792349Y-63922564D01*
X126792349Y-63922564D02*
X126744730Y-63970183D01*
X126744730Y-63970183D02*
X126649492Y-64017802D01*
X126649492Y-64017802D02*
X126506635Y-64017802D01*
X126506635Y-64017802D02*
X126411397Y-63970183D01*
X126839968Y-63636850D02*
X126744730Y-63684469D01*
X126744730Y-63684469D02*
X126554254Y-63684469D01*
X126554254Y-63684469D02*
X126459016Y-63636850D01*
X126459016Y-63636850D02*
X126411397Y-63589230D01*
X126411397Y-63589230D02*
X126363778Y-63493992D01*
X126363778Y-63493992D02*
X126363778Y-63208278D01*
X126363778Y-63208278D02*
X126411397Y-63113040D01*
X126411397Y-63113040D02*
X126459016Y-63065421D01*
X126459016Y-63065421D02*
X126554254Y-63017802D01*
X126554254Y-63017802D02*
X126744730Y-63017802D01*
X126744730Y-63017802D02*
X126839968Y-63065421D01*
X127316159Y-63684469D02*
X127316159Y-62684469D01*
X127744730Y-63684469D02*
X127744730Y-63160659D01*
X127744730Y-63160659D02*
X127697111Y-63065421D01*
X127697111Y-63065421D02*
X127601873Y-63017802D01*
X127601873Y-63017802D02*
X127459016Y-63017802D01*
X127459016Y-63017802D02*
X127363778Y-63065421D01*
X127363778Y-63065421D02*
X127316159Y-63113040D01*
X128078064Y-63017802D02*
X128459016Y-63017802D01*
X128220921Y-62684469D02*
X128220921Y-63541611D01*
X128220921Y-63541611D02*
X128268540Y-63636850D01*
X128268540Y-63636850D02*
X128363778Y-63684469D01*
X128363778Y-63684469D02*
X128459016Y-63684469D01*
X129982826Y-63636850D02*
X129887588Y-63684469D01*
X129887588Y-63684469D02*
X129697112Y-63684469D01*
X129697112Y-63684469D02*
X129601874Y-63636850D01*
X129601874Y-63636850D02*
X129554255Y-63589230D01*
X129554255Y-63589230D02*
X129506636Y-63493992D01*
X129506636Y-63493992D02*
X129506636Y-63208278D01*
X129506636Y-63208278D02*
X129554255Y-63113040D01*
X129554255Y-63113040D02*
X129601874Y-63065421D01*
X129601874Y-63065421D02*
X129697112Y-63017802D01*
X129697112Y-63017802D02*
X129887588Y-63017802D01*
X129887588Y-63017802D02*
X129982826Y-63065421D01*
X130839969Y-63017802D02*
X130839969Y-63684469D01*
X130411398Y-63017802D02*
X130411398Y-63541611D01*
X130411398Y-63541611D02*
X130459017Y-63636850D01*
X130459017Y-63636850D02*
X130554255Y-63684469D01*
X130554255Y-63684469D02*
X130697112Y-63684469D01*
X130697112Y-63684469D02*
X130792350Y-63636850D01*
X130792350Y-63636850D02*
X130839969Y-63589230D01*
X131316160Y-63684469D02*
X131316160Y-63017802D01*
X131316160Y-63208278D02*
X131363779Y-63113040D01*
X131363779Y-63113040D02*
X131411398Y-63065421D01*
X131411398Y-63065421D02*
X131506636Y-63017802D01*
X131506636Y-63017802D02*
X131601874Y-63017802D01*
X131935208Y-63684469D02*
X131935208Y-63017802D01*
X131935208Y-63208278D02*
X131982827Y-63113040D01*
X131982827Y-63113040D02*
X132030446Y-63065421D01*
X132030446Y-63065421D02*
X132125684Y-63017802D01*
X132125684Y-63017802D02*
X132220922Y-63017802D01*
X132935208Y-63636850D02*
X132839970Y-63684469D01*
X132839970Y-63684469D02*
X132649494Y-63684469D01*
X132649494Y-63684469D02*
X132554256Y-63636850D01*
X132554256Y-63636850D02*
X132506637Y-63541611D01*
X132506637Y-63541611D02*
X132506637Y-63160659D01*
X132506637Y-63160659D02*
X132554256Y-63065421D01*
X132554256Y-63065421D02*
X132649494Y-63017802D01*
X132649494Y-63017802D02*
X132839970Y-63017802D01*
X132839970Y-63017802D02*
X132935208Y-63065421D01*
X132935208Y-63065421D02*
X132982827Y-63160659D01*
X132982827Y-63160659D02*
X132982827Y-63255897D01*
X132982827Y-63255897D02*
X132506637Y-63351135D01*
X133411399Y-63017802D02*
X133411399Y-63684469D01*
X133411399Y-63113040D02*
X133459018Y-63065421D01*
X133459018Y-63065421D02*
X133554256Y-63017802D01*
X133554256Y-63017802D02*
X133697113Y-63017802D01*
X133697113Y-63017802D02*
X133792351Y-63065421D01*
X133792351Y-63065421D02*
X133839970Y-63160659D01*
X133839970Y-63160659D02*
X133839970Y-63684469D01*
X134173304Y-63017802D02*
X134554256Y-63017802D01*
X134316161Y-62684469D02*
X134316161Y-63541611D01*
X134316161Y-63541611D02*
X134363780Y-63636850D01*
X134363780Y-63636850D02*
X134459018Y-63684469D01*
X134459018Y-63684469D02*
X134554256Y-63684469D01*
X165048549Y-73355554D02*
X165524739Y-73355554D01*
X164953311Y-73641269D02*
X165286644Y-72641269D01*
X165286644Y-72641269D02*
X165619977Y-73641269D01*
X165905692Y-72736507D02*
X165953311Y-72688888D01*
X165953311Y-72688888D02*
X166048549Y-72641269D01*
X166048549Y-72641269D02*
X166286644Y-72641269D01*
X166286644Y-72641269D02*
X166381882Y-72688888D01*
X166381882Y-72688888D02*
X166429501Y-72736507D01*
X166429501Y-72736507D02*
X166477120Y-72831745D01*
X166477120Y-72831745D02*
X166477120Y-72926983D01*
X166477120Y-72926983D02*
X166429501Y-73069840D01*
X166429501Y-73069840D02*
X165858073Y-73641269D01*
X165858073Y-73641269D02*
X166477120Y-73641269D01*
X170924980Y-49474225D02*
X170924980Y-48998035D01*
X170924980Y-48998035D02*
X171924980Y-48998035D01*
X171448790Y-49807559D02*
X171448790Y-50140892D01*
X170924980Y-50283749D02*
X170924980Y-49807559D01*
X170924980Y-49807559D02*
X171924980Y-49807559D01*
X171924980Y-49807559D02*
X171924980Y-50283749D01*
X170924980Y-50712321D02*
X171924980Y-50712321D01*
X171924980Y-50712321D02*
X171924980Y-50950416D01*
X171924980Y-50950416D02*
X171877361Y-51093273D01*
X171877361Y-51093273D02*
X171782123Y-51188511D01*
X171782123Y-51188511D02*
X171686885Y-51236130D01*
X171686885Y-51236130D02*
X171496409Y-51283749D01*
X171496409Y-51283749D02*
X171353552Y-51283749D01*
X171353552Y-51283749D02*
X171163076Y-51236130D01*
X171163076Y-51236130D02*
X171067838Y-51188511D01*
X171067838Y-51188511D02*
X170972600Y-51093273D01*
X170972600Y-51093273D02*
X170924980Y-50950416D01*
X170924980Y-50950416D02*
X170924980Y-50712321D01*
X171924980Y-51902797D02*
X171924980Y-51998035D01*
X171924980Y-51998035D02*
X171877361Y-52093273D01*
X171877361Y-52093273D02*
X171829742Y-52140892D01*
X171829742Y-52140892D02*
X171734504Y-52188511D01*
X171734504Y-52188511D02*
X171544028Y-52236130D01*
X171544028Y-52236130D02*
X171305933Y-52236130D01*
X171305933Y-52236130D02*
X171115457Y-52188511D01*
X171115457Y-52188511D02*
X171020219Y-52140892D01*
X171020219Y-52140892D02*
X170972600Y-52093273D01*
X170972600Y-52093273D02*
X170924980Y-51998035D01*
X170924980Y-51998035D02*
X170924980Y-51902797D01*
X170924980Y-51902797D02*
X170972600Y-51807559D01*
X170972600Y-51807559D02*
X171020219Y-51759940D01*
X171020219Y-51759940D02*
X171115457Y-51712321D01*
X171115457Y-51712321D02*
X171305933Y-51664702D01*
X171305933Y-51664702D02*
X171544028Y-51664702D01*
X171544028Y-51664702D02*
X171734504Y-51712321D01*
X171734504Y-51712321D02*
X171829742Y-51759940D01*
X171829742Y-51759940D02*
X171877361Y-51807559D01*
X171877361Y-51807559D02*
X171924980Y-51902797D01*
X165048549Y-78384754D02*
X165524739Y-78384754D01*
X164953311Y-78670469D02*
X165286644Y-77670469D01*
X165286644Y-77670469D02*
X165619977Y-78670469D01*
X166143787Y-77670469D02*
X166239025Y-77670469D01*
X166239025Y-77670469D02*
X166334263Y-77718088D01*
X166334263Y-77718088D02*
X166381882Y-77765707D01*
X166381882Y-77765707D02*
X166429501Y-77860945D01*
X166429501Y-77860945D02*
X166477120Y-78051421D01*
X166477120Y-78051421D02*
X166477120Y-78289516D01*
X166477120Y-78289516D02*
X166429501Y-78479992D01*
X166429501Y-78479992D02*
X166381882Y-78575230D01*
X166381882Y-78575230D02*
X166334263Y-78622850D01*
X166334263Y-78622850D02*
X166239025Y-78670469D01*
X166239025Y-78670469D02*
X166143787Y-78670469D01*
X166143787Y-78670469D02*
X166048549Y-78622850D01*
X166048549Y-78622850D02*
X166000930Y-78575230D01*
X166000930Y-78575230D02*
X165953311Y-78479992D01*
X165953311Y-78479992D02*
X165905692Y-78289516D01*
X165905692Y-78289516D02*
X165905692Y-78051421D01*
X165905692Y-78051421D02*
X165953311Y-77860945D01*
X165953311Y-77860945D02*
X166000930Y-77765707D01*
X166000930Y-77765707D02*
X166048549Y-77718088D01*
X166048549Y-77718088D02*
X166143787Y-77670469D01*
X134622487Y-55971819D02*
X134051059Y-55971819D01*
X134336773Y-55971819D02*
X134336773Y-54971819D01*
X134336773Y-54971819D02*
X134241535Y-55114676D01*
X134241535Y-55114676D02*
X134146297Y-55209914D01*
X134146297Y-55209914D02*
X134051059Y-55257533D01*
X111178139Y-59449719D02*
X110701949Y-59449719D01*
X110701949Y-59449719D02*
X110654330Y-59925909D01*
X110654330Y-59925909D02*
X110701949Y-59878290D01*
X110701949Y-59878290D02*
X110797187Y-59830671D01*
X110797187Y-59830671D02*
X111035282Y-59830671D01*
X111035282Y-59830671D02*
X111130520Y-59878290D01*
X111130520Y-59878290D02*
X111178139Y-59925909D01*
X111178139Y-59925909D02*
X111225758Y-60021147D01*
X111225758Y-60021147D02*
X111225758Y-60259242D01*
X111225758Y-60259242D02*
X111178139Y-60354480D01*
X111178139Y-60354480D02*
X111130520Y-60402100D01*
X111130520Y-60402100D02*
X111035282Y-60449719D01*
X111035282Y-60449719D02*
X110797187Y-60449719D01*
X110797187Y-60449719D02*
X110701949Y-60402100D01*
X110701949Y-60402100D02*
X110654330Y-60354480D01*
X111844806Y-59449719D02*
X111940044Y-59449719D01*
X111940044Y-59449719D02*
X112035282Y-59497338D01*
X112035282Y-59497338D02*
X112082901Y-59544957D01*
X112082901Y-59544957D02*
X112130520Y-59640195D01*
X112130520Y-59640195D02*
X112178139Y-59830671D01*
X112178139Y-59830671D02*
X112178139Y-60068766D01*
X112178139Y-60068766D02*
X112130520Y-60259242D01*
X112130520Y-60259242D02*
X112082901Y-60354480D01*
X112082901Y-60354480D02*
X112035282Y-60402100D01*
X112035282Y-60402100D02*
X111940044Y-60449719D01*
X111940044Y-60449719D02*
X111844806Y-60449719D01*
X111844806Y-60449719D02*
X111749568Y-60402100D01*
X111749568Y-60402100D02*
X111701949Y-60354480D01*
X111701949Y-60354480D02*
X111654330Y-60259242D01*
X111654330Y-60259242D02*
X111606711Y-60068766D01*
X111606711Y-60068766D02*
X111606711Y-59830671D01*
X111606711Y-59830671D02*
X111654330Y-59640195D01*
X111654330Y-59640195D02*
X111701949Y-59544957D01*
X111701949Y-59544957D02*
X111749568Y-59497338D01*
X111749568Y-59497338D02*
X111844806Y-59449719D01*
X112606711Y-60449719D02*
X112606711Y-59783052D01*
X112606711Y-59878290D02*
X112654330Y-59830671D01*
X112654330Y-59830671D02*
X112749568Y-59783052D01*
X112749568Y-59783052D02*
X112892425Y-59783052D01*
X112892425Y-59783052D02*
X112987663Y-59830671D01*
X112987663Y-59830671D02*
X113035282Y-59925909D01*
X113035282Y-59925909D02*
X113035282Y-60449719D01*
X113035282Y-59925909D02*
X113082901Y-59830671D01*
X113082901Y-59830671D02*
X113178139Y-59783052D01*
X113178139Y-59783052D02*
X113320996Y-59783052D01*
X113320996Y-59783052D02*
X113416235Y-59830671D01*
X113416235Y-59830671D02*
X113463854Y-59925909D01*
X113463854Y-59925909D02*
X113463854Y-60449719D01*
X113892425Y-60164004D02*
X114368615Y-60164004D01*
X113797187Y-60449719D02*
X114130520Y-59449719D01*
X114130520Y-59449719D02*
X114463853Y-60449719D01*
X110654330Y-62779707D02*
X110701949Y-62732088D01*
X110701949Y-62732088D02*
X110797187Y-62684469D01*
X110797187Y-62684469D02*
X111035282Y-62684469D01*
X111035282Y-62684469D02*
X111130520Y-62732088D01*
X111130520Y-62732088D02*
X111178139Y-62779707D01*
X111178139Y-62779707D02*
X111225758Y-62874945D01*
X111225758Y-62874945D02*
X111225758Y-62970183D01*
X111225758Y-62970183D02*
X111178139Y-63113040D01*
X111178139Y-63113040D02*
X110606711Y-63684469D01*
X110606711Y-63684469D02*
X111225758Y-63684469D01*
X112130520Y-62684469D02*
X111654330Y-62684469D01*
X111654330Y-62684469D02*
X111606711Y-63160659D01*
X111606711Y-63160659D02*
X111654330Y-63113040D01*
X111654330Y-63113040D02*
X111749568Y-63065421D01*
X111749568Y-63065421D02*
X111987663Y-63065421D01*
X111987663Y-63065421D02*
X112082901Y-63113040D01*
X112082901Y-63113040D02*
X112130520Y-63160659D01*
X112130520Y-63160659D02*
X112178139Y-63255897D01*
X112178139Y-63255897D02*
X112178139Y-63493992D01*
X112178139Y-63493992D02*
X112130520Y-63589230D01*
X112130520Y-63589230D02*
X112082901Y-63636850D01*
X112082901Y-63636850D02*
X111987663Y-63684469D01*
X111987663Y-63684469D02*
X111749568Y-63684469D01*
X111749568Y-63684469D02*
X111654330Y-63636850D01*
X111654330Y-63636850D02*
X111606711Y-63589230D01*
X112606711Y-63684469D02*
X112606711Y-63017802D01*
X112606711Y-63113040D02*
X112654330Y-63065421D01*
X112654330Y-63065421D02*
X112749568Y-63017802D01*
X112749568Y-63017802D02*
X112892425Y-63017802D01*
X112892425Y-63017802D02*
X112987663Y-63065421D01*
X112987663Y-63065421D02*
X113035282Y-63160659D01*
X113035282Y-63160659D02*
X113035282Y-63684469D01*
X113035282Y-63160659D02*
X113082901Y-63065421D01*
X113082901Y-63065421D02*
X113178139Y-63017802D01*
X113178139Y-63017802D02*
X113320996Y-63017802D01*
X113320996Y-63017802D02*
X113416235Y-63065421D01*
X113416235Y-63065421D02*
X113463854Y-63160659D01*
X113463854Y-63160659D02*
X113463854Y-63684469D01*
X113892425Y-63398754D02*
X114368615Y-63398754D01*
X113797187Y-63684469D02*
X114130520Y-62684469D01*
X114130520Y-62684469D02*
X114463853Y-63684469D01*
D13*
%TO.C,D7*%
X173482000Y-61924500D02*
X174132000Y-61924500D01*
X173482000Y-61924500D02*
X172832000Y-61924500D01*
X173482000Y-58804500D02*
X174132000Y-58804500D01*
X173482000Y-58804500D02*
X172832000Y-58804500D01*
X174884500Y-62204500D02*
X174404500Y-62204500D01*
X174644500Y-61874500D01*
X174884500Y-62204500D01*
G36*
X174884500Y-62204500D02*
G01*
X174404500Y-62204500D01*
X174644500Y-61874500D01*
X174884500Y-62204500D01*
G37*
%TO.C,C40*%
X147202936Y-72825700D02*
X146987264Y-72825700D01*
X147202936Y-73545700D02*
X146987264Y-73545700D01*
%TO.C,C43*%
X173969000Y-119151452D02*
X173969000Y-117728948D01*
X175789000Y-119151452D02*
X175789000Y-117728948D01*
%TO.C,R19*%
X163323241Y-79731600D02*
X163015959Y-79731600D01*
X163323241Y-80491600D02*
X163015959Y-80491600D01*
%TO.C,R31*%
X171631800Y-78222041D02*
X171631800Y-77914759D01*
X172391800Y-78222041D02*
X172391800Y-77914759D01*
%TO.C,C28*%
X114600400Y-115804836D02*
X114600400Y-115589164D01*
X115320400Y-115804836D02*
X115320400Y-115589164D01*
D14*
%TO.C,J5*%
X138210100Y-121388000D02*
X138210100Y-123663000D01*
X139010100Y-121388000D02*
X138210100Y-121388000D01*
X139410100Y-125638000D02*
X143010100Y-125638000D01*
X143410100Y-121388000D02*
X144210100Y-121388000D01*
X144210100Y-121388000D02*
X144210100Y-123663000D01*
D15*
X138860100Y-120678000D02*
G75*
G02*
X138660100Y-120678000I-100000J0D01*
G01*
X138660100Y-120678000D02*
G75*
G02*
X138860100Y-120678000I100000J0D01*
G01*
D13*
%TO.C,R15*%
X123851641Y-68860400D02*
X123544359Y-68860400D01*
X123851641Y-69620400D02*
X123544359Y-69620400D01*
%TO.C,R23*%
X168973866Y-54001641D02*
X168973866Y-53694359D01*
X169733866Y-54001641D02*
X169733866Y-53694359D01*
%TO.C,R34*%
X156871400Y-53823841D02*
X156871400Y-53516559D01*
X157631400Y-53823841D02*
X157631400Y-53516559D01*
%TO.C,C10*%
X151911164Y-74290600D02*
X152126836Y-74290600D01*
X151911164Y-75010600D02*
X152126836Y-75010600D01*
%TO.C,C27*%
X114600400Y-110047503D02*
X114600400Y-109831831D01*
X115320400Y-110047503D02*
X115320400Y-109831831D01*
%TO.C,Y2*%
X154237700Y-70415200D02*
X154237700Y-72015200D01*
X154237700Y-72015200D02*
X156637700Y-72015200D01*
X156637700Y-70415200D02*
X154237700Y-70415200D01*
%TO.C,U8*%
X141783800Y-109571600D02*
X140983800Y-109571600D01*
X141783800Y-109571600D02*
X142583800Y-109571600D01*
X141783800Y-112691600D02*
X140983800Y-112691600D01*
X141783800Y-112691600D02*
X143583800Y-112691600D01*
%TO.C,R16*%
X123544359Y-69867001D02*
X123851641Y-69867001D01*
X123544359Y-70627001D02*
X123851641Y-70627001D01*
%TO.C,U11*%
X107587100Y-82374400D02*
X107587100Y-92974400D01*
X107987100Y-82374400D02*
X107587100Y-82374400D01*
X107987100Y-92974400D02*
X107587100Y-92974400D01*
X129787100Y-81174400D02*
X129787100Y-82374400D01*
X129787100Y-82374400D02*
X130187100Y-82374400D01*
X130187100Y-82374400D02*
X130187100Y-92974400D01*
X130187100Y-92974400D02*
X129787100Y-92974400D01*
%TO.C,J7*%
X147920400Y-119920600D02*
X147985400Y-119920600D01*
X147920400Y-123450600D02*
X147920400Y-119920600D01*
X147920400Y-123450600D02*
X147985400Y-123450600D01*
X147985400Y-124775600D02*
X147985400Y-123450600D01*
X156865400Y-119920600D02*
X156930400Y-119920600D01*
X156865400Y-123450600D02*
X156930400Y-123450600D01*
X156930400Y-123450600D02*
X156930400Y-119920600D01*
D16*
%TO.C,kibuzzard-66417165*%
G36*
X152519053Y-117133757D02*
G01*
X152563171Y-117233602D01*
X152547691Y-117302488D01*
X152508217Y-117344284D01*
X152453264Y-117364407D01*
X152389796Y-117369825D01*
X152342583Y-117368277D01*
X152298465Y-117363633D01*
X152298465Y-117103572D01*
X152400632Y-117103572D01*
X152519053Y-117133757D01*
G37*
G36*
X152436236Y-116723541D02*
G01*
X152479580Y-116739020D01*
X152508991Y-116771528D01*
X152519827Y-116826482D01*
X152482676Y-116913943D01*
X152372768Y-116945677D01*
X152298465Y-116945677D01*
X152298465Y-116725863D01*
X152340261Y-116721219D01*
X152385152Y-116719671D01*
X152436236Y-116723541D01*
G37*
G36*
X150909920Y-116746760D02*
G01*
X150973388Y-116818742D01*
X151005895Y-116922457D01*
X151015183Y-117043200D01*
X151012281Y-117111505D01*
X151003573Y-117174005D01*
X150964874Y-117276946D01*
X150893666Y-117345058D01*
X150784533Y-117369825D01*
X150767505Y-117369825D01*
X150750477Y-117368277D01*
X150750477Y-116724315D01*
X150778341Y-116720445D01*
X150806205Y-116719671D01*
X150909920Y-116746760D01*
G37*
G36*
X154494021Y-116288852D02*
G01*
X154567602Y-116299767D01*
X154639759Y-116317841D01*
X154709797Y-116342901D01*
X154777042Y-116374706D01*
X154840845Y-116412948D01*
X154900593Y-116457260D01*
X154955710Y-116507215D01*
X155005664Y-116562331D01*
X155049976Y-116622079D01*
X155088219Y-116685882D01*
X155120023Y-116753127D01*
X155145083Y-116823165D01*
X155163157Y-116895322D01*
X155174072Y-116968903D01*
X155177722Y-117043200D01*
X155174072Y-117117497D01*
X155163157Y-117191078D01*
X155145083Y-117263235D01*
X155120023Y-117333273D01*
X155088219Y-117400518D01*
X155049976Y-117464321D01*
X155005664Y-117524069D01*
X154955710Y-117579185D01*
X154900593Y-117629140D01*
X154840845Y-117673452D01*
X154777042Y-117711694D01*
X154709797Y-117743499D01*
X154639759Y-117768559D01*
X154567602Y-117786633D01*
X154494021Y-117797548D01*
X154419724Y-117801198D01*
X154290725Y-117801198D01*
X154005895Y-117801198D01*
X153182366Y-117801198D01*
X152374316Y-117801198D01*
X151348001Y-117801198D01*
X150764409Y-117801198D01*
X150560075Y-117801198D01*
X150431076Y-117801198D01*
X150356779Y-117797548D01*
X150283198Y-117786633D01*
X150211041Y-117768559D01*
X150141003Y-117743499D01*
X150073758Y-117711694D01*
X150009955Y-117673452D01*
X149950207Y-117629140D01*
X149895090Y-117579185D01*
X149845136Y-117524069D01*
X149800824Y-117464321D01*
X149762581Y-117400518D01*
X149730777Y-117333273D01*
X149705717Y-117263235D01*
X149687643Y-117191078D01*
X149676728Y-117117497D01*
X149673078Y-117043200D01*
X149676728Y-116968903D01*
X149687643Y-116895322D01*
X149705717Y-116823165D01*
X149730777Y-116753127D01*
X149762581Y-116685882D01*
X149800824Y-116622079D01*
X149834067Y-116577256D01*
X150560075Y-116577256D01*
X150560075Y-117512240D01*
X150664564Y-117530042D01*
X150764409Y-117535460D01*
X150857869Y-117528688D01*
X150881439Y-117523076D01*
X151348001Y-117523076D01*
X151962552Y-117523076D01*
X151962552Y-117365181D01*
X151538403Y-117365181D01*
X151538403Y-117095832D01*
X151877412Y-117095832D01*
X151877412Y-116937937D01*
X151538403Y-116937937D01*
X151538403Y-116722767D01*
X151928496Y-116722767D01*
X151928496Y-116577256D01*
X152108063Y-116577256D01*
X152108063Y-117507596D01*
X152175013Y-117519787D01*
X152242737Y-117528494D01*
X152309688Y-117533719D01*
X152374316Y-117535460D01*
X152450748Y-117531784D01*
X152522149Y-117520754D01*
X152586391Y-117501017D01*
X152641344Y-117471219D01*
X152721066Y-117378339D01*
X152743124Y-117313130D01*
X152750477Y-117233602D01*
X152742807Y-117176327D01*
X152858837Y-117176327D01*
X152862707Y-117256048D01*
X152874316Y-117328030D01*
X152895214Y-117391110D01*
X152926948Y-117444129D01*
X153026793Y-117517658D01*
X153097033Y-117536815D01*
X153182366Y-117543200D01*
X153269053Y-117536815D01*
X153340261Y-117517658D01*
X153397536Y-117486505D01*
X153442428Y-117444129D01*
X153475323Y-117391110D01*
X153496607Y-117328030D01*
X153508217Y-117256048D01*
X153512087Y-117176327D01*
X153512087Y-117043200D01*
X153614254Y-117043200D01*
X153621220Y-117159493D01*
X153642118Y-117260692D01*
X153675787Y-117346606D01*
X153721066Y-117417039D01*
X153777374Y-117471993D01*
X153844131Y-117511466D01*
X153920563Y-117535267D01*
X154005895Y-117543200D01*
X154100516Y-117539330D01*
X154180044Y-117527720D01*
X154286081Y-117499856D01*
X154286081Y-117021528D01*
X154095679Y-117021528D01*
X154095679Y-117371373D01*
X154058527Y-117376017D01*
X154021375Y-117377565D01*
X153928883Y-117357248D01*
X153861933Y-117296296D01*
X153831833Y-117232054D01*
X153813773Y-117147689D01*
X153807753Y-117043200D01*
X153811042Y-116972186D01*
X153820911Y-116907751D01*
X153864254Y-116802488D01*
X153940880Y-116733602D01*
X154055431Y-116708835D01*
X154157598Y-116725863D01*
X154241189Y-116764562D01*
X154290725Y-116612859D01*
X154258991Y-116594284D01*
X154205586Y-116571064D01*
X154128960Y-116551714D01*
X154029115Y-116543200D01*
X153945137Y-116551133D01*
X153866576Y-116574934D01*
X153795756Y-116614601D01*
X153734998Y-116670135D01*
X153685075Y-116741149D01*
X153646762Y-116827256D01*
X153622381Y-116928068D01*
X153614254Y-117043200D01*
X153512087Y-117043200D01*
X153512087Y-116564872D01*
X153321685Y-116564872D01*
X153321685Y-117162395D01*
X153315493Y-117263788D01*
X153293821Y-117330352D01*
X153252025Y-117366729D01*
X153185462Y-117377565D01*
X153118898Y-117366729D01*
X153077877Y-117331126D01*
X153056979Y-117265336D01*
X153050787Y-117163943D01*
X153050787Y-116564872D01*
X152858837Y-116564872D01*
X152858837Y-117176327D01*
X152742807Y-117176327D01*
X152741770Y-117168587D01*
X152715648Y-117106667D01*
X152665145Y-117052488D01*
X152583295Y-117010692D01*
X152672304Y-116927101D01*
X152697265Y-116870599D01*
X152705586Y-116806358D01*
X152691654Y-116716575D01*
X152639022Y-116635305D01*
X152532211Y-116576482D01*
X152454038Y-116559647D01*
X152355741Y-116554036D01*
X152227258Y-116561002D01*
X152108063Y-116577256D01*
X151928496Y-116577256D01*
X151928496Y-116564872D01*
X151348001Y-116564872D01*
X151348001Y-117523076D01*
X150881439Y-117523076D01*
X150943202Y-117508370D01*
X151018860Y-117473347D01*
X151083295Y-117422457D01*
X151135733Y-117354926D01*
X151175400Y-117269980D01*
X151200361Y-117166459D01*
X151208682Y-117043200D01*
X151201135Y-116922650D01*
X151178496Y-116821064D01*
X151142312Y-116737085D01*
X151094131Y-116669361D01*
X151033953Y-116617697D01*
X150961778Y-116581900D01*
X150879541Y-116561002D01*
X150789177Y-116554036D01*
X150682366Y-116558680D01*
X150560075Y-116577256D01*
X149834067Y-116577256D01*
X149845136Y-116562331D01*
X149895090Y-116507215D01*
X149950207Y-116457260D01*
X150009955Y-116412948D01*
X150073758Y-116374706D01*
X150141003Y-116342901D01*
X150211041Y-116317841D01*
X150283198Y-116299767D01*
X150356779Y-116288852D01*
X150431076Y-116285202D01*
X150560075Y-116285202D01*
X154290725Y-116285202D01*
X154419724Y-116285202D01*
X154494021Y-116288852D01*
G37*
D13*
%TO.C,D4*%
X134523700Y-109466600D02*
X134523700Y-112151600D01*
X136443700Y-109466600D02*
X134523700Y-109466600D01*
X136443700Y-112151600D02*
X136443700Y-109466600D01*
%TO.C,R22*%
X146059600Y-111285241D02*
X146059600Y-110977959D01*
X146819600Y-111285241D02*
X146819600Y-110977959D01*
%TO.C,U7*%
X174173200Y-75376000D02*
X174173200Y-73426000D01*
X174173200Y-75376000D02*
X174173200Y-77326000D01*
X179293200Y-75376000D02*
X179293200Y-73426000D01*
X179293200Y-75376000D02*
X179293200Y-77326000D01*
X174268200Y-78076000D02*
X173938200Y-78316000D01*
X173938200Y-77836000D01*
X174268200Y-78076000D01*
G36*
X174268200Y-78076000D02*
G01*
X173938200Y-78316000D01*
X173938200Y-77836000D01*
X174268200Y-78076000D01*
G37*
%TO.C,C8*%
X162682600Y-90566564D02*
X162682600Y-90782236D01*
X163402600Y-90566564D02*
X163402600Y-90782236D01*
%TO.C,R28*%
X119660641Y-53760040D02*
X119353359Y-53760040D01*
X119660641Y-54520040D02*
X119353359Y-54520040D01*
%TO.C,U10*%
X140343800Y-77564400D02*
X141293800Y-77564400D01*
X140343800Y-78514400D02*
X140343800Y-77564400D01*
X140343800Y-96834400D02*
X140343800Y-97784400D01*
X140343800Y-97784400D02*
X141293800Y-97784400D01*
X159613800Y-77564400D02*
X159613800Y-76274400D01*
X160563800Y-77564400D02*
X159613800Y-77564400D01*
X160563800Y-78514400D02*
X160563800Y-77564400D01*
X160563800Y-96834400D02*
X160563800Y-97784400D01*
X160563800Y-97784400D02*
X159613800Y-97784400D01*
%TO.C,C44*%
X137930900Y-111392852D02*
X137930900Y-110870348D01*
X139400900Y-111392852D02*
X139400900Y-110870348D01*
%TO.C,C14*%
X136952400Y-79485436D02*
X136952400Y-79269764D01*
X137672400Y-79485436D02*
X137672400Y-79269764D01*
%TO.C,R25*%
X120976040Y-56308841D02*
X120976040Y-56001559D01*
X121736040Y-56308841D02*
X121736040Y-56001559D01*
%TO.C,C5*%
X147061636Y-99966200D02*
X146845964Y-99966200D01*
X147061636Y-100686200D02*
X146845964Y-100686200D01*
%TO.C,JP5*%
X166710600Y-73339200D02*
X166710600Y-72739200D01*
X167410600Y-72039200D02*
X168810600Y-72039200D01*
X168810600Y-74039200D02*
X167410600Y-74039200D01*
X169510600Y-72739200D02*
X169510600Y-73339200D01*
X166710600Y-72739200D02*
G75*
G02*
X167410600Y-72039200I700000J0D01*
G01*
X167410600Y-74039200D02*
G75*
G02*
X166710600Y-73339200I0J700000D01*
G01*
X168810600Y-72039200D02*
G75*
G02*
X169510600Y-72739200I1J-699999D01*
G01*
X169510600Y-73339200D02*
G75*
G02*
X168810600Y-74039200I-699999J-1D01*
G01*
D16*
%TO.C,kibuzzard-6642BE54*%
G36*
X130917796Y-114255217D02*
G01*
X130942835Y-114352244D01*
X130963962Y-114448488D01*
X130982741Y-114548644D01*
X130793382Y-114548644D01*
X130812944Y-114448488D01*
X130834854Y-114352244D01*
X130859893Y-114255217D01*
X130888844Y-114151148D01*
X130917796Y-114255217D01*
G37*
G36*
X131685792Y-114128848D02*
G01*
X131740174Y-114155843D01*
X131775386Y-114202009D01*
X131787123Y-114268519D01*
X131743304Y-114377283D01*
X131685792Y-114406038D01*
X131600894Y-114415624D01*
X131558641Y-114415624D01*
X131558641Y-114124544D01*
X131589940Y-114120632D01*
X131616544Y-114119849D01*
X131685792Y-114128848D01*
G37*
G36*
X133012453Y-113695239D02*
G01*
X133086309Y-113706195D01*
X133158735Y-113724337D01*
X133229034Y-113749490D01*
X133296529Y-113781413D01*
X133360570Y-113819798D01*
X133420541Y-113864275D01*
X133475863Y-113914416D01*
X133526004Y-113969738D01*
X133570481Y-114029709D01*
X133608866Y-114093750D01*
X133640789Y-114161245D01*
X133665942Y-114231544D01*
X133684084Y-114303971D01*
X133695040Y-114377826D01*
X133698703Y-114452400D01*
X133695040Y-114526974D01*
X133684084Y-114600829D01*
X133665942Y-114673256D01*
X133640789Y-114743555D01*
X133608866Y-114811050D01*
X133570481Y-114875091D01*
X133526004Y-114935062D01*
X133475863Y-114990384D01*
X133420541Y-115040525D01*
X133360570Y-115085002D01*
X133296529Y-115123387D01*
X133229034Y-115155310D01*
X133158735Y-115180463D01*
X133086309Y-115198605D01*
X133012453Y-115209561D01*
X132937879Y-115213224D01*
X132807467Y-115213224D01*
X132552381Y-115213224D01*
X132046904Y-115213224D01*
X131060988Y-115213224D01*
X130104807Y-115213224D01*
X129777733Y-115213224D01*
X129647321Y-115213224D01*
X129572747Y-115209561D01*
X129498891Y-115198605D01*
X129426465Y-115180463D01*
X129356166Y-115155310D01*
X129288671Y-115123387D01*
X129224630Y-115085002D01*
X129164659Y-115040525D01*
X129109337Y-114990384D01*
X129059196Y-114935062D01*
X129014719Y-114875091D01*
X128976334Y-114811050D01*
X128944411Y-114743555D01*
X128919258Y-114673256D01*
X128901116Y-114600829D01*
X128898250Y-114581508D01*
X129777733Y-114581508D01*
X129781645Y-114662103D01*
X129793382Y-114734873D01*
X129814509Y-114798644D01*
X129846591Y-114852244D01*
X129947530Y-114926578D01*
X130018539Y-114945945D01*
X130104807Y-114952400D01*
X130192444Y-114945945D01*
X130244069Y-114932056D01*
X130513257Y-114932056D01*
X130713570Y-114932056D01*
X130757389Y-114708269D01*
X131015605Y-114708269D01*
X131060988Y-114932056D01*
X131267561Y-114932056D01*
X131241739Y-114822228D01*
X131215605Y-114715592D01*
X131189157Y-114612150D01*
X131162397Y-114511899D01*
X131135323Y-114414841D01*
X131101237Y-114297128D01*
X131067052Y-114182643D01*
X131032770Y-114071385D01*
X131002872Y-113977439D01*
X131366152Y-113977439D01*
X131366152Y-114932056D01*
X131558641Y-114932056D01*
X131558641Y-114575248D01*
X131658797Y-114575248D01*
X131711810Y-114663863D01*
X131761301Y-114751305D01*
X131806098Y-114839920D01*
X131845026Y-114932056D01*
X132046904Y-114932056D01*
X132002303Y-114829552D01*
X131948312Y-114721571D01*
X131890409Y-114618284D01*
X131834071Y-114528300D01*
X131902537Y-114484090D01*
X131948312Y-114423449D01*
X131974134Y-114350679D01*
X131982741Y-114270084D01*
X131976285Y-114193988D01*
X131956919Y-114128456D01*
X131952822Y-114122979D01*
X132103242Y-114122979D01*
X132358328Y-114122979D01*
X132358328Y-114932056D01*
X132552381Y-114932056D01*
X132552381Y-114122979D01*
X132807467Y-114122979D01*
X132807467Y-113963355D01*
X132103242Y-113963355D01*
X132103242Y-114122979D01*
X131952822Y-114122979D01*
X131882584Y-114029082D01*
X131829376Y-113995045D01*
X131766778Y-113971179D01*
X131695573Y-113957095D01*
X131616544Y-113952400D01*
X131561771Y-113953965D01*
X131496043Y-113957877D01*
X131427968Y-113965702D01*
X131366152Y-113977439D01*
X131002872Y-113977439D01*
X130998390Y-113963355D01*
X130788688Y-113963355D01*
X130755530Y-114070504D01*
X130721786Y-114180686D01*
X130687455Y-114293900D01*
X130652537Y-114410146D01*
X130624431Y-114506391D01*
X130596450Y-114606704D01*
X130568594Y-114711085D01*
X130540863Y-114819536D01*
X130513257Y-114932056D01*
X130244069Y-114932056D01*
X130264431Y-114926578D01*
X130322334Y-114895084D01*
X130367717Y-114852244D01*
X130400972Y-114798644D01*
X130422490Y-114734873D01*
X130434228Y-114662103D01*
X130438140Y-114581508D01*
X130438140Y-113963355D01*
X130245652Y-113963355D01*
X130245652Y-114567423D01*
X130239392Y-114669927D01*
X130217483Y-114737220D01*
X130175229Y-114773996D01*
X130107936Y-114784951D01*
X130040644Y-114773996D01*
X129999173Y-114738003D01*
X129978046Y-114671492D01*
X129971786Y-114568988D01*
X129971786Y-113963355D01*
X129777733Y-113963355D01*
X129777733Y-114581508D01*
X128898250Y-114581508D01*
X128890160Y-114526974D01*
X128886497Y-114452400D01*
X128890160Y-114377826D01*
X128901116Y-114303971D01*
X128919258Y-114231544D01*
X128944411Y-114161245D01*
X128976334Y-114093750D01*
X129014719Y-114029709D01*
X129059196Y-113969738D01*
X129109337Y-113914416D01*
X129164659Y-113864275D01*
X129224630Y-113819798D01*
X129288671Y-113781413D01*
X129356166Y-113749490D01*
X129426465Y-113724337D01*
X129498891Y-113706195D01*
X129572747Y-113695239D01*
X129647321Y-113691576D01*
X129777733Y-113691576D01*
X132807467Y-113691576D01*
X132937879Y-113691576D01*
X133012453Y-113695239D01*
G37*
D13*
%TO.C,C2*%
X118527100Y-79766436D02*
X118527100Y-79550764D01*
X119247100Y-79766436D02*
X119247100Y-79550764D01*
%TO.C,C38*%
X124194936Y-95118600D02*
X123979264Y-95118600D01*
X124194936Y-95838600D02*
X123979264Y-95838600D01*
%TO.C,C23*%
X119680920Y-65607701D02*
X119962080Y-65607701D01*
X119680920Y-66627701D02*
X119962080Y-66627701D01*
%TO.C,R14*%
X123851641Y-67860400D02*
X123544359Y-67860400D01*
X123851641Y-68620400D02*
X123544359Y-68620400D01*
%TO.C,C15*%
X136942100Y-86052236D02*
X136942100Y-85836564D01*
X137662100Y-86052236D02*
X137662100Y-85836564D01*
%TO.C,U5*%
X124283400Y-54855200D02*
X125693400Y-54855200D01*
X124293400Y-57175200D02*
X125693400Y-57175200D01*
X123913400Y-54905200D02*
X123673400Y-54575200D01*
X124153400Y-54575200D01*
X123913400Y-54905200D01*
G36*
X123913400Y-54905200D02*
G01*
X123673400Y-54575200D01*
X124153400Y-54575200D01*
X123913400Y-54905200D01*
G37*
%TO.C,C9*%
X144843800Y-74758436D02*
X144843800Y-74542764D01*
X145563800Y-74758436D02*
X145563800Y-74542764D01*
%TO.C,JP3*%
X114754200Y-56924100D02*
X114754200Y-56324100D01*
X115454200Y-55624100D02*
X116854200Y-55624100D01*
X116854200Y-57624100D02*
X115454200Y-57624100D01*
X117554200Y-56324100D02*
X117554200Y-56924100D01*
X114754200Y-56324100D02*
G75*
G02*
X115454200Y-55624100I699999J1D01*
G01*
X115454200Y-57624100D02*
G75*
G02*
X114754200Y-56924100I-1J699999D01*
G01*
X116854200Y-55624100D02*
G75*
G02*
X117554200Y-56324100I0J-700000D01*
G01*
X117554200Y-56924100D02*
G75*
G02*
X116854200Y-57624100I-700000J0D01*
G01*
%TO.C,C7*%
X159061636Y-99966200D02*
X158845964Y-99966200D01*
X159061636Y-100686200D02*
X158845964Y-100686200D01*
%TO.C,C39*%
X148737264Y-72825700D02*
X148952936Y-72825700D01*
X148737264Y-73545700D02*
X148952936Y-73545700D01*
%TO.C,C13*%
X162682600Y-85566564D02*
X162682600Y-85782236D01*
X163402600Y-85566564D02*
X163402600Y-85782236D01*
%TO.C,C12*%
X162682600Y-78552236D02*
X162682600Y-78336564D01*
X163402600Y-78552236D02*
X163402600Y-78336564D01*
%TO.C,C1*%
X108127100Y-79766436D02*
X108127100Y-79550764D01*
X108847100Y-79766436D02*
X108847100Y-79550764D01*
%TO.C,C46*%
X129842800Y-51088380D02*
X129842800Y-50807220D01*
X130862800Y-51088380D02*
X130862800Y-50807220D01*
%TO.C,C49*%
X122249720Y-56293036D02*
X122249720Y-56077364D01*
X122969720Y-56293036D02*
X122969720Y-56077364D01*
%TO.C,R12*%
X174068941Y-122201900D02*
X173761659Y-122201900D01*
X174068941Y-122961900D02*
X173761659Y-122961900D01*
%TO.C,R29*%
X128450641Y-56285200D02*
X128143359Y-56285200D01*
X128450641Y-57045200D02*
X128143359Y-57045200D01*
%TO.C,SW3*%
X108755000Y-108239667D02*
X108755000Y-108359667D01*
X108755000Y-109369667D02*
X108755000Y-110509667D01*
X108755000Y-111519667D02*
X108755000Y-111639667D01*
X108755000Y-111639667D02*
X113155000Y-111639667D01*
X113155000Y-108239667D02*
X108755000Y-108239667D01*
X113155000Y-108359667D02*
X113155000Y-108239667D01*
X113155000Y-110509667D02*
X113155000Y-109369667D01*
X113155000Y-111639667D02*
X113155000Y-111519667D01*
%TO.C,C45*%
X147242500Y-111392852D02*
X147242500Y-110870348D01*
X148712500Y-111392852D02*
X148712500Y-110870348D01*
%TO.C,J4*%
X163391700Y-121701900D02*
X163391700Y-123621900D01*
X163391700Y-127336900D02*
X163391700Y-125631900D01*
X172551700Y-123621900D02*
X172551700Y-121701900D01*
X172551700Y-125631900D02*
X172551700Y-127336900D01*
X172551700Y-127336900D02*
X163391700Y-127336900D01*
%TO.C,R33*%
X157964600Y-53823841D02*
X157964600Y-53516559D01*
X158724600Y-53823841D02*
X158724600Y-53516559D01*
%TO.C,C37*%
X119794936Y-95118600D02*
X119579264Y-95118600D01*
X119794936Y-95838600D02*
X119579264Y-95838600D01*
D16*
%TO.C,kibuzzard-66417197*%
G36*
X145080427Y-56756557D02*
G01*
X145124545Y-56856402D01*
X145109065Y-56925288D01*
X145069591Y-56967084D01*
X145014637Y-56987207D01*
X144951170Y-56992625D01*
X144903956Y-56991077D01*
X144859839Y-56986433D01*
X144859839Y-56726372D01*
X144962006Y-56726372D01*
X145080427Y-56756557D01*
G37*
G36*
X144997610Y-56346341D02*
G01*
X145040953Y-56361820D01*
X145070365Y-56394328D01*
X145081201Y-56449282D01*
X145044049Y-56536743D01*
X144934142Y-56568477D01*
X144859839Y-56568477D01*
X144859839Y-56348663D01*
X144901634Y-56344019D01*
X144946526Y-56342471D01*
X144997610Y-56346341D01*
G37*
G36*
X143437625Y-56351372D02*
G01*
X143491418Y-56378074D01*
X143526247Y-56423740D01*
X143537857Y-56489529D01*
X143494514Y-56597115D01*
X143437625Y-56625559D01*
X143353647Y-56635040D01*
X143311851Y-56635040D01*
X143311851Y-56347115D01*
X143342811Y-56343245D01*
X143369127Y-56342471D01*
X143437625Y-56351372D01*
G37*
G36*
X148115257Y-56369560D02*
G01*
X148178724Y-56441542D01*
X148211232Y-56545257D01*
X148220520Y-56666000D01*
X148217617Y-56734305D01*
X148208910Y-56796805D01*
X148170210Y-56899746D01*
X148099003Y-56967858D01*
X147989870Y-56992625D01*
X147972842Y-56992625D01*
X147955814Y-56991077D01*
X147955814Y-56347115D01*
X147983678Y-56343245D01*
X148011541Y-56342471D01*
X148115257Y-56369560D01*
G37*
G36*
X148617314Y-55911652D02*
G01*
X148690895Y-55922567D01*
X148763052Y-55940641D01*
X148833090Y-55965701D01*
X148900335Y-55997506D01*
X148964138Y-56035748D01*
X149023886Y-56080060D01*
X149079003Y-56130015D01*
X149128958Y-56185131D01*
X149173269Y-56244879D01*
X149211512Y-56308682D01*
X149243316Y-56375927D01*
X149268376Y-56445965D01*
X149286450Y-56518122D01*
X149297365Y-56591703D01*
X149301015Y-56666000D01*
X149297365Y-56740297D01*
X149286450Y-56813878D01*
X149268376Y-56886035D01*
X149243316Y-56956073D01*
X149211512Y-57023318D01*
X149173269Y-57087121D01*
X149128958Y-57146869D01*
X149079003Y-57201985D01*
X149023886Y-57251940D01*
X148964138Y-57296252D01*
X148900335Y-57334494D01*
X148833090Y-57366299D01*
X148763052Y-57391359D01*
X148690895Y-57409433D01*
X148617314Y-57420348D01*
X148543017Y-57423998D01*
X148414018Y-57423998D01*
X147969746Y-57423998D01*
X147366031Y-57423998D01*
X146845907Y-57423998D01*
X144935690Y-57423998D01*
X144245288Y-57423998D01*
X143794823Y-57423998D01*
X141972842Y-57423998D01*
X140813399Y-57423998D01*
X140424854Y-57423998D01*
X139980582Y-57423998D01*
X139851583Y-57423998D01*
X139777286Y-57420348D01*
X139703705Y-57409433D01*
X139631548Y-57391359D01*
X139561510Y-57366299D01*
X139494265Y-57334494D01*
X139430462Y-57296252D01*
X139370714Y-57251940D01*
X139315597Y-57201985D01*
X139265642Y-57146869D01*
X139221331Y-57087121D01*
X139183088Y-57023318D01*
X139151284Y-56956073D01*
X139126224Y-56886035D01*
X139108150Y-56813878D01*
X139097235Y-56740297D01*
X139093585Y-56666000D01*
X139097235Y-56591703D01*
X139108150Y-56518122D01*
X139126224Y-56445965D01*
X139151284Y-56375927D01*
X139165643Y-56345567D01*
X139980582Y-56345567D01*
X140232904Y-56345567D01*
X140232904Y-57145876D01*
X140424854Y-57145876D01*
X140813399Y-57145876D01*
X141003802Y-57145876D01*
X141003802Y-56735659D01*
X141350551Y-56735659D01*
X141350551Y-56577765D01*
X141003802Y-56577765D01*
X141003802Y-56345567D01*
X141400086Y-56345567D01*
X141528569Y-56345567D01*
X141780891Y-56345567D01*
X141780891Y-57145876D01*
X141972842Y-57145876D01*
X141972842Y-56345567D01*
X142225164Y-56345567D01*
X142225164Y-56201604D01*
X143121449Y-56201604D01*
X143121449Y-57145876D01*
X143311851Y-57145876D01*
X143311851Y-56792935D01*
X143410922Y-56792935D01*
X143463360Y-56880590D01*
X143512315Y-56967084D01*
X143556627Y-57054738D01*
X143595133Y-57145876D01*
X143794823Y-57145876D01*
X143750706Y-57044483D01*
X143697300Y-56937672D01*
X143640024Y-56835505D01*
X143584297Y-56746495D01*
X143652021Y-56702765D01*
X143679773Y-56666000D01*
X143853647Y-56666000D01*
X143860613Y-56782293D01*
X143881511Y-56883492D01*
X143915179Y-56969406D01*
X143960458Y-57039839D01*
X144016766Y-57094793D01*
X144083523Y-57134266D01*
X144159955Y-57158067D01*
X144245288Y-57166000D01*
X144339908Y-57162130D01*
X144419436Y-57150520D01*
X144525473Y-57122656D01*
X144525473Y-56644328D01*
X144335071Y-56644328D01*
X144335071Y-56994173D01*
X144297919Y-56998817D01*
X144260767Y-57000365D01*
X144168275Y-56980048D01*
X144101325Y-56919096D01*
X144071225Y-56854854D01*
X144053165Y-56770489D01*
X144047145Y-56666000D01*
X144050435Y-56594986D01*
X144060303Y-56530551D01*
X144103647Y-56425288D01*
X144180272Y-56356402D01*
X144294823Y-56331635D01*
X144396990Y-56348663D01*
X144480582Y-56387362D01*
X144530117Y-56235659D01*
X144498384Y-56217084D01*
X144459220Y-56200056D01*
X144669436Y-56200056D01*
X144669436Y-57130396D01*
X144736387Y-57142587D01*
X144804111Y-57151294D01*
X144871062Y-57156519D01*
X144935690Y-57158260D01*
X145012122Y-57154584D01*
X145068492Y-57145876D01*
X146243740Y-57145876D01*
X146845907Y-57145876D01*
X146845907Y-56987981D01*
X146435690Y-56987981D01*
X146435690Y-56666000D01*
X146949622Y-56666000D01*
X146956298Y-56779100D01*
X146976325Y-56878461D01*
X147009703Y-56964084D01*
X147056433Y-57035969D01*
X147138304Y-57108208D01*
X147241504Y-57151552D01*
X147366031Y-57166000D01*
X147450589Y-57160776D01*
X147524699Y-57145102D01*
X147633833Y-57099437D01*
X147585845Y-56949282D01*
X147507672Y-56983337D01*
X147384607Y-57000365D01*
X147274119Y-56978500D01*
X147199622Y-56912904D01*
X147168232Y-56846083D01*
X147149398Y-56762233D01*
X147143120Y-56661356D01*
X147148345Y-56574669D01*
X147164018Y-56503461D01*
X147218198Y-56402068D01*
X147294049Y-56347889D01*
X147381511Y-56331635D01*
X147496836Y-56347889D01*
X147582749Y-56387362D01*
X147632285Y-56235659D01*
X147600551Y-56217084D01*
X147562522Y-56200056D01*
X147765411Y-56200056D01*
X147765411Y-57135040D01*
X147869901Y-57152842D01*
X147969746Y-57158260D01*
X148063206Y-57151488D01*
X148148538Y-57131170D01*
X148224196Y-57096147D01*
X148288631Y-57045257D01*
X148341069Y-56977726D01*
X148380737Y-56892780D01*
X148405698Y-56789259D01*
X148414018Y-56666000D01*
X148406472Y-56545450D01*
X148383833Y-56443864D01*
X148347648Y-56359885D01*
X148299467Y-56292161D01*
X148239289Y-56240497D01*
X148167114Y-56204700D01*
X148084877Y-56183802D01*
X147994514Y-56176836D01*
X147887702Y-56181480D01*
X147765411Y-56200056D01*
X147562522Y-56200056D01*
X147548693Y-56193864D01*
X147476712Y-56174514D01*
X147384607Y-56166000D01*
X147293856Y-56174320D01*
X147210458Y-56199282D01*
X147136154Y-56240303D01*
X147072687Y-56296805D01*
X147021023Y-56368206D01*
X146982130Y-56453926D01*
X146957749Y-56553384D01*
X146949622Y-56666000D01*
X146435690Y-56666000D01*
X146435690Y-56187672D01*
X146243740Y-56187672D01*
X146243740Y-57145876D01*
X145068492Y-57145876D01*
X145083523Y-57143554D01*
X145147764Y-57123817D01*
X145202718Y-57094019D01*
X145282439Y-57001139D01*
X145304498Y-56935930D01*
X145311851Y-56856402D01*
X145303144Y-56791387D01*
X145277021Y-56729467D01*
X145226518Y-56675288D01*
X145144668Y-56633492D01*
X145233678Y-56549901D01*
X145258639Y-56493399D01*
X145266959Y-56429158D01*
X145253028Y-56339375D01*
X145200396Y-56258105D01*
X145093585Y-56199282D01*
X145015411Y-56182447D01*
X144917114Y-56176836D01*
X144788631Y-56183802D01*
X144669436Y-56200056D01*
X144459220Y-56200056D01*
X144444978Y-56193864D01*
X144368353Y-56174514D01*
X144268507Y-56166000D01*
X144184529Y-56173933D01*
X144105969Y-56197734D01*
X144035148Y-56237401D01*
X143974390Y-56292935D01*
X143924467Y-56363949D01*
X143886154Y-56450056D01*
X143861774Y-56550868D01*
X143853647Y-56666000D01*
X143679773Y-56666000D01*
X143697300Y-56642780D01*
X143722842Y-56570799D01*
X143731356Y-56491077D01*
X143724970Y-56415807D01*
X143705814Y-56350985D01*
X143632285Y-56252687D01*
X143579653Y-56219019D01*
X143517733Y-56195412D01*
X143447300Y-56181480D01*
X143369127Y-56176836D01*
X143314947Y-56178384D01*
X143249932Y-56182254D01*
X143182594Y-56189994D01*
X143121449Y-56201604D01*
X142225164Y-56201604D01*
X142225164Y-56187672D01*
X141528569Y-56187672D01*
X141528569Y-56345567D01*
X141400086Y-56345567D01*
X141400086Y-56187672D01*
X140813399Y-56187672D01*
X140813399Y-57145876D01*
X140424854Y-57145876D01*
X140424854Y-56345567D01*
X140677176Y-56345567D01*
X140677176Y-56187672D01*
X139980582Y-56187672D01*
X139980582Y-56345567D01*
X139165643Y-56345567D01*
X139183088Y-56308682D01*
X139221331Y-56244879D01*
X139265642Y-56185131D01*
X139315597Y-56130015D01*
X139370714Y-56080060D01*
X139430462Y-56035748D01*
X139494265Y-55997506D01*
X139561510Y-55965701D01*
X139631548Y-55940641D01*
X139703705Y-55922567D01*
X139777286Y-55911652D01*
X139851583Y-55908002D01*
X139980582Y-55908002D01*
X148414018Y-55908002D01*
X148543017Y-55908002D01*
X148617314Y-55911652D01*
G37*
D13*
%TO.C,C3*%
X121794936Y-79497600D02*
X121579264Y-79497600D01*
X121794936Y-80217600D02*
X121579264Y-80217600D01*
D16*
%TO.C,kibuzzard-6642BE6C*%
G36*
X142508597Y-117406452D02*
G01*
X142582178Y-117417367D01*
X142654335Y-117435441D01*
X142724373Y-117460501D01*
X142791618Y-117492306D01*
X142855421Y-117530548D01*
X142915169Y-117574860D01*
X142970286Y-117624815D01*
X143020241Y-117679931D01*
X143064552Y-117739679D01*
X143102795Y-117803482D01*
X143134599Y-117870727D01*
X143159659Y-117940765D01*
X143177733Y-118012922D01*
X143188648Y-118086503D01*
X143192298Y-118160800D01*
X143188648Y-118235097D01*
X143177733Y-118308678D01*
X143159659Y-118380835D01*
X143134599Y-118450873D01*
X143102795Y-118518118D01*
X143064552Y-118581921D01*
X143020241Y-118641669D01*
X142970286Y-118696785D01*
X142915169Y-118746740D01*
X142855421Y-118791052D01*
X142791618Y-118829294D01*
X142724373Y-118861099D01*
X142654335Y-118886159D01*
X142582178Y-118904233D01*
X142508597Y-118915148D01*
X142434300Y-118918798D01*
X142305301Y-118918798D01*
X142037499Y-118918798D01*
X141520472Y-118918798D01*
X140114899Y-118918798D01*
X139985900Y-118918798D01*
X139911603Y-118915148D01*
X139838022Y-118904233D01*
X139765865Y-118886159D01*
X139695827Y-118861099D01*
X139628582Y-118829294D01*
X139564779Y-118791052D01*
X139505031Y-118746740D01*
X139449914Y-118696785D01*
X139399959Y-118641669D01*
X139355648Y-118581921D01*
X139317405Y-118518118D01*
X139285601Y-118450873D01*
X139260541Y-118380835D01*
X139242467Y-118308678D01*
X139231552Y-118235097D01*
X139227902Y-118160800D01*
X139231552Y-118086503D01*
X139242467Y-118012922D01*
X139260541Y-117940765D01*
X139285601Y-117870727D01*
X139299960Y-117840367D01*
X140114899Y-117840367D01*
X140323877Y-117840367D01*
X140323877Y-118482781D01*
X140114899Y-118482781D01*
X140114899Y-118640676D01*
X140723258Y-118640676D01*
X140723258Y-118482781D01*
X140515828Y-118482781D01*
X140515828Y-117840367D01*
X140723258Y-117840367D01*
X140723258Y-117787735D01*
X140871865Y-117787735D01*
X140966292Y-117920862D01*
X141063815Y-117848107D01*
X141158242Y-117826435D01*
X141248026Y-117858168D01*
X141283629Y-117948726D01*
X141254992Y-118030769D01*
X141182236Y-118114360D01*
X141136571Y-118158672D01*
X141087809Y-118204918D01*
X141039047Y-118254066D01*
X140993382Y-118307085D01*
X140953134Y-118364554D01*
X140920626Y-118427054D01*
X140899148Y-118495165D01*
X140891989Y-118569469D01*
X140891215Y-118601976D01*
X140895085Y-118640676D01*
X141520472Y-118640676D01*
X141520472Y-118482781D01*
X141108707Y-118482781D01*
X141124961Y-118431698D01*
X141164434Y-118376744D01*
X141213970Y-118324113D01*
X141260410Y-118279995D01*
X141339357Y-118202596D01*
X141374187Y-118160800D01*
X141621091Y-118160800D01*
X141627766Y-118273900D01*
X141647793Y-118373261D01*
X141681172Y-118458884D01*
X141727902Y-118530769D01*
X141809773Y-118603008D01*
X141912972Y-118646352D01*
X142037499Y-118660800D01*
X142122058Y-118655576D01*
X142196168Y-118639902D01*
X142305301Y-118594237D01*
X142257314Y-118444082D01*
X142179140Y-118478137D01*
X142056075Y-118495165D01*
X141945588Y-118473300D01*
X141871091Y-118407704D01*
X141839701Y-118340883D01*
X141820867Y-118257033D01*
X141814589Y-118156156D01*
X141819814Y-118069469D01*
X141835487Y-117998261D01*
X141889667Y-117896868D01*
X141965518Y-117842689D01*
X142052979Y-117826435D01*
X142168304Y-117842689D01*
X142254218Y-117882162D01*
X142303753Y-117730459D01*
X142272020Y-117711884D01*
X142220162Y-117688664D01*
X142148180Y-117669314D01*
X142056075Y-117660800D01*
X141965324Y-117669120D01*
X141881927Y-117694082D01*
X141807623Y-117735103D01*
X141744156Y-117791605D01*
X141692492Y-117863006D01*
X141653598Y-117948726D01*
X141629218Y-118048184D01*
X141621091Y-118160800D01*
X141374187Y-118160800D01*
X141409016Y-118119004D01*
X141458552Y-118029995D01*
X141477128Y-117934794D01*
X141452360Y-117814825D01*
X141385797Y-117728911D01*
X141289821Y-117677828D01*
X141176818Y-117660800D01*
X141096129Y-117668540D01*
X141015054Y-117691760D01*
X140938622Y-117731233D01*
X140871865Y-117787735D01*
X140723258Y-117787735D01*
X140723258Y-117682472D01*
X140114899Y-117682472D01*
X140114899Y-117840367D01*
X139299960Y-117840367D01*
X139317405Y-117803482D01*
X139355648Y-117739679D01*
X139399959Y-117679931D01*
X139449914Y-117624815D01*
X139505031Y-117574860D01*
X139564779Y-117530548D01*
X139628582Y-117492306D01*
X139695827Y-117460501D01*
X139765865Y-117435441D01*
X139838022Y-117417367D01*
X139911603Y-117406452D01*
X139985900Y-117402802D01*
X140114899Y-117402802D01*
X142305301Y-117402802D01*
X142434300Y-117402802D01*
X142508597Y-117406452D01*
G37*
D13*
%TO.C,D10*%
X144852100Y-115202600D02*
X144852100Y-116902600D01*
X144852100Y-115202600D02*
X147512100Y-115202600D01*
X144852100Y-116902600D02*
X147512100Y-116902600D01*
%TO.C,D6*%
X161422200Y-49038800D02*
X161422200Y-51723800D01*
X163342200Y-49038800D02*
X161422200Y-49038800D01*
X163342200Y-51723800D02*
X163342200Y-49038800D01*
%TO.C,C26*%
X143867620Y-72413400D02*
X144148780Y-72413400D01*
X143867620Y-73433400D02*
X144148780Y-73433400D01*
%TO.C,SW1*%
X108755000Y-96725000D02*
X108755000Y-96845000D01*
X108755000Y-97855000D02*
X108755000Y-98995000D01*
X108755000Y-100005000D02*
X108755000Y-100125000D01*
X108755000Y-100125000D02*
X113155000Y-100125000D01*
X113155000Y-96725000D02*
X108755000Y-96725000D01*
X113155000Y-96845000D02*
X113155000Y-96725000D01*
X113155000Y-98995000D02*
X113155000Y-97855000D01*
X113155000Y-100125000D02*
X113155000Y-100005000D01*
%TO.C,Y1*%
X146320100Y-69815200D02*
X146320100Y-72615200D01*
X146320100Y-72615200D02*
X149620100Y-72615200D01*
D16*
%TO.C,kibuzzard-6642BE85*%
G36*
X175637568Y-57326522D02*
G01*
X175662335Y-57422497D01*
X175683233Y-57517698D01*
X175701809Y-57616769D01*
X175514503Y-57616769D01*
X175533852Y-57517698D01*
X175555524Y-57422497D01*
X175580292Y-57326522D01*
X175608930Y-57223580D01*
X175637568Y-57326522D01*
G37*
G36*
X174944069Y-57606707D02*
G01*
X174988187Y-57706552D01*
X174972707Y-57775438D01*
X174933233Y-57817234D01*
X174878280Y-57837357D01*
X174814812Y-57842775D01*
X174767599Y-57841227D01*
X174723481Y-57836583D01*
X174723481Y-57576522D01*
X174825648Y-57576522D01*
X174944069Y-57606707D01*
G37*
G36*
X174861252Y-57196491D02*
G01*
X174904596Y-57211970D01*
X174934007Y-57244478D01*
X174944843Y-57299432D01*
X174907692Y-57386893D01*
X174797784Y-57418627D01*
X174723481Y-57418627D01*
X174723481Y-57198813D01*
X174765277Y-57194169D01*
X174810168Y-57192621D01*
X174861252Y-57196491D01*
G37*
G36*
X171753280Y-57201522D02*
G01*
X171807072Y-57228224D01*
X171841902Y-57273890D01*
X171853512Y-57339679D01*
X171810168Y-57447265D01*
X171753280Y-57475709D01*
X171669301Y-57485190D01*
X171627506Y-57485190D01*
X171627506Y-57197265D01*
X171658465Y-57193395D01*
X171684781Y-57192621D01*
X171753280Y-57201522D01*
G37*
G36*
X178141094Y-57516150D02*
G01*
X177635762Y-58274148D01*
X177506763Y-58274148D01*
X177254441Y-58274148D01*
X176480447Y-58274148D01*
X175779209Y-58274148D01*
X174799332Y-58274148D01*
X174274565Y-58274148D01*
X173359704Y-58274148D01*
X172610478Y-58274148D01*
X172110478Y-58274148D01*
X171437103Y-58274148D01*
X171308104Y-58274148D01*
X171233808Y-58270498D01*
X171160226Y-58259583D01*
X171088069Y-58241509D01*
X171018031Y-58216449D01*
X170950787Y-58184644D01*
X170886983Y-58146402D01*
X170827235Y-58102090D01*
X170772119Y-58052135D01*
X170722164Y-57997019D01*
X170677852Y-57937271D01*
X170639610Y-57873468D01*
X170607806Y-57806223D01*
X170582746Y-57736185D01*
X170564671Y-57664028D01*
X170553756Y-57590447D01*
X170550106Y-57516150D01*
X170553756Y-57441853D01*
X170564671Y-57368272D01*
X170582746Y-57296115D01*
X170607806Y-57226077D01*
X170639610Y-57158832D01*
X170677852Y-57095029D01*
X170709947Y-57051754D01*
X171437103Y-57051754D01*
X171437103Y-57996026D01*
X171627506Y-57996026D01*
X171627506Y-57643085D01*
X171726577Y-57643085D01*
X171779015Y-57730740D01*
X171827970Y-57817234D01*
X171872281Y-57904888D01*
X171910787Y-57996026D01*
X172110478Y-57996026D01*
X172066360Y-57894633D01*
X172012955Y-57787822D01*
X171955679Y-57685655D01*
X171899952Y-57596645D01*
X171967676Y-57552915D01*
X172012955Y-57492930D01*
X172038496Y-57420949D01*
X172047010Y-57341227D01*
X172040625Y-57265957D01*
X172021469Y-57201135D01*
X172017416Y-57195717D01*
X172166205Y-57195717D01*
X172418527Y-57195717D01*
X172418527Y-57996026D01*
X172610478Y-57996026D01*
X172610478Y-57516150D01*
X172943295Y-57516150D01*
X172949971Y-57629250D01*
X172969998Y-57728611D01*
X173003376Y-57814234D01*
X173050106Y-57886119D01*
X173131978Y-57958358D01*
X173235177Y-58001702D01*
X173359704Y-58016150D01*
X173444263Y-58010926D01*
X173518373Y-57995252D01*
X173627506Y-57949587D01*
X173579518Y-57799432D01*
X173501345Y-57833487D01*
X173378280Y-57850515D01*
X173267792Y-57828650D01*
X173193295Y-57763054D01*
X173161905Y-57696233D01*
X173161094Y-57692621D01*
X173850416Y-57692621D01*
X174274565Y-57692621D01*
X174274565Y-57505314D01*
X173850416Y-57505314D01*
X173850416Y-57692621D01*
X173161094Y-57692621D01*
X173143072Y-57612383D01*
X173136794Y-57511506D01*
X173142018Y-57424819D01*
X173157692Y-57353611D01*
X173211871Y-57252218D01*
X173287722Y-57198039D01*
X173375184Y-57181785D01*
X173490509Y-57198039D01*
X173576422Y-57237512D01*
X173625958Y-57085809D01*
X173594224Y-57067234D01*
X173556195Y-57050206D01*
X174533079Y-57050206D01*
X174533079Y-57980546D01*
X174600029Y-57992737D01*
X174667753Y-58001444D01*
X174734704Y-58006669D01*
X174799332Y-58008410D01*
X174875764Y-58004734D01*
X174932134Y-57996026D01*
X175237413Y-57996026D01*
X175435555Y-57996026D01*
X175478899Y-57774664D01*
X175734317Y-57774664D01*
X175779209Y-57996026D01*
X175983543Y-57996026D01*
X175958001Y-57887388D01*
X175932150Y-57781909D01*
X175905989Y-57679587D01*
X175879518Y-57580422D01*
X175852738Y-57484416D01*
X175819021Y-57367979D01*
X175785207Y-57254734D01*
X175767022Y-57195717D01*
X176036174Y-57195717D01*
X176288496Y-57195717D01*
X176288496Y-57996026D01*
X176480447Y-57996026D01*
X176480447Y-57195717D01*
X176732769Y-57195717D01*
X176810168Y-57195717D01*
X177062490Y-57195717D01*
X177062490Y-57996026D01*
X177254441Y-57996026D01*
X177254441Y-57195717D01*
X177506763Y-57195717D01*
X177506763Y-57037822D01*
X176810168Y-57037822D01*
X176810168Y-57195717D01*
X176732769Y-57195717D01*
X176732769Y-57037822D01*
X176036174Y-57037822D01*
X176036174Y-57195717D01*
X175767022Y-57195717D01*
X175751296Y-57144681D01*
X175717289Y-57037822D01*
X175509859Y-57037822D01*
X175477061Y-57143811D01*
X175443682Y-57252799D01*
X175409723Y-57364786D01*
X175375184Y-57479772D01*
X175347382Y-57574974D01*
X175319704Y-57674200D01*
X175292150Y-57777450D01*
X175264719Y-57884726D01*
X175237413Y-57996026D01*
X174932134Y-57996026D01*
X174947165Y-57993704D01*
X175011407Y-57973967D01*
X175066360Y-57944169D01*
X175146082Y-57851289D01*
X175168140Y-57786080D01*
X175175493Y-57706552D01*
X175166786Y-57641537D01*
X175140664Y-57579617D01*
X175090161Y-57525438D01*
X175008311Y-57483642D01*
X175097320Y-57400051D01*
X175122281Y-57343549D01*
X175130602Y-57279308D01*
X175116670Y-57189525D01*
X175064038Y-57108255D01*
X174957227Y-57049432D01*
X174879054Y-57032597D01*
X174780757Y-57026986D01*
X174652274Y-57033952D01*
X174533079Y-57050206D01*
X173556195Y-57050206D01*
X173542366Y-57044014D01*
X173470385Y-57024664D01*
X173378280Y-57016150D01*
X173287529Y-57024470D01*
X173204131Y-57049432D01*
X173129828Y-57090453D01*
X173066360Y-57146955D01*
X173014696Y-57218356D01*
X172975803Y-57304076D01*
X172951422Y-57403534D01*
X172943295Y-57516150D01*
X172610478Y-57516150D01*
X172610478Y-57195717D01*
X172862800Y-57195717D01*
X172862800Y-57037822D01*
X172166205Y-57037822D01*
X172166205Y-57195717D01*
X172017416Y-57195717D01*
X171947939Y-57102837D01*
X171895308Y-57069169D01*
X171833388Y-57045562D01*
X171762955Y-57031630D01*
X171684781Y-57026986D01*
X171630602Y-57028534D01*
X171565586Y-57032404D01*
X171498249Y-57040144D01*
X171437103Y-57051754D01*
X170709947Y-57051754D01*
X170722164Y-57035281D01*
X170772119Y-56980165D01*
X170827235Y-56930210D01*
X170886983Y-56885898D01*
X170950787Y-56847656D01*
X171018031Y-56815851D01*
X171088069Y-56790791D01*
X171160226Y-56772717D01*
X171233808Y-56761802D01*
X171308104Y-56758152D01*
X171437103Y-56758152D01*
X177506763Y-56758152D01*
X177635762Y-56758152D01*
X178141094Y-57516150D01*
G37*
D13*
%TO.C,R2*%
X171857400Y-92226759D02*
X171857400Y-92534041D01*
X172617400Y-92226759D02*
X172617400Y-92534041D01*
%TO.C,D9*%
X129732600Y-118186200D02*
X129732600Y-117536200D01*
X129732600Y-118186200D02*
X129732600Y-118836200D01*
X132852600Y-118186200D02*
X132852600Y-117536200D01*
X132852600Y-118186200D02*
X132852600Y-118836200D01*
X129782600Y-119348700D02*
X129452600Y-119588700D01*
X129452600Y-119108700D01*
X129782600Y-119348700D01*
G36*
X129782600Y-119348700D02*
G01*
X129452600Y-119588700D01*
X129452600Y-119108700D01*
X129782600Y-119348700D01*
G37*
D16*
%TO.C,kibuzzard-6644A0DC*%
G36*
X113981011Y-71133572D02*
G01*
X114005779Y-71229547D01*
X114026677Y-71324748D01*
X114045252Y-71423819D01*
X113857946Y-71423819D01*
X113877296Y-71324748D01*
X113898968Y-71229547D01*
X113923735Y-71133572D01*
X113952373Y-71030630D01*
X113981011Y-71133572D01*
G37*
G36*
X116288674Y-71008572D02*
G01*
X116342466Y-71035274D01*
X116377296Y-71080940D01*
X116388906Y-71146729D01*
X116345562Y-71254315D01*
X116288674Y-71282759D01*
X116204695Y-71292240D01*
X116162900Y-71292240D01*
X116162900Y-71004315D01*
X116193859Y-71000445D01*
X116220175Y-70999671D01*
X116288674Y-71008572D01*
G37*
G36*
X112455663Y-71008378D02*
G01*
X112508875Y-71034500D01*
X112543124Y-71081520D01*
X112554540Y-71152921D01*
X112542930Y-71228192D01*
X112508101Y-71277534D01*
X112450438Y-71304818D01*
X112370330Y-71313912D01*
X112292930Y-71313912D01*
X112292930Y-71004315D01*
X112340144Y-71000445D01*
X112387358Y-70999671D01*
X112455663Y-71008378D01*
G37*
G36*
X116849167Y-70568852D02*
G01*
X116922749Y-70579767D01*
X116994906Y-70597841D01*
X117064944Y-70622901D01*
X117132188Y-70654706D01*
X117195992Y-70692948D01*
X117255739Y-70737260D01*
X117310856Y-70787215D01*
X117360811Y-70842331D01*
X117405123Y-70902079D01*
X117443365Y-70965882D01*
X117475169Y-71033127D01*
X117500229Y-71103165D01*
X117518304Y-71175322D01*
X117529219Y-71248903D01*
X117532869Y-71323200D01*
X117529219Y-71397497D01*
X117518304Y-71471078D01*
X117500229Y-71543235D01*
X117475169Y-71613273D01*
X117443365Y-71680518D01*
X117405123Y-71744321D01*
X117360811Y-71804069D01*
X117310856Y-71859185D01*
X117255739Y-71909140D01*
X117195992Y-71953452D01*
X117132188Y-71991694D01*
X117064944Y-72023499D01*
X116994906Y-72048559D01*
X116922749Y-72066633D01*
X116849167Y-72077548D01*
X116774871Y-72081198D01*
X116645872Y-72081198D01*
X115212435Y-72081198D01*
X114882714Y-72081198D01*
X114122652Y-72081198D01*
X112890454Y-72081198D01*
X112292930Y-72081198D01*
X111604076Y-72081198D01*
X111306862Y-72081198D01*
X111177863Y-72081198D01*
X110957361Y-71750445D01*
X111306862Y-71750445D01*
X111413674Y-71797658D01*
X111496878Y-71816815D01*
X111604076Y-71823200D01*
X111712693Y-71815030D01*
X111801186Y-71790520D01*
X111869556Y-71749671D01*
X111935152Y-71660855D01*
X111957017Y-71541466D01*
X111950438Y-71469291D01*
X111930701Y-71410661D01*
X111863364Y-71323974D01*
X111773581Y-71268246D01*
X111679927Y-71230321D01*
X111620330Y-71207101D01*
X111566150Y-71178463D01*
X111526677Y-71141311D01*
X111511197Y-71092550D01*
X111528053Y-71031490D01*
X111578620Y-70994855D01*
X111662900Y-70982643D01*
X111772033Y-70998123D01*
X111857946Y-71035274D01*
X111913674Y-70888215D01*
X111837342Y-70857256D01*
X112102528Y-70857256D01*
X112102528Y-71803076D01*
X112292930Y-71803076D01*
X112890454Y-71803076D01*
X113505005Y-71803076D01*
X113580856Y-71803076D01*
X113778999Y-71803076D01*
X113822342Y-71581714D01*
X114077760Y-71581714D01*
X114122652Y-71803076D01*
X114326986Y-71803076D01*
X114410578Y-71803076D01*
X114600980Y-71803076D01*
X114600980Y-71364996D01*
X114682249Y-71452457D01*
X114723852Y-71506250D01*
X114763519Y-71563912D01*
X114800477Y-71624284D01*
X114833952Y-71686203D01*
X114882714Y-71803076D01*
X115097884Y-71803076D01*
X115212435Y-71803076D01*
X115826986Y-71803076D01*
X115826986Y-71645181D01*
X115402838Y-71645181D01*
X115402838Y-71375832D01*
X115741847Y-71375832D01*
X115741847Y-71217937D01*
X115402838Y-71217937D01*
X115402838Y-71002767D01*
X115792930Y-71002767D01*
X115792930Y-70858804D01*
X115972497Y-70858804D01*
X115972497Y-71803076D01*
X116162900Y-71803076D01*
X116162900Y-71450135D01*
X116261971Y-71450135D01*
X116314409Y-71537790D01*
X116363364Y-71624284D01*
X116407675Y-71711938D01*
X116446181Y-71803076D01*
X116645872Y-71803076D01*
X116601754Y-71701683D01*
X116548348Y-71594872D01*
X116491073Y-71492705D01*
X116435345Y-71403695D01*
X116503070Y-71359965D01*
X116548348Y-71299980D01*
X116573890Y-71227999D01*
X116582404Y-71148277D01*
X116576019Y-71073007D01*
X116556862Y-71008185D01*
X116483333Y-70909887D01*
X116430701Y-70876219D01*
X116368782Y-70852612D01*
X116298348Y-70838680D01*
X116220175Y-70834036D01*
X116165995Y-70835584D01*
X116100980Y-70839454D01*
X116033643Y-70847194D01*
X115972497Y-70858804D01*
X115792930Y-70858804D01*
X115792930Y-70844872D01*
X115212435Y-70844872D01*
X115212435Y-71803076D01*
X115097884Y-71803076D01*
X115072729Y-71733997D01*
X115040608Y-71662983D01*
X115002876Y-71591776D01*
X114960887Y-71522116D01*
X114915415Y-71455359D01*
X114867234Y-71392859D01*
X114818085Y-71335971D01*
X114769711Y-71286048D01*
X114816731Y-71229160D01*
X114861816Y-71169949D01*
X114904579Y-71110158D01*
X114944633Y-71051528D01*
X114981204Y-70994640D01*
X115013519Y-70940073D01*
X115065376Y-70844872D01*
X114850206Y-70844872D01*
X114803766Y-70937751D01*
X114742621Y-71041466D01*
X114672187Y-71146729D01*
X114600980Y-71242705D01*
X114600980Y-70844872D01*
X114410578Y-70844872D01*
X114410578Y-71803076D01*
X114326986Y-71803076D01*
X114301444Y-71694438D01*
X114275593Y-71588959D01*
X114249432Y-71486637D01*
X114222961Y-71387472D01*
X114196181Y-71291466D01*
X114162464Y-71175029D01*
X114128650Y-71061784D01*
X114094740Y-70951731D01*
X114060732Y-70844872D01*
X113853302Y-70844872D01*
X113820504Y-70950861D01*
X113787126Y-71059849D01*
X113753167Y-71171836D01*
X113718627Y-71286822D01*
X113690825Y-71382024D01*
X113663147Y-71481250D01*
X113635593Y-71584500D01*
X113608163Y-71691776D01*
X113580856Y-71803076D01*
X113505005Y-71803076D01*
X113505005Y-71645181D01*
X113080856Y-71645181D01*
X113080856Y-71375832D01*
X113419865Y-71375832D01*
X113419865Y-71217937D01*
X113080856Y-71217937D01*
X113080856Y-71002767D01*
X113470949Y-71002767D01*
X113470949Y-70844872D01*
X112890454Y-70844872D01*
X112890454Y-71803076D01*
X112292930Y-71803076D01*
X112292930Y-71479547D01*
X112361042Y-71479547D01*
X112475507Y-71471033D01*
X112571224Y-71445491D01*
X112648194Y-71402921D01*
X112704523Y-71341260D01*
X112738321Y-71258443D01*
X112749587Y-71154469D01*
X112738407Y-71051528D01*
X112704867Y-70969743D01*
X112648968Y-70909113D01*
X112572772Y-70867404D01*
X112478345Y-70842378D01*
X112365686Y-70834036D01*
X112305314Y-70835584D01*
X112235655Y-70839454D01*
X112165221Y-70846420D01*
X112102528Y-70857256D01*
X111837342Y-70857256D01*
X111802992Y-70843324D01*
X111731591Y-70828231D01*
X111648968Y-70823200D01*
X111554110Y-70831628D01*
X111473873Y-70856912D01*
X111408256Y-70899051D01*
X111342660Y-70989609D01*
X111320794Y-71109578D01*
X111345562Y-71223355D01*
X111408256Y-71299980D01*
X111492621Y-71351064D01*
X111582404Y-71386667D01*
X111647420Y-71413757D01*
X111706243Y-71446265D01*
X111749587Y-71487287D01*
X111766615Y-71539918D01*
X111759649Y-71585584D01*
X111734107Y-71625832D01*
X111683797Y-71653695D01*
X111604076Y-71663757D01*
X111526870Y-71658339D01*
X111462435Y-71642085D01*
X111362590Y-71595646D01*
X111306862Y-71750445D01*
X110957361Y-71750445D01*
X110672531Y-71323200D01*
X111177863Y-70565202D01*
X111306862Y-70565202D01*
X116645872Y-70565202D01*
X116774871Y-70565202D01*
X116849167Y-70568852D01*
G37*
D13*
%TO.C,SW4*%
X108755000Y-113997000D02*
X108755000Y-114117000D01*
X108755000Y-115127000D02*
X108755000Y-116267000D01*
X108755000Y-117277000D02*
X108755000Y-117397000D01*
X108755000Y-117397000D02*
X113155000Y-117397000D01*
X113155000Y-113997000D02*
X108755000Y-113997000D01*
X113155000Y-114117000D02*
X113155000Y-113997000D01*
X113155000Y-116267000D02*
X113155000Y-115127000D01*
X113155000Y-117397000D02*
X113155000Y-117277000D01*
%TO.C,R17*%
X146533600Y-74674759D02*
X146533600Y-74982041D01*
X147293600Y-74674759D02*
X147293600Y-74982041D01*
%TO.C,R26*%
X119660641Y-56285200D02*
X119353359Y-56285200D01*
X119660641Y-57045200D02*
X119353359Y-57045200D01*
%TO.C,R21*%
X136749300Y-111285241D02*
X136749300Y-110977959D01*
X137509300Y-111285241D02*
X137509300Y-110977959D01*
%TO.C,R8*%
X163701759Y-103295000D02*
X164009041Y-103295000D01*
X163701759Y-104055000D02*
X164009041Y-104055000D01*
D16*
%TO.C,G\u002A\u002A\u002A*%
G36*
X133000057Y-58610367D02*
G01*
X133058064Y-58679807D01*
X133069130Y-58842257D01*
X133057395Y-59007253D01*
X132997876Y-59074928D01*
X132858632Y-59087838D01*
X132717207Y-59074147D01*
X132659201Y-59004708D01*
X132648135Y-58842257D01*
X132659870Y-58677262D01*
X132719389Y-58609587D01*
X132858632Y-58596677D01*
X133000057Y-58610367D01*
G37*
G36*
X133000057Y-59662854D02*
G01*
X133058064Y-59732293D01*
X133069130Y-59894744D01*
X133057395Y-60059739D01*
X132997876Y-60127414D01*
X132858632Y-60140324D01*
X132717207Y-60126634D01*
X132659201Y-60057194D01*
X132648135Y-59894744D01*
X132659870Y-59729748D01*
X132719389Y-59662073D01*
X132858632Y-59649164D01*
X133000057Y-59662854D01*
G37*
G36*
X133000057Y-60715340D02*
G01*
X133058064Y-60784779D01*
X133069130Y-60947230D01*
X133057395Y-61112226D01*
X132997876Y-61179900D01*
X132858632Y-61192810D01*
X132717207Y-61179120D01*
X132659201Y-61109680D01*
X132648135Y-60947230D01*
X132659870Y-60782234D01*
X132719389Y-60714560D01*
X132858632Y-60701650D01*
X133000057Y-60715340D01*
G37*
G36*
X133007728Y-59175389D02*
G01*
X133062681Y-59257401D01*
X133069130Y-59368501D01*
X133051743Y-59517596D01*
X132969732Y-59572549D01*
X132858632Y-59578998D01*
X132709537Y-59561612D01*
X132654584Y-59479600D01*
X132648135Y-59368501D01*
X132665521Y-59219405D01*
X132747533Y-59164452D01*
X132858632Y-59158003D01*
X133007728Y-59175389D01*
G37*
G36*
X133007728Y-60227876D02*
G01*
X133062681Y-60309887D01*
X133069130Y-60420987D01*
X133051743Y-60570082D01*
X132969732Y-60625035D01*
X132858632Y-60631484D01*
X132709537Y-60614098D01*
X132654584Y-60532086D01*
X132648135Y-60420987D01*
X132665521Y-60271892D01*
X132747533Y-60216938D01*
X132858632Y-60210489D01*
X133007728Y-60227876D01*
G37*
G36*
X133549871Y-58117251D02*
G01*
X133617546Y-58176771D01*
X133630456Y-58316014D01*
X133616766Y-58457439D01*
X133547326Y-58515446D01*
X133384876Y-58526512D01*
X133219880Y-58514777D01*
X133152205Y-58455258D01*
X133139295Y-58316014D01*
X133152986Y-58174589D01*
X133222425Y-58116583D01*
X133384876Y-58105517D01*
X133549871Y-58117251D01*
G37*
G36*
X133549871Y-59169738D02*
G01*
X133617546Y-59229257D01*
X133630456Y-59368501D01*
X133616766Y-59509926D01*
X133547326Y-59567932D01*
X133384876Y-59578998D01*
X133219880Y-59567263D01*
X133152205Y-59507744D01*
X133139295Y-59368501D01*
X133152986Y-59227076D01*
X133222425Y-59169069D01*
X133384876Y-59158003D01*
X133549871Y-59169738D01*
G37*
G36*
X133549871Y-60222224D02*
G01*
X133617546Y-60281743D01*
X133630456Y-60420987D01*
X133616766Y-60562412D01*
X133547326Y-60620418D01*
X133384876Y-60631484D01*
X133219880Y-60619750D01*
X133152205Y-60560230D01*
X133139295Y-60420987D01*
X133152986Y-60279562D01*
X133222425Y-60221555D01*
X133384876Y-60210489D01*
X133549871Y-60222224D01*
G37*
G36*
X133549871Y-61274710D02*
G01*
X133617546Y-61334230D01*
X133630456Y-61473473D01*
X133616766Y-61614898D01*
X133547326Y-61672905D01*
X133384876Y-61683970D01*
X133219880Y-61672236D01*
X133152205Y-61612716D01*
X133139295Y-61473473D01*
X133152986Y-61332048D01*
X133222425Y-61274041D01*
X133384876Y-61262976D01*
X133549871Y-61274710D01*
G37*
G36*
X133621921Y-60761304D02*
G01*
X133619060Y-60910767D01*
X133617718Y-60924884D01*
X133582086Y-61090408D01*
X133492763Y-61162667D01*
X133402018Y-61179968D01*
X133230355Y-61161227D01*
X133168045Y-61096359D01*
X133141259Y-60895984D01*
X133235591Y-60764969D01*
X133407795Y-60714387D01*
X133564601Y-60708982D01*
X133621921Y-60761304D01*
G37*
G36*
X134060214Y-58122903D02*
G01*
X134115167Y-58204915D01*
X134121616Y-58316014D01*
X134104230Y-58465109D01*
X134022218Y-58520063D01*
X133911119Y-58526512D01*
X133762023Y-58509125D01*
X133707070Y-58427114D01*
X133700621Y-58316014D01*
X133718008Y-58166919D01*
X133800019Y-58111966D01*
X133911119Y-58105517D01*
X134060214Y-58122903D01*
G37*
G36*
X134060214Y-61280362D02*
G01*
X134115167Y-61362373D01*
X134121616Y-61473473D01*
X134104230Y-61622568D01*
X134022218Y-61677521D01*
X133911119Y-61683970D01*
X133762023Y-61666584D01*
X133707070Y-61584572D01*
X133700621Y-61473473D01*
X133718008Y-61324378D01*
X133800019Y-61269424D01*
X133911119Y-61262976D01*
X134060214Y-61280362D01*
G37*
G36*
X134602358Y-58117251D02*
G01*
X134670032Y-58176771D01*
X134682942Y-58316014D01*
X134669252Y-58457439D01*
X134599812Y-58515446D01*
X134437362Y-58526512D01*
X134272366Y-58514777D01*
X134204691Y-58455258D01*
X134191782Y-58316014D01*
X134205472Y-58174589D01*
X134274911Y-58116583D01*
X134437362Y-58105517D01*
X134602358Y-58117251D01*
G37*
G36*
X134602358Y-61274710D02*
G01*
X134670032Y-61334230D01*
X134682942Y-61473473D01*
X134669252Y-61614898D01*
X134599812Y-61672905D01*
X134437362Y-61683970D01*
X134272366Y-61672236D01*
X134204691Y-61612716D01*
X134191782Y-61473473D01*
X134205472Y-61332048D01*
X134274911Y-61274041D01*
X134437362Y-61262976D01*
X134602358Y-61274710D01*
G37*
G36*
X135105030Y-58610367D02*
G01*
X135163036Y-58679807D01*
X135174102Y-58842257D01*
X135162368Y-59007253D01*
X135102848Y-59074928D01*
X134963605Y-59087838D01*
X134822180Y-59074147D01*
X134764173Y-59004708D01*
X134753108Y-58842257D01*
X134764842Y-58677262D01*
X134824361Y-58609587D01*
X134963605Y-58596677D01*
X135105030Y-58610367D01*
G37*
G36*
X135105030Y-60715340D02*
G01*
X135163036Y-60784779D01*
X135174102Y-60947230D01*
X135162368Y-61112226D01*
X135102848Y-61179900D01*
X134963605Y-61192810D01*
X134822180Y-61179120D01*
X134764173Y-61109680D01*
X134753108Y-60947230D01*
X134764842Y-60782234D01*
X134824361Y-60714560D01*
X134963605Y-60701650D01*
X135105030Y-60715340D01*
G37*
G36*
X135112700Y-58122903D02*
G01*
X135167653Y-58204915D01*
X135174102Y-58316014D01*
X135156716Y-58465109D01*
X135074704Y-58520063D01*
X134963605Y-58526512D01*
X134814510Y-58509125D01*
X134759556Y-58427114D01*
X134753108Y-58316014D01*
X134770494Y-58166919D01*
X134852505Y-58111966D01*
X134963605Y-58105517D01*
X135112700Y-58122903D01*
G37*
G36*
X135112700Y-61280362D02*
G01*
X135167653Y-61362373D01*
X135174102Y-61473473D01*
X135156716Y-61622568D01*
X135074704Y-61677521D01*
X134963605Y-61683970D01*
X134814510Y-61666584D01*
X134759556Y-61584572D01*
X134753108Y-61473473D01*
X134770494Y-61324378D01*
X134852505Y-61269424D01*
X134963605Y-61262976D01*
X135112700Y-61280362D01*
G37*
G36*
X135726893Y-58656332D02*
G01*
X135724033Y-58805794D01*
X135722690Y-58819912D01*
X135687058Y-58985436D01*
X135597736Y-59057694D01*
X135506990Y-59074995D01*
X135335328Y-59056255D01*
X135273018Y-58991387D01*
X135246232Y-58791012D01*
X135340564Y-58659996D01*
X135512768Y-58609415D01*
X135669573Y-58604010D01*
X135726893Y-58656332D01*
G37*
G36*
X136578510Y-58610367D02*
G01*
X136636517Y-58679807D01*
X136647583Y-58842257D01*
X136635848Y-59007253D01*
X136576329Y-59074928D01*
X136437085Y-59087838D01*
X136295660Y-59074147D01*
X136237654Y-59004708D01*
X136226588Y-58842257D01*
X136238323Y-58677262D01*
X136297842Y-58609587D01*
X136437085Y-58596677D01*
X136578510Y-58610367D01*
G37*
G36*
X136578510Y-59662854D02*
G01*
X136636517Y-59732293D01*
X136647583Y-59894744D01*
X136635848Y-60059739D01*
X136576329Y-60127414D01*
X136437085Y-60140324D01*
X136295660Y-60126634D01*
X136237654Y-60057194D01*
X136226588Y-59894744D01*
X136238323Y-59729748D01*
X136297842Y-59662073D01*
X136437085Y-59649164D01*
X136578510Y-59662854D01*
G37*
G36*
X136578510Y-60715340D02*
G01*
X136636517Y-60784779D01*
X136647583Y-60947230D01*
X136635848Y-61112226D01*
X136576329Y-61179900D01*
X136437085Y-61192810D01*
X136295660Y-61179120D01*
X136237654Y-61109680D01*
X136226588Y-60947230D01*
X136238323Y-60782234D01*
X136297842Y-60714560D01*
X136437085Y-60701650D01*
X136578510Y-60715340D01*
G37*
G36*
X136586181Y-58122903D02*
G01*
X136641134Y-58204915D01*
X136647583Y-58316014D01*
X136630197Y-58465109D01*
X136548185Y-58520063D01*
X136437085Y-58526512D01*
X136287990Y-58509125D01*
X136233037Y-58427114D01*
X136226588Y-58316014D01*
X136243974Y-58166919D01*
X136325986Y-58111966D01*
X136437085Y-58105517D01*
X136586181Y-58122903D01*
G37*
G36*
X136586181Y-59175389D02*
G01*
X136641134Y-59257401D01*
X136647583Y-59368501D01*
X136630197Y-59517596D01*
X136548185Y-59572549D01*
X136437085Y-59578998D01*
X136287990Y-59561612D01*
X136233037Y-59479600D01*
X136226588Y-59368501D01*
X136243974Y-59219405D01*
X136325986Y-59164452D01*
X136437085Y-59158003D01*
X136586181Y-59175389D01*
G37*
G36*
X136586181Y-60227876D02*
G01*
X136641134Y-60309887D01*
X136647583Y-60420987D01*
X136630197Y-60570082D01*
X136548185Y-60625035D01*
X136437085Y-60631484D01*
X136287990Y-60614098D01*
X136233037Y-60532086D01*
X136226588Y-60420987D01*
X136243974Y-60271892D01*
X136325986Y-60216938D01*
X136437085Y-60210489D01*
X136586181Y-60227876D01*
G37*
G36*
X136586181Y-61280362D02*
G01*
X136641134Y-61362373D01*
X136647583Y-61473473D01*
X136630197Y-61622568D01*
X136548185Y-61677521D01*
X136437085Y-61683970D01*
X136287990Y-61666584D01*
X136233037Y-61584572D01*
X136226588Y-61473473D01*
X136243974Y-61324378D01*
X136325986Y-61269424D01*
X136437085Y-61262976D01*
X136586181Y-61280362D01*
G37*
G36*
X137128324Y-58117251D02*
G01*
X137195999Y-58176771D01*
X137208909Y-58316014D01*
X137195219Y-58457439D01*
X137125779Y-58515446D01*
X136963329Y-58526512D01*
X136798333Y-58514777D01*
X136730658Y-58455258D01*
X136717748Y-58316014D01*
X136731439Y-58174589D01*
X136800878Y-58116583D01*
X136963329Y-58105517D01*
X137128324Y-58117251D01*
G37*
G36*
X137128324Y-59169738D02*
G01*
X137195999Y-59229257D01*
X137208909Y-59368501D01*
X137195219Y-59509926D01*
X137125779Y-59567932D01*
X136963329Y-59578998D01*
X136798333Y-59567263D01*
X136730658Y-59507744D01*
X136717748Y-59368501D01*
X136731439Y-59227076D01*
X136800878Y-59169069D01*
X136963329Y-59158003D01*
X137128324Y-59169738D01*
G37*
G36*
X137128324Y-60222224D02*
G01*
X137195999Y-60281743D01*
X137208909Y-60420987D01*
X137195219Y-60562412D01*
X137125779Y-60620418D01*
X136963329Y-60631484D01*
X136798333Y-60619750D01*
X136730658Y-60560230D01*
X136717748Y-60420987D01*
X136731439Y-60279562D01*
X136800878Y-60221555D01*
X136963329Y-60210489D01*
X137128324Y-60222224D01*
G37*
G36*
X137128324Y-61274710D02*
G01*
X137195999Y-61334230D01*
X137208909Y-61473473D01*
X137195219Y-61614898D01*
X137125779Y-61672905D01*
X136963329Y-61683970D01*
X136798333Y-61672236D01*
X136730658Y-61612716D01*
X136717748Y-61473473D01*
X136731439Y-61332048D01*
X136800878Y-61274041D01*
X136963329Y-61262976D01*
X137128324Y-61274710D01*
G37*
G36*
X137200374Y-60761304D02*
G01*
X137197513Y-60910767D01*
X137196171Y-60924884D01*
X137160539Y-61090408D01*
X137071216Y-61162667D01*
X136980471Y-61179968D01*
X136808808Y-61161227D01*
X136746498Y-61096359D01*
X136719712Y-60895984D01*
X136814044Y-60764969D01*
X136986248Y-60714387D01*
X137143054Y-60708982D01*
X137200374Y-60761304D01*
G37*
G36*
X137638667Y-59175389D02*
G01*
X137693620Y-59257401D01*
X137700069Y-59368501D01*
X137682683Y-59517596D01*
X137600671Y-59572549D01*
X137489572Y-59578998D01*
X137340477Y-59561612D01*
X137285523Y-59479600D01*
X137279074Y-59368501D01*
X137296461Y-59219405D01*
X137378472Y-59164452D01*
X137489572Y-59158003D01*
X137638667Y-59175389D01*
G37*
G36*
X138180811Y-59169738D02*
G01*
X138248485Y-59229257D01*
X138261395Y-59368501D01*
X138247705Y-59509926D01*
X138178265Y-59567932D01*
X138015815Y-59578998D01*
X137850819Y-59567263D01*
X137783145Y-59507744D01*
X137770235Y-59368501D01*
X137783925Y-59227076D01*
X137853364Y-59169069D01*
X138015815Y-59158003D01*
X138180811Y-59169738D01*
G37*
G36*
X138321142Y-64642666D02*
G01*
X138388816Y-64702185D01*
X138401726Y-64841429D01*
X138388036Y-64982854D01*
X138318597Y-65040860D01*
X138156146Y-65051926D01*
X137991150Y-65040192D01*
X137923476Y-64980672D01*
X137910566Y-64841429D01*
X137924256Y-64700004D01*
X137993696Y-64641997D01*
X138156146Y-64630931D01*
X138321142Y-64642666D01*
G37*
G36*
X138321142Y-65695152D02*
G01*
X138388816Y-65754672D01*
X138401726Y-65893915D01*
X138388036Y-66035340D01*
X138318597Y-66093346D01*
X138156146Y-66104412D01*
X137991150Y-66092678D01*
X137923476Y-66033158D01*
X137910566Y-65893915D01*
X137924256Y-65752490D01*
X137993696Y-65694483D01*
X138156146Y-65683418D01*
X138321142Y-65695152D01*
G37*
G36*
X138321142Y-66747638D02*
G01*
X138388816Y-66807158D01*
X138401726Y-66946401D01*
X138388036Y-67087826D01*
X138318597Y-67145833D01*
X138156146Y-67156898D01*
X137991150Y-67145164D01*
X137923476Y-67085644D01*
X137910566Y-66946401D01*
X137924256Y-66804976D01*
X137993696Y-66746969D01*
X138156146Y-66735904D01*
X138321142Y-66747638D01*
G37*
G36*
X138321142Y-67800124D02*
G01*
X138388816Y-67859644D01*
X138401726Y-67998887D01*
X138388036Y-68140312D01*
X138318597Y-68198319D01*
X138156146Y-68209384D01*
X137991150Y-68197650D01*
X137923476Y-68138131D01*
X137910566Y-67998887D01*
X137924256Y-67857462D01*
X137993696Y-67799456D01*
X138156146Y-67788390D01*
X138321142Y-67800124D01*
G37*
G36*
X138683483Y-59662854D02*
G01*
X138741489Y-59732293D01*
X138752555Y-59894744D01*
X138740821Y-60059739D01*
X138681301Y-60127414D01*
X138542058Y-60140324D01*
X138400633Y-60126634D01*
X138342626Y-60057194D01*
X138331561Y-59894744D01*
X138343295Y-59729748D01*
X138402814Y-59662073D01*
X138542058Y-59649164D01*
X138683483Y-59662854D01*
G37*
G36*
X138683483Y-60715340D02*
G01*
X138741489Y-60784779D01*
X138752555Y-60947230D01*
X138740821Y-61112226D01*
X138681301Y-61179900D01*
X138542058Y-61192810D01*
X138400633Y-61179120D01*
X138342626Y-61109680D01*
X138331561Y-60947230D01*
X138343295Y-60782234D01*
X138402814Y-60714560D01*
X138542058Y-60701650D01*
X138683483Y-60715340D01*
G37*
G36*
X138691153Y-59175389D02*
G01*
X138746106Y-59257401D01*
X138752555Y-59368501D01*
X138735169Y-59517596D01*
X138653157Y-59572549D01*
X138542058Y-59578998D01*
X138392963Y-59561612D01*
X138338009Y-59479600D01*
X138331561Y-59368501D01*
X138348947Y-59219405D01*
X138430958Y-59164452D01*
X138542058Y-59158003D01*
X138691153Y-59175389D01*
G37*
G36*
X138691153Y-60227876D02*
G01*
X138746106Y-60309887D01*
X138752555Y-60420987D01*
X138735169Y-60570082D01*
X138653157Y-60625035D01*
X138542058Y-60631484D01*
X138392963Y-60614098D01*
X138338009Y-60532086D01*
X138331561Y-60420987D01*
X138348947Y-60271892D01*
X138430958Y-60216938D01*
X138542058Y-60210489D01*
X138691153Y-60227876D01*
G37*
G36*
X138691153Y-61280362D02*
G01*
X138746106Y-61362373D01*
X138752555Y-61473473D01*
X138735169Y-61622568D01*
X138653157Y-61677521D01*
X138542058Y-61683970D01*
X138392963Y-61666584D01*
X138338009Y-61584572D01*
X138331561Y-61473473D01*
X138348947Y-61324378D01*
X138430958Y-61269424D01*
X138542058Y-61262976D01*
X138691153Y-61280362D01*
G37*
G36*
X138823814Y-65135782D02*
G01*
X138881821Y-65205221D01*
X138892887Y-65367672D01*
X138881152Y-65532668D01*
X138821633Y-65600342D01*
X138682389Y-65613252D01*
X138540964Y-65599562D01*
X138482958Y-65530122D01*
X138471892Y-65367672D01*
X138483626Y-65202676D01*
X138543146Y-65135002D01*
X138682389Y-65122092D01*
X138823814Y-65135782D01*
G37*
G36*
X138823814Y-66188268D02*
G01*
X138881821Y-66257707D01*
X138892887Y-66420158D01*
X138881152Y-66585154D01*
X138821633Y-66652828D01*
X138682389Y-66665738D01*
X138540964Y-66652048D01*
X138482958Y-66582609D01*
X138471892Y-66420158D01*
X138483626Y-66255162D01*
X138543146Y-66187488D01*
X138682389Y-66174578D01*
X138823814Y-66188268D01*
G37*
G36*
X138823814Y-67240754D02*
G01*
X138881821Y-67310194D01*
X138892887Y-67472644D01*
X138881152Y-67637640D01*
X138821633Y-67705314D01*
X138682389Y-67718224D01*
X138540964Y-67704534D01*
X138482958Y-67635095D01*
X138471892Y-67472644D01*
X138483626Y-67307648D01*
X138543146Y-67239974D01*
X138682389Y-67227064D01*
X138823814Y-67240754D01*
G37*
G36*
X138831484Y-64648318D02*
G01*
X138886438Y-64730329D01*
X138892887Y-64841429D01*
X138875500Y-64990524D01*
X138793489Y-65045477D01*
X138682389Y-65051926D01*
X138533294Y-65034540D01*
X138478341Y-64952528D01*
X138471892Y-64841429D01*
X138489278Y-64692334D01*
X138571290Y-64637380D01*
X138682389Y-64630931D01*
X138831484Y-64648318D01*
G37*
G36*
X138831484Y-65700804D02*
G01*
X138886438Y-65782815D01*
X138892887Y-65893915D01*
X138875500Y-66043010D01*
X138793489Y-66097963D01*
X138682389Y-66104412D01*
X138533294Y-66087026D01*
X138478341Y-66005014D01*
X138471892Y-65893915D01*
X138489278Y-65744820D01*
X138571290Y-65689866D01*
X138682389Y-65683418D01*
X138831484Y-65700804D01*
G37*
G36*
X138831484Y-66753290D02*
G01*
X138886438Y-66835302D01*
X138892887Y-66946401D01*
X138875500Y-67095496D01*
X138793489Y-67150450D01*
X138682389Y-67156898D01*
X138533294Y-67139512D01*
X138478341Y-67057501D01*
X138471892Y-66946401D01*
X138489278Y-66797306D01*
X138571290Y-66742352D01*
X138682389Y-66735904D01*
X138831484Y-66753290D01*
G37*
G36*
X138831484Y-67805776D02*
G01*
X138886438Y-67887788D01*
X138892887Y-67998887D01*
X138875500Y-68147982D01*
X138793489Y-68202936D01*
X138682389Y-68209384D01*
X138533294Y-68191998D01*
X138478341Y-68109987D01*
X138471892Y-67998887D01*
X138489278Y-67849792D01*
X138571290Y-67794839D01*
X138682389Y-67788390D01*
X138831484Y-67805776D01*
G37*
G36*
X139233297Y-60222224D02*
G01*
X139300971Y-60281743D01*
X139313881Y-60420987D01*
X139300191Y-60562412D01*
X139230752Y-60620418D01*
X139068301Y-60631484D01*
X138903305Y-60619750D01*
X138835631Y-60560230D01*
X138822721Y-60420987D01*
X138836411Y-60279562D01*
X138905850Y-60221555D01*
X139068301Y-60210489D01*
X139233297Y-60222224D01*
G37*
G36*
X139233297Y-61274710D02*
G01*
X139300971Y-61334230D01*
X139313881Y-61473473D01*
X139300191Y-61614898D01*
X139230752Y-61672905D01*
X139068301Y-61683970D01*
X138903305Y-61672236D01*
X138835631Y-61612716D01*
X138822721Y-61473473D01*
X138836411Y-61332048D01*
X138905850Y-61274041D01*
X139068301Y-61262976D01*
X139233297Y-61274710D01*
G37*
G36*
X139373628Y-64642666D02*
G01*
X139441303Y-64702185D01*
X139454213Y-64841429D01*
X139440522Y-64982854D01*
X139371083Y-65040860D01*
X139208632Y-65051926D01*
X139043637Y-65040192D01*
X138975962Y-64980672D01*
X138963052Y-64841429D01*
X138976742Y-64700004D01*
X139046182Y-64641997D01*
X139208632Y-64630931D01*
X139373628Y-64642666D01*
G37*
G36*
X139876301Y-66188268D02*
G01*
X139934307Y-66257707D01*
X139945373Y-66420158D01*
X139933638Y-66585154D01*
X139874119Y-66652828D01*
X139734876Y-66665738D01*
X139593451Y-66652048D01*
X139535444Y-66582609D01*
X139524378Y-66420158D01*
X139536113Y-66255162D01*
X139595632Y-66187488D01*
X139734876Y-66174578D01*
X139876301Y-66188268D01*
G37*
G36*
X139883971Y-64648318D02*
G01*
X139938924Y-64730329D01*
X139945373Y-64841429D01*
X139927987Y-64990524D01*
X139845975Y-65045477D01*
X139734876Y-65051926D01*
X139585780Y-65034540D01*
X139530827Y-64952528D01*
X139524378Y-64841429D01*
X139541764Y-64692334D01*
X139623776Y-64637380D01*
X139734876Y-64630931D01*
X139883971Y-64648318D01*
G37*
G36*
X140215617Y-60222224D02*
G01*
X140283292Y-60281743D01*
X140296201Y-60420987D01*
X140282511Y-60562412D01*
X140213072Y-60620418D01*
X140050621Y-60631484D01*
X139885626Y-60619750D01*
X139817951Y-60560230D01*
X139805041Y-60420987D01*
X139818731Y-60279562D01*
X139888171Y-60221555D01*
X140050621Y-60210489D01*
X140215617Y-60222224D01*
G37*
G36*
X140215617Y-61274710D02*
G01*
X140283292Y-61334230D01*
X140296201Y-61473473D01*
X140282511Y-61614898D01*
X140213072Y-61672905D01*
X140050621Y-61683970D01*
X139885626Y-61672236D01*
X139817951Y-61612716D01*
X139805041Y-61473473D01*
X139818731Y-61332048D01*
X139888171Y-61274041D01*
X140050621Y-61262976D01*
X140215617Y-61274710D01*
G37*
G36*
X140367461Y-65135782D02*
G01*
X140425467Y-65205221D01*
X140436533Y-65367672D01*
X140424799Y-65532668D01*
X140365279Y-65600342D01*
X140226036Y-65613252D01*
X140084611Y-65599562D01*
X140026604Y-65530122D01*
X140015539Y-65367672D01*
X140027273Y-65202676D01*
X140086792Y-65135002D01*
X140226036Y-65122092D01*
X140367461Y-65135782D01*
G37*
G36*
X140367461Y-66188268D02*
G01*
X140425467Y-66257707D01*
X140436533Y-66420158D01*
X140424799Y-66585154D01*
X140365279Y-66652828D01*
X140226036Y-66665738D01*
X140084611Y-66652048D01*
X140026604Y-66582609D01*
X140015539Y-66420158D01*
X140027273Y-66255162D01*
X140086792Y-66187488D01*
X140226036Y-66174578D01*
X140367461Y-66188268D01*
G37*
G36*
X140375131Y-64648318D02*
G01*
X140430084Y-64730329D01*
X140436533Y-64841429D01*
X140419147Y-64990524D01*
X140337135Y-65045477D01*
X140226036Y-65051926D01*
X140076941Y-65034540D01*
X140021987Y-64952528D01*
X140015539Y-64841429D01*
X140032925Y-64692334D01*
X140114936Y-64637380D01*
X140226036Y-64630931D01*
X140375131Y-64648318D01*
G37*
G36*
X140375131Y-65700804D02*
G01*
X140430084Y-65782815D01*
X140436533Y-65893915D01*
X140419147Y-66043010D01*
X140337135Y-66097963D01*
X140226036Y-66104412D01*
X140076941Y-66087026D01*
X140021987Y-66005014D01*
X140015539Y-65893915D01*
X140032925Y-65744820D01*
X140114936Y-65689866D01*
X140226036Y-65683418D01*
X140375131Y-65700804D01*
G37*
G36*
X140718289Y-59662854D02*
G01*
X140776296Y-59732293D01*
X140787362Y-59894744D01*
X140775627Y-60059739D01*
X140716108Y-60127414D01*
X140576864Y-60140324D01*
X140435439Y-60126634D01*
X140377433Y-60057194D01*
X140366367Y-59894744D01*
X140378102Y-59729748D01*
X140437621Y-59662073D01*
X140576864Y-59649164D01*
X140718289Y-59662854D01*
G37*
G36*
X140718289Y-60715340D02*
G01*
X140776296Y-60784779D01*
X140787362Y-60947230D01*
X140775627Y-61112226D01*
X140716108Y-61179900D01*
X140576864Y-61192810D01*
X140435439Y-61179120D01*
X140377433Y-61109680D01*
X140366367Y-60947230D01*
X140378102Y-60782234D01*
X140437621Y-60714560D01*
X140576864Y-60701650D01*
X140718289Y-60715340D01*
G37*
G36*
X140725960Y-59175389D02*
G01*
X140780913Y-59257401D01*
X140787362Y-59368501D01*
X140769976Y-59517596D01*
X140687964Y-59572549D01*
X140576864Y-59578998D01*
X140427769Y-59561612D01*
X140372816Y-59479600D01*
X140366367Y-59368501D01*
X140383753Y-59219405D01*
X140465765Y-59164452D01*
X140576864Y-59158003D01*
X140725960Y-59175389D01*
G37*
G36*
X140725960Y-60227876D02*
G01*
X140780913Y-60309887D01*
X140787362Y-60420987D01*
X140769976Y-60570082D01*
X140687964Y-60625035D01*
X140576864Y-60631484D01*
X140427769Y-60614098D01*
X140372816Y-60532086D01*
X140366367Y-60420987D01*
X140383753Y-60271892D01*
X140465765Y-60216938D01*
X140576864Y-60210489D01*
X140725960Y-60227876D01*
G37*
G36*
X140725960Y-61280362D02*
G01*
X140780913Y-61362373D01*
X140787362Y-61473473D01*
X140769976Y-61622568D01*
X140687964Y-61677521D01*
X140576864Y-61683970D01*
X140427769Y-61666584D01*
X140372816Y-61584572D01*
X140366367Y-61473473D01*
X140383753Y-61324378D01*
X140465765Y-61269424D01*
X140576864Y-61262976D01*
X140725960Y-61280362D01*
G37*
G36*
X140928787Y-65135782D02*
G01*
X140986793Y-65205221D01*
X140997859Y-65367672D01*
X140986125Y-65532668D01*
X140926605Y-65600342D01*
X140787362Y-65613252D01*
X140645937Y-65599562D01*
X140587930Y-65530122D01*
X140576864Y-65367672D01*
X140588599Y-65202676D01*
X140648118Y-65135002D01*
X140787362Y-65122092D01*
X140928787Y-65135782D01*
G37*
G36*
X140936457Y-65700804D02*
G01*
X140991410Y-65782815D01*
X140997859Y-65893915D01*
X140980473Y-66043010D01*
X140898461Y-66097963D01*
X140787362Y-66104412D01*
X140638267Y-66087026D01*
X140583313Y-66005014D01*
X140576864Y-65893915D01*
X140594251Y-65744820D01*
X140676262Y-65689866D01*
X140787362Y-65683418D01*
X140936457Y-65700804D01*
G37*
G36*
X141268103Y-59169738D02*
G01*
X141335778Y-59229257D01*
X141348688Y-59368501D01*
X141334998Y-59509926D01*
X141265558Y-59567932D01*
X141103108Y-59578998D01*
X140938112Y-59567263D01*
X140870437Y-59507744D01*
X140857527Y-59368501D01*
X140871218Y-59227076D01*
X140940657Y-59169069D01*
X141103108Y-59158003D01*
X141268103Y-59169738D01*
G37*
G36*
X141778446Y-59175389D02*
G01*
X141833399Y-59257401D01*
X141839848Y-59368501D01*
X141822462Y-59517596D01*
X141740450Y-59572549D01*
X141629351Y-59578998D01*
X141480256Y-59561612D01*
X141425302Y-59479600D01*
X141418853Y-59368501D01*
X141436240Y-59219405D01*
X141518251Y-59164452D01*
X141629351Y-59158003D01*
X141778446Y-59175389D01*
G37*
G36*
X141918777Y-65700804D02*
G01*
X141973731Y-65782815D01*
X141980179Y-65893915D01*
X141962793Y-66043010D01*
X141880782Y-66097963D01*
X141769682Y-66104412D01*
X141620587Y-66087026D01*
X141565634Y-66005014D01*
X141559185Y-65893915D01*
X141576571Y-65744820D01*
X141658583Y-65689866D01*
X141769682Y-65683418D01*
X141918777Y-65700804D01*
G37*
G36*
X141918777Y-67805776D02*
G01*
X141973731Y-67887788D01*
X141980179Y-67998887D01*
X141962793Y-68147982D01*
X141880782Y-68202936D01*
X141769682Y-68209384D01*
X141620587Y-68191998D01*
X141565634Y-68109987D01*
X141559185Y-67998887D01*
X141576571Y-67849792D01*
X141658583Y-67794839D01*
X141769682Y-67788390D01*
X141918777Y-67805776D01*
G37*
G36*
X142261936Y-59662854D02*
G01*
X142319942Y-59732293D01*
X142331008Y-59894744D01*
X142319274Y-60059739D01*
X142259754Y-60127414D01*
X142120511Y-60140324D01*
X141979086Y-60126634D01*
X141921079Y-60057194D01*
X141910014Y-59894744D01*
X141921748Y-59729748D01*
X141981267Y-59662073D01*
X142120511Y-59649164D01*
X142261936Y-59662854D01*
G37*
G36*
X142269606Y-59175389D02*
G01*
X142324559Y-59257401D01*
X142331008Y-59368501D01*
X142313622Y-59517596D01*
X142231610Y-59572549D01*
X142120511Y-59578998D01*
X141971416Y-59561612D01*
X141916462Y-59479600D01*
X141910014Y-59368501D01*
X141927400Y-59219405D01*
X142009411Y-59164452D01*
X142120511Y-59158003D01*
X142269606Y-59175389D01*
G37*
G36*
X142269606Y-60227876D02*
G01*
X142324559Y-60309887D01*
X142331008Y-60420987D01*
X142313622Y-60570082D01*
X142231610Y-60625035D01*
X142120511Y-60631484D01*
X141971416Y-60614098D01*
X141916462Y-60532086D01*
X141910014Y-60420987D01*
X141927400Y-60271892D01*
X142009411Y-60216938D01*
X142120511Y-60210489D01*
X142269606Y-60227876D01*
G37*
G36*
X142402267Y-66188268D02*
G01*
X142460274Y-66257707D01*
X142471340Y-66420158D01*
X142459605Y-66585154D01*
X142400086Y-66652828D01*
X142260842Y-66665738D01*
X142119417Y-66652048D01*
X142061411Y-66582609D01*
X142050345Y-66420158D01*
X142062080Y-66255162D01*
X142121599Y-66187488D01*
X142260842Y-66174578D01*
X142402267Y-66188268D01*
G37*
G36*
X142402267Y-67240754D02*
G01*
X142460274Y-67310194D01*
X142471340Y-67472644D01*
X142459605Y-67637640D01*
X142400086Y-67705314D01*
X142260842Y-67718224D01*
X142119417Y-67704534D01*
X142061411Y-67635095D01*
X142050345Y-67472644D01*
X142062080Y-67307648D01*
X142121599Y-67239974D01*
X142260842Y-67227064D01*
X142402267Y-67240754D01*
G37*
G36*
X142409937Y-64648318D02*
G01*
X142464891Y-64730329D01*
X142471340Y-64841429D01*
X142453953Y-64990524D01*
X142371942Y-65045477D01*
X142260842Y-65051926D01*
X142111747Y-65034540D01*
X142056794Y-64952528D01*
X142050345Y-64841429D01*
X142067731Y-64692334D01*
X142149743Y-64637380D01*
X142260842Y-64630931D01*
X142409937Y-64648318D01*
G37*
G36*
X142409937Y-65700804D02*
G01*
X142464891Y-65782815D01*
X142471340Y-65893915D01*
X142453953Y-66043010D01*
X142371942Y-66097963D01*
X142260842Y-66104412D01*
X142111747Y-66087026D01*
X142056794Y-66005014D01*
X142050345Y-65893915D01*
X142067731Y-65744820D01*
X142149743Y-65689866D01*
X142260842Y-65683418D01*
X142409937Y-65700804D01*
G37*
G36*
X142409937Y-66753290D02*
G01*
X142464891Y-66835302D01*
X142471340Y-66946401D01*
X142453953Y-67095496D01*
X142371942Y-67150450D01*
X142260842Y-67156898D01*
X142111747Y-67139512D01*
X142056794Y-67057501D01*
X142050345Y-66946401D01*
X142067731Y-66797306D01*
X142149743Y-66742352D01*
X142260842Y-66735904D01*
X142409937Y-66753290D01*
G37*
G36*
X142409937Y-67805776D02*
G01*
X142464891Y-67887788D01*
X142471340Y-67998887D01*
X142453953Y-68147982D01*
X142371942Y-68202936D01*
X142260842Y-68209384D01*
X142111747Y-68191998D01*
X142056794Y-68109987D01*
X142050345Y-67998887D01*
X142067731Y-67849792D01*
X142149743Y-67794839D01*
X142260842Y-67788390D01*
X142409937Y-67805776D01*
G37*
G36*
X142823262Y-59662854D02*
G01*
X142881268Y-59732293D01*
X142892334Y-59894744D01*
X142880600Y-60059739D01*
X142821080Y-60127414D01*
X142681837Y-60140324D01*
X142540412Y-60126634D01*
X142482405Y-60057194D01*
X142471340Y-59894744D01*
X142483074Y-59729748D01*
X142542593Y-59662073D01*
X142681837Y-59649164D01*
X142823262Y-59662854D01*
G37*
G36*
X142830932Y-60227876D02*
G01*
X142885885Y-60309887D01*
X142892334Y-60420987D01*
X142874948Y-60570082D01*
X142792936Y-60625035D01*
X142681837Y-60631484D01*
X142532742Y-60614098D01*
X142477788Y-60532086D01*
X142471340Y-60420987D01*
X142488726Y-60271892D01*
X142570737Y-60216938D01*
X142681837Y-60210489D01*
X142830932Y-60227876D01*
G37*
G36*
X142952081Y-64642666D02*
G01*
X143019756Y-64702185D01*
X143032666Y-64841429D01*
X143018975Y-64982854D01*
X142949536Y-65040860D01*
X142787085Y-65051926D01*
X142622090Y-65040192D01*
X142554415Y-64980672D01*
X142541505Y-64841429D01*
X142555195Y-64700004D01*
X142624635Y-64641997D01*
X142787085Y-64630931D01*
X142952081Y-64642666D01*
G37*
G36*
X142952081Y-65695152D02*
G01*
X143019756Y-65754672D01*
X143032666Y-65893915D01*
X143018975Y-66035340D01*
X142949536Y-66093346D01*
X142787085Y-66104412D01*
X142622090Y-66092678D01*
X142554415Y-66033158D01*
X142541505Y-65893915D01*
X142555195Y-65752490D01*
X142624635Y-65694483D01*
X142787085Y-65683418D01*
X142952081Y-65695152D01*
G37*
G36*
X142952081Y-66747638D02*
G01*
X143019756Y-66807158D01*
X143032666Y-66946401D01*
X143018975Y-67087826D01*
X142949536Y-67145833D01*
X142787085Y-67156898D01*
X142622090Y-67145164D01*
X142554415Y-67085644D01*
X142541505Y-66946401D01*
X142555195Y-66804976D01*
X142624635Y-66746969D01*
X142787085Y-66735904D01*
X142952081Y-66747638D01*
G37*
G36*
X142952081Y-67800124D02*
G01*
X143019756Y-67859644D01*
X143032666Y-67998887D01*
X143018975Y-68140312D01*
X142949536Y-68198319D01*
X142787085Y-68209384D01*
X142622090Y-68197650D01*
X142554415Y-68138131D01*
X142541505Y-67998887D01*
X142555195Y-67857462D01*
X142624635Y-67799456D01*
X142787085Y-67788390D01*
X142952081Y-67800124D01*
G37*
G36*
X143024131Y-66234232D02*
G01*
X143021270Y-66383695D01*
X143019928Y-66397813D01*
X142984296Y-66563336D01*
X142894973Y-66635595D01*
X142804228Y-66652896D01*
X142632565Y-66634155D01*
X142570255Y-66569287D01*
X142543469Y-66368913D01*
X142637801Y-66237897D01*
X142810005Y-66187315D01*
X142966811Y-66181910D01*
X143024131Y-66234232D01*
G37*
G36*
X143024131Y-67286719D02*
G01*
X143021270Y-67436181D01*
X143019928Y-67450299D01*
X142984296Y-67615822D01*
X142894973Y-67688081D01*
X142804228Y-67705382D01*
X142632565Y-67686641D01*
X142570255Y-67621773D01*
X142543469Y-67421399D01*
X142637801Y-67290383D01*
X142810005Y-67239802D01*
X142966811Y-67234396D01*
X143024131Y-67286719D01*
G37*
G36*
X143462424Y-65700804D02*
G01*
X143517377Y-65782815D01*
X143523826Y-65893915D01*
X143506440Y-66043010D01*
X143424428Y-66097963D01*
X143313329Y-66104412D01*
X143164233Y-66087026D01*
X143109280Y-66005014D01*
X143102831Y-65893915D01*
X143120217Y-65744820D01*
X143202229Y-65689866D01*
X143313329Y-65683418D01*
X143462424Y-65700804D01*
G37*
G36*
X143462424Y-67805776D02*
G01*
X143517377Y-67887788D01*
X143523826Y-67998887D01*
X143506440Y-68147982D01*
X143424428Y-68202936D01*
X143313329Y-68209384D01*
X143164233Y-68191998D01*
X143109280Y-68109987D01*
X143102831Y-67998887D01*
X143120217Y-67849792D01*
X143202229Y-67794839D01*
X143313329Y-67788390D01*
X143462424Y-67805776D01*
G37*
G36*
X143805582Y-59662854D02*
G01*
X143863589Y-59732293D01*
X143874655Y-59894744D01*
X143862920Y-60059739D01*
X143803401Y-60127414D01*
X143664157Y-60140324D01*
X143522732Y-60126634D01*
X143464726Y-60057194D01*
X143453660Y-59894744D01*
X143465394Y-59729748D01*
X143524914Y-59662073D01*
X143664157Y-59649164D01*
X143805582Y-59662854D01*
G37*
G36*
X143813252Y-60227876D02*
G01*
X143868206Y-60309887D01*
X143874655Y-60420987D01*
X143857268Y-60570082D01*
X143775257Y-60625035D01*
X143664157Y-60631484D01*
X143515062Y-60614098D01*
X143460109Y-60532086D01*
X143453660Y-60420987D01*
X143471046Y-60271892D01*
X143553058Y-60216938D01*
X143664157Y-60210489D01*
X143813252Y-60227876D01*
G37*
G36*
X144296742Y-59662854D02*
G01*
X144354749Y-59732293D01*
X144365815Y-59894744D01*
X144354080Y-60059739D01*
X144294561Y-60127414D01*
X144155318Y-60140324D01*
X144013893Y-60126634D01*
X143955886Y-60057194D01*
X143944820Y-59894744D01*
X143956555Y-59729748D01*
X144016074Y-59662073D01*
X144155318Y-59649164D01*
X144296742Y-59662854D01*
G37*
G36*
X144296742Y-60715340D02*
G01*
X144354749Y-60784779D01*
X144365815Y-60947230D01*
X144354080Y-61112226D01*
X144294561Y-61179900D01*
X144155318Y-61192810D01*
X144013893Y-61179120D01*
X143955886Y-61109680D01*
X143944820Y-60947230D01*
X143956555Y-60782234D01*
X144016074Y-60714560D01*
X144155318Y-60701650D01*
X144296742Y-60715340D01*
G37*
G36*
X144304413Y-59175389D02*
G01*
X144359366Y-59257401D01*
X144365815Y-59368501D01*
X144348429Y-59517596D01*
X144266417Y-59572549D01*
X144155318Y-59578998D01*
X144006222Y-59561612D01*
X143951269Y-59479600D01*
X143944820Y-59368501D01*
X143962206Y-59219405D01*
X144044218Y-59164452D01*
X144155318Y-59158003D01*
X144304413Y-59175389D01*
G37*
G36*
X144304413Y-60227876D02*
G01*
X144359366Y-60309887D01*
X144365815Y-60420987D01*
X144348429Y-60570082D01*
X144266417Y-60625035D01*
X144155318Y-60631484D01*
X144006222Y-60614098D01*
X143951269Y-60532086D01*
X143944820Y-60420987D01*
X143962206Y-60271892D01*
X144044218Y-60216938D01*
X144155318Y-60210489D01*
X144304413Y-60227876D01*
G37*
G36*
X144304413Y-61280362D02*
G01*
X144359366Y-61362373D01*
X144365815Y-61473473D01*
X144348429Y-61622568D01*
X144266417Y-61677521D01*
X144155318Y-61683970D01*
X144006222Y-61666584D01*
X143951269Y-61584572D01*
X143944820Y-61473473D01*
X143962206Y-61324378D01*
X144044218Y-61269424D01*
X144155318Y-61262976D01*
X144304413Y-61280362D01*
G37*
G36*
X144437074Y-66188268D02*
G01*
X144495081Y-66257707D01*
X144506146Y-66420158D01*
X144494412Y-66585154D01*
X144434892Y-66652828D01*
X144295649Y-66665738D01*
X144154224Y-66652048D01*
X144096217Y-66582609D01*
X144085152Y-66420158D01*
X144096886Y-66255162D01*
X144156406Y-66187488D01*
X144295649Y-66174578D01*
X144437074Y-66188268D01*
G37*
G36*
X144437074Y-67240754D02*
G01*
X144495081Y-67310194D01*
X144506146Y-67472644D01*
X144494412Y-67637640D01*
X144434892Y-67705314D01*
X144295649Y-67718224D01*
X144154224Y-67704534D01*
X144096217Y-67635095D01*
X144085152Y-67472644D01*
X144096886Y-67307648D01*
X144156406Y-67239974D01*
X144295649Y-67227064D01*
X144437074Y-67240754D01*
G37*
G36*
X144444744Y-65700804D02*
G01*
X144499698Y-65782815D01*
X144506146Y-65893915D01*
X144488760Y-66043010D01*
X144406749Y-66097963D01*
X144295649Y-66104412D01*
X144146554Y-66087026D01*
X144091600Y-66005014D01*
X144085152Y-65893915D01*
X144102538Y-65744820D01*
X144184549Y-65689866D01*
X144295649Y-65683418D01*
X144444744Y-65700804D01*
G37*
G36*
X144444744Y-67805776D02*
G01*
X144499698Y-67887788D01*
X144506146Y-67998887D01*
X144488760Y-68147982D01*
X144406749Y-68202936D01*
X144295649Y-68209384D01*
X144146554Y-68191998D01*
X144091600Y-68109987D01*
X144085152Y-67998887D01*
X144102538Y-67849792D01*
X144184549Y-67794839D01*
X144295649Y-67788390D01*
X144444744Y-67805776D01*
G37*
G36*
X144846556Y-59169738D02*
G01*
X144914231Y-59229257D01*
X144927141Y-59368501D01*
X144913451Y-59509926D01*
X144844011Y-59567932D01*
X144681561Y-59578998D01*
X144516565Y-59567263D01*
X144448890Y-59507744D01*
X144435980Y-59368501D01*
X144449671Y-59227076D01*
X144519110Y-59169069D01*
X144681561Y-59158003D01*
X144846556Y-59169738D01*
G37*
G36*
X144846556Y-61274710D02*
G01*
X144914231Y-61334230D01*
X144927141Y-61473473D01*
X144913451Y-61614898D01*
X144844011Y-61672905D01*
X144681561Y-61683970D01*
X144516565Y-61672236D01*
X144448890Y-61612716D01*
X144435980Y-61473473D01*
X144449671Y-61332048D01*
X144519110Y-61274041D01*
X144681561Y-61262976D01*
X144846556Y-61274710D01*
G37*
G36*
X144986888Y-65695152D02*
G01*
X145054562Y-65754672D01*
X145067472Y-65893915D01*
X145053782Y-66035340D01*
X144984343Y-66093346D01*
X144821892Y-66104412D01*
X144656896Y-66092678D01*
X144589222Y-66033158D01*
X144576312Y-65893915D01*
X144590002Y-65752490D01*
X144659441Y-65694483D01*
X144821892Y-65683418D01*
X144986888Y-65695152D01*
G37*
G36*
X144986888Y-66747638D02*
G01*
X145054562Y-66807158D01*
X145067472Y-66946401D01*
X145053782Y-67087826D01*
X144984343Y-67145833D01*
X144821892Y-67156898D01*
X144656896Y-67145164D01*
X144589222Y-67085644D01*
X144576312Y-66946401D01*
X144590002Y-66804976D01*
X144659441Y-66746969D01*
X144821892Y-66735904D01*
X144986888Y-66747638D01*
G37*
G36*
X144986888Y-67800124D02*
G01*
X145054562Y-67859644D01*
X145067472Y-67998887D01*
X145053782Y-68140312D01*
X144984343Y-68198319D01*
X144821892Y-68209384D01*
X144656896Y-68197650D01*
X144589222Y-68138131D01*
X144576312Y-67998887D01*
X144590002Y-67857462D01*
X144659441Y-67799456D01*
X144821892Y-67788390D01*
X144986888Y-67800124D01*
G37*
G36*
X145356899Y-59175389D02*
G01*
X145411852Y-59257401D01*
X145418301Y-59368501D01*
X145400915Y-59517596D01*
X145318903Y-59572549D01*
X145207804Y-59578998D01*
X145058709Y-59561612D01*
X145003755Y-59479600D01*
X144997306Y-59368501D01*
X145014693Y-59219405D01*
X145096704Y-59164452D01*
X145207804Y-59158003D01*
X145356899Y-59175389D01*
G37*
G36*
X145356899Y-61280362D02*
G01*
X145411852Y-61362373D01*
X145418301Y-61473473D01*
X145400915Y-61622568D01*
X145318903Y-61677521D01*
X145207804Y-61683970D01*
X145058709Y-61666584D01*
X145003755Y-61584572D01*
X144997306Y-61473473D01*
X145014693Y-61324378D01*
X145096704Y-61269424D01*
X145207804Y-61262976D01*
X145356899Y-61280362D01*
G37*
G36*
X145497230Y-66753290D02*
G01*
X145552184Y-66835302D01*
X145558632Y-66946401D01*
X145541246Y-67095496D01*
X145459235Y-67150450D01*
X145348135Y-67156898D01*
X145199040Y-67139512D01*
X145144087Y-67057501D01*
X145137638Y-66946401D01*
X145155024Y-66797306D01*
X145237036Y-66742352D01*
X145348135Y-66735904D01*
X145497230Y-66753290D01*
G37*
G36*
X145899043Y-59169738D02*
G01*
X145966717Y-59229257D01*
X145979627Y-59368501D01*
X145965937Y-59509926D01*
X145896497Y-59567932D01*
X145734047Y-59578998D01*
X145569051Y-59567263D01*
X145501377Y-59507744D01*
X145488467Y-59368501D01*
X145502157Y-59227076D01*
X145571596Y-59169069D01*
X145734047Y-59158003D01*
X145899043Y-59169738D01*
G37*
G36*
X145899043Y-60222224D02*
G01*
X145966717Y-60281743D01*
X145979627Y-60420987D01*
X145965937Y-60562412D01*
X145896497Y-60620418D01*
X145734047Y-60631484D01*
X145569051Y-60619750D01*
X145501377Y-60560230D01*
X145488467Y-60420987D01*
X145502157Y-60279562D01*
X145571596Y-60221555D01*
X145734047Y-60210489D01*
X145899043Y-60222224D01*
G37*
G36*
X145899043Y-61274710D02*
G01*
X145966717Y-61334230D01*
X145979627Y-61473473D01*
X145965937Y-61614898D01*
X145896497Y-61672905D01*
X145734047Y-61683970D01*
X145569051Y-61672236D01*
X145501377Y-61612716D01*
X145488467Y-61473473D01*
X145502157Y-61332048D01*
X145571596Y-61274041D01*
X145734047Y-61262976D01*
X145899043Y-61274710D01*
G37*
G36*
X145971092Y-59708818D02*
G01*
X145968232Y-59858280D01*
X145966889Y-59872398D01*
X145931257Y-60037922D01*
X145841935Y-60110181D01*
X145751189Y-60127481D01*
X145579526Y-60108741D01*
X145517216Y-60043873D01*
X145490430Y-59843498D01*
X145584763Y-59712483D01*
X145756967Y-59661901D01*
X145913772Y-59656496D01*
X145971092Y-59708818D01*
G37*
G36*
X146039374Y-66747638D02*
G01*
X146107048Y-66807158D01*
X146119958Y-66946401D01*
X146106268Y-67087826D01*
X146036829Y-67145833D01*
X145874378Y-67156898D01*
X145709382Y-67145164D01*
X145641708Y-67085644D01*
X145628798Y-66946401D01*
X145642488Y-66804976D01*
X145711928Y-66746969D01*
X145874378Y-66735904D01*
X146039374Y-66747638D01*
G37*
G36*
X146401715Y-59662854D02*
G01*
X146459721Y-59732293D01*
X146470787Y-59894744D01*
X146459053Y-60059739D01*
X146399533Y-60127414D01*
X146260290Y-60140324D01*
X146118865Y-60126634D01*
X146060858Y-60057194D01*
X146049793Y-59894744D01*
X146061527Y-59729748D01*
X146121047Y-59662073D01*
X146260290Y-59649164D01*
X146401715Y-59662854D01*
G37*
G36*
X146401715Y-60715340D02*
G01*
X146459721Y-60784779D01*
X146470787Y-60947230D01*
X146459053Y-61112226D01*
X146399533Y-61179900D01*
X146260290Y-61192810D01*
X146118865Y-61179120D01*
X146060858Y-61109680D01*
X146049793Y-60947230D01*
X146061527Y-60782234D01*
X146121047Y-60714560D01*
X146260290Y-60701650D01*
X146401715Y-60715340D01*
G37*
G36*
X146409385Y-60227876D02*
G01*
X146464338Y-60309887D01*
X146470787Y-60420987D01*
X146453401Y-60570082D01*
X146371389Y-60625035D01*
X146260290Y-60631484D01*
X146111195Y-60614098D01*
X146056241Y-60532086D01*
X146049793Y-60420987D01*
X146067179Y-60271892D01*
X146149190Y-60216938D01*
X146260290Y-60210489D01*
X146409385Y-60227876D01*
G37*
G36*
X146542046Y-66188268D02*
G01*
X146600053Y-66257707D01*
X146611119Y-66420158D01*
X146599384Y-66585154D01*
X146539865Y-66652828D01*
X146400621Y-66665738D01*
X146259196Y-66652048D01*
X146201190Y-66582609D01*
X146190124Y-66420158D01*
X146201859Y-66255162D01*
X146261378Y-66187488D01*
X146400621Y-66174578D01*
X146542046Y-66188268D01*
G37*
G36*
X146542046Y-67240754D02*
G01*
X146600053Y-67310194D01*
X146611119Y-67472644D01*
X146599384Y-67637640D01*
X146539865Y-67705314D01*
X146400621Y-67718224D01*
X146259196Y-67704534D01*
X146201190Y-67635095D01*
X146190124Y-67472644D01*
X146201859Y-67307648D01*
X146261378Y-67239974D01*
X146400621Y-67227064D01*
X146542046Y-67240754D01*
G37*
G36*
X146549716Y-65700804D02*
G01*
X146604670Y-65782815D01*
X146611119Y-65893915D01*
X146593732Y-66043010D01*
X146511721Y-66097963D01*
X146400621Y-66104412D01*
X146251526Y-66087026D01*
X146196573Y-66005014D01*
X146190124Y-65893915D01*
X146207510Y-65744820D01*
X146289522Y-65689866D01*
X146400621Y-65683418D01*
X146549716Y-65700804D01*
G37*
G36*
X146549716Y-66753290D02*
G01*
X146604670Y-66835302D01*
X146611119Y-66946401D01*
X146593732Y-67095496D01*
X146511721Y-67150450D01*
X146400621Y-67156898D01*
X146251526Y-67139512D01*
X146196573Y-67057501D01*
X146190124Y-66946401D01*
X146207510Y-66797306D01*
X146289522Y-66742352D01*
X146400621Y-66735904D01*
X146549716Y-66753290D01*
G37*
G36*
X146549716Y-67805776D02*
G01*
X146604670Y-67887788D01*
X146611119Y-67998887D01*
X146593732Y-68147982D01*
X146511721Y-68202936D01*
X146400621Y-68209384D01*
X146251526Y-68191998D01*
X146196573Y-68109987D01*
X146190124Y-67998887D01*
X146207510Y-67849792D01*
X146289522Y-67794839D01*
X146400621Y-67788390D01*
X146549716Y-67805776D01*
G37*
G36*
X147033207Y-66188268D02*
G01*
X147091213Y-66257707D01*
X147102279Y-66420158D01*
X147090544Y-66585154D01*
X147031025Y-66652828D01*
X146891782Y-66665738D01*
X146750357Y-66652048D01*
X146692350Y-66582609D01*
X146681284Y-66420158D01*
X146693019Y-66255162D01*
X146752538Y-66187488D01*
X146891782Y-66174578D01*
X147033207Y-66188268D01*
G37*
G36*
X147040877Y-65700804D02*
G01*
X147095830Y-65782815D01*
X147102279Y-65893915D01*
X147084893Y-66043010D01*
X147002881Y-66097963D01*
X146891782Y-66104412D01*
X146742686Y-66087026D01*
X146687733Y-66005014D01*
X146681284Y-65893915D01*
X146698671Y-65744820D01*
X146780682Y-65689866D01*
X146891782Y-65683418D01*
X147040877Y-65700804D01*
G37*
G36*
X147040877Y-67805776D02*
G01*
X147095830Y-67887788D01*
X147102279Y-67998887D01*
X147084893Y-68147982D01*
X147002881Y-68202936D01*
X146891782Y-68209384D01*
X146742686Y-68191998D01*
X146687733Y-68109987D01*
X146681284Y-67998887D01*
X146698671Y-67849792D01*
X146780682Y-67794839D01*
X146891782Y-67788390D01*
X147040877Y-67805776D01*
G37*
G36*
X147384035Y-59662854D02*
G01*
X147442042Y-59732293D01*
X147453108Y-59894744D01*
X147441373Y-60059739D01*
X147381854Y-60127414D01*
X147242610Y-60140324D01*
X147101185Y-60126634D01*
X147043179Y-60057194D01*
X147032113Y-59894744D01*
X147043847Y-59729748D01*
X147103367Y-59662073D01*
X147242610Y-59649164D01*
X147384035Y-59662854D01*
G37*
G36*
X147384035Y-60715340D02*
G01*
X147442042Y-60784779D01*
X147453108Y-60947230D01*
X147441373Y-61112226D01*
X147381854Y-61179900D01*
X147242610Y-61192810D01*
X147101185Y-61179120D01*
X147043179Y-61109680D01*
X147032113Y-60947230D01*
X147043847Y-60782234D01*
X147103367Y-60714560D01*
X147242610Y-60701650D01*
X147384035Y-60715340D01*
G37*
G36*
X147391705Y-60227876D02*
G01*
X147446659Y-60309887D01*
X147453108Y-60420987D01*
X147435721Y-60570082D01*
X147353710Y-60625035D01*
X147242610Y-60631484D01*
X147093515Y-60614098D01*
X147038562Y-60532086D01*
X147032113Y-60420987D01*
X147049499Y-60271892D01*
X147131511Y-60216938D01*
X147242610Y-60210489D01*
X147391705Y-60227876D01*
G37*
G36*
X147391705Y-61280362D02*
G01*
X147446659Y-61362373D01*
X147453108Y-61473473D01*
X147435721Y-61622568D01*
X147353710Y-61677521D01*
X147242610Y-61683970D01*
X147093515Y-61666584D01*
X147038562Y-61584572D01*
X147032113Y-61473473D01*
X147049499Y-61324378D01*
X147131511Y-61269424D01*
X147242610Y-61262976D01*
X147391705Y-61280362D01*
G37*
G36*
X147933849Y-59169738D02*
G01*
X148001524Y-59229257D01*
X148014434Y-59368501D01*
X148000743Y-59509926D01*
X147931304Y-59567932D01*
X147768853Y-59578998D01*
X147603858Y-59567263D01*
X147536183Y-59507744D01*
X147523273Y-59368501D01*
X147536963Y-59227076D01*
X147606403Y-59169069D01*
X147768853Y-59158003D01*
X147933849Y-59169738D01*
G37*
G36*
X147933849Y-60222224D02*
G01*
X148001524Y-60281743D01*
X148014434Y-60420987D01*
X148000743Y-60562412D01*
X147931304Y-60620418D01*
X147768853Y-60631484D01*
X147603858Y-60619750D01*
X147536183Y-60560230D01*
X147523273Y-60420987D01*
X147536963Y-60279562D01*
X147606403Y-60221555D01*
X147768853Y-60210489D01*
X147933849Y-60222224D01*
G37*
G36*
X147933849Y-61274710D02*
G01*
X148001524Y-61334230D01*
X148014434Y-61473473D01*
X148000743Y-61614898D01*
X147931304Y-61672905D01*
X147768853Y-61683970D01*
X147603858Y-61672236D01*
X147536183Y-61612716D01*
X147523273Y-61473473D01*
X147536963Y-61332048D01*
X147606403Y-61274041D01*
X147768853Y-61262976D01*
X147933849Y-61274710D01*
G37*
G36*
X148015527Y-66188268D02*
G01*
X148073534Y-66257707D01*
X148084599Y-66420158D01*
X148072865Y-66585154D01*
X148013345Y-66652828D01*
X147874102Y-66665738D01*
X147732677Y-66652048D01*
X147674670Y-66582609D01*
X147663605Y-66420158D01*
X147675339Y-66255162D01*
X147734859Y-66187488D01*
X147874102Y-66174578D01*
X148015527Y-66188268D01*
G37*
G36*
X148015527Y-67240754D02*
G01*
X148073534Y-67310194D01*
X148084599Y-67472644D01*
X148072865Y-67637640D01*
X148013345Y-67705314D01*
X147874102Y-67718224D01*
X147732677Y-67704534D01*
X147674670Y-67635095D01*
X147663605Y-67472644D01*
X147675339Y-67307648D01*
X147734859Y-67239974D01*
X147874102Y-67227064D01*
X148015527Y-67240754D01*
G37*
G36*
X148023197Y-66753290D02*
G01*
X148078151Y-66835302D01*
X148084599Y-66946401D01*
X148067213Y-67095496D01*
X147985202Y-67150450D01*
X147874102Y-67156898D01*
X147725007Y-67139512D01*
X147670053Y-67057501D01*
X147663605Y-66946401D01*
X147680991Y-66797306D01*
X147763002Y-66742352D01*
X147874102Y-66735904D01*
X148023197Y-66753290D01*
G37*
G36*
X148444192Y-59175389D02*
G01*
X148499145Y-59257401D01*
X148505594Y-59368501D01*
X148488208Y-59517596D01*
X148406196Y-59572549D01*
X148295097Y-59578998D01*
X148146001Y-59561612D01*
X148091048Y-59479600D01*
X148084599Y-59368501D01*
X148101985Y-59219405D01*
X148183997Y-59164452D01*
X148295097Y-59158003D01*
X148444192Y-59175389D01*
G37*
G36*
X148565341Y-65695152D02*
G01*
X148633015Y-65754672D01*
X148645925Y-65893915D01*
X148632235Y-66035340D01*
X148562796Y-66093346D01*
X148400345Y-66104412D01*
X148235349Y-66092678D01*
X148167675Y-66033158D01*
X148154765Y-65893915D01*
X148168455Y-65752490D01*
X148237895Y-65694483D01*
X148400345Y-65683418D01*
X148565341Y-65695152D01*
G37*
G36*
X148565341Y-66747638D02*
G01*
X148633015Y-66807158D01*
X148645925Y-66946401D01*
X148632235Y-67087826D01*
X148562796Y-67145833D01*
X148400345Y-67156898D01*
X148235349Y-67145164D01*
X148167675Y-67085644D01*
X148154765Y-66946401D01*
X148168455Y-66804976D01*
X148237895Y-66746969D01*
X148400345Y-66735904D01*
X148565341Y-66747638D01*
G37*
G36*
X148565341Y-67800124D02*
G01*
X148633015Y-67859644D01*
X148645925Y-67998887D01*
X148632235Y-68140312D01*
X148562796Y-68198319D01*
X148400345Y-68209384D01*
X148235349Y-68197650D01*
X148167675Y-68138131D01*
X148154765Y-67998887D01*
X148168455Y-67857462D01*
X148237895Y-67799456D01*
X148400345Y-67788390D01*
X148565341Y-67800124D01*
G37*
G36*
X148637390Y-67286719D02*
G01*
X148634530Y-67436181D01*
X148633188Y-67450299D01*
X148597555Y-67615822D01*
X148508233Y-67688081D01*
X148417488Y-67705382D01*
X148245825Y-67686641D01*
X148183515Y-67621773D01*
X148156729Y-67421399D01*
X148251061Y-67290383D01*
X148423265Y-67239802D01*
X148580071Y-67234396D01*
X148637390Y-67286719D01*
G37*
G36*
X148986335Y-59169738D02*
G01*
X149054010Y-59229257D01*
X149066920Y-59368501D01*
X149053230Y-59509926D01*
X148983790Y-59567932D01*
X148821340Y-59578998D01*
X148656344Y-59567263D01*
X148588669Y-59507744D01*
X148575759Y-59368501D01*
X148589450Y-59227076D01*
X148658889Y-59169069D01*
X148821340Y-59158003D01*
X148986335Y-59169738D01*
G37*
G36*
X149075683Y-65700804D02*
G01*
X149130637Y-65782815D01*
X149137085Y-65893915D01*
X149119699Y-66043010D01*
X149037688Y-66097963D01*
X148926588Y-66104412D01*
X148777493Y-66087026D01*
X148722540Y-66005014D01*
X148716091Y-65893915D01*
X148733477Y-65744820D01*
X148815489Y-65689866D01*
X148926588Y-65683418D01*
X149075683Y-65700804D01*
G37*
G36*
X149075683Y-66753290D02*
G01*
X149130637Y-66835302D01*
X149137085Y-66946401D01*
X149119699Y-67095496D01*
X149037688Y-67150450D01*
X148926588Y-67156898D01*
X148777493Y-67139512D01*
X148722540Y-67057501D01*
X148716091Y-66946401D01*
X148733477Y-66797306D01*
X148815489Y-66742352D01*
X148926588Y-66735904D01*
X149075683Y-66753290D01*
G37*
G36*
X149075683Y-67805776D02*
G01*
X149130637Y-67887788D01*
X149137085Y-67998887D01*
X149119699Y-68147982D01*
X149037688Y-68202936D01*
X148926588Y-68209384D01*
X148777493Y-68191998D01*
X148722540Y-68109987D01*
X148716091Y-67998887D01*
X148733477Y-67849792D01*
X148815489Y-67794839D01*
X148926588Y-67788390D01*
X149075683Y-67805776D01*
G37*
G36*
X149489008Y-59662854D02*
G01*
X149547014Y-59732293D01*
X149558080Y-59894744D01*
X149546346Y-60059739D01*
X149486826Y-60127414D01*
X149347583Y-60140324D01*
X149206158Y-60126634D01*
X149148151Y-60057194D01*
X149137085Y-59894744D01*
X149148820Y-59729748D01*
X149208339Y-59662073D01*
X149347583Y-59649164D01*
X149489008Y-59662854D01*
G37*
G36*
X149489008Y-60715340D02*
G01*
X149547014Y-60784779D01*
X149558080Y-60947230D01*
X149546346Y-61112226D01*
X149486826Y-61179900D01*
X149347583Y-61192810D01*
X149206158Y-61179120D01*
X149148151Y-61109680D01*
X149137085Y-60947230D01*
X149148820Y-60782234D01*
X149208339Y-60714560D01*
X149347583Y-60701650D01*
X149489008Y-60715340D01*
G37*
G36*
X149496678Y-60227876D02*
G01*
X149551631Y-60309887D01*
X149558080Y-60420987D01*
X149540694Y-60570082D01*
X149458682Y-60625035D01*
X149347583Y-60631484D01*
X149198488Y-60614098D01*
X149143534Y-60532086D01*
X149137085Y-60420987D01*
X149154472Y-60271892D01*
X149236483Y-60216938D01*
X149347583Y-60210489D01*
X149496678Y-60227876D01*
G37*
G36*
X149496678Y-61280362D02*
G01*
X149551631Y-61362373D01*
X149558080Y-61473473D01*
X149540694Y-61622568D01*
X149458682Y-61677521D01*
X149347583Y-61683970D01*
X149198488Y-61666584D01*
X149143534Y-61584572D01*
X149137085Y-61473473D01*
X149154472Y-61324378D01*
X149236483Y-61269424D01*
X149347583Y-61262976D01*
X149496678Y-61280362D01*
G37*
G36*
X149617827Y-65695152D02*
G01*
X149685502Y-65754672D01*
X149698411Y-65893915D01*
X149684721Y-66035340D01*
X149615282Y-66093346D01*
X149452831Y-66104412D01*
X149287835Y-66092678D01*
X149220161Y-66033158D01*
X149207251Y-65893915D01*
X149220941Y-65752490D01*
X149290381Y-65694483D01*
X149452831Y-65683418D01*
X149617827Y-65695152D01*
G37*
G36*
X149617827Y-66747638D02*
G01*
X149685502Y-66807158D01*
X149698411Y-66946401D01*
X149684721Y-67087826D01*
X149615282Y-67145833D01*
X149452831Y-67156898D01*
X149287835Y-67145164D01*
X149220161Y-67085644D01*
X149207251Y-66946401D01*
X149220941Y-66804976D01*
X149290381Y-66746969D01*
X149452831Y-66735904D01*
X149617827Y-66747638D01*
G37*
G36*
X149617827Y-67800124D02*
G01*
X149685502Y-67859644D01*
X149698411Y-67998887D01*
X149684721Y-68140312D01*
X149615282Y-68198319D01*
X149452831Y-68209384D01*
X149287835Y-68197650D01*
X149220161Y-68138131D01*
X149207251Y-67998887D01*
X149220941Y-67857462D01*
X149290381Y-67799456D01*
X149452831Y-67788390D01*
X149617827Y-67800124D01*
G37*
G36*
X149980168Y-59662854D02*
G01*
X150038175Y-59732293D01*
X150049240Y-59894744D01*
X150037506Y-60059739D01*
X149977986Y-60127414D01*
X149838743Y-60140324D01*
X149697318Y-60126634D01*
X149639311Y-60057194D01*
X149628246Y-59894744D01*
X149639980Y-59729748D01*
X149699500Y-59662073D01*
X149838743Y-59649164D01*
X149980168Y-59662854D01*
G37*
G36*
X149987838Y-60227876D02*
G01*
X150042792Y-60309887D01*
X150049240Y-60420987D01*
X150031854Y-60570082D01*
X149949842Y-60625035D01*
X149838743Y-60631484D01*
X149689648Y-60614098D01*
X149634694Y-60532086D01*
X149628246Y-60420987D01*
X149645632Y-60271892D01*
X149727643Y-60216938D01*
X149838743Y-60210489D01*
X149987838Y-60227876D01*
G37*
G36*
X149987838Y-61280362D02*
G01*
X150042792Y-61362373D01*
X150049240Y-61473473D01*
X150031854Y-61622568D01*
X149949842Y-61677521D01*
X149838743Y-61683970D01*
X149689648Y-61666584D01*
X149634694Y-61584572D01*
X149628246Y-61473473D01*
X149645632Y-61324378D01*
X149727643Y-61269424D01*
X149838743Y-61262976D01*
X149987838Y-61280362D01*
G37*
G36*
X150120499Y-66188268D02*
G01*
X150178506Y-66257707D01*
X150189572Y-66420158D01*
X150177837Y-66585154D01*
X150118318Y-66652828D01*
X149979074Y-66665738D01*
X149837649Y-66652048D01*
X149779643Y-66582609D01*
X149768577Y-66420158D01*
X149780312Y-66255162D01*
X149839831Y-66187488D01*
X149979074Y-66174578D01*
X150120499Y-66188268D01*
G37*
G36*
X150128170Y-65700804D02*
G01*
X150183123Y-65782815D01*
X150189572Y-65893915D01*
X150172185Y-66043010D01*
X150090174Y-66097963D01*
X149979074Y-66104412D01*
X149829979Y-66087026D01*
X149775026Y-66005014D01*
X149768577Y-65893915D01*
X149785963Y-65744820D01*
X149867975Y-65689866D01*
X149979074Y-65683418D01*
X150128170Y-65700804D01*
G37*
G36*
X150128170Y-66753290D02*
G01*
X150183123Y-66835302D01*
X150189572Y-66946401D01*
X150172185Y-67095496D01*
X150090174Y-67150450D01*
X149979074Y-67156898D01*
X149829979Y-67139512D01*
X149775026Y-67057501D01*
X149768577Y-66946401D01*
X149785963Y-66797306D01*
X149867975Y-66742352D01*
X149979074Y-66735904D01*
X150128170Y-66753290D01*
G37*
G36*
X150128170Y-67805776D02*
G01*
X150183123Y-67887788D01*
X150189572Y-67998887D01*
X150172185Y-68147982D01*
X150090174Y-68202936D01*
X149979074Y-68209384D01*
X149829979Y-68191998D01*
X149775026Y-68109987D01*
X149768577Y-67998887D01*
X149785963Y-67849792D01*
X149867975Y-67794839D01*
X149979074Y-67788390D01*
X150128170Y-67805776D01*
G37*
G36*
X150549164Y-59175389D02*
G01*
X150604117Y-59257401D01*
X150610566Y-59368501D01*
X150593180Y-59517596D01*
X150511168Y-59572549D01*
X150400069Y-59578998D01*
X150250974Y-59561612D01*
X150196020Y-59479600D01*
X150189572Y-59368501D01*
X150206958Y-59219405D01*
X150288969Y-59164452D01*
X150400069Y-59158003D01*
X150549164Y-59175389D01*
G37*
G36*
X150670313Y-66747638D02*
G01*
X150737988Y-66807158D01*
X150750898Y-66946401D01*
X150737207Y-67087826D01*
X150667768Y-67145833D01*
X150505318Y-67156898D01*
X150340322Y-67145164D01*
X150272647Y-67085644D01*
X150259737Y-66946401D01*
X150273428Y-66804976D01*
X150342867Y-66746969D01*
X150505318Y-66735904D01*
X150670313Y-66747638D01*
G37*
G36*
X151040324Y-59175389D02*
G01*
X151095278Y-59257401D01*
X151101726Y-59368501D01*
X151084340Y-59517596D01*
X151002329Y-59572549D01*
X150891229Y-59578998D01*
X150742134Y-59561612D01*
X150687181Y-59479600D01*
X150680732Y-59368501D01*
X150698118Y-59219405D01*
X150780130Y-59164452D01*
X150891229Y-59158003D01*
X151040324Y-59175389D01*
G37*
G36*
X151593980Y-59662854D02*
G01*
X151651987Y-59732293D01*
X151663052Y-59894744D01*
X151651318Y-60059739D01*
X151591798Y-60127414D01*
X151452555Y-60140324D01*
X151311130Y-60126634D01*
X151253123Y-60057194D01*
X151242058Y-59894744D01*
X151253792Y-59729748D01*
X151313312Y-59662073D01*
X151452555Y-59649164D01*
X151593980Y-59662854D01*
G37*
G36*
X151601650Y-59175389D02*
G01*
X151656604Y-59257401D01*
X151663052Y-59368501D01*
X151645666Y-59517596D01*
X151563655Y-59572549D01*
X151452555Y-59578998D01*
X151303460Y-59561612D01*
X151248506Y-59479600D01*
X151242058Y-59368501D01*
X151259444Y-59219405D01*
X151341456Y-59164452D01*
X151452555Y-59158003D01*
X151601650Y-59175389D01*
G37*
G36*
X151601650Y-60227876D02*
G01*
X151656604Y-60309887D01*
X151663052Y-60420987D01*
X151645666Y-60570082D01*
X151563655Y-60625035D01*
X151452555Y-60631484D01*
X151303460Y-60614098D01*
X151248506Y-60532086D01*
X151242058Y-60420987D01*
X151259444Y-60271892D01*
X151341456Y-60216938D01*
X151452555Y-60210489D01*
X151601650Y-60227876D01*
G37*
G36*
X151601650Y-61280362D02*
G01*
X151656604Y-61362373D01*
X151663052Y-61473473D01*
X151645666Y-61622568D01*
X151563655Y-61677521D01*
X151452555Y-61683970D01*
X151303460Y-61666584D01*
X151248506Y-61584572D01*
X151242058Y-61473473D01*
X151259444Y-61324378D01*
X151341456Y-61269424D01*
X151452555Y-61262976D01*
X151601650Y-61280362D01*
G37*
G36*
X151652634Y-64642666D02*
G01*
X151720308Y-64702185D01*
X151733218Y-64841429D01*
X151719528Y-64982854D01*
X151650089Y-65040860D01*
X151487638Y-65051926D01*
X151322642Y-65040192D01*
X151254968Y-64980672D01*
X151242058Y-64841429D01*
X151255748Y-64700004D01*
X151325187Y-64641997D01*
X151487638Y-64630931D01*
X151652634Y-64642666D01*
G37*
G36*
X151652634Y-65695152D02*
G01*
X151720308Y-65754672D01*
X151733218Y-65893915D01*
X151719528Y-66035340D01*
X151650089Y-66093346D01*
X151487638Y-66104412D01*
X151322642Y-66092678D01*
X151254968Y-66033158D01*
X151242058Y-65893915D01*
X151255748Y-65752490D01*
X151325187Y-65694483D01*
X151487638Y-65683418D01*
X151652634Y-65695152D01*
G37*
G36*
X151652634Y-66747638D02*
G01*
X151720308Y-66807158D01*
X151733218Y-66946401D01*
X151719528Y-67087826D01*
X151650089Y-67145833D01*
X151487638Y-67156898D01*
X151322642Y-67145164D01*
X151254968Y-67085644D01*
X151242058Y-66946401D01*
X151255748Y-66804976D01*
X151325187Y-66746969D01*
X151487638Y-66735904D01*
X151652634Y-66747638D01*
G37*
G36*
X151652634Y-67800124D02*
G01*
X151720308Y-67859644D01*
X151733218Y-67998887D01*
X151719528Y-68140312D01*
X151650089Y-68198319D01*
X151487638Y-68209384D01*
X151322642Y-68197650D01*
X151254968Y-68138131D01*
X151242058Y-67998887D01*
X151255748Y-67857462D01*
X151325187Y-67799456D01*
X151487638Y-67788390D01*
X151652634Y-67800124D01*
G37*
G36*
X152085140Y-59662854D02*
G01*
X152143147Y-59732293D01*
X152154213Y-59894744D01*
X152142478Y-60059739D01*
X152082959Y-60127414D01*
X151943715Y-60140324D01*
X151802290Y-60126634D01*
X151744284Y-60057194D01*
X151733218Y-59894744D01*
X151744952Y-59729748D01*
X151804472Y-59662073D01*
X151943715Y-59649164D01*
X152085140Y-59662854D01*
G37*
G36*
X152085140Y-60715340D02*
G01*
X152143147Y-60784779D01*
X152154213Y-60947230D01*
X152142478Y-61112226D01*
X152082959Y-61179900D01*
X151943715Y-61192810D01*
X151802290Y-61179120D01*
X151744284Y-61109680D01*
X151733218Y-60947230D01*
X151744952Y-60782234D01*
X151804472Y-60714560D01*
X151943715Y-60701650D01*
X152085140Y-60715340D01*
G37*
G36*
X152092810Y-60227876D02*
G01*
X152147764Y-60309887D01*
X152154213Y-60420987D01*
X152136826Y-60570082D01*
X152054815Y-60625035D01*
X151943715Y-60631484D01*
X151794620Y-60614098D01*
X151739667Y-60532086D01*
X151733218Y-60420987D01*
X151750604Y-60271892D01*
X151832616Y-60216938D01*
X151943715Y-60210489D01*
X152092810Y-60227876D01*
G37*
G36*
X152092810Y-61280362D02*
G01*
X152147764Y-61362373D01*
X152154213Y-61473473D01*
X152136826Y-61622568D01*
X152054815Y-61677521D01*
X151943715Y-61683970D01*
X151794620Y-61666584D01*
X151739667Y-61584572D01*
X151733218Y-61473473D01*
X151750604Y-61324378D01*
X151832616Y-61269424D01*
X151943715Y-61262976D01*
X152092810Y-61280362D01*
G37*
G36*
X152155306Y-65135782D02*
G01*
X152213313Y-65205221D01*
X152224378Y-65367672D01*
X152212644Y-65532668D01*
X152153124Y-65600342D01*
X152013881Y-65613252D01*
X151872456Y-65599562D01*
X151814449Y-65530122D01*
X151803384Y-65367672D01*
X151815118Y-65202676D01*
X151874638Y-65135002D01*
X152013881Y-65122092D01*
X152155306Y-65135782D01*
G37*
G36*
X152155306Y-66188268D02*
G01*
X152213313Y-66257707D01*
X152224378Y-66420158D01*
X152212644Y-66585154D01*
X152153124Y-66652828D01*
X152013881Y-66665738D01*
X151872456Y-66652048D01*
X151814449Y-66582609D01*
X151803384Y-66420158D01*
X151815118Y-66255162D01*
X151874638Y-66187488D01*
X152013881Y-66174578D01*
X152155306Y-66188268D01*
G37*
G36*
X152155306Y-67240754D02*
G01*
X152213313Y-67310194D01*
X152224378Y-67472644D01*
X152212644Y-67637640D01*
X152153124Y-67705314D01*
X152013881Y-67718224D01*
X151872456Y-67704534D01*
X151814449Y-67635095D01*
X151803384Y-67472644D01*
X151815118Y-67307648D01*
X151874638Y-67239974D01*
X152013881Y-67227064D01*
X152155306Y-67240754D01*
G37*
G36*
X152162976Y-64648318D02*
G01*
X152217930Y-64730329D01*
X152224378Y-64841429D01*
X152206992Y-64990524D01*
X152124981Y-65045477D01*
X152013881Y-65051926D01*
X151864786Y-65034540D01*
X151809832Y-64952528D01*
X151803384Y-64841429D01*
X151820770Y-64692334D01*
X151902781Y-64637380D01*
X152013881Y-64630931D01*
X152162976Y-64648318D01*
G37*
G36*
X152162976Y-65700804D02*
G01*
X152217930Y-65782815D01*
X152224378Y-65893915D01*
X152206992Y-66043010D01*
X152124981Y-66097963D01*
X152013881Y-66104412D01*
X151864786Y-66087026D01*
X151809832Y-66005014D01*
X151803384Y-65893915D01*
X151820770Y-65744820D01*
X151902781Y-65689866D01*
X152013881Y-65683418D01*
X152162976Y-65700804D01*
G37*
G36*
X152162976Y-66753290D02*
G01*
X152217930Y-66835302D01*
X152224378Y-66946401D01*
X152206992Y-67095496D01*
X152124981Y-67150450D01*
X152013881Y-67156898D01*
X151864786Y-67139512D01*
X151809832Y-67057501D01*
X151803384Y-66946401D01*
X151820770Y-66797306D01*
X151902781Y-66742352D01*
X152013881Y-66735904D01*
X152162976Y-66753290D01*
G37*
G36*
X152162976Y-67805776D02*
G01*
X152217930Y-67887788D01*
X152224378Y-67998887D01*
X152206992Y-68147982D01*
X152124981Y-68202936D01*
X152013881Y-68209384D01*
X151864786Y-68191998D01*
X151809832Y-68109987D01*
X151803384Y-67998887D01*
X151820770Y-67849792D01*
X151902781Y-67794839D01*
X152013881Y-67788390D01*
X152162976Y-67805776D01*
G37*
G36*
X153067461Y-59662854D02*
G01*
X153125467Y-59732293D01*
X153136533Y-59894744D01*
X153124799Y-60059739D01*
X153065279Y-60127414D01*
X152926036Y-60140324D01*
X152784611Y-60126634D01*
X152726604Y-60057194D01*
X152715539Y-59894744D01*
X152727273Y-59729748D01*
X152786792Y-59662073D01*
X152926036Y-59649164D01*
X153067461Y-59662854D01*
G37*
G36*
X153067461Y-60715340D02*
G01*
X153125467Y-60784779D01*
X153136533Y-60947230D01*
X153124799Y-61112226D01*
X153065279Y-61179900D01*
X152926036Y-61192810D01*
X152784611Y-61179120D01*
X152726604Y-61109680D01*
X152715539Y-60947230D01*
X152727273Y-60782234D01*
X152786792Y-60714560D01*
X152926036Y-60701650D01*
X153067461Y-60715340D01*
G37*
G36*
X153075131Y-60227876D02*
G01*
X153130084Y-60309887D01*
X153136533Y-60420987D01*
X153119147Y-60570082D01*
X153037135Y-60625035D01*
X152926036Y-60631484D01*
X152776941Y-60614098D01*
X152721987Y-60532086D01*
X152715539Y-60420987D01*
X152732925Y-60271892D01*
X152814936Y-60216938D01*
X152926036Y-60210489D01*
X153075131Y-60227876D01*
G37*
G36*
X153617275Y-59169738D02*
G01*
X153684949Y-59229257D01*
X153697859Y-59368501D01*
X153684169Y-59509926D01*
X153614729Y-59567932D01*
X153452279Y-59578998D01*
X153287283Y-59567263D01*
X153219609Y-59507744D01*
X153206699Y-59368501D01*
X153220389Y-59227076D01*
X153289828Y-59169069D01*
X153452279Y-59158003D01*
X153617275Y-59169738D01*
G37*
G36*
X153617275Y-60222224D02*
G01*
X153684949Y-60281743D01*
X153697859Y-60420987D01*
X153684169Y-60562412D01*
X153614729Y-60620418D01*
X153452279Y-60631484D01*
X153287283Y-60619750D01*
X153219609Y-60560230D01*
X153206699Y-60420987D01*
X153220389Y-60279562D01*
X153289828Y-60221555D01*
X153452279Y-60210489D01*
X153617275Y-60222224D01*
G37*
G36*
X153617275Y-61274710D02*
G01*
X153684949Y-61334230D01*
X153697859Y-61473473D01*
X153684169Y-61614898D01*
X153614729Y-61672905D01*
X153452279Y-61683970D01*
X153287283Y-61672236D01*
X153219609Y-61612716D01*
X153206699Y-61473473D01*
X153220389Y-61332048D01*
X153289828Y-61274041D01*
X153452279Y-61262976D01*
X153617275Y-61274710D01*
G37*
G36*
X154127617Y-59175389D02*
G01*
X154182571Y-59257401D01*
X154189019Y-59368501D01*
X154171633Y-59517596D01*
X154089621Y-59572549D01*
X153978522Y-59578998D01*
X153829427Y-59561612D01*
X153774473Y-59479600D01*
X153768025Y-59368501D01*
X153785411Y-59219405D01*
X153867422Y-59164452D01*
X153978522Y-59158003D01*
X154127617Y-59175389D01*
G37*
G36*
X154127617Y-61280362D02*
G01*
X154182571Y-61362373D01*
X154189019Y-61473473D01*
X154171633Y-61622568D01*
X154089621Y-61677521D01*
X153978522Y-61683970D01*
X153829427Y-61666584D01*
X153774473Y-61584572D01*
X153768025Y-61473473D01*
X153785411Y-61324378D01*
X153867422Y-61269424D01*
X153978522Y-61262976D01*
X154127617Y-61280362D01*
G37*
G36*
X154669761Y-59169738D02*
G01*
X154737435Y-59229257D01*
X154750345Y-59368501D01*
X154736655Y-59509926D01*
X154667216Y-59567932D01*
X154504765Y-59578998D01*
X154339769Y-59567263D01*
X154272095Y-59507744D01*
X154259185Y-59368501D01*
X154272875Y-59227076D01*
X154342314Y-59169069D01*
X154504765Y-59158003D01*
X154669761Y-59169738D01*
G37*
G36*
X154669761Y-61274710D02*
G01*
X154737435Y-61334230D01*
X154750345Y-61473473D01*
X154736655Y-61614898D01*
X154667216Y-61672905D01*
X154504765Y-61683970D01*
X154339769Y-61672236D01*
X154272095Y-61612716D01*
X154259185Y-61473473D01*
X154272875Y-61332048D01*
X154342314Y-61274041D01*
X154504765Y-61262976D01*
X154669761Y-61274710D01*
G37*
G36*
X155172433Y-59662854D02*
G01*
X155230440Y-59732293D01*
X155241505Y-59894744D01*
X155229771Y-60059739D01*
X155170251Y-60127414D01*
X155031008Y-60140324D01*
X154889583Y-60126634D01*
X154831576Y-60057194D01*
X154820511Y-59894744D01*
X154832245Y-59729748D01*
X154891765Y-59662073D01*
X155031008Y-59649164D01*
X155172433Y-59662854D01*
G37*
G36*
X155172433Y-60715340D02*
G01*
X155230440Y-60784779D01*
X155241505Y-60947230D01*
X155229771Y-61112226D01*
X155170251Y-61179900D01*
X155031008Y-61192810D01*
X154889583Y-61179120D01*
X154831576Y-61109680D01*
X154820511Y-60947230D01*
X154832245Y-60782234D01*
X154891765Y-60714560D01*
X155031008Y-60701650D01*
X155172433Y-60715340D01*
G37*
G36*
X155180103Y-59175389D02*
G01*
X155235057Y-59257401D01*
X155241505Y-59368501D01*
X155224119Y-59517596D01*
X155142108Y-59572549D01*
X155031008Y-59578998D01*
X154881913Y-59561612D01*
X154826960Y-59479600D01*
X154820511Y-59368501D01*
X154837897Y-59219405D01*
X154919909Y-59164452D01*
X155031008Y-59158003D01*
X155180103Y-59175389D01*
G37*
G36*
X155180103Y-60227876D02*
G01*
X155235057Y-60309887D01*
X155241505Y-60420987D01*
X155224119Y-60570082D01*
X155142108Y-60625035D01*
X155031008Y-60631484D01*
X154881913Y-60614098D01*
X154826960Y-60532086D01*
X154820511Y-60420987D01*
X154837897Y-60271892D01*
X154919909Y-60216938D01*
X155031008Y-60210489D01*
X155180103Y-60227876D01*
G37*
G36*
X155180103Y-61280362D02*
G01*
X155235057Y-61362373D01*
X155241505Y-61473473D01*
X155224119Y-61622568D01*
X155142108Y-61677521D01*
X155031008Y-61683970D01*
X154881913Y-61666584D01*
X154826960Y-61584572D01*
X154820511Y-61473473D01*
X154837897Y-61324378D01*
X154919909Y-61269424D01*
X155031008Y-61262976D01*
X155180103Y-61280362D01*
G37*
G36*
X155663593Y-59662854D02*
G01*
X155721600Y-59732293D01*
X155732666Y-59894744D01*
X155720931Y-60059739D01*
X155661412Y-60127414D01*
X155522168Y-60140324D01*
X155380743Y-60126634D01*
X155322737Y-60057194D01*
X155311671Y-59894744D01*
X155323405Y-59729748D01*
X155382925Y-59662073D01*
X155522168Y-59649164D01*
X155663593Y-59662854D01*
G37*
G36*
X155671263Y-59175389D02*
G01*
X155726217Y-59257401D01*
X155732666Y-59368501D01*
X155715279Y-59517596D01*
X155633268Y-59572549D01*
X155522168Y-59578998D01*
X155373073Y-59561612D01*
X155318120Y-59479600D01*
X155311671Y-59368501D01*
X155329057Y-59219405D01*
X155411069Y-59164452D01*
X155522168Y-59158003D01*
X155671263Y-59175389D01*
G37*
G36*
X155671263Y-60227876D02*
G01*
X155726217Y-60309887D01*
X155732666Y-60420987D01*
X155715279Y-60570082D01*
X155633268Y-60625035D01*
X155522168Y-60631484D01*
X155373073Y-60614098D01*
X155318120Y-60532086D01*
X155311671Y-60420987D01*
X155329057Y-60271892D01*
X155411069Y-60216938D01*
X155522168Y-60210489D01*
X155671263Y-60227876D01*
G37*
G36*
X155671263Y-61280362D02*
G01*
X155726217Y-61362373D01*
X155732666Y-61473473D01*
X155715279Y-61622568D01*
X155633268Y-61677521D01*
X155522168Y-61683970D01*
X155373073Y-61666584D01*
X155318120Y-61584572D01*
X155311671Y-61473473D01*
X155329057Y-61324378D01*
X155411069Y-61269424D01*
X155522168Y-61262976D01*
X155671263Y-61280362D01*
G37*
G36*
X133617222Y-58658296D02*
G01*
X133630383Y-58807294D01*
X133630456Y-58837812D01*
X133619315Y-59004715D01*
X133561907Y-59073958D01*
X133422251Y-59087834D01*
X133417756Y-59087838D01*
X133250936Y-59057062D01*
X133166242Y-58986688D01*
X133141705Y-58788432D01*
X133238466Y-58657992D01*
X133402992Y-58609773D01*
X133554309Y-58605373D01*
X133617222Y-58658296D01*
G37*
G36*
X133617222Y-59710782D02*
G01*
X133630383Y-59859780D01*
X133630456Y-59890298D01*
X133619315Y-60057201D01*
X133561907Y-60126444D01*
X133422251Y-60140320D01*
X133417756Y-60140324D01*
X133250936Y-60109548D01*
X133166242Y-60039174D01*
X133141705Y-59840918D01*
X133238466Y-59710478D01*
X133402992Y-59662259D01*
X133554309Y-59657859D01*
X133617222Y-59710782D01*
G37*
G36*
X137195675Y-58658296D02*
G01*
X137208836Y-58807294D01*
X137208909Y-58837812D01*
X137197768Y-59004715D01*
X137140360Y-59073958D01*
X137000704Y-59087834D01*
X136996209Y-59087838D01*
X136829389Y-59057062D01*
X136744695Y-58986688D01*
X136720158Y-58788432D01*
X136816919Y-58657992D01*
X136981445Y-58609773D01*
X137132763Y-58605373D01*
X137195675Y-58658296D01*
G37*
G36*
X137195675Y-59710782D02*
G01*
X137208836Y-59859780D01*
X137208909Y-59890298D01*
X137197768Y-60057201D01*
X137140360Y-60126444D01*
X137000704Y-60140320D01*
X136996209Y-60140324D01*
X136829389Y-60109548D01*
X136744695Y-60039174D01*
X136720158Y-59840918D01*
X136816919Y-59710478D01*
X136981445Y-59662259D01*
X137132763Y-59657859D01*
X137195675Y-59710782D01*
G37*
G36*
X138138605Y-65135188D02*
G01*
X138296635Y-65166829D01*
X138357954Y-65248722D01*
X138366643Y-65367672D01*
X138344364Y-65522704D01*
X138253733Y-65587614D01*
X138188603Y-65598932D01*
X138035335Y-65597060D01*
X137960565Y-65569696D01*
X137924200Y-65469215D01*
X137910566Y-65316449D01*
X137924336Y-65178442D01*
X137994518Y-65130349D01*
X138138605Y-65135188D01*
G37*
G36*
X139191091Y-66187674D02*
G01*
X139349121Y-66219315D01*
X139410440Y-66301209D01*
X139419130Y-66420158D01*
X139396850Y-66575190D01*
X139306219Y-66640100D01*
X139241089Y-66651418D01*
X139087822Y-66649546D01*
X139013051Y-66622182D01*
X138976686Y-66521701D01*
X138963052Y-66368935D01*
X138976822Y-66230928D01*
X139047005Y-66182835D01*
X139191091Y-66187674D01*
G37*
G36*
X144804351Y-66187674D02*
G01*
X144962381Y-66219315D01*
X145023700Y-66301209D01*
X145032389Y-66420158D01*
X145010110Y-66575190D01*
X144919479Y-66640100D01*
X144854349Y-66651418D01*
X144701081Y-66649546D01*
X144626310Y-66622182D01*
X144589946Y-66521701D01*
X144576312Y-66368935D01*
X144590082Y-66230928D01*
X144660264Y-66182835D01*
X144804351Y-66187674D01*
G37*
G36*
X147033207Y-67240754D02*
G01*
X147091213Y-67310194D01*
X147102279Y-67472644D01*
X147088510Y-67639411D01*
X147029225Y-67707533D01*
X146938559Y-67718224D01*
X146791203Y-67700087D01*
X146728062Y-67671447D01*
X146693786Y-67573306D01*
X146681284Y-67425867D01*
X146700111Y-67284752D01*
X146786081Y-67232809D01*
X146891782Y-67227064D01*
X147033207Y-67240754D01*
G37*
G36*
X147751312Y-59662259D02*
G01*
X147909342Y-59693901D01*
X147970661Y-59775794D01*
X147979351Y-59894744D01*
X147957071Y-60049776D01*
X147866440Y-60114685D01*
X147801310Y-60126004D01*
X147648043Y-60124132D01*
X147573272Y-60096768D01*
X147536907Y-59996287D01*
X147523273Y-59843521D01*
X147537043Y-59705514D01*
X147607226Y-59657421D01*
X147751312Y-59662259D01*
G37*
G36*
X148632692Y-66236197D02*
G01*
X148645853Y-66385194D01*
X148645925Y-66415712D01*
X148634785Y-66582615D01*
X148577376Y-66651858D01*
X148437720Y-66665735D01*
X148433226Y-66665738D01*
X148266405Y-66634963D01*
X148181712Y-66564588D01*
X148157174Y-66366332D01*
X148253936Y-66235892D01*
X148418461Y-66187674D01*
X148569779Y-66183274D01*
X148632692Y-66236197D01*
G37*
G36*
X149980168Y-60715340D02*
G01*
X150038175Y-60784779D01*
X150049240Y-60947230D01*
X150035472Y-61113997D01*
X149976186Y-61182118D01*
X149885520Y-61192810D01*
X149738164Y-61174673D01*
X149675023Y-61146033D01*
X149640748Y-61047892D01*
X149628246Y-60900453D01*
X149647072Y-60759337D01*
X149733042Y-60707395D01*
X149838743Y-60701650D01*
X149980168Y-60715340D01*
G37*
G36*
X151470097Y-65135188D02*
G01*
X151628127Y-65166829D01*
X151689446Y-65248722D01*
X151698135Y-65367672D01*
X151675855Y-65522704D01*
X151585225Y-65587614D01*
X151520095Y-65598932D01*
X151366827Y-65597060D01*
X151292056Y-65569696D01*
X151255692Y-65469215D01*
X151242058Y-65316449D01*
X151255828Y-65178442D01*
X151326010Y-65130349D01*
X151470097Y-65135188D01*
G37*
G36*
X153434737Y-59662259D02*
G01*
X153592768Y-59693901D01*
X153654087Y-59775794D01*
X153662776Y-59894744D01*
X153640496Y-60049776D01*
X153549866Y-60114685D01*
X153484736Y-60126004D01*
X153331468Y-60124132D01*
X153256697Y-60096768D01*
X153220332Y-59996287D01*
X153206699Y-59843521D01*
X153220468Y-59705514D01*
X153290651Y-59657421D01*
X153434737Y-59662259D01*
G37*
G36*
X155663593Y-60715340D02*
G01*
X155721600Y-60784779D01*
X155732666Y-60947230D01*
X155718897Y-61113997D01*
X155659612Y-61182118D01*
X155568945Y-61192810D01*
X155421590Y-61174673D01*
X155358448Y-61146033D01*
X155324173Y-61047892D01*
X155311671Y-60900453D01*
X155330498Y-60759337D01*
X155416467Y-60707395D01*
X155522168Y-60701650D01*
X155663593Y-60715340D01*
G37*
G36*
X135659723Y-60710942D02*
G01*
X135723694Y-60764659D01*
X135724963Y-60901558D01*
X135722332Y-60929688D01*
X135684313Y-61095006D01*
X135590310Y-61165847D01*
X135522305Y-61178490D01*
X135369037Y-61176618D01*
X135294266Y-61149254D01*
X135257582Y-61048493D01*
X135244268Y-60900453D01*
X135258839Y-60767523D01*
X135330538Y-60712384D01*
X135494293Y-60701650D01*
X135659723Y-60710942D01*
G37*
G36*
X138326022Y-66183871D02*
G01*
X138389992Y-66237587D01*
X138391262Y-66374486D01*
X138388631Y-66402617D01*
X138350611Y-66567934D01*
X138256608Y-66638776D01*
X138188603Y-66651418D01*
X138035335Y-66649546D01*
X137960565Y-66622182D01*
X137923880Y-66521421D01*
X137910566Y-66373381D01*
X137925137Y-66240451D01*
X137996836Y-66185312D01*
X138160592Y-66174578D01*
X138326022Y-66183871D01*
G37*
G36*
X138326022Y-67236357D02*
G01*
X138389992Y-67290073D01*
X138391262Y-67426972D01*
X138388631Y-67455103D01*
X138350611Y-67620420D01*
X138256608Y-67691262D01*
X138188603Y-67703904D01*
X138035335Y-67702032D01*
X137960565Y-67674668D01*
X137923880Y-67573907D01*
X137910566Y-67425867D01*
X137925137Y-67292937D01*
X137996836Y-67237798D01*
X138160592Y-67227064D01*
X138326022Y-67236357D01*
G37*
G36*
X139238176Y-59658456D02*
G01*
X139302147Y-59712173D01*
X139303416Y-59849071D01*
X139300785Y-59877202D01*
X139262766Y-60042519D01*
X139168763Y-60113361D01*
X139100758Y-60126004D01*
X138947490Y-60124132D01*
X138872719Y-60096768D01*
X138836035Y-59996006D01*
X138822721Y-59847966D01*
X138837292Y-59715037D01*
X138908991Y-59659897D01*
X139072747Y-59649164D01*
X139238176Y-59658456D01*
G37*
G36*
X139238176Y-60710942D02*
G01*
X139302147Y-60764659D01*
X139303416Y-60901558D01*
X139300785Y-60929688D01*
X139262766Y-61095006D01*
X139168763Y-61165847D01*
X139100758Y-61178490D01*
X138947490Y-61176618D01*
X138872719Y-61149254D01*
X138836035Y-61048493D01*
X138822721Y-60900453D01*
X138837292Y-60767523D01*
X138908991Y-60712384D01*
X139072747Y-60701650D01*
X139238176Y-60710942D01*
G37*
G36*
X140220497Y-59658456D02*
G01*
X140284468Y-59712173D01*
X140285737Y-59849071D01*
X140283106Y-59877202D01*
X140245086Y-60042519D01*
X140151083Y-60113361D01*
X140083078Y-60126004D01*
X139929811Y-60124132D01*
X139855040Y-60096768D01*
X139818355Y-59996006D01*
X139805041Y-59847966D01*
X139819612Y-59715037D01*
X139891311Y-59659897D01*
X140055067Y-59649164D01*
X140220497Y-59658456D01*
G37*
G36*
X140220497Y-60710942D02*
G01*
X140284468Y-60764659D01*
X140285737Y-60901558D01*
X140283106Y-60929688D01*
X140245086Y-61095006D01*
X140151083Y-61165847D01*
X140083078Y-61178490D01*
X139929811Y-61176618D01*
X139855040Y-61149254D01*
X139818355Y-61048493D01*
X139805041Y-60900453D01*
X139819612Y-60767523D01*
X139891311Y-60712384D01*
X140055067Y-60701650D01*
X140220497Y-60710942D01*
G37*
G36*
X143814613Y-60714398D02*
G01*
X143866068Y-60781698D01*
X143861559Y-60929688D01*
X143824915Y-61093366D01*
X143731850Y-61164199D01*
X143646616Y-61179929D01*
X143518146Y-61181661D01*
X143464574Y-61120805D01*
X143453665Y-60959266D01*
X143453660Y-60951890D01*
X143464711Y-60784929D01*
X143522097Y-60715624D01*
X143662169Y-60701656D01*
X143668603Y-60701650D01*
X143814613Y-60714398D01*
G37*
G36*
X144991768Y-67236357D02*
G01*
X145055738Y-67290073D01*
X145057008Y-67426972D01*
X145054376Y-67455103D01*
X145016357Y-67620420D01*
X144922354Y-67691262D01*
X144854349Y-67703904D01*
X144701081Y-67702032D01*
X144626310Y-67674668D01*
X144589626Y-67573907D01*
X144576312Y-67425867D01*
X144590883Y-67292937D01*
X144662582Y-67237798D01*
X144826338Y-67227064D01*
X144991768Y-67236357D01*
G37*
G36*
X145903922Y-60710942D02*
G01*
X145967893Y-60764659D01*
X145969162Y-60901558D01*
X145966531Y-60929688D01*
X145928512Y-61095006D01*
X145834509Y-61165847D01*
X145766504Y-61178490D01*
X145613236Y-61176618D01*
X145538465Y-61149254D01*
X145501780Y-61048493D01*
X145488467Y-60900453D01*
X145503038Y-60767523D01*
X145574737Y-60712384D01*
X145738492Y-60701650D01*
X145903922Y-60710942D01*
G37*
G36*
X147938729Y-60710942D02*
G01*
X148002700Y-60764659D01*
X148003969Y-60901558D01*
X148001338Y-60929688D01*
X147963318Y-61095006D01*
X147869315Y-61165847D01*
X147801310Y-61178490D01*
X147648043Y-61176618D01*
X147573272Y-61149254D01*
X147536587Y-61048493D01*
X147523273Y-60900453D01*
X147537844Y-60767523D01*
X147609543Y-60712384D01*
X147773299Y-60701650D01*
X147938729Y-60710942D01*
G37*
G36*
X150675193Y-66183871D02*
G01*
X150739164Y-66237587D01*
X150740433Y-66374486D01*
X150737802Y-66402617D01*
X150699783Y-66567934D01*
X150605780Y-66638776D01*
X150537775Y-66651418D01*
X150384507Y-66649546D01*
X150309736Y-66622182D01*
X150273051Y-66521421D01*
X150259737Y-66373381D01*
X150274308Y-66240451D01*
X150346007Y-66185312D01*
X150509763Y-66174578D01*
X150675193Y-66183871D01*
G37*
G36*
X151603011Y-60714398D02*
G01*
X151654466Y-60781698D01*
X151649956Y-60929688D01*
X151613312Y-61093366D01*
X151520248Y-61164199D01*
X151435014Y-61179929D01*
X151306544Y-61181661D01*
X151252972Y-61120805D01*
X151242063Y-60959266D01*
X151242058Y-60951890D01*
X151253109Y-60784929D01*
X151310495Y-60715624D01*
X151450567Y-60701656D01*
X151457001Y-60701650D01*
X151603011Y-60714398D01*
G37*
G36*
X151657513Y-66183871D02*
G01*
X151721484Y-66237587D01*
X151722753Y-66374486D01*
X151720122Y-66402617D01*
X151682103Y-66567934D01*
X151588100Y-66638776D01*
X151520095Y-66651418D01*
X151366827Y-66649546D01*
X151292056Y-66622182D01*
X151255372Y-66521421D01*
X151242058Y-66373381D01*
X151256629Y-66240451D01*
X151328328Y-66185312D01*
X151492084Y-66174578D01*
X151657513Y-66183871D01*
G37*
G36*
X151657513Y-67236357D02*
G01*
X151721484Y-67290073D01*
X151722753Y-67426972D01*
X151720122Y-67455103D01*
X151682103Y-67620420D01*
X151588100Y-67691262D01*
X151520095Y-67703904D01*
X151366827Y-67702032D01*
X151292056Y-67674668D01*
X151255372Y-67573907D01*
X151242058Y-67425867D01*
X151256629Y-67292937D01*
X151328328Y-67237798D01*
X151492084Y-67227064D01*
X151657513Y-67236357D01*
G37*
G36*
X153622154Y-60710942D02*
G01*
X153686125Y-60764659D01*
X153687394Y-60901558D01*
X153684763Y-60929688D01*
X153646744Y-61095006D01*
X153552741Y-61165847D01*
X153484736Y-61178490D01*
X153331468Y-61176618D01*
X153256697Y-61149254D01*
X153220012Y-61048493D01*
X153206699Y-60900453D01*
X153221270Y-60767523D01*
X153292969Y-60712384D01*
X153456724Y-60701650D01*
X153622154Y-60710942D01*
G37*
D13*
%TO.C,C4*%
X141829200Y-74758436D02*
X141829200Y-74542764D01*
X142549200Y-74758436D02*
X142549200Y-74542764D01*
%TO.C,J6*%
X178397800Y-57466150D02*
X178837800Y-57466150D01*
X178397800Y-59156150D02*
X178397800Y-57466150D01*
X178397800Y-61626150D02*
X176597800Y-61626150D01*
X178397800Y-61626150D02*
X178397800Y-63316150D01*
X178397800Y-63316150D02*
X178837800Y-63316150D01*
X181557800Y-63316150D02*
X181997800Y-63316150D01*
X181997800Y-57466150D02*
X181557800Y-57466150D01*
X181997800Y-63316150D02*
X181997800Y-57466150D01*
%TO.C,JP2*%
X114754200Y-60158850D02*
X114754200Y-59558850D01*
X115454200Y-58858850D02*
X116854200Y-58858850D01*
X116854200Y-60858850D02*
X115454200Y-60858850D01*
X117554200Y-59558850D02*
X117554200Y-60158850D01*
X114754200Y-59558850D02*
G75*
G02*
X115454200Y-58858850I699999J1D01*
G01*
X115454200Y-60858850D02*
G75*
G02*
X114754200Y-60158850I-1J699999D01*
G01*
X116854200Y-58858850D02*
G75*
G02*
X117554200Y-59558850I0J-700000D01*
G01*
X117554200Y-60158850D02*
G75*
G02*
X116854200Y-60858850I-700000J0D01*
G01*
D14*
%TO.C,U6*%
X118297900Y-67477300D02*
X118297900Y-67731300D01*
X118297900Y-70220500D02*
X118297900Y-70474500D01*
X118297900Y-70474500D02*
X118551900Y-70474500D01*
X118551900Y-67477300D02*
X118297900Y-67477300D01*
X121041100Y-70474500D02*
X121295100Y-70474500D01*
X121295100Y-67477300D02*
X121041100Y-67477300D01*
X121295100Y-67731300D02*
X121295100Y-67477300D01*
X121295100Y-70474500D02*
X121295100Y-70220500D01*
D17*
X122258303Y-70175900D02*
G75*
G02*
X122034697Y-70175900I-111803J0D01*
G01*
X122034697Y-70175900D02*
G75*
G02*
X122258303Y-70175900I111803J0D01*
G01*
D13*
%TO.C,C41*%
X154365536Y-72252200D02*
X154149864Y-72252200D01*
X154365536Y-72972200D02*
X154149864Y-72972200D01*
%TO.C,R20*%
X141630159Y-108541800D02*
X141937441Y-108541800D01*
X141630159Y-109301800D02*
X141937441Y-109301800D01*
%TO.C,C25*%
X143605364Y-73808000D02*
X143821036Y-73808000D01*
X143605364Y-74528000D02*
X143821036Y-74528000D01*
%TO.C,C21*%
X171877400Y-85762564D02*
X171877400Y-85978236D01*
X172597400Y-85762564D02*
X172597400Y-85978236D01*
%TO.C,C19*%
X140460000Y-74496180D02*
X140460000Y-74215020D01*
X141480000Y-74496180D02*
X141480000Y-74215020D01*
%TO.C,R7*%
X163701759Y-107695000D02*
X164009041Y-107695000D01*
X163701759Y-108455000D02*
X164009041Y-108455000D01*
%TO.C,R30*%
X172673200Y-78222041D02*
X172673200Y-77914759D01*
X173433200Y-78222041D02*
X173433200Y-77914759D01*
%TO.C,R13*%
X176252200Y-118104764D02*
X176252200Y-117650636D01*
X177722200Y-118104764D02*
X177722200Y-117650636D01*
%TO.C,R32*%
X170590400Y-78222041D02*
X170590400Y-77914759D01*
X171350400Y-78222041D02*
X171350400Y-77914759D01*
%TO.C,R9*%
X163701759Y-101095000D02*
X164009041Y-101095000D01*
X163701759Y-101855000D02*
X164009041Y-101855000D01*
D16*
%TO.C,kibuzzard-6641D19D*%
G36*
X116763944Y-98110372D02*
G01*
X116817737Y-98137074D01*
X116852567Y-98182740D01*
X116864177Y-98248529D01*
X116820833Y-98356115D01*
X116763944Y-98384559D01*
X116679966Y-98394040D01*
X116638170Y-98394040D01*
X116638170Y-98106115D01*
X116669130Y-98102245D01*
X116695446Y-98101471D01*
X116763944Y-98110372D01*
G37*
G36*
X120398742Y-97670652D02*
G01*
X120472323Y-97681567D01*
X120544480Y-97699641D01*
X120614518Y-97724701D01*
X120681763Y-97756506D01*
X120745566Y-97794748D01*
X120805314Y-97839060D01*
X120860430Y-97889015D01*
X120910385Y-97944131D01*
X120954697Y-98003879D01*
X120992939Y-98067682D01*
X121024744Y-98134927D01*
X121049804Y-98204965D01*
X121067878Y-98277122D01*
X121078793Y-98350703D01*
X121082443Y-98425000D01*
X121078793Y-98499297D01*
X121067878Y-98572878D01*
X121049804Y-98645035D01*
X121024744Y-98715073D01*
X120992939Y-98782318D01*
X120954697Y-98846121D01*
X120910385Y-98905869D01*
X120860430Y-98960985D01*
X120805314Y-99010940D01*
X120745566Y-99055252D01*
X120681763Y-99093494D01*
X120614518Y-99125299D01*
X120544480Y-99150359D01*
X120472323Y-99168433D01*
X120398742Y-99179348D01*
X120324445Y-99182998D01*
X120195446Y-99182998D01*
X119943124Y-99182998D01*
X118783681Y-99182998D01*
X118271297Y-99182998D01*
X117235694Y-99182998D01*
X117121143Y-99182998D01*
X116447768Y-99182998D01*
X116318769Y-99182998D01*
X115813437Y-98425000D01*
X116123034Y-97960604D01*
X116447768Y-97960604D01*
X116447768Y-98904876D01*
X116638170Y-98904876D01*
X116638170Y-98551935D01*
X116737242Y-98551935D01*
X116789680Y-98639590D01*
X116838635Y-98726084D01*
X116882946Y-98813738D01*
X116921452Y-98904876D01*
X117121143Y-98904876D01*
X117235694Y-98904876D01*
X117850245Y-98904876D01*
X117850245Y-98852245D01*
X117974084Y-98852245D01*
X118080895Y-98899458D01*
X118164099Y-98918615D01*
X118271297Y-98925000D01*
X118379915Y-98916830D01*
X118423075Y-98904876D01*
X118783681Y-98904876D01*
X119398232Y-98904876D01*
X119398232Y-98746981D01*
X118974084Y-98746981D01*
X118974084Y-98477632D01*
X119313093Y-98477632D01*
X119313093Y-98319737D01*
X118974084Y-98319737D01*
X118974084Y-98104567D01*
X119364177Y-98104567D01*
X119498852Y-98104567D01*
X119751174Y-98104567D01*
X119751174Y-98904876D01*
X119943124Y-98904876D01*
X119943124Y-98104567D01*
X120195446Y-98104567D01*
X120195446Y-97946672D01*
X119498852Y-97946672D01*
X119498852Y-98104567D01*
X119364177Y-98104567D01*
X119364177Y-97946672D01*
X118783681Y-97946672D01*
X118783681Y-98904876D01*
X118423075Y-98904876D01*
X118468408Y-98892320D01*
X118536777Y-98851471D01*
X118602373Y-98762655D01*
X118624239Y-98643266D01*
X118617660Y-98571091D01*
X118597923Y-98512461D01*
X118530585Y-98425774D01*
X118440802Y-98370046D01*
X118347149Y-98332121D01*
X118287551Y-98308901D01*
X118233372Y-98280263D01*
X118193898Y-98243111D01*
X118178418Y-98194350D01*
X118195274Y-98133290D01*
X118245842Y-98096655D01*
X118330121Y-98084443D01*
X118439254Y-98099923D01*
X118525167Y-98137074D01*
X118580895Y-97990015D01*
X118470214Y-97945124D01*
X118398813Y-97930031D01*
X118316189Y-97925000D01*
X118221332Y-97933428D01*
X118141094Y-97958712D01*
X118075477Y-98000851D01*
X118009881Y-98091409D01*
X117988016Y-98211378D01*
X118012783Y-98325155D01*
X118075477Y-98401780D01*
X118159842Y-98452864D01*
X118249626Y-98488467D01*
X118314641Y-98515557D01*
X118373465Y-98548065D01*
X118416808Y-98589087D01*
X118433836Y-98641718D01*
X118426870Y-98687384D01*
X118401328Y-98727632D01*
X118351019Y-98755495D01*
X118271297Y-98765557D01*
X118194092Y-98760139D01*
X118129657Y-98743885D01*
X118029811Y-98697446D01*
X117974084Y-98852245D01*
X117850245Y-98852245D01*
X117850245Y-98746981D01*
X117426096Y-98746981D01*
X117426096Y-98477632D01*
X117765105Y-98477632D01*
X117765105Y-98319737D01*
X117426096Y-98319737D01*
X117426096Y-98104567D01*
X117816189Y-98104567D01*
X117816189Y-97946672D01*
X117235694Y-97946672D01*
X117235694Y-98904876D01*
X117121143Y-98904876D01*
X117077025Y-98803483D01*
X117023619Y-98696672D01*
X116966344Y-98594505D01*
X116910616Y-98505495D01*
X116978341Y-98461765D01*
X117023619Y-98401780D01*
X117049161Y-98329799D01*
X117057675Y-98250077D01*
X117051290Y-98174807D01*
X117032133Y-98109985D01*
X116958604Y-98011687D01*
X116905972Y-97978019D01*
X116844053Y-97954412D01*
X116773619Y-97940480D01*
X116695446Y-97935836D01*
X116641266Y-97937384D01*
X116576251Y-97941254D01*
X116508914Y-97948994D01*
X116447768Y-97960604D01*
X116123034Y-97960604D01*
X116318769Y-97667002D01*
X116447768Y-97667002D01*
X120195446Y-97667002D01*
X120324445Y-97667002D01*
X120398742Y-97670652D01*
G37*
%TO.C,kibuzzard-6641D1AA*%
G36*
X116858759Y-110026967D02*
G01*
X116902876Y-110126812D01*
X116887396Y-110195698D01*
X116847923Y-110237494D01*
X116792969Y-110257617D01*
X116729502Y-110263035D01*
X116682288Y-110261487D01*
X116638170Y-110256843D01*
X116638170Y-109996782D01*
X116740338Y-109996782D01*
X116858759Y-110026967D01*
G37*
G36*
X116775941Y-109616751D02*
G01*
X116819285Y-109632230D01*
X116848697Y-109664738D01*
X116859533Y-109719692D01*
X116822381Y-109807153D01*
X116712474Y-109838887D01*
X116638170Y-109838887D01*
X116638170Y-109619073D01*
X116679966Y-109614429D01*
X116724858Y-109612881D01*
X116775941Y-109616751D01*
G37*
G36*
X119142621Y-109620427D02*
G01*
X119193124Y-109684862D01*
X119215914Y-109750823D01*
X119229588Y-109834157D01*
X119234146Y-109934862D01*
X119229588Y-110036427D01*
X119215914Y-110120277D01*
X119193124Y-110186410D01*
X119142621Y-110250845D01*
X119074703Y-110271845D01*
X119073155Y-110272323D01*
X119004656Y-110250845D01*
X118953960Y-110186410D01*
X118930740Y-110120277D01*
X118916808Y-110036427D01*
X118912164Y-109934862D01*
X118912878Y-109919382D01*
X118988016Y-109919382D01*
X119011235Y-109991364D01*
X119074703Y-110021549D01*
X119135848Y-109991364D01*
X119159842Y-109919382D01*
X119135848Y-109846627D01*
X119074703Y-109815667D01*
X119011235Y-109846627D01*
X118988016Y-109919382D01*
X118912878Y-109919382D01*
X118916808Y-109834157D01*
X118930740Y-109750823D01*
X118953960Y-109684862D01*
X119004656Y-109620427D01*
X119073155Y-109598949D01*
X119142621Y-109620427D01*
G37*
G36*
X119609268Y-109182062D02*
G01*
X119682849Y-109192977D01*
X119755006Y-109211051D01*
X119825044Y-109236111D01*
X119892289Y-109267916D01*
X119956092Y-109306158D01*
X120015840Y-109350470D01*
X120070957Y-109400425D01*
X120120911Y-109455541D01*
X120165223Y-109515289D01*
X120203466Y-109579092D01*
X120235270Y-109646337D01*
X120260330Y-109716375D01*
X120278404Y-109788532D01*
X120289319Y-109862113D01*
X120292969Y-109936410D01*
X120289319Y-110010707D01*
X120278404Y-110084288D01*
X120260330Y-110156445D01*
X120235270Y-110226483D01*
X120203466Y-110293728D01*
X120165223Y-110357531D01*
X120120911Y-110417279D01*
X120070957Y-110472395D01*
X120015840Y-110522350D01*
X119956092Y-110566662D01*
X119892289Y-110604904D01*
X119825044Y-110636709D01*
X119755006Y-110661769D01*
X119682849Y-110679843D01*
X119609268Y-110690758D01*
X119534971Y-110694408D01*
X119405972Y-110694408D01*
X119073155Y-110694408D01*
X118461700Y-110694408D01*
X117621142Y-110694408D01*
X116714022Y-110694408D01*
X116447768Y-110694408D01*
X116318769Y-110694408D01*
X115813437Y-109936410D01*
X116124066Y-109470466D01*
X116447768Y-109470466D01*
X116447768Y-110400806D01*
X116514718Y-110412997D01*
X116582443Y-110421704D01*
X116649393Y-110426929D01*
X116714022Y-110428670D01*
X116790454Y-110424994D01*
X116861855Y-110413964D01*
X116926096Y-110394227D01*
X116981050Y-110364429D01*
X117060771Y-110271549D01*
X117082830Y-110206340D01*
X117090183Y-110126812D01*
X117081475Y-110061797D01*
X117055353Y-109999877D01*
X117004850Y-109945698D01*
X116923000Y-109903902D01*
X117012009Y-109820311D01*
X117036971Y-109763809D01*
X117045291Y-109699568D01*
X117032320Y-109615977D01*
X117176870Y-109615977D01*
X117429192Y-109615977D01*
X117429192Y-110416286D01*
X117621142Y-110416286D01*
X117983372Y-110416286D01*
X118155198Y-110416286D01*
X118155198Y-109780063D01*
X118212732Y-109886272D01*
X118267685Y-109992310D01*
X118320059Y-110098175D01*
X118369852Y-110204040D01*
X118417066Y-110310077D01*
X118461700Y-110416286D01*
X118614951Y-110416286D01*
X118614951Y-109934862D01*
X118740338Y-109934862D01*
X118745659Y-110053670D01*
X118761622Y-110156224D01*
X118788228Y-110242525D01*
X118825477Y-110312571D01*
X118890836Y-110381370D01*
X118973396Y-110422650D01*
X119073155Y-110436410D01*
X119172914Y-110422650D01*
X119255473Y-110381370D01*
X119320833Y-110312571D01*
X119358081Y-110242525D01*
X119384687Y-110156224D01*
X119400651Y-110053670D01*
X119405972Y-109934862D01*
X119400651Y-109816780D01*
X119384687Y-109714854D01*
X119358081Y-109629086D01*
X119320833Y-109559475D01*
X119255473Y-109491106D01*
X119172914Y-109450084D01*
X119073155Y-109436410D01*
X118974944Y-109450170D01*
X118892900Y-109491450D01*
X118827025Y-109560249D01*
X118789099Y-109630102D01*
X118762009Y-109715822D01*
X118745755Y-109817408D01*
X118740338Y-109934862D01*
X118614951Y-109934862D01*
X118614951Y-109458082D01*
X118443124Y-109458082D01*
X118443124Y-110047865D01*
X118415841Y-109987494D01*
X118383526Y-109917834D01*
X118347149Y-109842370D01*
X118307675Y-109764583D01*
X118266073Y-109685443D01*
X118223310Y-109605915D01*
X118179966Y-109529096D01*
X118136622Y-109458082D01*
X117983372Y-109458082D01*
X117983372Y-110416286D01*
X117621142Y-110416286D01*
X117621142Y-109615977D01*
X117873464Y-109615977D01*
X117873464Y-109458082D01*
X117176870Y-109458082D01*
X117176870Y-109615977D01*
X117032320Y-109615977D01*
X117031359Y-109609785D01*
X116978728Y-109528515D01*
X116871916Y-109469692D01*
X116793743Y-109452857D01*
X116695446Y-109447246D01*
X116566963Y-109454212D01*
X116447768Y-109470466D01*
X116124066Y-109470466D01*
X116318769Y-109178412D01*
X116447768Y-109178412D01*
X119405972Y-109178412D01*
X119534971Y-109178412D01*
X119609268Y-109182062D01*
G37*
D18*
%TO.C,J3*%
X167657400Y-100932800D02*
X167657400Y-97832800D01*
X169107400Y-96307800D02*
X176407400Y-96307800D01*
X169157400Y-111057800D02*
X176457400Y-111057800D01*
X179157400Y-96307800D02*
X182157400Y-96307800D01*
X179157400Y-111057800D02*
X180657400Y-111057800D01*
X180657400Y-111057800D02*
X180657400Y-104031658D01*
X181002154Y-102407104D02*
X182157400Y-99807800D01*
X182157400Y-96307800D02*
X182157400Y-99807800D01*
X180657400Y-104031658D02*
G75*
G02*
X181002154Y-102407104I4000016J-4D01*
G01*
D13*
%TO.C,D8*%
X127330900Y-49172800D02*
X123320900Y-49172800D01*
X127330900Y-51172800D02*
X123320900Y-51172800D01*
X127330900Y-51172800D02*
X127330900Y-49172800D01*
%TO.C,R10*%
X164009041Y-109729000D02*
X163701759Y-109729000D01*
X164009041Y-110489000D02*
X163701759Y-110489000D01*
%TO.C,U1*%
X173199600Y-89140400D02*
X173199600Y-85140400D01*
X179419600Y-93140400D02*
X179419600Y-85140400D01*
%TO.C,C6*%
X152561636Y-99966200D02*
X152345964Y-99966200D01*
X152561636Y-100686200D02*
X152345964Y-100686200D01*
%TO.C,JP4*%
X130045000Y-56992800D02*
X130045000Y-56392800D01*
X130745000Y-55692800D02*
X132145000Y-55692800D01*
X132145000Y-57692800D02*
X130745000Y-57692800D01*
X132845000Y-56392800D02*
X132845000Y-56992800D01*
X130045000Y-56392800D02*
G75*
G02*
X130745000Y-55692800I700000J0D01*
G01*
X130745000Y-57692800D02*
G75*
G02*
X130045000Y-56992800I0J700000D01*
G01*
X132145000Y-55692800D02*
G75*
G02*
X132845000Y-56392800I1J-699999D01*
G01*
X132845000Y-56992800D02*
G75*
G02*
X132145000Y-57692800I-699999J-1D01*
G01*
D11*
%TO.C,J2*%
X132440400Y-50560000D02*
X132440400Y-54385000D01*
X154365400Y-48485000D02*
X134015400Y-48485000D01*
X155940400Y-50560000D02*
X155940400Y-54385000D01*
X155940400Y-54385000D02*
X132440400Y-54385000D01*
D12*
X154065400Y-54835000D02*
G75*
G02*
X153815400Y-54835000I-125000J0D01*
G01*
X153815400Y-54835000D02*
G75*
G02*
X154065400Y-54835000I125000J0D01*
G01*
D13*
%TO.C,R11*%
X161798259Y-122201900D02*
X162105541Y-122201900D01*
X161798259Y-122961900D02*
X162105541Y-122961900D01*
%TO.C,R6*%
X173511159Y-70551000D02*
X173818441Y-70551000D01*
X173511159Y-71311000D02*
X173818441Y-71311000D01*
%TO.C,JP7*%
X166710600Y-78368400D02*
X166710600Y-77768400D01*
X167410600Y-77068400D02*
X168810600Y-77068400D01*
X168810600Y-79068400D02*
X167410600Y-79068400D01*
X169510600Y-77768400D02*
X169510600Y-78368400D01*
X166710600Y-77768400D02*
G75*
G02*
X167410600Y-77068400I700000J0D01*
G01*
X167410600Y-79068400D02*
G75*
G02*
X166710600Y-78368400I0J700000D01*
G01*
X168810600Y-77068400D02*
G75*
G02*
X169510600Y-77768400I1J-699999D01*
G01*
X169510600Y-78368400D02*
G75*
G02*
X168810600Y-79068400I-699999J-1D01*
G01*
%TO.C,C47*%
X128242600Y-51088380D02*
X128242600Y-50807220D01*
X129262600Y-51088380D02*
X129262600Y-50807220D01*
%TO.C,R27*%
X119660641Y-55022620D02*
X119353359Y-55022620D01*
X119660641Y-55782620D02*
X119353359Y-55782620D01*
D16*
%TO.C,kibuzzard-6641D1B0*%
G36*
X116873049Y-115787694D02*
G01*
X116918002Y-115889429D01*
X116902229Y-115959618D01*
X116862008Y-116002205D01*
X116806014Y-116022710D01*
X116741345Y-116028230D01*
X116693238Y-116026653D01*
X116648286Y-116021921D01*
X116648286Y-115756937D01*
X116752386Y-115756937D01*
X116873049Y-115787694D01*
G37*
G36*
X116788664Y-115369713D02*
G01*
X116832828Y-115385486D01*
X116862797Y-115418609D01*
X116873838Y-115474603D01*
X116835983Y-115563719D01*
X116723995Y-115596054D01*
X116648286Y-115596054D01*
X116648286Y-115372079D01*
X116690872Y-115367347D01*
X116736614Y-115365770D01*
X116788664Y-115369713D01*
G37*
G36*
X119665227Y-114937792D02*
G01*
X119739282Y-114948777D01*
X119811904Y-114966968D01*
X119882394Y-114992190D01*
X119950071Y-115024199D01*
X120014286Y-115062687D01*
X120074418Y-115107285D01*
X120129890Y-115157562D01*
X120180167Y-115213033D01*
X120224764Y-115273166D01*
X120263253Y-115337380D01*
X120295262Y-115405058D01*
X120320483Y-115475547D01*
X120338674Y-115548169D01*
X120349659Y-115622225D01*
X120353333Y-115697000D01*
X120349659Y-115771775D01*
X120338674Y-115845831D01*
X120320483Y-115918453D01*
X120295262Y-115988942D01*
X120263253Y-116056620D01*
X120224764Y-116120834D01*
X120180167Y-116180967D01*
X120129890Y-116236438D01*
X120074418Y-116286715D01*
X120014286Y-116331313D01*
X119950071Y-116369801D01*
X119882394Y-116401810D01*
X119811904Y-116427032D01*
X119739282Y-116445223D01*
X119665227Y-116456208D01*
X119590452Y-116459881D01*
X119459011Y-116459881D01*
X118506330Y-116459881D01*
X117649863Y-116459881D01*
X116725573Y-116459881D01*
X116454279Y-116459881D01*
X116322839Y-116459881D01*
X115814251Y-115697000D01*
X116131812Y-115220659D01*
X116454279Y-115220659D01*
X116454279Y-116168609D01*
X116522497Y-116181030D01*
X116591503Y-116189902D01*
X116659721Y-116195226D01*
X116725573Y-116197000D01*
X116803451Y-116193254D01*
X116876203Y-116182016D01*
X116941661Y-116161905D01*
X116997655Y-116131543D01*
X117078885Y-116036905D01*
X117101361Y-115970462D01*
X117108853Y-115889429D01*
X117099981Y-115823183D01*
X117073364Y-115760091D01*
X117021905Y-115704886D01*
X116938506Y-115662300D01*
X117029200Y-115577126D01*
X117054634Y-115519555D01*
X117063112Y-115454098D01*
X117049895Y-115368924D01*
X117197181Y-115368924D01*
X117454279Y-115368924D01*
X117454279Y-116184382D01*
X117649863Y-116184382D01*
X118018948Y-116184382D01*
X118194027Y-116184382D01*
X118194027Y-115536117D01*
X118252649Y-115644336D01*
X118308643Y-115752380D01*
X118362008Y-115860249D01*
X118412744Y-115968118D01*
X118460851Y-116076162D01*
X118506330Y-116184382D01*
X118662481Y-116184382D01*
X118662481Y-115411511D01*
X118810746Y-115411511D01*
X118873838Y-115572394D01*
X118970052Y-115533751D01*
X119070998Y-115477757D01*
X119070998Y-116023498D01*
X118865951Y-116023498D01*
X118865951Y-116184382D01*
X119459011Y-116184382D01*
X119459011Y-116023498D01*
X119265005Y-116023498D01*
X119265005Y-115208041D01*
X119132513Y-115208041D01*
X119064689Y-115269555D01*
X118981093Y-115326338D01*
X118892765Y-115375233D01*
X118810746Y-115411511D01*
X118662481Y-115411511D01*
X118662481Y-115208041D01*
X118487402Y-115208041D01*
X118487402Y-115808987D01*
X118459603Y-115747473D01*
X118426677Y-115676495D01*
X118389610Y-115599603D01*
X118349390Y-115520344D01*
X118307000Y-115439705D01*
X118263427Y-115358672D01*
X118219263Y-115280399D01*
X118175099Y-115208041D01*
X118018948Y-115208041D01*
X118018948Y-116184382D01*
X117649863Y-116184382D01*
X117649863Y-115368924D01*
X117906961Y-115368924D01*
X117906961Y-115208041D01*
X117197181Y-115208041D01*
X117197181Y-115368924D01*
X117049895Y-115368924D01*
X117048916Y-115362615D01*
X116995289Y-115279808D01*
X116886456Y-115219871D01*
X116806803Y-115202718D01*
X116706645Y-115197000D01*
X116575730Y-115204098D01*
X116454279Y-115220659D01*
X116131812Y-115220659D01*
X116322839Y-114934119D01*
X116454279Y-114934119D01*
X119459011Y-114934119D01*
X119590452Y-114934119D01*
X119665227Y-114937792D01*
G37*
D13*
%TO.C,R5*%
X173511159Y-69331800D02*
X173818441Y-69331800D01*
X173511159Y-70091800D02*
X173818441Y-70091800D01*
%TO.C,C24*%
X114600400Y-98532836D02*
X114600400Y-98317164D01*
X115320400Y-98532836D02*
X115320400Y-98317164D01*
%TO.C,C11*%
X156343800Y-74938836D02*
X156343800Y-74723164D01*
X157063800Y-74938836D02*
X157063800Y-74723164D01*
%TO.C,R18*%
X114580400Y-104342641D02*
X114580400Y-104035359D01*
X115340400Y-104342641D02*
X115340400Y-104035359D01*
%TO.C,C30*%
X144166700Y-111392852D02*
X144166700Y-110870348D01*
X145636700Y-111392852D02*
X145636700Y-110870348D01*
%TO.C,C29*%
X128927100Y-79766436D02*
X128927100Y-79550764D01*
X129647100Y-79766436D02*
X129647100Y-79550764D01*
%TO.C,C34*%
X135507000Y-96558820D02*
X135507000Y-96839980D01*
X136527000Y-96558820D02*
X136527000Y-96839980D01*
%TO.C,C42*%
X156509864Y-72252200D02*
X156725536Y-72252200D01*
X156509864Y-72972200D02*
X156725536Y-72972200D01*
%TO.C,D3*%
X144852100Y-113126400D02*
X144852100Y-114826400D01*
X144852100Y-113126400D02*
X147512100Y-113126400D01*
X144852100Y-114826400D02*
X147512100Y-114826400D01*
%TO.C,C18*%
X163963236Y-104415000D02*
X163747564Y-104415000D01*
X163963236Y-105135000D02*
X163747564Y-105135000D01*
%TO.C,C36*%
X126594936Y-79497600D02*
X126379264Y-79497600D01*
X126594936Y-80217600D02*
X126379264Y-80217600D01*
%TO.C,J8*%
X106393900Y-65531500D02*
X106393900Y-71381500D01*
X106393900Y-71381500D02*
X106833900Y-71381500D01*
X106833900Y-65531500D02*
X106393900Y-65531500D01*
X109993900Y-65531500D02*
X109553900Y-65531500D01*
X109993900Y-67221500D02*
X109993900Y-65531500D01*
X109993900Y-67221500D02*
X111793900Y-67221500D01*
X109993900Y-69691500D02*
X109993900Y-71381500D01*
X109993900Y-71381500D02*
X109553900Y-71381500D01*
%TO.C,C20*%
X172794800Y-73273164D02*
X172794800Y-73488836D01*
X173514800Y-73273164D02*
X173514800Y-73488836D01*
%TO.C,C17*%
X136942100Y-96796564D02*
X136942100Y-97012236D01*
X137662100Y-96796564D02*
X137662100Y-97012236D01*
%TO.C,C16*%
X136942100Y-91282236D02*
X136942100Y-91066564D01*
X137662100Y-91282236D02*
X137662100Y-91066564D01*
%TO.C,R24*%
X162002200Y-54001641D02*
X162002200Y-53694359D01*
X162762200Y-54001641D02*
X162762200Y-53694359D01*
%TO.C,JP1*%
X114754200Y-63393600D02*
X114754200Y-62793600D01*
X115454200Y-62093600D02*
X116854200Y-62093600D01*
X116854200Y-64093600D02*
X115454200Y-64093600D01*
X117554200Y-62793600D02*
X117554200Y-63393600D01*
X114754200Y-62793600D02*
G75*
G02*
X115454200Y-62093600I699999J1D01*
G01*
X115454200Y-64093600D02*
G75*
G02*
X114754200Y-63393600I-1J699999D01*
G01*
X116854200Y-62093600D02*
G75*
G02*
X117554200Y-62793600I0J-700000D01*
G01*
X117554200Y-63393600D02*
G75*
G02*
X116854200Y-64093600I-700000J0D01*
G01*
%TO.C,L2*%
X125595464Y-51624400D02*
X124391336Y-51624400D01*
X125595464Y-54344400D02*
X124391336Y-54344400D01*
%TO.C,D2*%
X167821700Y-117791900D02*
X169121700Y-117791900D01*
X169121700Y-114671900D02*
X167851700Y-114671900D01*
X167471700Y-114721900D02*
X167231700Y-114391900D01*
X167711700Y-114391900D01*
X167471700Y-114721900D01*
G36*
X167471700Y-114721900D02*
G01*
X167231700Y-114391900D01*
X167711700Y-114391900D01*
X167471700Y-114721900D01*
G37*
%TO.C,D5*%
X168393866Y-49038800D02*
X168393866Y-51723800D01*
X170313866Y-49038800D02*
X168393866Y-49038800D01*
X170313866Y-51723800D02*
X170313866Y-49038800D01*
%TO.C,C35*%
X158443200Y-103008820D02*
X158443200Y-103289980D01*
X159463200Y-103008820D02*
X159463200Y-103289980D01*
%TO.C,JP6*%
X166710600Y-75853800D02*
X166710600Y-75253800D01*
X167410600Y-74553800D02*
X168810600Y-74553800D01*
X168810600Y-76553800D02*
X167410600Y-76553800D01*
X169510600Y-75253800D02*
X169510600Y-75853800D01*
X166710600Y-75253800D02*
G75*
G02*
X167410600Y-74553800I700000J0D01*
G01*
X167410600Y-76553800D02*
G75*
G02*
X166710600Y-75853800I0J700000D01*
G01*
X168810600Y-74553800D02*
G75*
G02*
X169510600Y-75253800I1J-699999D01*
G01*
X169510600Y-75853800D02*
G75*
G02*
X168810600Y-76553800I-699999J-1D01*
G01*
%TO.C,SW2*%
X108755000Y-102482334D02*
X108755000Y-102602334D01*
X108755000Y-103612334D02*
X108755000Y-104752334D01*
X108755000Y-105762334D02*
X108755000Y-105882334D01*
X108755000Y-105882334D02*
X113155000Y-105882334D01*
X113155000Y-102482334D02*
X108755000Y-102482334D01*
X113155000Y-102602334D02*
X113155000Y-102482334D01*
X113155000Y-104752334D02*
X113155000Y-103612334D01*
X113155000Y-105882334D02*
X113155000Y-105762334D01*
%TO.C,C48*%
X128156420Y-54855200D02*
X128437580Y-54855200D01*
X128156420Y-55875200D02*
X128437580Y-55875200D01*
D16*
%TO.C,kibuzzard-6641D1A5*%
G36*
X116858759Y-104271262D02*
G01*
X116902876Y-104371107D01*
X116887396Y-104439993D01*
X116847923Y-104481789D01*
X116792969Y-104501912D01*
X116729502Y-104507330D01*
X116682288Y-104505782D01*
X116638170Y-104501138D01*
X116638170Y-104241077D01*
X116740338Y-104241077D01*
X116858759Y-104271262D01*
G37*
G36*
X116775941Y-103861046D02*
G01*
X116819285Y-103876525D01*
X116848697Y-103909033D01*
X116859533Y-103963987D01*
X116822381Y-104051448D01*
X116712474Y-104083182D01*
X116638170Y-104083182D01*
X116638170Y-103863368D01*
X116679966Y-103858724D01*
X116724858Y-103857176D01*
X116775941Y-103861046D01*
G37*
G36*
X117604115Y-103872655D02*
G01*
X117649780Y-103943863D01*
X117671452Y-104049900D01*
X117675516Y-104113174D01*
X117676870Y-104180705D01*
X117675516Y-104248042D01*
X117671452Y-104310736D01*
X117649780Y-104416773D01*
X117603341Y-104488755D01*
X117525167Y-104515070D01*
X117446220Y-104488755D01*
X117400554Y-104417547D01*
X117378883Y-104311510D01*
X117374819Y-104248236D01*
X117373465Y-104180705D01*
X117374819Y-104113368D01*
X117378883Y-104050674D01*
X117400554Y-103944637D01*
X117446220Y-103872655D01*
X117525167Y-103846340D01*
X117604115Y-103872655D01*
G37*
G36*
X118378109Y-103872655D02*
G01*
X118423774Y-103943863D01*
X118445446Y-104049900D01*
X118449509Y-104113174D01*
X118450864Y-104180705D01*
X118449509Y-104248042D01*
X118445446Y-104310736D01*
X118423774Y-104416773D01*
X118377335Y-104488755D01*
X118299161Y-104515070D01*
X118220214Y-104488755D01*
X118174548Y-104417547D01*
X118152876Y-104311510D01*
X118148813Y-104248236D01*
X118147458Y-104180705D01*
X118148813Y-104113368D01*
X118152876Y-104050674D01*
X118174548Y-103944637D01*
X118220214Y-103872655D01*
X118299161Y-103846340D01*
X118378109Y-103872655D01*
G37*
G36*
X119916615Y-103864722D02*
G01*
X119967118Y-103929157D01*
X119989908Y-103995118D01*
X120003582Y-104078452D01*
X120008139Y-104179157D01*
X120003582Y-104280722D01*
X119989908Y-104364572D01*
X119967118Y-104430705D01*
X119916615Y-104495140D01*
X119848697Y-104516140D01*
X119847149Y-104516618D01*
X119778650Y-104495140D01*
X119727954Y-104430705D01*
X119704734Y-104364572D01*
X119690802Y-104280722D01*
X119686158Y-104179157D01*
X119686872Y-104163677D01*
X119762009Y-104163677D01*
X119785229Y-104235659D01*
X119848697Y-104265844D01*
X119909842Y-104235659D01*
X119933836Y-104163677D01*
X119909842Y-104090922D01*
X119848697Y-104059962D01*
X119785229Y-104090922D01*
X119762009Y-104163677D01*
X119686872Y-104163677D01*
X119690802Y-104078452D01*
X119704734Y-103995118D01*
X119727954Y-103929157D01*
X119778650Y-103864722D01*
X119847149Y-103843244D01*
X119916615Y-103864722D01*
G37*
G36*
X120383262Y-103426357D02*
G01*
X120456843Y-103437272D01*
X120529000Y-103455346D01*
X120599038Y-103480406D01*
X120666283Y-103512211D01*
X120730086Y-103550453D01*
X120789834Y-103594765D01*
X120844951Y-103644720D01*
X120894905Y-103699836D01*
X120939217Y-103759584D01*
X120977460Y-103823387D01*
X121009264Y-103890632D01*
X121034324Y-103960670D01*
X121052398Y-104032827D01*
X121063313Y-104106408D01*
X121066963Y-104180705D01*
X121063313Y-104255002D01*
X121052398Y-104328583D01*
X121034324Y-104400740D01*
X121009264Y-104470778D01*
X120977460Y-104538023D01*
X120939217Y-104601826D01*
X120894905Y-104661574D01*
X120844951Y-104716690D01*
X120789834Y-104766645D01*
X120730086Y-104810957D01*
X120666283Y-104849199D01*
X120599038Y-104881004D01*
X120529000Y-104906064D01*
X120456843Y-104924138D01*
X120383262Y-104935053D01*
X120308965Y-104938703D01*
X120179966Y-104938703D01*
X119847149Y-104938703D01*
X119169130Y-104938703D01*
X118300709Y-104938703D01*
X117526715Y-104938703D01*
X116714022Y-104938703D01*
X116447768Y-104938703D01*
X116318769Y-104938703D01*
X115813437Y-104180705D01*
X116124066Y-103714761D01*
X116447768Y-103714761D01*
X116447768Y-104645101D01*
X116514718Y-104657292D01*
X116582443Y-104665999D01*
X116649393Y-104671224D01*
X116714022Y-104672965D01*
X116790454Y-104669289D01*
X116861855Y-104658259D01*
X116926096Y-104638522D01*
X116981050Y-104608724D01*
X117060771Y-104515844D01*
X117082830Y-104450635D01*
X117090183Y-104371107D01*
X117081475Y-104306092D01*
X117055353Y-104244172D01*
X117004850Y-104189993D01*
X116986661Y-104180705D01*
X117179966Y-104180705D01*
X117185529Y-104296949D01*
X117202218Y-104398004D01*
X117230034Y-104483869D01*
X117268975Y-104554544D01*
X117337173Y-104624633D01*
X117423086Y-104666687D01*
X117526715Y-104680705D01*
X117627851Y-104666687D01*
X117712474Y-104624633D01*
X117780585Y-104554544D01*
X117819865Y-104483869D01*
X117847923Y-104398004D01*
X117864757Y-104296949D01*
X117870369Y-104180705D01*
X117953960Y-104180705D01*
X117959523Y-104296949D01*
X117976212Y-104398004D01*
X118004028Y-104483869D01*
X118042969Y-104554544D01*
X118111167Y-104624633D01*
X118197080Y-104666687D01*
X118300709Y-104680705D01*
X118401844Y-104666687D01*
X118486468Y-104624633D01*
X118554579Y-104554544D01*
X118593859Y-104483869D01*
X118621917Y-104398004D01*
X118638751Y-104296949D01*
X118644362Y-104180705D01*
X118638848Y-104064461D01*
X118622304Y-103963406D01*
X118594730Y-103877541D01*
X118585298Y-103860272D01*
X118724858Y-103860272D01*
X118977180Y-103860272D01*
X118977180Y-104660581D01*
X119169130Y-104660581D01*
X119169130Y-104179157D01*
X119514331Y-104179157D01*
X119519653Y-104297965D01*
X119535616Y-104400519D01*
X119562222Y-104486820D01*
X119599471Y-104556866D01*
X119664830Y-104625665D01*
X119747390Y-104666945D01*
X119847149Y-104680705D01*
X119946908Y-104666945D01*
X120029467Y-104625665D01*
X120094827Y-104556866D01*
X120132075Y-104486820D01*
X120158681Y-104400519D01*
X120174645Y-104297965D01*
X120179966Y-104179157D01*
X120174645Y-104061075D01*
X120158681Y-103959149D01*
X120132075Y-103873381D01*
X120094827Y-103803770D01*
X120029467Y-103735401D01*
X119946908Y-103694379D01*
X119847149Y-103680705D01*
X119748938Y-103694465D01*
X119666894Y-103735745D01*
X119601019Y-103804544D01*
X119563093Y-103874397D01*
X119536003Y-103960117D01*
X119519749Y-104061703D01*
X119514331Y-104179157D01*
X119169130Y-104179157D01*
X119169130Y-103860272D01*
X119421452Y-103860272D01*
X119421452Y-103702377D01*
X118724858Y-103702377D01*
X118724858Y-103860272D01*
X118585298Y-103860272D01*
X118556127Y-103806866D01*
X118488360Y-103736777D01*
X118402704Y-103694723D01*
X118299161Y-103680705D01*
X118198714Y-103694723D01*
X118114091Y-103736777D01*
X118045291Y-103806866D01*
X118005334Y-103877541D01*
X117976793Y-103963406D01*
X117959668Y-104064461D01*
X117953960Y-104180705D01*
X117870369Y-104180705D01*
X117864854Y-104064461D01*
X117848310Y-103963406D01*
X117820736Y-103877541D01*
X117782133Y-103806866D01*
X117714366Y-103736777D01*
X117628711Y-103694723D01*
X117525167Y-103680705D01*
X117424720Y-103694723D01*
X117340097Y-103736777D01*
X117271297Y-103806866D01*
X117231340Y-103877541D01*
X117202799Y-103963406D01*
X117185674Y-104064461D01*
X117179966Y-104180705D01*
X116986661Y-104180705D01*
X116923000Y-104148197D01*
X117012009Y-104064606D01*
X117036971Y-104008104D01*
X117045291Y-103943863D01*
X117031359Y-103854080D01*
X116978728Y-103772810D01*
X116871917Y-103713987D01*
X116793743Y-103697152D01*
X116695446Y-103691541D01*
X116566963Y-103698507D01*
X116447768Y-103714761D01*
X116124066Y-103714761D01*
X116318769Y-103422707D01*
X116447768Y-103422707D01*
X120179966Y-103422707D01*
X120308965Y-103422707D01*
X120383262Y-103426357D01*
G37*
D13*
%TO.C,J9*%
X127117600Y-122492400D02*
X127117600Y-122932400D01*
X127117600Y-125652400D02*
X127117600Y-126092400D01*
X127117600Y-126092400D02*
X135467600Y-126092400D01*
X128807600Y-122492400D02*
X127117600Y-122492400D01*
X128807600Y-122492400D02*
X128807600Y-120692400D01*
X133777600Y-122492400D02*
X135467600Y-122492400D01*
X135467600Y-122492400D02*
X135467600Y-122932400D01*
X135467600Y-126092400D02*
X135467600Y-125652400D01*
%TD*%
M02*
