%TF.GenerationSoftware,KiCad,Pcbnew,8.0.2*%
%TF.CreationDate,2024-07-15T20:50:26+07:00*%
%TF.ProjectId,chroma-pixel-h743,6368726f-6d61-42d7-9069-78656c2d6837,rev?*%
%TF.SameCoordinates,Original*%
%TF.FileFunction,Paste,Top*%
%TF.FilePolarity,Positive*%
%FSLAX46Y46*%
G04 Gerber Fmt 4.6, Leading zero omitted, Abs format (unit mm)*
G04 Created by KiCad (PCBNEW 8.0.2) date 2024-07-15 20:50:26*
%MOMM*%
%LPD*%
G01*
G04 APERTURE LIST*
G04 Aperture macros list*
%AMRoundRect*
0 Rectangle with rounded corners*
0 $1 Rounding radius*
0 $2 $3 $4 $5 $6 $7 $8 $9 X,Y pos of 4 corners*
0 Add a 4 corners polygon primitive as box body*
4,1,4,$2,$3,$4,$5,$6,$7,$8,$9,$2,$3,0*
0 Add four circle primitives for the rounded corners*
1,1,$1+$1,$2,$3*
1,1,$1+$1,$4,$5*
1,1,$1+$1,$6,$7*
1,1,$1+$1,$8,$9*
0 Add four rect primitives between the rounded corners*
20,1,$1+$1,$2,$3,$4,$5,0*
20,1,$1+$1,$4,$5,$6,$7,0*
20,1,$1+$1,$6,$7,$8,$9,0*
20,1,$1+$1,$8,$9,$2,$3,0*%
G04 Aperture macros list end*
%ADD10C,0.010000*%
%ADD11RoundRect,0.150000X0.587500X0.150000X-0.587500X0.150000X-0.587500X-0.150000X0.587500X-0.150000X0*%
%ADD12RoundRect,0.140000X0.140000X0.170000X-0.140000X0.170000X-0.140000X-0.170000X0.140000X-0.170000X0*%
%ADD13RoundRect,0.250000X0.650000X-0.325000X0.650000X0.325000X-0.650000X0.325000X-0.650000X-0.325000X0*%
%ADD14RoundRect,0.135000X0.135000X0.185000X-0.135000X0.185000X-0.135000X-0.185000X0.135000X-0.185000X0*%
%ADD15RoundRect,0.135000X0.185000X-0.135000X0.185000X0.135000X-0.185000X0.135000X-0.185000X-0.135000X0*%
%ADD16RoundRect,0.140000X0.170000X-0.140000X0.170000X0.140000X-0.170000X0.140000X-0.170000X-0.140000X0*%
%ADD17R,0.600000X1.550000*%
%ADD18R,1.200000X1.800000*%
%ADD19RoundRect,0.140000X-0.140000X-0.170000X0.140000X-0.170000X0.140000X0.170000X-0.140000X0.170000X0*%
%ADD20R,0.600000X1.100000*%
%ADD21RoundRect,0.150000X0.512500X0.150000X-0.512500X0.150000X-0.512500X-0.150000X0.512500X-0.150000X0*%
%ADD22RoundRect,0.135000X-0.135000X-0.185000X0.135000X-0.185000X0.135000X0.185000X-0.135000X0.185000X0*%
%ADD23R,0.458000X1.510000*%
%ADD24R,0.740000X2.400000*%
%ADD25RoundRect,0.243750X-0.456250X0.243750X-0.456250X-0.243750X0.456250X-0.243750X0.456250X0.243750X0*%
%ADD26RoundRect,0.150000X0.150000X-0.825000X0.150000X0.825000X-0.150000X0.825000X-0.150000X-0.825000X0*%
%ADD27RoundRect,0.140000X-0.170000X0.140000X-0.170000X-0.140000X0.170000X-0.140000X0.170000X0.140000X0*%
%ADD28RoundRect,0.075000X-0.075000X0.662500X-0.075000X-0.662500X0.075000X-0.662500X0.075000X0.662500X0*%
%ADD29RoundRect,0.075000X-0.662500X0.075000X-0.662500X-0.075000X0.662500X-0.075000X0.662500X0.075000X0*%
%ADD30RoundRect,0.250000X0.475000X-0.250000X0.475000X0.250000X-0.475000X0.250000X-0.475000X-0.250000X0*%
%ADD31RoundRect,0.225000X-0.225000X-0.250000X0.225000X-0.250000X0.225000X0.250000X-0.225000X0.250000X0*%
%ADD32RoundRect,0.100000X-0.225000X-0.100000X0.225000X-0.100000X0.225000X0.100000X-0.225000X0.100000X0*%
%ADD33RoundRect,0.225000X0.250000X-0.225000X0.250000X0.225000X-0.250000X0.225000X-0.250000X-0.225000X0*%
%ADD34R,1.050000X0.650000*%
%ADD35R,0.600000X1.240000*%
%ADD36R,0.300000X1.240000*%
%ADD37RoundRect,0.112500X-0.187500X-0.112500X0.187500X-0.112500X0.187500X0.112500X-0.187500X0.112500X0*%
%ADD38R,1.150000X1.000000*%
%ADD39RoundRect,0.135000X-0.185000X0.135000X-0.185000X-0.135000X0.185000X-0.135000X0.185000X0.135000X0*%
%ADD40RoundRect,0.150000X0.150000X-0.587500X0.150000X0.587500X-0.150000X0.587500X-0.150000X-0.587500X0*%
%ADD41R,1.800000X0.700000*%
%ADD42R,2.200000X1.600000*%
%ADD43RoundRect,0.018900X0.411100X0.116100X-0.411100X0.116100X-0.411100X-0.116100X0.411100X-0.116100X0*%
%ADD44RoundRect,0.018900X-0.116100X0.411100X-0.116100X-0.411100X0.116100X-0.411100X0.116100X0.411100X0*%
%ADD45RoundRect,0.018900X-0.411100X-0.116100X0.411100X-0.116100X0.411100X0.116100X-0.411100X0.116100X0*%
%ADD46RoundRect,0.018900X0.116100X-0.411100X0.116100X0.411100X-0.116100X0.411100X-0.116100X-0.411100X0*%
%ADD47RoundRect,0.250000X0.450000X-0.262500X0.450000X0.262500X-0.450000X0.262500X-0.450000X-0.262500X0*%
%ADD48R,1.600000X0.700000*%
%ADD49R,1.500000X1.200000*%
%ADD50R,2.200000X1.200000*%
%ADD51R,1.500000X1.600000*%
%ADD52RoundRect,0.225000X0.225000X0.375000X-0.225000X0.375000X-0.225000X-0.375000X0.225000X-0.375000X0*%
%ADD53RoundRect,0.250000X0.615000X-0.435000X0.615000X0.435000X-0.615000X0.435000X-0.615000X-0.435000X0*%
%ADD54RoundRect,0.125000X0.125000X-0.200000X0.125000X0.200000X-0.125000X0.200000X-0.125000X-0.200000X0*%
%ADD55R,0.250000X1.100000*%
%ADD56R,1.700000X1.500000*%
%ADD57RoundRect,0.225000X-0.250000X0.225000X-0.250000X-0.225000X0.250000X-0.225000X0.250000X0.225000X0*%
%ADD58RoundRect,0.250000X0.375000X1.075000X-0.375000X1.075000X-0.375000X-1.075000X0.375000X-1.075000X0*%
%ADD59RoundRect,0.175000X-0.175000X-0.325000X0.175000X-0.325000X0.175000X0.325000X-0.175000X0.325000X0*%
%ADD60RoundRect,0.150000X-0.200000X-0.150000X0.200000X-0.150000X0.200000X0.150000X-0.200000X0.150000X0*%
%ADD61R,0.700000X1.800000*%
%ADD62R,1.600000X2.200000*%
G04 APERTURE END LIST*
D10*
%TO.C,U6*%
X120185500Y-69364900D02*
X119407500Y-69364900D01*
X119407500Y-68586900D01*
X120185500Y-68586900D01*
X120185500Y-69364900D01*
G36*
X120185500Y-69364900D02*
G01*
X119407500Y-69364900D01*
X119407500Y-68586900D01*
X120185500Y-68586900D01*
X120185500Y-69364900D01*
G37*
%TD*%
D11*
%TO.C,D7*%
X174419500Y-61314500D03*
X174419500Y-59414500D03*
X172544500Y-60364500D03*
%TD*%
D12*
%TO.C,C40*%
X147575100Y-73185700D03*
X146615100Y-73185700D03*
%TD*%
D13*
%TO.C,C43*%
X174879000Y-119915200D03*
X174879000Y-116965200D03*
%TD*%
D14*
%TO.C,R19*%
X163679600Y-80111600D03*
X162659600Y-80111600D03*
%TD*%
D15*
%TO.C,R31*%
X172011800Y-78578400D03*
X172011800Y-77558400D03*
%TD*%
D16*
%TO.C,C28*%
X114960400Y-116177000D03*
X114960400Y-115217000D03*
%TD*%
D17*
%TO.C,J5*%
X139710100Y-121063000D03*
X140710100Y-121063000D03*
X141710100Y-121063000D03*
X142710100Y-121063000D03*
D18*
X138410100Y-124938000D03*
X144010100Y-124938000D03*
%TD*%
D14*
%TO.C,R15*%
X124208000Y-69240400D03*
X123188000Y-69240400D03*
%TD*%
D15*
%TO.C,R23*%
X169353866Y-54358000D03*
X169353866Y-53338000D03*
%TD*%
%TO.C,R34*%
X157251400Y-54180200D03*
X157251400Y-53160200D03*
%TD*%
D19*
%TO.C,C10*%
X151539000Y-74650600D03*
X152499000Y-74650600D03*
%TD*%
D16*
%TO.C,C27*%
X114960400Y-110419667D03*
X114960400Y-109459667D03*
%TD*%
D20*
%TO.C,Y2*%
X154737700Y-71215200D03*
X156137700Y-71215200D03*
%TD*%
D21*
%TO.C,U8*%
X142921300Y-112081600D03*
X142921300Y-111131600D03*
X142921300Y-110181600D03*
X140646300Y-110181600D03*
X140646300Y-112081600D03*
%TD*%
D22*
%TO.C,R16*%
X123188000Y-70247001D03*
X124208000Y-70247001D03*
%TD*%
D23*
%TO.C,U11*%
X129287100Y-81924400D03*
X128487100Y-81924400D03*
X127687100Y-81924400D03*
X126887100Y-81924400D03*
X126087100Y-81924400D03*
X125287100Y-81924400D03*
X124487100Y-81924400D03*
X123687100Y-81924400D03*
X122887100Y-81924400D03*
X122087100Y-81924400D03*
X121287100Y-81924400D03*
X120487100Y-81924400D03*
X119687100Y-81924400D03*
X118887100Y-81924400D03*
X118087100Y-81924400D03*
X117287100Y-81924400D03*
X116487100Y-81924400D03*
X115687100Y-81924400D03*
X114887100Y-81924400D03*
X114087100Y-81924400D03*
X113287100Y-81924400D03*
X112487100Y-81924400D03*
X111687100Y-81924400D03*
X110887100Y-81924400D03*
X110087100Y-81924400D03*
X109287100Y-81924400D03*
X108487100Y-81924400D03*
X108487100Y-93424400D03*
X109287100Y-93424400D03*
X110087100Y-93424400D03*
X110887100Y-93424400D03*
X111687100Y-93424400D03*
X112487100Y-93424400D03*
X113287100Y-93424400D03*
X114087100Y-93424400D03*
X114887100Y-93424400D03*
X115687100Y-93424400D03*
X116487100Y-93424400D03*
X117287100Y-93424400D03*
X118087100Y-93424400D03*
X118887100Y-93424400D03*
X119687100Y-93424400D03*
X120487100Y-93424400D03*
X121287100Y-93424400D03*
X122087100Y-93424400D03*
X122887100Y-93424400D03*
X123687100Y-93424400D03*
X124487100Y-93424400D03*
X125287100Y-93424400D03*
X126087100Y-93424400D03*
X126887100Y-93424400D03*
X127687100Y-93424400D03*
X128487100Y-93424400D03*
X129287100Y-93424400D03*
%TD*%
D24*
%TO.C,J7*%
X148615400Y-123635600D03*
X148615400Y-119735600D03*
X149885400Y-123635600D03*
X149885400Y-119735600D03*
X151155400Y-123635600D03*
X151155400Y-119735600D03*
X152425400Y-123635600D03*
X152425400Y-119735600D03*
X153695400Y-123635600D03*
X153695400Y-119735600D03*
X154965400Y-123635600D03*
X154965400Y-119735600D03*
X156235400Y-123635600D03*
X156235400Y-119735600D03*
%TD*%
D25*
%TO.C,D4*%
X135483700Y-110214100D03*
X135483700Y-112089100D03*
%TD*%
D15*
%TO.C,R22*%
X146439600Y-111641600D03*
X146439600Y-110621600D03*
%TD*%
D26*
%TO.C,U7*%
X174828200Y-77851000D03*
X176098200Y-77851000D03*
X177368200Y-77851000D03*
X178638200Y-77851000D03*
X178638200Y-72901000D03*
X177368200Y-72901000D03*
X176098200Y-72901000D03*
X174828200Y-72901000D03*
%TD*%
D27*
%TO.C,C8*%
X163042600Y-90194400D03*
X163042600Y-91154400D03*
%TD*%
D14*
%TO.C,R28*%
X120017000Y-54140040D03*
X118997000Y-54140040D03*
%TD*%
D28*
%TO.C,U10*%
X159203800Y-77011900D03*
X158703800Y-77011900D03*
X158203800Y-77011900D03*
X157703800Y-77011900D03*
X157203800Y-77011900D03*
X156703800Y-77011900D03*
X156203800Y-77011900D03*
X155703800Y-77011900D03*
X155203800Y-77011900D03*
X154703800Y-77011900D03*
X154203800Y-77011900D03*
X153703800Y-77011900D03*
X153203800Y-77011900D03*
X152703800Y-77011900D03*
X152203800Y-77011900D03*
X151703800Y-77011900D03*
X151203800Y-77011900D03*
X150703800Y-77011900D03*
X150203800Y-77011900D03*
X149703800Y-77011900D03*
X149203800Y-77011900D03*
X148703800Y-77011900D03*
X148203800Y-77011900D03*
X147703800Y-77011900D03*
X147203800Y-77011900D03*
X146703800Y-77011900D03*
X146203800Y-77011900D03*
X145703800Y-77011900D03*
X145203800Y-77011900D03*
X144703800Y-77011900D03*
X144203800Y-77011900D03*
X143703800Y-77011900D03*
X143203800Y-77011900D03*
X142703800Y-77011900D03*
X142203800Y-77011900D03*
X141703800Y-77011900D03*
D29*
X139791300Y-78924400D03*
X139791300Y-79424400D03*
X139791300Y-79924400D03*
X139791300Y-80424400D03*
X139791300Y-80924400D03*
X139791300Y-81424400D03*
X139791300Y-81924400D03*
X139791300Y-82424400D03*
X139791300Y-82924400D03*
X139791300Y-83424400D03*
X139791300Y-83924400D03*
X139791300Y-84424400D03*
X139791300Y-84924400D03*
X139791300Y-85424400D03*
X139791300Y-85924400D03*
X139791300Y-86424400D03*
X139791300Y-86924400D03*
X139791300Y-87424400D03*
X139791300Y-87924400D03*
X139791300Y-88424400D03*
X139791300Y-88924400D03*
X139791300Y-89424400D03*
X139791300Y-89924400D03*
X139791300Y-90424400D03*
X139791300Y-90924400D03*
X139791300Y-91424400D03*
X139791300Y-91924400D03*
X139791300Y-92424400D03*
X139791300Y-92924400D03*
X139791300Y-93424400D03*
X139791300Y-93924400D03*
X139791300Y-94424400D03*
X139791300Y-94924400D03*
X139791300Y-95424400D03*
X139791300Y-95924400D03*
X139791300Y-96424400D03*
D28*
X141703800Y-98336900D03*
X142203800Y-98336900D03*
X142703800Y-98336900D03*
X143203800Y-98336900D03*
X143703800Y-98336900D03*
X144203800Y-98336900D03*
X144703800Y-98336900D03*
X145203800Y-98336900D03*
X145703800Y-98336900D03*
X146203800Y-98336900D03*
X146703800Y-98336900D03*
X147203800Y-98336900D03*
X147703800Y-98336900D03*
X148203800Y-98336900D03*
X148703800Y-98336900D03*
X149203800Y-98336900D03*
X149703800Y-98336900D03*
X150203800Y-98336900D03*
X150703800Y-98336900D03*
X151203800Y-98336900D03*
X151703800Y-98336900D03*
X152203800Y-98336900D03*
X152703800Y-98336900D03*
X153203800Y-98336900D03*
X153703800Y-98336900D03*
X154203800Y-98336900D03*
X154703800Y-98336900D03*
X155203800Y-98336900D03*
X155703800Y-98336900D03*
X156203800Y-98336900D03*
X156703800Y-98336900D03*
X157203800Y-98336900D03*
X157703800Y-98336900D03*
X158203800Y-98336900D03*
X158703800Y-98336900D03*
X159203800Y-98336900D03*
D29*
X161116300Y-96424400D03*
X161116300Y-95924400D03*
X161116300Y-95424400D03*
X161116300Y-94924400D03*
X161116300Y-94424400D03*
X161116300Y-93924400D03*
X161116300Y-93424400D03*
X161116300Y-92924400D03*
X161116300Y-92424400D03*
X161116300Y-91924400D03*
X161116300Y-91424400D03*
X161116300Y-90924400D03*
X161116300Y-90424400D03*
X161116300Y-89924400D03*
X161116300Y-89424400D03*
X161116300Y-88924400D03*
X161116300Y-88424400D03*
X161116300Y-87924400D03*
X161116300Y-87424400D03*
X161116300Y-86924400D03*
X161116300Y-86424400D03*
X161116300Y-85924400D03*
X161116300Y-85424400D03*
X161116300Y-84924400D03*
X161116300Y-84424400D03*
X161116300Y-83924400D03*
X161116300Y-83424400D03*
X161116300Y-82924400D03*
X161116300Y-82424400D03*
X161116300Y-81924400D03*
X161116300Y-81424400D03*
X161116300Y-80924400D03*
X161116300Y-80424400D03*
X161116300Y-79924400D03*
X161116300Y-79424400D03*
X161116300Y-78924400D03*
%TD*%
D30*
%TO.C,C44*%
X138665900Y-112081600D03*
X138665900Y-110181600D03*
%TD*%
D16*
%TO.C,C14*%
X137312400Y-79857600D03*
X137312400Y-78897600D03*
%TD*%
D15*
%TO.C,R25*%
X121356040Y-56665200D03*
X121356040Y-55645200D03*
%TD*%
D12*
%TO.C,C5*%
X147433800Y-100326200D03*
X146473800Y-100326200D03*
%TD*%
D16*
%TO.C,C2*%
X118887100Y-80138600D03*
X118887100Y-79178600D03*
%TD*%
D12*
%TO.C,C38*%
X124567100Y-95478600D03*
X123607100Y-95478600D03*
%TD*%
D31*
%TO.C,C23*%
X119046500Y-66117701D03*
X120596500Y-66117701D03*
%TD*%
D14*
%TO.C,R14*%
X124208000Y-68240400D03*
X123188000Y-68240400D03*
%TD*%
D16*
%TO.C,C15*%
X137302100Y-86424400D03*
X137302100Y-85464400D03*
%TD*%
D32*
%TO.C,U5*%
X124043400Y-55365200D03*
X124043400Y-56015200D03*
X124043400Y-56665200D03*
X125943400Y-56665200D03*
X125943400Y-55365200D03*
%TD*%
D16*
%TO.C,C9*%
X145203800Y-75130600D03*
X145203800Y-74170600D03*
%TD*%
D12*
%TO.C,C7*%
X159433800Y-100326200D03*
X158473800Y-100326200D03*
%TD*%
D19*
%TO.C,C39*%
X148365100Y-73185700D03*
X149325100Y-73185700D03*
%TD*%
D27*
%TO.C,C13*%
X163042600Y-85194400D03*
X163042600Y-86154400D03*
%TD*%
D16*
%TO.C,C12*%
X163042600Y-78924400D03*
X163042600Y-77964400D03*
%TD*%
%TO.C,C1*%
X108487100Y-80138600D03*
X108487100Y-79178600D03*
%TD*%
D33*
%TO.C,C46*%
X130352800Y-51722800D03*
X130352800Y-50172800D03*
%TD*%
D16*
%TO.C,C49*%
X122609720Y-56665200D03*
X122609720Y-55705200D03*
%TD*%
D14*
%TO.C,R12*%
X174425300Y-122581900D03*
X173405300Y-122581900D03*
%TD*%
%TO.C,R29*%
X128807000Y-56665200D03*
X127787000Y-56665200D03*
%TD*%
D34*
%TO.C,SW3*%
X113030000Y-111014667D03*
X108880000Y-111014667D03*
X113030000Y-108864667D03*
X108880000Y-108864667D03*
%TD*%
D30*
%TO.C,C45*%
X147977500Y-112081600D03*
X147977500Y-110181600D03*
%TD*%
D35*
%TO.C,J4*%
X164771700Y-119826900D03*
X165571700Y-119826900D03*
D36*
X166721700Y-119826900D03*
X167721700Y-119826900D03*
X168221700Y-119826900D03*
X169221700Y-119826900D03*
D35*
X170371700Y-119826900D03*
X171171700Y-119826900D03*
X171171700Y-119826900D03*
X170371700Y-119826900D03*
D36*
X169721700Y-119826900D03*
X168721700Y-119826900D03*
X167221700Y-119826900D03*
X166221700Y-119826900D03*
D35*
X165571700Y-119826900D03*
X164771700Y-119826900D03*
%TD*%
D15*
%TO.C,R33*%
X158344600Y-54180200D03*
X158344600Y-53160200D03*
%TD*%
D12*
%TO.C,C37*%
X120167100Y-95478600D03*
X119207100Y-95478600D03*
%TD*%
%TO.C,C3*%
X122167100Y-79857600D03*
X121207100Y-79857600D03*
%TD*%
D37*
%TO.C,D10*%
X145412100Y-116052600D03*
X147512100Y-116052600D03*
%TD*%
D25*
%TO.C,D6*%
X162382200Y-49786300D03*
X162382200Y-51661300D03*
%TD*%
D31*
%TO.C,C26*%
X143233200Y-72923400D03*
X144783200Y-72923400D03*
%TD*%
D34*
%TO.C,SW1*%
X113030000Y-99500000D03*
X108880000Y-99500000D03*
X113030000Y-97350000D03*
X108880000Y-97350000D03*
%TD*%
D38*
%TO.C,Y1*%
X147095100Y-71915200D03*
X148845100Y-71915200D03*
X148845100Y-70515200D03*
X147095100Y-70515200D03*
%TD*%
D39*
%TO.C,R2*%
X172237400Y-91870400D03*
X172237400Y-92890400D03*
%TD*%
D40*
%TO.C,D9*%
X130342600Y-119123700D03*
X132242600Y-119123700D03*
X131292600Y-117248700D03*
%TD*%
D34*
%TO.C,SW4*%
X113030000Y-116772000D03*
X108880000Y-116772000D03*
X113030000Y-114622000D03*
X108880000Y-114622000D03*
%TD*%
D39*
%TO.C,R17*%
X146913600Y-74318400D03*
X146913600Y-75338400D03*
%TD*%
D14*
%TO.C,R26*%
X120017000Y-56665200D03*
X118997000Y-56665200D03*
%TD*%
D15*
%TO.C,R21*%
X137129300Y-111641600D03*
X137129300Y-110621600D03*
%TD*%
D22*
%TO.C,R8*%
X163345400Y-103675000D03*
X164365400Y-103675000D03*
%TD*%
D16*
%TO.C,C4*%
X142189200Y-75130600D03*
X142189200Y-74170600D03*
%TD*%
D41*
%TO.C,J6*%
X177497800Y-61016150D03*
X177497800Y-59766150D03*
D42*
X180197800Y-63266150D03*
X180197800Y-57516150D03*
%TD*%
D43*
%TO.C,U6*%
X121231500Y-69725900D03*
X121231500Y-69225900D03*
X121231500Y-68725900D03*
X121231500Y-68225900D03*
D44*
X120546500Y-67540900D03*
X120046500Y-67540900D03*
X119546500Y-67540900D03*
X119046500Y-67540900D03*
D45*
X118361500Y-68225900D03*
X118361500Y-68725900D03*
X118361500Y-69225900D03*
X118361500Y-69725900D03*
D46*
X119046500Y-70410900D03*
X119546500Y-70410900D03*
X120046500Y-70410900D03*
X120546500Y-70410900D03*
%TD*%
D12*
%TO.C,C41*%
X154737700Y-72612200D03*
X153777700Y-72612200D03*
%TD*%
D22*
%TO.C,R20*%
X141273800Y-108921800D03*
X142293800Y-108921800D03*
%TD*%
D19*
%TO.C,C25*%
X143233200Y-74168000D03*
X144193200Y-74168000D03*
%TD*%
D27*
%TO.C,C21*%
X172237400Y-85390400D03*
X172237400Y-86350400D03*
%TD*%
D33*
%TO.C,C19*%
X140970000Y-75130600D03*
X140970000Y-73580600D03*
%TD*%
D22*
%TO.C,R7*%
X163345400Y-108075000D03*
X164365400Y-108075000D03*
%TD*%
D15*
%TO.C,R30*%
X173053200Y-78578400D03*
X173053200Y-77558400D03*
%TD*%
D47*
%TO.C,R13*%
X176987200Y-118790200D03*
X176987200Y-116965200D03*
%TD*%
D15*
%TO.C,R32*%
X170970400Y-78578400D03*
X170970400Y-77558400D03*
%TD*%
D22*
%TO.C,R9*%
X163345400Y-101475000D03*
X164365400Y-101475000D03*
%TD*%
D48*
%TO.C,J3*%
X167157400Y-101482800D03*
X167157400Y-102582800D03*
X167157400Y-103682800D03*
X167157400Y-104782800D03*
X167157400Y-105882800D03*
X167157400Y-106982800D03*
X167157400Y-108082800D03*
X167157400Y-109182800D03*
X167157400Y-110282800D03*
D49*
X168157400Y-111432800D03*
D50*
X177757400Y-111432800D03*
D51*
X168157400Y-96832800D03*
D50*
X177757400Y-95932800D03*
%TD*%
D52*
%TO.C,D8*%
X126620900Y-50172800D03*
X123320900Y-50172800D03*
%TD*%
D14*
%TO.C,R10*%
X164365400Y-110109000D03*
X163345400Y-110109000D03*
%TD*%
D53*
%TO.C,U1*%
X175234600Y-89990400D03*
X177384600Y-89990400D03*
X175234600Y-88290400D03*
X177384600Y-88290400D03*
D54*
X174404600Y-92890400D03*
X175674600Y-92890400D03*
X176944600Y-92890400D03*
X178214600Y-92890400D03*
X178214600Y-85390400D03*
X176944600Y-85390400D03*
X175674600Y-85390400D03*
X174404600Y-85390400D03*
%TD*%
D12*
%TO.C,C6*%
X152933800Y-100326200D03*
X151973800Y-100326200D03*
%TD*%
D55*
%TO.C,J2*%
X153940400Y-53335000D03*
X153440400Y-53335000D03*
X152940400Y-53335000D03*
X152440400Y-53335000D03*
X151940400Y-53335000D03*
X151440400Y-53335000D03*
X150940400Y-53335000D03*
X150440400Y-53335000D03*
X149940400Y-53335000D03*
X149440400Y-53335000D03*
X148940400Y-53335000D03*
X148440400Y-53335000D03*
X147940400Y-53335000D03*
X147440400Y-53335000D03*
X146940400Y-53335000D03*
X146440400Y-53335000D03*
X145940400Y-53335000D03*
X145440400Y-53335000D03*
X144940400Y-53335000D03*
X144440400Y-53335000D03*
X143940400Y-53335000D03*
X143440400Y-53335000D03*
X142940400Y-53335000D03*
X142440400Y-53335000D03*
X141940400Y-53335000D03*
X141440400Y-53335000D03*
X140940400Y-53335000D03*
X140440400Y-53335000D03*
X139940400Y-53335000D03*
X139440400Y-53335000D03*
X138940400Y-53335000D03*
X138440400Y-53335000D03*
X137940400Y-53335000D03*
X137440400Y-53335000D03*
X136940400Y-53335000D03*
X136440400Y-53335000D03*
X135940400Y-53335000D03*
X135440400Y-53335000D03*
X134940400Y-53335000D03*
X134440400Y-53335000D03*
D56*
X155590400Y-49435000D03*
X132790400Y-49435000D03*
%TD*%
D22*
%TO.C,R11*%
X161441900Y-122581900D03*
X162461900Y-122581900D03*
%TD*%
%TO.C,R6*%
X173154800Y-70931000D03*
X174174800Y-70931000D03*
%TD*%
D33*
%TO.C,C47*%
X128752600Y-51722800D03*
X128752600Y-50172800D03*
%TD*%
D14*
%TO.C,R27*%
X120017000Y-55402620D03*
X118997000Y-55402620D03*
%TD*%
D22*
%TO.C,R5*%
X173154800Y-69711800D03*
X174174800Y-69711800D03*
%TD*%
D16*
%TO.C,C24*%
X114960400Y-98905000D03*
X114960400Y-97945000D03*
%TD*%
%TO.C,C11*%
X156703800Y-75311000D03*
X156703800Y-74351000D03*
%TD*%
D15*
%TO.C,R18*%
X114960400Y-104699000D03*
X114960400Y-103679000D03*
%TD*%
D30*
%TO.C,C30*%
X144901700Y-112081600D03*
X144901700Y-110181600D03*
%TD*%
D16*
%TO.C,C29*%
X129287100Y-80138600D03*
X129287100Y-79178600D03*
%TD*%
D57*
%TO.C,C34*%
X136017000Y-95924400D03*
X136017000Y-97474400D03*
%TD*%
D19*
%TO.C,C42*%
X156137700Y-72612200D03*
X157097700Y-72612200D03*
%TD*%
D37*
%TO.C,D3*%
X145412100Y-113976400D03*
X147512100Y-113976400D03*
%TD*%
D12*
%TO.C,C18*%
X164335400Y-104775000D03*
X163375400Y-104775000D03*
%TD*%
%TO.C,C36*%
X126967100Y-79857600D03*
X126007100Y-79857600D03*
%TD*%
D41*
%TO.C,J8*%
X110893900Y-67831500D03*
X110893900Y-69081500D03*
D42*
X108193900Y-65581500D03*
X108193900Y-71331500D03*
%TD*%
D27*
%TO.C,C20*%
X173154800Y-72901000D03*
X173154800Y-73861000D03*
%TD*%
%TO.C,C17*%
X137302100Y-96424400D03*
X137302100Y-97384400D03*
%TD*%
D16*
%TO.C,C16*%
X137302100Y-91654400D03*
X137302100Y-90694400D03*
%TD*%
D15*
%TO.C,R24*%
X162382200Y-54358000D03*
X162382200Y-53338000D03*
%TD*%
D58*
%TO.C,L2*%
X126393400Y-52984400D03*
X123593400Y-52984400D03*
%TD*%
D59*
%TO.C,D2*%
X167471700Y-115481900D03*
D60*
X167471700Y-117181900D03*
X169471700Y-117181900D03*
X169471700Y-115281900D03*
%TD*%
D25*
%TO.C,D5*%
X169353866Y-49786300D03*
X169353866Y-51661300D03*
%TD*%
D57*
%TO.C,C35*%
X158953200Y-102374400D03*
X158953200Y-103924400D03*
%TD*%
D34*
%TO.C,SW2*%
X113030000Y-105257334D03*
X108880000Y-105257334D03*
X113030000Y-103107334D03*
X108880000Y-103107334D03*
%TD*%
D31*
%TO.C,C48*%
X127522000Y-55365200D03*
X129072000Y-55365200D03*
%TD*%
D61*
%TO.C,J9*%
X129417600Y-121592400D03*
X130667600Y-121592400D03*
X131917600Y-121592400D03*
X133167600Y-121592400D03*
D62*
X127167600Y-124292400D03*
X135417600Y-124292400D03*
%TD*%
G36*
X163685700Y-119397086D02*
G01*
X163685700Y-121455314D01*
X163685114Y-121455900D01*
X162184286Y-121455900D01*
X162183700Y-121455314D01*
X162183700Y-119397086D01*
X162184286Y-119396500D01*
X163685114Y-119396500D01*
X163685700Y-119397086D01*
G37*
G36*
X173796300Y-119397086D02*
G01*
X173796300Y-121455314D01*
X173795714Y-121455900D01*
X172294886Y-121455900D01*
X172294300Y-121455314D01*
X172294300Y-119397086D01*
X172294886Y-119396500D01*
X173795714Y-119396500D01*
X173796300Y-119397086D01*
G37*
G36*
X173796300Y-123740486D02*
G01*
X173796300Y-125519314D01*
X173795714Y-125519900D01*
X172294886Y-125519900D01*
X172294300Y-125519314D01*
X172294300Y-123740486D01*
X172294886Y-123739900D01*
X173795714Y-123739900D01*
X173796300Y-123740486D01*
G37*
G36*
X163660300Y-123740486D02*
G01*
X163660300Y-125519314D01*
X163659714Y-125519900D01*
X162158886Y-125519900D01*
X162158300Y-125519314D01*
X162158300Y-123740486D01*
X162158886Y-123739900D01*
X163659714Y-123739900D01*
X163660300Y-123740486D01*
G37*
M02*
