M48
; DRILL file {KiCad 8.0.2} date 2024-07-15T20:50:25+0700
; FORMAT={-:-/ absolute / inch / decimal}
; #@! TF.CreationDate,2024-07-15T20:50:25+07:00
; #@! TF.GenerationSoftware,Kicad,Pcbnew,8.0.2
; #@! TF.FileFunction,Plated,1,6,PTH
FMAT,2
INCH
; #@! TA.AperFunction,Plated,PTH,ViaDrill
T1C0.0079
; #@! TA.AperFunction,Plated,PTH,ViaDrill
T2C0.0098
; #@! TA.AperFunction,Plated,PTH,ViaDrill
T3C0.0118
; #@! TA.AperFunction,Plated,PTH,ViaDrill
T4C0.0157
; #@! TA.AperFunction,Plated,PTH,ComponentDrill
T5C0.0197
; #@! TA.AperFunction,Plated,PTH,ComponentDrill
T6C0.0236
; #@! TA.AperFunction,Plated,PTH,ComponentDrill
T7C0.1260
%
G90
G05
T1
X5.425Y-4.919
X5.693Y-4.919
T2
X4.243Y-3.1551
X4.2711Y-3.09
X4.2711Y-3.724
X4.3026Y-3.18
X4.3026Y-3.632
X4.3341Y-3.18
X4.3341Y-3.724
X4.3656Y-3.18
X4.3971Y-3.18
X4.4286Y-3.271
X4.4601Y-3.271
X4.487Y-4.06
X4.4916Y-3.271
X4.5231Y-3.18
X4.5231Y-3.724
X4.526Y-4.055
X4.547Y-3.835
X4.554Y-4.122
X4.554Y-4.309
X4.554Y-4.347
X4.554Y-4.536
X4.554Y-4.574
X4.5546Y-3.632
X4.555Y-3.894
X4.5861Y-3.18
X4.5861Y-3.724
X4.6176Y-3.18
X4.6176Y-3.632
X4.6491Y-3.18
X4.6932Y-3.787
X4.7066Y-2.807
X4.709Y-3.1173
X4.709Y-3.1551
X4.7121Y-3.2698
X4.731Y-3.787
X4.7719Y-3.116
X4.7751Y-3.2698
X4.8066Y-3.2698
X4.8097Y-3.116
X4.8664Y-3.787
X4.8696Y-3.2698
X4.9011Y-3.18
X4.9042Y-3.787
X4.917Y-2.687
X4.9609Y-3.116
X4.9641Y-3.18
X4.9956Y-3.18
X4.9987Y-3.116
X5.0271Y-3.724
X5.0585Y-3.18
X5.062Y-3.1173
X5.09Y-3.724
X5.1141Y-3.135
X5.1316Y-4.644
X5.2064Y-4.645
X5.239Y-2.231
X5.355Y-3.871
X5.376Y-2.295
X5.377Y-3.3647
X5.377Y-3.4025
X5.377Y-3.5706
X5.377Y-3.6084
X5.378Y-3.1062
X5.378Y-3.144
X5.392Y-3.2145
X5.395Y-2.28
X5.4056Y-3.861
X5.414Y-2.264
X5.4329Y-2.248
X5.434Y-3.7962
X5.44Y-3.21
X5.4516Y-2.2323
X5.458Y-3.5403
X5.4703Y-2.215
X5.48Y-3.857
X5.48Y-3.881
X5.489Y-2.2
X5.5004Y-4.813
X5.508Y-2.9157
X5.5095Y-2.138
X5.5291Y-2.2618
X5.537Y-3.901
X5.5398Y-4.813
X5.549Y-3.3238
X5.549Y-3.4813
X5.549Y-3.508
X5.549Y-3.56
X5.549Y-3.6191
X5.55Y-2.863
X5.561Y-3.792
X5.561Y-3.28
X5.568Y-2.138
X5.595Y-2.329
X5.6082Y-2.155
X5.6183Y-3.827
X5.627Y-3.743
X5.6278Y-2.138
X5.638Y-3.916
X5.639Y-2.837
X5.6576Y-3.9305
X5.6576Y-4.0667
X5.6585Y-3.418
X5.6672Y-2.155
X5.672Y-3.194
X5.6773Y-3.917
X5.6773Y-4.023
X5.6869Y-2.138
X5.7159Y-2.2969
X5.717Y-3.077
X5.726Y-2.1937
X5.732Y-2.3343
X5.7365Y-3.0903
X5.737Y-2.958
X5.742Y-2.745
X5.742Y-2.7702
X5.742Y-2.7955
X5.742Y-2.8207
X5.742Y-2.846
X5.744Y-2.92
X5.745Y-2.881
X5.761Y-2.2783
X5.765Y-2.73
X5.767Y-3.978
X5.768Y-2.776
X5.779Y-2.3156
X5.7953Y-2.73
X5.805Y-3.978
X5.8151Y-3.804
X5.8255Y-2.73
X5.8348Y-3.817
X5.8545Y-3.9234
X5.8557Y-2.73
X5.86Y-2.027
X5.8638Y-2.138
X5.874Y-3.1133
X5.8742Y-3.077
X5.883Y-2.831
X5.886Y-2.73
X5.8939Y-3.916
X5.896Y-2.881
X5.901Y-4.65
X5.903Y-2.061
X5.906Y-2.745
X5.906Y-2.7702
X5.906Y-2.7955
X5.906Y-2.8207
X5.906Y-2.846
X5.9135Y-3.1133
X5.9135Y-3.931
X5.9145Y-3.78
X5.9332Y-3.077
X5.944Y-2.161
X5.951Y-4.65
X5.96Y-3.92
X5.9621Y-2.1993
X5.983Y-3.978
X5.984Y-2.18
X5.986Y-2.915
X5.9933Y-2.986
X6.0037Y-2.2343
X6.012Y-2.97
X6.021Y-3.978
X6.023Y-2.939
X6.027Y-2.8587
X6.031Y-3.094
X6.0313Y-2.2354
X6.0496Y-3.078
X6.0566Y-3.1929
X6.059Y-2.236
X6.071Y-3.773
X6.077Y-3.181
X6.089Y-3.2972
X6.091Y-3.788
X6.101Y-4.777
X6.1103Y-3.8016
X6.1106Y-3.267
X6.127Y-4.459
X6.1293Y-3.2492
X6.1437Y-4.4757
X6.148Y-3.2325
X6.167Y-3.2135
X6.169Y-2.9
X6.18Y-4.274
X6.18Y-4.302
X6.1849Y-2.83
X6.186Y-3.31
X6.19Y-2.965
X6.2049Y-3.156
X6.2236Y-3.2678
X6.229Y-3.829
X6.233Y-4.222
X6.233Y-4.247
X6.234Y-2.16
X6.239Y-3.978
X6.258Y-4.124
X6.277Y-3.978
X6.281Y-3.6978
X6.2886Y-3.1448
X6.289Y-2.91
X6.298Y-3.3435
X6.298Y-3.6781
X6.299Y-3.166
X6.3086Y-2.9275
X6.325Y-4.152
X6.3273Y-2.942
X6.346Y-2.961
X6.349Y-4.152
X6.393Y-2.167
X6.431Y-3.966
X6.436Y-1.96
X6.442Y-3.55
X6.445Y-3.588
X6.446Y-3.107
X6.446Y-3.354
X6.446Y-3.391
X6.447Y-3.069
X6.466Y-3.2254
X6.487Y-3.407
X6.514Y-3.46
X6.535Y-3.346
X6.559Y-3.346
X6.573Y-2.875
X6.573Y-2.974
X6.573Y-3.072
X6.624Y-1.96
X6.628Y-4.169
X6.667Y-2.167
X6.731Y-3.035
X6.789Y-2.8701
X6.789Y-2.908
X6.791Y-2.793
X6.9163Y-3.333
X6.9163Y-3.686
X6.9663Y-3.333
X6.9663Y-3.686
X6.9831Y-2.9246
X7.0163Y-3.391
X7.033Y-3.119
X7.0331Y-2.9246
T3
X4.303Y-2.582
X4.303Y-2.808
X4.7459Y-2.807
X4.807Y-2.7057
X4.815Y-2.807
X4.8901Y-2.796
X4.918Y-2.726
X6.327Y-4.8261
X6.8671Y-4.857
T4
X4.547Y-2.304
X4.548Y-2.177
X4.548Y-2.431
X4.687Y-2.56
X4.778Y-2.156
X4.791Y-2.603
X5.006Y-4.85
X5.024Y-2.086
X5.024Y-2.125
X5.069Y-1.947
X5.101Y-2.231
X5.119Y-2.179
X5.132Y-1.947
X5.169Y-4.563
X5.243Y-4.728
X5.331Y-4.85
X5.3333Y-4.2983
X5.352Y-2.054
X5.371Y-2.145
X5.4593Y-4.4563
X5.4593Y-4.4903
X5.4593Y-4.3033
X5.579Y-4.713
X5.588Y-2.054
X5.619Y-4.713
X5.6493Y-4.4873
X5.6833Y-4.4873
X5.7043Y-4.3013
X5.7653Y-4.3213
X5.8244Y-2.054
X5.8253Y-4.3003
X5.851Y-4.642
X5.901Y-4.797
X5.9425Y-2.054
X5.951Y-4.938
X6.001Y-4.938
X6.041Y-2.054
X6.082Y-2.054
X6.396Y-4.255
X6.396Y-4.335
X6.397Y-4.125
X6.4441Y-4.6571
X6.47Y-4.161
X6.4781Y-4.6571
X6.483Y-4.2116
X6.5281Y-4.6051
X6.5281Y-4.6391
X6.5691Y-4.5471
X6.619Y-3.844
X6.65Y-4.387
X6.7181Y-4.5391
X6.7181Y-4.5731
X6.739Y-2.377
X6.7461Y-4.6571
X6.758Y-3.338
X6.7801Y-4.6571
X6.781Y-3.434
X6.781Y-3.582
X6.813Y-2.339
X6.886Y-4.583
X6.933Y-2.353
X6.9413Y-3.5095
X6.968Y-4.585
X7.016Y-3.677
X7.041Y-3.776
X7.042Y-4.387
X7.094Y-2.234
X7.094Y-2.522
T5
X4.2204Y-2.0371
X4.2204Y-4.8402
X4.248Y-1.9702
X4.248Y-2.1039
X4.248Y-4.7734
X4.248Y-4.907
X4.3149Y-1.9426
X4.3149Y-2.1315
X4.3149Y-4.7457
X4.3149Y-4.9347
X4.3817Y-1.9702
X4.3817Y-2.1039
X4.3817Y-4.7734
X4.3817Y-4.907
X4.4093Y-2.0371
X4.4093Y-4.8402
X6.9448Y-2.0371
X6.9448Y-4.8402
X6.9725Y-1.9702
X6.9725Y-2.1039
X6.9725Y-4.7734
X6.9725Y-4.907
X7.0393Y-1.9426
X7.0393Y-2.1315
X7.0393Y-4.7457
X7.0393Y-4.9347
X7.1061Y-1.9702
X7.1061Y-2.1039
X7.1061Y-4.7734
X7.1061Y-4.907
X7.1338Y-2.0371
X7.1338Y-4.8402
T7
X4.3149Y-2.0371
X4.3149Y-4.8402
X7.0393Y-2.0371
X7.0393Y-4.8402
T6
G00X6.443Y-4.7196
M15
G01X6.443Y-4.7629
M16
G05
G00X6.443Y-4.8908
M15
G01X6.443Y-4.9223
M16
G05
G00X6.7831Y-4.7196
M15
G01X6.7831Y-4.7629
M16
G05
G00X6.7831Y-4.8908
M15
G01X6.7831Y-4.9223
M16
G05
M30
