%TF.GenerationSoftware,KiCad,Pcbnew,8.0.2*%
%TF.CreationDate,2024-07-15T20:50:26+07:00*%
%TF.ProjectId,chroma-pixel-h743,6368726f-6d61-42d7-9069-78656c2d6837,rev?*%
%TF.SameCoordinates,Original*%
%TF.FileFunction,Copper,L6,Bot*%
%TF.FilePolarity,Positive*%
%FSLAX46Y46*%
G04 Gerber Fmt 4.6, Leading zero omitted, Abs format (unit mm)*
G04 Created by KiCad (PCBNEW 8.0.2) date 2024-07-15 20:50:26*
%MOMM*%
%LPD*%
G01*
G04 APERTURE LIST*
%ADD10C,0.250000*%
%TA.AperFunction,NonConductor*%
%ADD11C,0.250000*%
%TD*%
%TA.AperFunction,ComponentPad*%
%ADD12C,0.800000*%
%TD*%
%TA.AperFunction,ComponentPad*%
%ADD13C,6.400000*%
%TD*%
%TA.AperFunction,ComponentPad*%
%ADD14O,1.000000X2.100000*%
%TD*%
%TA.AperFunction,ComponentPad*%
%ADD15O,1.000000X1.800000*%
%TD*%
%TA.AperFunction,ViaPad*%
%ADD16C,0.800000*%
%TD*%
%TA.AperFunction,ViaPad*%
%ADD17C,0.400000*%
%TD*%
%TA.AperFunction,ViaPad*%
%ADD18C,0.350000*%
%TD*%
%TA.AperFunction,ViaPad*%
%ADD19C,0.500000*%
%TD*%
%TA.AperFunction,Conductor*%
%ADD20C,0.150000*%
%TD*%
G04 APERTURE END LIST*
D10*
D11*
X107713780Y-62934139D02*
X107713780Y-62743663D01*
X107713780Y-62743663D02*
X107666161Y-62648425D01*
X107666161Y-62648425D02*
X107618542Y-62600806D01*
X107618542Y-62600806D02*
X107475685Y-62505568D01*
X107475685Y-62505568D02*
X107285209Y-62457949D01*
X107285209Y-62457949D02*
X106904257Y-62457949D01*
X106904257Y-62457949D02*
X106809019Y-62505568D01*
X106809019Y-62505568D02*
X106761400Y-62553187D01*
X106761400Y-62553187D02*
X106713780Y-62648425D01*
X106713780Y-62648425D02*
X106713780Y-62838901D01*
X106713780Y-62838901D02*
X106761400Y-62934139D01*
X106761400Y-62934139D02*
X106809019Y-62981758D01*
X106809019Y-62981758D02*
X106904257Y-63029377D01*
X106904257Y-63029377D02*
X107142352Y-63029377D01*
X107142352Y-63029377D02*
X107237590Y-62981758D01*
X107237590Y-62981758D02*
X107285209Y-62934139D01*
X107285209Y-62934139D02*
X107332828Y-62838901D01*
X107332828Y-62838901D02*
X107332828Y-62648425D01*
X107332828Y-62648425D02*
X107285209Y-62553187D01*
X107285209Y-62553187D02*
X107237590Y-62505568D01*
X107237590Y-62505568D02*
X107142352Y-62457949D01*
D12*
%TO.P,H3,1,1*%
%TO.N,GND*%
X181197300Y-122941100D03*
X180494356Y-124638156D03*
X180494356Y-121244044D03*
X178797300Y-125341100D03*
D13*
X178797300Y-122941100D03*
D12*
X178797300Y-120541100D03*
X177100244Y-124638156D03*
X177100244Y-121244044D03*
X176397300Y-122941100D03*
%TD*%
%TO.P,H4,1,1*%
%TO.N,GND*%
X111997300Y-122941100D03*
X111294356Y-124638156D03*
X111294356Y-121244044D03*
X109597300Y-125341100D03*
D13*
X109597300Y-122941100D03*
D12*
X109597300Y-120541100D03*
X107900244Y-124638156D03*
X107900244Y-121244044D03*
X107197300Y-122941100D03*
%TD*%
D14*
%TO.P,J4,S1,SHIELD*%
%TO.N,/MCU/SHIELD*%
X163651700Y-120426900D03*
D15*
X163651700Y-124626900D03*
D14*
X172291700Y-120426900D03*
D15*
X172291700Y-124626900D03*
%TD*%
D12*
%TO.P,H1,1,1*%
%TO.N,GND*%
X111997300Y-51741100D03*
X111294356Y-53438156D03*
X111294356Y-50044044D03*
X109597300Y-54141100D03*
D13*
X109597300Y-51741100D03*
D12*
X109597300Y-49341100D03*
X107900244Y-53438156D03*
X107900244Y-50044044D03*
X107197300Y-51741100D03*
%TD*%
%TO.P,H2,1,1*%
%TO.N,GND*%
X181197300Y-51741100D03*
X180494356Y-53438156D03*
X180494356Y-50044044D03*
X178797300Y-54141100D03*
D13*
X178797300Y-51741100D03*
D12*
X178797300Y-49341100D03*
X177100244Y-53438156D03*
X177100244Y-50044044D03*
X176397300Y-51741100D03*
%TD*%
D16*
%TO.N,GND*%
X176098200Y-59766200D03*
%TO.N,+3V3*%
X173050200Y-59410600D03*
%TO.N,VBAT*%
X171170600Y-60375800D03*
%TO.N,GND*%
X133172200Y-120091200D03*
D17*
X136575800Y-90694400D03*
D18*
X144602200Y-124942600D03*
D16*
X162483800Y-104775000D03*
X147940400Y-52171600D03*
X115493800Y-58521600D03*
D17*
X145846800Y-71005700D03*
D16*
X131292600Y-115900200D03*
X152425400Y-125425200D03*
X135407400Y-123190000D03*
X151155400Y-125425200D03*
D17*
X127687100Y-94589600D03*
X123607100Y-96189800D03*
D16*
X176987200Y-116459000D03*
D17*
X145923000Y-73177400D03*
D16*
X174904400Y-116408200D03*
D17*
X114960400Y-102997000D03*
X149428200Y-71907400D03*
X147967700Y-69342000D03*
X163703000Y-91135200D03*
X145846800Y-71647050D03*
D16*
X172213500Y-118289300D03*
D17*
X151968200Y-101041200D03*
X150012400Y-72288400D03*
X157097700Y-71882000D03*
X163753800Y-77952600D03*
X147199350Y-69342000D03*
D16*
X135940800Y-52171600D03*
D17*
X149758400Y-73177400D03*
D16*
X168910000Y-111429800D03*
X178206400Y-93395800D03*
D17*
X129287100Y-94589600D03*
X153085800Y-72612200D03*
D16*
X176309600Y-89140400D03*
D17*
X152984200Y-74650600D03*
X121207100Y-79146400D03*
X145846800Y-72288400D03*
X128574800Y-79178600D03*
D16*
X180187600Y-64058800D03*
X121361200Y-54762400D03*
X154482800Y-52171600D03*
D17*
X170967400Y-77089000D03*
X146431000Y-69342000D03*
X145846800Y-69723000D03*
D16*
X130022600Y-55346600D03*
D17*
X137302100Y-98069400D03*
D16*
X172237400Y-87223600D03*
D19*
X109296200Y-65582800D03*
D16*
X115519200Y-61747400D03*
X150940400Y-52171600D03*
X128752600Y-49453800D03*
D17*
X115671600Y-109448600D03*
D16*
X146439600Y-109760000D03*
D17*
X158953200Y-104749600D03*
D16*
X138667200Y-109302800D03*
X121691400Y-66116200D03*
X178866800Y-111429800D03*
D17*
X178638200Y-79222600D03*
X119207100Y-96189800D03*
X158470600Y-101041200D03*
D16*
X166854100Y-115495300D03*
D18*
X137795000Y-124942600D03*
D17*
X150012400Y-70364350D03*
X115671600Y-115214400D03*
D16*
X180187600Y-56743600D03*
D17*
X156692600Y-73660000D03*
X150012400Y-69723000D03*
D19*
X174425300Y-123367800D03*
D17*
X136601200Y-78897600D03*
X146507200Y-70510400D03*
D19*
X160705800Y-122581900D03*
D16*
X135466800Y-109175800D03*
X130352800Y-49453800D03*
D17*
X126007100Y-79146400D03*
D19*
X109296200Y-71323200D03*
D17*
X108487100Y-94589600D03*
X172440600Y-73863200D03*
X148736050Y-69342000D03*
D19*
X122097800Y-68725900D03*
D17*
X150012400Y-71005700D03*
D16*
X144890200Y-109252000D03*
D17*
X150012400Y-71647050D03*
X149504400Y-69342000D03*
D16*
X164542700Y-118289300D03*
D19*
X124208000Y-71018400D03*
D16*
X168122600Y-97637600D03*
D17*
X136017000Y-98323400D03*
X145897600Y-74168000D03*
X140970000Y-72720200D03*
X168249600Y-49784000D03*
X119608600Y-79178600D03*
X108487100Y-78486000D03*
X163728400Y-86131400D03*
X145846800Y-70364350D03*
D16*
X148615400Y-117906800D03*
X115519200Y-55295800D03*
X178841400Y-95910400D03*
D17*
X136575800Y-85464400D03*
D16*
X163679100Y-118289300D03*
X171349900Y-118289300D03*
D17*
X146481800Y-101041200D03*
D16*
X141935200Y-52171600D03*
X147963600Y-109226600D03*
X127152400Y-123190000D03*
D17*
X115493800Y-97409000D03*
X163474400Y-49784000D03*
D16*
X164668200Y-106975000D03*
X142722600Y-119710200D03*
D17*
%TO.N,Net-(C34-Pad1)*%
X158216600Y-97256600D03*
X141249000Y-96316800D03*
D16*
%TO.N,VDD*%
X144356800Y-113976400D03*
X127609600Y-53975000D03*
X119049800Y-65024000D03*
X127609600Y-52984400D03*
D19*
X124917200Y-69240400D03*
D16*
X143493200Y-113976400D03*
D17*
%TO.N,+3V3*%
X172491400Y-70942200D03*
D16*
X149885400Y-121843800D03*
D17*
X107772200Y-80138600D03*
D16*
X129565400Y-56667400D03*
D17*
X138023600Y-96424400D03*
X113969800Y-103124000D03*
X147447000Y-101041200D03*
X152933400Y-101041200D03*
X139903200Y-74059400D03*
X163347400Y-100736400D03*
X136575800Y-91654400D03*
D16*
X164338000Y-105689400D03*
D17*
X143230600Y-72059800D03*
X126967100Y-79146400D03*
D16*
X162458400Y-108077000D03*
D17*
X163728400Y-85191600D03*
X119608600Y-80138600D03*
X145719800Y-75133200D03*
X166954200Y-78028800D03*
X163626800Y-90170000D03*
X136601200Y-79857600D03*
X158343600Y-54864000D03*
D16*
X153441400Y-52171600D03*
X162458400Y-110109000D03*
X172237400Y-90982800D03*
D17*
X152044400Y-74041000D03*
X166954200Y-75539600D03*
D16*
X138665900Y-113189000D03*
X138665900Y-114052600D03*
D17*
X136575800Y-86424400D03*
X163728400Y-78917800D03*
D16*
X141706600Y-119710200D03*
D17*
X159435800Y-101041200D03*
X122167100Y-79146400D03*
X166954200Y-73025000D03*
D16*
X171653200Y-84785200D03*
X136423400Y-54483000D03*
D17*
X120167100Y-96189800D03*
X124567100Y-96189800D03*
X129899222Y-79628895D03*
X172440600Y-72901000D03*
%TO.N,/LCD/LCD_SPI_DAT*%
X137033000Y-57912000D03*
X145592800Y-59291200D03*
%TO.N,/LCD/LCD_SPI_CLK*%
X137515600Y-57505600D03*
X146329400Y-57867800D03*
%TO.N,/LCD/LCD_SPI_CS*%
X137995600Y-57099200D03*
X145184024Y-58341424D03*
%TO.N,/LCD/LCD_TP_INT*%
X154203400Y-95834200D03*
X152494576Y-56750624D03*
%TO.N,/LCD/LCD_TP_SCL*%
X155201583Y-96561211D03*
X153898600Y-56794400D03*
%TO.N,/LCD/LCD_TP_SDA*%
X154711400Y-96215200D03*
X153195978Y-56780274D03*
%TO.N,/LCD/LCD_R4*%
X139420600Y-55880000D03*
X148940400Y-54305200D03*
%TO.N,/LCD/LCD_R5*%
X156641820Y-81622520D03*
X160712400Y-74726800D03*
%TO.N,/LCD/LCD_RESET*%
X146786600Y-58816200D03*
X136550400Y-58293000D03*
%TO.N,/LCD/LCD_G7*%
X157604900Y-80162400D03*
X160238349Y-74358998D03*
%TO.N,/LCD/LCD_R6*%
X138470600Y-56700116D03*
X149936200Y-52349400D03*
%TO.N,/IO/STEMMA_SDA*%
X177371200Y-74283800D03*
X140710100Y-122250200D03*
%TO.N,/IO/STEMMA_SCL*%
X178641200Y-74283800D03*
X139710100Y-122250200D03*
%TO.N,/LCD/LCD_DE*%
X140440400Y-57449774D03*
X142113000Y-59157600D03*
%TO.N,/LCD/LCD_B6*%
X151437400Y-55862200D03*
X143947300Y-54737000D03*
%TO.N,/LCD/HSYNC*%
X141427200Y-54305200D03*
X155683800Y-82529806D03*
%TO.N,/LCD/LCD_B7*%
X144447300Y-54305200D03*
X151993600Y-55372000D03*
%TO.N,/LCD/LCD_B4*%
X142947300Y-54305200D03*
X157124400Y-84074000D03*
%TO.N,/LCD/LCD_B3*%
X142447300Y-54737000D03*
X150977600Y-54889400D03*
%TO.N,/LCD/LCD_CLK*%
X155208800Y-82981800D03*
X139940400Y-54305200D03*
%TO.N,/LCD/LCD_G6*%
X156158800Y-82105539D03*
X159740600Y-73914000D03*
%TO.N,/LCD/LCD_G3*%
X145440400Y-55720000D03*
X158079901Y-83002851D03*
%TO.N,/LCD/LCD_R7*%
X161188400Y-75209400D03*
X154659937Y-83749400D03*
%TO.N,/LCD/LCD_R3*%
X138945600Y-56261000D03*
X148844000Y-51485800D03*
D16*
%TO.N,VBUS*%
X170638700Y-116155700D03*
X170638700Y-115292100D03*
X165812700Y-117832100D03*
X165812700Y-116968500D03*
D17*
%TO.N,/LCD/LCD_BLK*%
X133070600Y-56667400D03*
X138176000Y-81534000D03*
%TO.N,/MCU/BOOT0*%
X115671600Y-104698800D03*
X164236400Y-81924400D03*
%TO.N,/MCU/BTN0*%
X115671600Y-110413800D03*
X139192000Y-98577400D03*
%TO.N,/MCU/BTN1*%
X139192000Y-97967800D03*
X115671600Y-116179600D03*
%TO.N,/IO/NRST*%
X143725400Y-86817200D03*
X115697000Y-98907600D03*
X154965400Y-121335800D03*
%TO.N,/IO/SWCLK*%
X156972000Y-109270800D03*
X151155400Y-118110000D03*
%TO.N,/IO/SWDIO*%
X156972000Y-108559600D03*
X149885400Y-118110000D03*
%TO.N,/MCU/SDRAM_ADD10*%
X140944600Y-88424400D03*
X112487100Y-83083400D03*
%TO.N,/MCU/SDRAM_DQ4*%
X140944600Y-89103200D03*
X123687100Y-83052000D03*
%TO.N,/MCU/SDRAM_DQ2*%
X159537400Y-93924400D03*
X126087100Y-80772000D03*
%TO.N,/MCU/SDRAM_DQ13*%
X143703800Y-99833572D03*
X143703800Y-103295036D03*
%TO.N,/MCU/SDRAM_DQ6*%
X121287100Y-83052000D03*
X140944600Y-90424400D03*
%TO.N,/MCU/SDRAM_ADD0*%
X154355800Y-80797400D03*
X111687100Y-80772000D03*
%TO.N,/MCU/SDRAM_DQ0*%
X128487100Y-80772000D03*
X147703800Y-96621600D03*
%TO.N,/MCU/SDRAM_ADD3*%
X153187400Y-78587600D03*
X109287100Y-80772000D03*
%TO.N,/MCU/SDRAM_DQ5*%
X138633200Y-89924400D03*
X122087100Y-83052000D03*
%TO.N,/MCU/SDRAM_DQ7*%
X140944600Y-91924400D03*
X119687100Y-83052000D03*
%TO.N,/MCU/SDRAM_DQ1*%
X126887100Y-80772000D03*
X148203800Y-96951800D03*
%TO.N,/MCU/SDRAM_DQ3*%
X124487100Y-80772000D03*
X159969200Y-93424400D03*
%TO.N,/MCU/SDRAM_DQ14*%
X144203800Y-99491800D03*
X144203800Y-102184200D03*
%TO.N,/MCU/SDRAM_ADD5*%
X110087100Y-94589600D03*
X152228800Y-75844400D03*
%TO.N,/MCU/SDRAM_ADD2*%
X153660100Y-78181200D03*
X110087100Y-80772000D03*
%TO.N,/MCU/SDRAM_ADD1*%
X153837344Y-81099400D03*
X110887100Y-80772000D03*
%TO.N,/MCU/SDRAM_ADD4*%
X109287100Y-92252800D03*
X152703800Y-75438000D03*
%TO.N,/MCU/LED_0*%
X166598600Y-84988400D03*
X169341800Y-55041800D03*
%TO.N,/MCU/LED_1*%
X165989000Y-84988400D03*
X162382200Y-55041800D03*
%TO.N,VBAT*%
X157226000Y-75311000D03*
%TO.N,/IO/DBG_USART_TX*%
X160655000Y-105460800D03*
X155625800Y-113258600D03*
%TO.N,/IO/DBG_USART_RX*%
X161264600Y-105460800D03*
X156050066Y-113682866D03*
%TO.N,/IO/EXT_RX*%
X130342600Y-117957600D03*
X165455600Y-87884000D03*
%TO.N,/IO/EXT_TX*%
X164770637Y-86538637D03*
X132242600Y-117983000D03*
%TO.N,/MEMORY/SD_DAT0*%
X158318200Y-107238800D03*
X142703800Y-97205800D03*
%TO.N,/MCU/SDRAM_ADD12*%
X114887100Y-94589600D03*
X148703800Y-99653545D03*
%TO.N,/MEMORY/SD_DAT1*%
X143205200Y-99466400D03*
X158318200Y-107873800D03*
%TO.N,/MEMORY/SD_CLK*%
X150228800Y-96012000D03*
X168351200Y-105892600D03*
%TO.N,/Audio/I2S_SD_MODE*%
X145706987Y-78494612D03*
X124891800Y-68249800D03*
%TO.N,/MEMORY/NOR_IO3*%
X175674600Y-84658200D03*
X150703800Y-78155800D03*
%TO.N,/MEMORY/NOR_DI(IO0)*%
X149199600Y-79077800D03*
X178214600Y-86131400D03*
%TO.N,/MEMORY/NOR_DO(IO1)*%
X175674600Y-93624400D03*
X149203800Y-78155800D03*
%TO.N,/MEMORY/NOR_IO2*%
X150203800Y-79077800D03*
X176944600Y-93624400D03*
%TO.N,/MEMORY/NOR_CLK*%
X140944600Y-84424400D03*
X176944600Y-84658200D03*
D19*
%TO.N,/Audio/I2S_CK*%
X120546500Y-71297800D03*
D17*
X142924639Y-95071039D03*
D19*
%TO.N,/Audio/I2S_SDO*%
X122301000Y-71297800D03*
D17*
X145211800Y-78155800D03*
%TO.N,/Audio/I2S_WS*%
X119546500Y-71297800D03*
X140639800Y-99085400D03*
%TO.N,/MCU/~{SDRAM_WE}*%
X117287100Y-80772000D03*
X144069264Y-81127136D03*
%TO.N,/MCU/~{SDRAM_CAS}*%
X159969200Y-84924400D03*
X116487100Y-80772000D03*
%TO.N,/MCU/SDRAM_CKE*%
X115687100Y-92252800D03*
X141249400Y-83312000D03*
%TO.N,/MCU/~{SDRAM_CS}*%
X136956800Y-81649400D03*
X114887100Y-80772000D03*
%TO.N,/MCU/SDRAM_BA0*%
X114087100Y-83083400D03*
X149703800Y-99466400D03*
%TO.N,/MCU/SDRAM_CLK*%
X151384000Y-99568000D03*
X116487100Y-94589600D03*
%TO.N,/MCU/SDRAM_LDQM*%
X159994600Y-80416400D03*
X118087100Y-80772000D03*
%TO.N,/MCU/SDRAM_BA1*%
X150203800Y-99847400D03*
X113287100Y-83083400D03*
%TO.N,/MCU/SDRAM_UDQM*%
X159729900Y-79877944D03*
X117287100Y-92252800D03*
%TD*%
D20*
%TO.N,/LCD/LCD_SPI_DAT*%
X137033000Y-57912000D02*
X137033000Y-58941026D01*
X144533600Y-60350400D02*
X145592800Y-59291200D01*
X138442374Y-60350400D02*
X144533600Y-60350400D01*
X137033000Y-58941026D02*
X138442374Y-60350400D01*
%TO.N,/LCD/LCD_SPI_CLK*%
X137515600Y-57505600D02*
X137515600Y-58928652D01*
X138569548Y-59982600D02*
X144214600Y-59982600D01*
X144214600Y-59982600D02*
X146329400Y-57867800D01*
X137515600Y-58928652D02*
X138569548Y-59982600D01*
%TO.N,/LCD/LCD_SPI_CS*%
X138714522Y-59632600D02*
X137995600Y-58913678D01*
X137995600Y-58913678D02*
X137995600Y-57099200D01*
X145184024Y-58341424D02*
X143892848Y-59632600D01*
X143892848Y-59632600D02*
X138714522Y-59632600D01*
%TO.N,/LCD/LCD_TP_INT*%
X155016200Y-95021400D02*
X159112152Y-95021400D01*
X161169600Y-79266800D02*
X162376600Y-78059800D01*
X161169600Y-92963952D02*
X161169600Y-79266800D01*
X159112152Y-95021400D02*
X161169600Y-92963952D01*
X162376600Y-78059800D02*
X162376600Y-66632648D01*
X154203400Y-95834200D02*
X155016200Y-95021400D01*
X162376600Y-66632648D02*
X152494576Y-56750624D01*
%TO.N,/LCD/LCD_TP_SCL*%
X161869600Y-79556748D02*
X163076600Y-78349748D01*
X159459374Y-95721400D02*
X160838987Y-94341787D01*
X160921376Y-94259399D02*
X161869600Y-93311175D01*
X161869600Y-93311175D02*
X161869600Y-79556748D01*
X163076600Y-78349748D02*
X163076600Y-65972400D01*
X163076600Y-65972400D02*
X153898600Y-56794400D01*
X155201583Y-96561211D02*
X156041394Y-95721400D01*
X160838987Y-94341787D02*
X160921376Y-94259399D01*
X156041394Y-95721400D02*
X159459374Y-95721400D01*
%TO.N,/LCD/LCD_TP_SDA*%
X162726600Y-78204775D02*
X162726600Y-66310896D01*
X162045487Y-78885887D02*
X162045488Y-78885887D01*
X161519600Y-93166200D02*
X161519600Y-79411774D01*
X161519600Y-79411774D02*
X162045487Y-78885887D01*
X155555200Y-95371400D02*
X159314400Y-95371400D01*
X162045488Y-78885887D02*
X162726600Y-78204775D01*
X154711400Y-96215200D02*
X155555200Y-95371400D01*
X162726600Y-66310896D02*
X153195978Y-56780274D01*
X159314400Y-95371400D02*
X161519600Y-93166200D01*
%TO.N,/LCD/LCD_R4*%
X139420600Y-54051200D02*
X139420600Y-55880000D01*
X148940400Y-54305200D02*
X147243148Y-54305200D01*
X147243148Y-54305200D02*
X146418148Y-53480200D01*
X139991600Y-53480200D02*
X139420600Y-54051200D01*
X146418148Y-53480200D02*
X139991600Y-53480200D01*
%TO.N,/LCD/LCD_R5*%
X157616252Y-80822800D02*
X160712400Y-77726652D01*
X160712400Y-77726652D02*
X160712400Y-74726800D01*
X156641820Y-81622520D02*
X156641820Y-81127580D01*
X156641820Y-81127580D02*
X156946600Y-80822800D01*
X156946600Y-80822800D02*
X157616252Y-80822800D01*
%TO.N,/LCD/LCD_RESET*%
X138092374Y-60495375D02*
X138297399Y-60700400D01*
X138297399Y-60700400D02*
X144902400Y-60700400D01*
X144902400Y-60700400D02*
X146786600Y-58816200D01*
X136550400Y-58953400D02*
X138092374Y-60495375D01*
X136550400Y-58293000D02*
X136550400Y-58953400D01*
%TO.N,/LCD/LCD_G7*%
X160237400Y-74359947D02*
X160238349Y-74358998D01*
X160237400Y-77529900D02*
X160237400Y-74359947D01*
X157604900Y-80162400D02*
X160237400Y-77529900D01*
%TO.N,/LCD/LCD_R6*%
X149936200Y-51790600D02*
X149156400Y-51010800D01*
X149936200Y-52349400D02*
X149936200Y-51790600D01*
X141292600Y-51010800D02*
X138470600Y-53832800D01*
X138470600Y-53832800D02*
X138470600Y-56700116D01*
X149156400Y-51010800D02*
X141292600Y-51010800D01*
%TO.N,/IO/STEMMA_SDA*%
X140710100Y-122828500D02*
X141077200Y-123195600D01*
X177371200Y-75956025D02*
X177371200Y-74283800D01*
X143352000Y-123195600D02*
X146100801Y-120446800D01*
X146323801Y-120223800D02*
X157741426Y-120223800D01*
X146100801Y-120446800D02*
X146323801Y-120223800D01*
X170134800Y-83192425D02*
X177371200Y-75956025D01*
X170134800Y-107830426D02*
X170134800Y-83192425D01*
X141077200Y-123195600D02*
X143352000Y-123195600D01*
X157741426Y-120223800D02*
X170134800Y-107830426D01*
X140710100Y-122250200D02*
X140710100Y-122828500D01*
%TO.N,/IO/STEMMA_SCL*%
X178641200Y-74283800D02*
X178641200Y-75181000D01*
X170484800Y-107975400D02*
X157886400Y-120573800D01*
X157886400Y-120573800D02*
X146468775Y-120573800D01*
X146468775Y-120573800D02*
X143496975Y-123545600D01*
X143496975Y-123545600D02*
X140512800Y-123545600D01*
X178641200Y-75181000D02*
X170484800Y-83337400D01*
X139710100Y-122742900D02*
X139710100Y-122250200D01*
X140512800Y-123545600D02*
X139710100Y-122742900D01*
X170484800Y-83337400D02*
X170484800Y-107975400D01*
%TO.N,/LCD/LCD_DE*%
X142113000Y-59157600D02*
X141352000Y-59157600D01*
X141352000Y-59157600D02*
X140440400Y-58246000D01*
X140440400Y-58246000D02*
X140440400Y-57449774D01*
%TO.N,/LCD/LCD_B6*%
X143990500Y-54780200D02*
X143947300Y-54737000D01*
X146232574Y-54780200D02*
X143990500Y-54780200D01*
X147314574Y-55862200D02*
X146232574Y-54780200D01*
X151437400Y-55862200D02*
X147314574Y-55862200D01*
%TO.N,/LCD/HSYNC*%
X151048200Y-57042800D02*
X142602374Y-57042800D01*
X155683800Y-80916774D02*
X159265600Y-77334974D01*
X159265600Y-65260200D02*
X151048200Y-57042800D01*
X159265600Y-77334974D02*
X159265600Y-65260200D01*
X141427200Y-55867626D02*
X141427200Y-54305200D01*
X155683800Y-82529806D02*
X155683800Y-80916774D01*
X142602374Y-57042800D02*
X141427200Y-55867626D01*
%TO.N,/LCD/LCD_B7*%
X146253200Y-54305200D02*
X147335200Y-55387200D01*
X144447300Y-54305200D02*
X146253200Y-54305200D01*
X147335200Y-55387200D02*
X151978400Y-55387200D01*
X151978400Y-55387200D02*
X151993600Y-55372000D01*
%TO.N,/LCD/LCD_B4*%
X142947300Y-54733100D02*
X142947300Y-54305200D01*
X161478349Y-78447692D02*
X162026600Y-77899441D01*
X160819600Y-79106440D02*
X161478348Y-78447692D01*
X151409400Y-56337200D02*
X147294600Y-56337200D01*
X157657800Y-83540600D02*
X158572200Y-83540600D01*
X157124400Y-84074000D02*
X157657800Y-83540600D01*
X162026600Y-66954400D02*
X151409400Y-56337200D01*
X146202400Y-55245000D02*
X143459200Y-55245000D01*
X160819600Y-81293200D02*
X160819600Y-79106440D01*
X161478348Y-78447692D02*
X161478349Y-78447692D01*
X143459200Y-55245000D02*
X142947300Y-54733100D01*
X162026600Y-77899441D02*
X162026600Y-66954400D01*
X158572200Y-83540600D02*
X160819600Y-81293200D01*
X147294600Y-56337200D02*
X146202400Y-55245000D01*
%TO.N,/LCD/LCD_B3*%
X142290800Y-55321200D02*
X142447300Y-55164700D01*
X146273174Y-53830200D02*
X142054600Y-53830200D01*
X142036800Y-55321200D02*
X142290800Y-55321200D01*
X141902200Y-55186600D02*
X142036800Y-55321200D01*
X147332374Y-54889400D02*
X146273174Y-53830200D01*
X141902200Y-53982600D02*
X141902200Y-55186600D01*
X142054600Y-53830200D02*
X141902200Y-53982600D01*
X150977600Y-54889400D02*
X147332374Y-54889400D01*
X142447300Y-55164700D02*
X142447300Y-54737000D01*
%TO.N,/LCD/LCD_CLK*%
X158915600Y-65418200D02*
X150890200Y-57392800D01*
X150890200Y-57392800D02*
X142457400Y-57392800D01*
X155208800Y-82981800D02*
X155208800Y-80896800D01*
X155208800Y-80896800D02*
X158915600Y-77190000D01*
X142457400Y-57392800D02*
X139940400Y-54875800D01*
X158915600Y-77190000D02*
X158915600Y-65418200D01*
X139940400Y-54875800D02*
X139940400Y-54305200D01*
%TO.N,/LCD/LCD_G6*%
X159740600Y-77354948D02*
X159740600Y-73914000D01*
X156158800Y-80936748D02*
X159740600Y-77354948D01*
X156158800Y-82105539D02*
X156158800Y-80936748D01*
%TO.N,/LCD/LCD_G3*%
X161663400Y-77767667D02*
X161663400Y-67124600D01*
X151231600Y-56692800D02*
X146413200Y-56692800D01*
X160469600Y-78961467D02*
X161663400Y-77767667D01*
X158079901Y-83002851D02*
X160469600Y-80613152D01*
X161663400Y-67124600D02*
X151231600Y-56692800D01*
X160469600Y-80613152D02*
X160469600Y-78961467D01*
X146413200Y-56692800D02*
X145440400Y-55720000D01*
%TO.N,/LCD/LCD_R7*%
X161188400Y-77747692D02*
X155186692Y-83749400D01*
X155186692Y-83749400D02*
X154659937Y-83749400D01*
X161188400Y-75209400D02*
X161188400Y-77747692D01*
%TO.N,/LCD/LCD_R3*%
X138945600Y-54031226D02*
X138945600Y-56261000D01*
X148844000Y-51485800D02*
X141491026Y-51485800D01*
X141491026Y-51485800D02*
X138945600Y-54031226D01*
%TO.N,/MCU/BTN0*%
X139192000Y-98577400D02*
X139192000Y-101257426D01*
X139192000Y-101257426D02*
X130035626Y-110413800D01*
X130035626Y-110413800D02*
X115671600Y-110413800D01*
%TO.N,/MCU/BTN1*%
X115671600Y-116179600D02*
X124764800Y-116179600D01*
X124764800Y-116179600D02*
X139852400Y-101092000D01*
X139852400Y-98247200D02*
X139573000Y-97967800D01*
X139852400Y-101092000D02*
X139852400Y-98247200D01*
X139573000Y-97967800D02*
X139192000Y-97967800D01*
%TO.N,/IO/NRST*%
X121203200Y-123895600D02*
X143641950Y-123895600D01*
X143641950Y-123895600D02*
X143846975Y-123690575D01*
X115697000Y-98907600D02*
X113080800Y-98907600D01*
X154553400Y-120923800D02*
X154965400Y-121335800D01*
X145287674Y-122249875D02*
X146613749Y-120923800D01*
X146613749Y-120923800D02*
X154553400Y-120923800D01*
X112293400Y-99695000D02*
X112293400Y-114985800D01*
X112293400Y-114985800D02*
X121203200Y-123895600D01*
X113080800Y-98907600D02*
X112293400Y-99695000D01*
X143846975Y-123690575D02*
X145287674Y-122249875D01*
%TO.N,/IO/SWCLK*%
X156972000Y-109270800D02*
X151155400Y-115087400D01*
X151155400Y-115087400D02*
X151155400Y-118110000D01*
%TO.N,/IO/SWDIO*%
X149885400Y-118110000D02*
X149885400Y-115646200D01*
X149885400Y-115646200D02*
X156972000Y-108559600D01*
%TO.N,/MCU/SDRAM_ADD10*%
X142398686Y-91639400D02*
X145567521Y-91639400D01*
X144033100Y-88696800D02*
X144033100Y-88588800D01*
X142300686Y-92031400D02*
X142300686Y-91737400D01*
X142398699Y-90169400D02*
X142300699Y-90071400D01*
X144033100Y-88588800D02*
X143868700Y-88424400D01*
X122590700Y-93187000D02*
X143566400Y-93187000D01*
X142300699Y-90071400D02*
X142300699Y-89777400D01*
X143566400Y-93187000D02*
X144033100Y-92720300D01*
X145567508Y-90169400D02*
X142398699Y-90169400D01*
X144131100Y-89189400D02*
X144033100Y-89091400D01*
X144033100Y-92720300D02*
X144033100Y-92227400D01*
X145665521Y-89581400D02*
X145665521Y-89287400D01*
X144033100Y-89091400D02*
X144033100Y-88696800D01*
X143935100Y-92129400D02*
X142398686Y-92129400D01*
X142300686Y-91737400D02*
X142398686Y-91639400D01*
X145567521Y-89189400D02*
X144131100Y-89189400D01*
X145665521Y-91247400D02*
X145567521Y-91149400D01*
X142300699Y-89777400D02*
X142398699Y-89679400D01*
X145665521Y-91541400D02*
X145665521Y-91247400D01*
X145665508Y-90267400D02*
X145567508Y-90169400D01*
X145567508Y-90659400D02*
X145665508Y-90561400D01*
X142398686Y-90659400D02*
X145567508Y-90659400D01*
X144033100Y-92227400D02*
X143935100Y-92129400D01*
X145567521Y-89679400D02*
X145665521Y-89581400D01*
X145665508Y-90561400D02*
X145665508Y-90267400D01*
X145567521Y-91639400D02*
X145665521Y-91541400D01*
X142300686Y-91051400D02*
X142300686Y-90757400D01*
X142398686Y-92129400D02*
X142300686Y-92031400D01*
X145567521Y-91149400D02*
X142398686Y-91149400D01*
X143868700Y-88424400D02*
X140944600Y-88424400D01*
X112487100Y-83083400D02*
X122590700Y-93187000D01*
X142300686Y-90757400D02*
X142398686Y-90659400D01*
X142398686Y-91149400D02*
X142300686Y-91051400D01*
X145665521Y-89287400D02*
X145567521Y-89189400D01*
X142398699Y-89679400D02*
X145567521Y-89679400D01*
%TO.N,/MCU/SDRAM_DQ4*%
X134316400Y-85095030D02*
X134316400Y-83294170D01*
X133396400Y-83294170D02*
X133304400Y-83202170D01*
X135788400Y-84194600D02*
X135696400Y-84286600D01*
X128336400Y-85095018D02*
X128244400Y-85187018D01*
X128796400Y-83294182D02*
X128704400Y-83202182D01*
X134776400Y-83294170D02*
X134776400Y-85095030D01*
X134868400Y-83202170D02*
X134776400Y-83294170D01*
X134316400Y-83294170D02*
X134224400Y-83202170D01*
X126956400Y-83294182D02*
X126864400Y-83202182D01*
X128244400Y-85187018D02*
X127968400Y-85187018D01*
X129256400Y-83294182D02*
X129256400Y-85095018D01*
X127876400Y-83294182D02*
X127784400Y-83202182D01*
X132476400Y-83294182D02*
X132384400Y-83202182D01*
X135144400Y-83202170D02*
X134868400Y-83202170D01*
X125668400Y-83202194D02*
X125576400Y-83294194D01*
X125576400Y-83294194D02*
X125576400Y-84102600D01*
X127048400Y-85187030D02*
X126956400Y-85095030D01*
X132936400Y-85095030D02*
X132844400Y-85187030D01*
X135696400Y-84286600D02*
X135696400Y-85095030D01*
X131096400Y-85095018D02*
X131004400Y-85187018D01*
X129624400Y-83202182D02*
X129348400Y-83202182D01*
X127508400Y-83202182D02*
X127416400Y-83294182D01*
X129164400Y-85187018D02*
X128888400Y-85187018D01*
X128796400Y-85095018D02*
X128796400Y-83294182D01*
X125069600Y-84194600D02*
X124043300Y-84194600D01*
X132844400Y-85187030D02*
X132568400Y-85187030D01*
X128336400Y-83294182D02*
X128336400Y-85095018D01*
X134776400Y-85095030D02*
X134684400Y-85187030D01*
X132384400Y-83202182D02*
X132108400Y-83202182D01*
X128704400Y-83202182D02*
X128428400Y-83202182D01*
X125484400Y-84194600D02*
X125069600Y-84194600D01*
X134224400Y-83202170D02*
X133948400Y-83202170D01*
X128888400Y-85187018D02*
X128796400Y-85095018D01*
X131188400Y-83202182D02*
X131096400Y-83294182D01*
X131464400Y-83202182D02*
X131188400Y-83202182D01*
X127876400Y-85095018D02*
X127876400Y-83294182D01*
X126496400Y-83294182D02*
X126496400Y-85095018D01*
X129256400Y-85095018D02*
X129164400Y-85187018D01*
X131096400Y-83294182D02*
X131096400Y-85095018D01*
X133948400Y-83202170D02*
X133856400Y-83294170D01*
X133764400Y-85187030D02*
X133488400Y-85187030D01*
X126956400Y-85095030D02*
X126956400Y-83294182D01*
X132568400Y-85187030D02*
X132476400Y-85095030D01*
X132936400Y-83294170D02*
X132936400Y-85095030D01*
X130728400Y-85187018D02*
X130636400Y-85095018D01*
X126404400Y-85187018D02*
X126128400Y-85187018D01*
X137886300Y-84194600D02*
X135788400Y-84194600D01*
X135328400Y-85187030D02*
X135236400Y-85095030D01*
X131556400Y-83294182D02*
X131464400Y-83202182D01*
X126496400Y-85095018D02*
X126404400Y-85187018D01*
X138114900Y-86273500D02*
X138114900Y-84423200D01*
X133856400Y-83294170D02*
X133856400Y-85095030D01*
X140944600Y-89103200D02*
X138114900Y-86273500D01*
X138114900Y-84423200D02*
X137886300Y-84194600D01*
X133856400Y-85095030D02*
X133764400Y-85187030D01*
X127968400Y-85187018D02*
X127876400Y-85095018D01*
X133396400Y-85095030D02*
X133396400Y-83294170D01*
X128428400Y-83202182D02*
X128336400Y-83294182D01*
X134408400Y-85187030D02*
X134316400Y-85095030D01*
X129348400Y-83202182D02*
X129256400Y-83294182D01*
X135696400Y-85095030D02*
X135604400Y-85187030D01*
X125576400Y-84102600D02*
X125484400Y-84194600D01*
X134684400Y-85187030D02*
X134408400Y-85187030D01*
X126128400Y-85187018D02*
X126036400Y-85095018D01*
X135604400Y-85187030D02*
X135328400Y-85187030D01*
X130176400Y-83294182D02*
X130176400Y-85095030D01*
X129716400Y-85095030D02*
X129716400Y-83294182D01*
X132016400Y-83294182D02*
X132016400Y-85095018D01*
X129716400Y-83294182D02*
X129624400Y-83202182D01*
X125944400Y-83202194D02*
X125668400Y-83202194D01*
X133488400Y-85187030D02*
X133396400Y-85095030D01*
X123687100Y-83838400D02*
X123687100Y-83052000D01*
X130084400Y-85187030D02*
X129808400Y-85187030D01*
X126036400Y-85095018D02*
X126036400Y-83294194D01*
X127324400Y-85187030D02*
X127048400Y-85187030D01*
X127416400Y-83294182D02*
X127416400Y-85095030D01*
X132108400Y-83202182D02*
X132016400Y-83294182D01*
X130636400Y-83294182D02*
X130544400Y-83202182D01*
X130544400Y-83202182D02*
X130268400Y-83202182D01*
X130176400Y-85095030D02*
X130084400Y-85187030D01*
X127416400Y-85095030D02*
X127324400Y-85187030D01*
X130636400Y-85095018D02*
X130636400Y-83294182D01*
X133304400Y-83202170D02*
X133028400Y-83202170D01*
X130268400Y-83202182D02*
X130176400Y-83294182D01*
X129808400Y-85187030D02*
X129716400Y-85095030D01*
X126864400Y-83202182D02*
X126588400Y-83202182D01*
X131556400Y-85095018D02*
X131556400Y-83294182D01*
X126036400Y-83294194D02*
X125944400Y-83202194D01*
X133028400Y-83202170D02*
X132936400Y-83294170D01*
X132476400Y-85095030D02*
X132476400Y-83294182D01*
X131924400Y-85187018D02*
X131648400Y-85187018D01*
X124043300Y-84194600D02*
X123687100Y-83838400D01*
X135236400Y-83294170D02*
X135144400Y-83202170D01*
X126588400Y-83202182D02*
X126496400Y-83294182D01*
X131648400Y-85187018D02*
X131556400Y-85095018D01*
X132016400Y-85095018D02*
X131924400Y-85187018D01*
X127784400Y-83202182D02*
X127508400Y-83202182D01*
X135236400Y-85095030D02*
X135236400Y-83294170D01*
X131004400Y-85187018D02*
X130728400Y-85187018D01*
%TO.N,/MCU/SDRAM_DQ2*%
X157310744Y-93623818D02*
X157611326Y-93924400D01*
X155665141Y-91978215D02*
X155665141Y-92082866D01*
X153630074Y-92129548D02*
X153787051Y-92286525D01*
X128778000Y-79756000D02*
X130149600Y-78384400D01*
X154833569Y-93333043D02*
X154938221Y-93333043D01*
X151137400Y-89566553D02*
X151347400Y-89566553D01*
X153572105Y-89989830D02*
X152583547Y-90978387D01*
X154356992Y-90774717D02*
X154461644Y-90774717D01*
X155141882Y-91454956D02*
X155141882Y-91559607D01*
X152583547Y-90978387D02*
X152583547Y-91083039D01*
X151067400Y-89796553D02*
X151067400Y-89636553D01*
X157611326Y-93924400D02*
X159537400Y-93924400D01*
X155199851Y-93594673D02*
X155199851Y-93699325D01*
X150167347Y-89566553D02*
X150647400Y-89566553D01*
X154676592Y-93071414D02*
X154676592Y-93176066D01*
X151837400Y-89566553D02*
X152527000Y-89566553D01*
X156188400Y-92606125D02*
X155199851Y-93594673D01*
X152740524Y-91240016D02*
X152845176Y-91240016D01*
X157234918Y-93547992D02*
X157310744Y-93623818D01*
X153253479Y-89566553D02*
X153572105Y-89885179D01*
X154095364Y-90513089D02*
X153106806Y-91501646D01*
X156711659Y-93024733D02*
X156711659Y-93129384D01*
X154984903Y-91297976D02*
X155141882Y-91454956D01*
X153106806Y-91606298D02*
X153263783Y-91763275D01*
X151767400Y-89796553D02*
X151767400Y-89636553D01*
X153106806Y-91501646D02*
X153106806Y-91606298D01*
X156711659Y-93129384D02*
X155723110Y-94117932D01*
X155926769Y-92344494D02*
X156031421Y-92344494D01*
X155199851Y-93699325D02*
X155356828Y-93856302D01*
X138985194Y-78384400D02*
X150167347Y-89566553D01*
X150717400Y-89636553D02*
X150717400Y-89796553D01*
X150647400Y-89566553D02*
X150717400Y-89636553D01*
X155723110Y-94222584D02*
X155880087Y-94379561D01*
X155141882Y-91559607D02*
X154153324Y-92548164D01*
X155403510Y-91821235D02*
X155508162Y-91821235D01*
X151067400Y-89636553D02*
X151137400Y-89566553D01*
X153891703Y-92286525D02*
X154880251Y-91297976D01*
X151697400Y-89866553D02*
X151767400Y-89796553D01*
X153787051Y-92286525D02*
X153891703Y-92286525D01*
X155665141Y-92082866D02*
X154676592Y-93071414D01*
X155356828Y-93856302D02*
X155461480Y-93856302D01*
X127103100Y-79756000D02*
X128778000Y-79756000D01*
X151487400Y-89866553D02*
X151697400Y-89866553D01*
X153833733Y-90251458D02*
X153938385Y-90251458D01*
X153938385Y-90251458D02*
X154095364Y-90408438D01*
X154618623Y-90931697D02*
X154618623Y-91036348D01*
X154461644Y-90774717D02*
X154618623Y-90931697D01*
X151347400Y-89566553D02*
X151417400Y-89636553D01*
X153630074Y-92024896D02*
X153630074Y-92129548D01*
X150787400Y-89866553D02*
X150997400Y-89866553D01*
X156031421Y-92344494D02*
X156188400Y-92501474D01*
X155508162Y-91821235D02*
X155665141Y-91978215D01*
X126087100Y-80772000D02*
X127103100Y-79756000D01*
X156450028Y-92867753D02*
X156554680Y-92867753D01*
X154880251Y-91297976D02*
X154984903Y-91297976D01*
X130149600Y-78384400D02*
X138985194Y-78384400D01*
X154153324Y-92548164D02*
X154153324Y-92652816D01*
X155984739Y-94379561D02*
X156973287Y-93391012D01*
X153368435Y-91763275D02*
X154356992Y-90774717D01*
X154310301Y-92809793D02*
X154414953Y-92809793D01*
X154095364Y-90408438D02*
X154095364Y-90513089D01*
X150717400Y-89796553D02*
X150787400Y-89866553D01*
X155461480Y-93856302D02*
X156450028Y-92867753D01*
X156554680Y-92867753D02*
X156711659Y-93024733D01*
X156188400Y-92501474D02*
X156188400Y-92606125D01*
X155880087Y-94379561D02*
X155984739Y-94379561D01*
X154676592Y-93176066D02*
X154833569Y-93333043D01*
X155723110Y-94117932D02*
X155723110Y-94222584D01*
X154618623Y-91036348D02*
X153630074Y-92024896D01*
X152845176Y-91240016D02*
X153833733Y-90251458D01*
X157077939Y-93391012D02*
X157234918Y-93547992D01*
X150997400Y-89866553D02*
X151067400Y-89796553D01*
X154938221Y-93333043D02*
X155926769Y-92344494D01*
X156973287Y-93391012D02*
X157077939Y-93391012D01*
X151417400Y-89636553D02*
X151417400Y-89796553D01*
X152583547Y-91083039D02*
X152740524Y-91240016D01*
X151417400Y-89796553D02*
X151487400Y-89866553D01*
X152527000Y-89566553D02*
X153253479Y-89566553D01*
X151767400Y-89636553D02*
X151837400Y-89566553D01*
X154414953Y-92809793D02*
X155403510Y-91821235D01*
X153572105Y-89885179D02*
X153572105Y-89989830D01*
X153263783Y-91763275D02*
X153368435Y-91763275D01*
X154153324Y-92652816D02*
X154310301Y-92809793D01*
%TO.N,/MCU/SDRAM_DQ13*%
X143703800Y-99833572D02*
X143703800Y-103295036D01*
%TO.N,/MCU/SDRAM_DQ6*%
X137236200Y-89738200D02*
X137236200Y-87680800D01*
X132482972Y-88104173D02*
X132366972Y-88220173D01*
X134106972Y-88220173D02*
X133990972Y-88104173D01*
X132946972Y-90532073D02*
X132946972Y-88220173D01*
X121287100Y-85933548D02*
X121287100Y-83052000D01*
X133642972Y-88104173D02*
X133526972Y-88220173D01*
X131206972Y-90532065D02*
X131099308Y-90639729D01*
X131322972Y-88104173D02*
X131206972Y-88220173D01*
X134570972Y-90694624D02*
X134222972Y-90694624D01*
X131786972Y-90532073D02*
X131786972Y-88220173D01*
X130046972Y-90532073D02*
X129939300Y-90639745D01*
X130162972Y-88104173D02*
X130046972Y-88220173D01*
X132830972Y-88104173D02*
X132482972Y-88104173D01*
X130626972Y-90532065D02*
X130626972Y-88220173D01*
X128786972Y-90624400D02*
X128406972Y-90624400D01*
X135150972Y-88104173D02*
X134802972Y-88104173D01*
X131670972Y-88104173D02*
X131322972Y-88104173D01*
X128886972Y-90524400D02*
X128786972Y-90624400D01*
X134686972Y-90578624D02*
X134570972Y-90694624D01*
X131206972Y-88220173D02*
X131206972Y-90532065D01*
X133990972Y-88104173D02*
X133642972Y-88104173D01*
X134222972Y-90694624D02*
X134106972Y-90578624D01*
X137922400Y-90424400D02*
X137236200Y-89738200D01*
X129466972Y-90532073D02*
X129466972Y-88220173D01*
X140944600Y-90424400D02*
X137922400Y-90424400D01*
X127726972Y-88259337D02*
X127726972Y-90308400D01*
X128190972Y-88143337D02*
X127842972Y-88143337D01*
X135382972Y-90424400D02*
X135266972Y-90308400D01*
X133419300Y-90639745D02*
X133054644Y-90639745D01*
X128306972Y-90524400D02*
X128306972Y-88259337D01*
X134686972Y-88220173D02*
X134686972Y-90578624D01*
X134106972Y-90578624D02*
X134106972Y-88220173D01*
X131894644Y-90639745D02*
X131786972Y-90532073D01*
X130510972Y-88104173D02*
X130162972Y-88104173D01*
X128406972Y-90624400D02*
X128306972Y-90524400D01*
X128306972Y-88259337D02*
X128190972Y-88143337D01*
X132366972Y-90532073D02*
X132259300Y-90639745D01*
X132366972Y-88220173D02*
X132366972Y-90532073D01*
X126291484Y-90424400D02*
X125777952Y-90424400D01*
X129002972Y-88104173D02*
X128886972Y-88220173D01*
X125777952Y-90424400D02*
X121287100Y-85933548D01*
X133526972Y-88220173D02*
X133526972Y-90532073D01*
X137097200Y-87541800D02*
X136206800Y-87541800D01*
X130734636Y-90639729D02*
X130626972Y-90532065D01*
X133054644Y-90639745D02*
X132946972Y-90532073D01*
X129939300Y-90639745D02*
X129574644Y-90639745D01*
X135737200Y-90424400D02*
X135382972Y-90424400D01*
X127842972Y-88143337D02*
X127726972Y-88259337D01*
X134802972Y-88104173D02*
X134686972Y-88220173D01*
X135266972Y-88220173D02*
X135150972Y-88104173D01*
X136206800Y-87541800D02*
X135966200Y-87782400D01*
X129574644Y-90639745D02*
X129466972Y-90532073D01*
X135966200Y-90195400D02*
X135737200Y-90424400D01*
X132946972Y-88220173D02*
X132830972Y-88104173D01*
X131099308Y-90639729D02*
X130734636Y-90639729D01*
X135266972Y-90308400D02*
X135266972Y-88220173D01*
X133526972Y-90532073D02*
X133419300Y-90639745D01*
X127726972Y-90308400D02*
X127610972Y-90424400D01*
X128886972Y-88220173D02*
X128886972Y-90524400D01*
X129350972Y-88104173D02*
X129002972Y-88104173D01*
X127610972Y-90424400D02*
X126291484Y-90424400D01*
X130046972Y-88220173D02*
X130046972Y-90532073D01*
X137236200Y-87680800D02*
X137097200Y-87541800D01*
X132259300Y-90639745D02*
X131894644Y-90639745D01*
X129466972Y-88220173D02*
X129350972Y-88104173D01*
X131786972Y-88220173D02*
X131670972Y-88104173D01*
X135966200Y-87782400D02*
X135966200Y-90195400D01*
X130626972Y-88220173D02*
X130510972Y-88104173D01*
%TO.N,/MCU/SDRAM_ADD0*%
X150660256Y-82797600D02*
X150432256Y-82797600D01*
X147296966Y-82797600D02*
X146906454Y-82797600D01*
X149216256Y-82873600D02*
X149140256Y-82797600D01*
X149596256Y-82873600D02*
X149596256Y-83721147D01*
X149596256Y-83721147D02*
X149520256Y-83797147D01*
X153803400Y-82797600D02*
X153472256Y-82797600D01*
X153320256Y-83797135D02*
X153092256Y-83797135D01*
X149140256Y-82797600D02*
X147296966Y-82797600D01*
X152712256Y-82797600D02*
X152636256Y-82873600D01*
X151116256Y-82873600D02*
X151116256Y-83721135D01*
X152180256Y-82797600D02*
X151952256Y-82797600D01*
X153092256Y-83797135D02*
X153016256Y-83721135D01*
X151192256Y-82797600D02*
X151116256Y-82873600D01*
X152636256Y-83721135D02*
X152560256Y-83797135D01*
X152332256Y-83797135D02*
X152256256Y-83721135D01*
X151876256Y-83721135D02*
X151800256Y-83797135D01*
X150356256Y-82873600D02*
X150356256Y-83721135D01*
X153472256Y-82797600D02*
X153396256Y-82873600D01*
X149900256Y-82797600D02*
X149672256Y-82797600D01*
X153016256Y-82873600D02*
X152940256Y-82797600D01*
X150432256Y-82797600D02*
X150356256Y-82873600D01*
X150736256Y-83721135D02*
X150736256Y-82873600D01*
X151496256Y-83721135D02*
X151496256Y-82873600D01*
X153396256Y-82873600D02*
X153396256Y-83721135D01*
X116174700Y-76284400D02*
X111687100Y-80772000D01*
X151040256Y-83797135D02*
X150812256Y-83797135D01*
X151876256Y-82873600D02*
X151876256Y-83721135D01*
X151952256Y-82797600D02*
X151876256Y-82873600D01*
X151496256Y-82873600D02*
X151420256Y-82797600D01*
X150356256Y-83721135D02*
X150280256Y-83797135D01*
X150812256Y-83797135D02*
X150736256Y-83721135D01*
X152636256Y-82873600D02*
X152636256Y-83721135D01*
X154355800Y-80797400D02*
X154355800Y-82245200D01*
X152256256Y-82873600D02*
X152180256Y-82797600D01*
X150280256Y-83797135D02*
X150052256Y-83797135D01*
X149520256Y-83797147D02*
X149292256Y-83797147D01*
X150052256Y-83797135D02*
X149976256Y-83721135D01*
X152940256Y-82797600D02*
X152712256Y-82797600D01*
X149976256Y-82873600D02*
X149900256Y-82797600D01*
X154355800Y-82245200D02*
X153803400Y-82797600D01*
X151572256Y-83797135D02*
X151496256Y-83721135D01*
X140393254Y-76284400D02*
X116174700Y-76284400D01*
X152256256Y-83721135D02*
X152256256Y-82873600D01*
X149292256Y-83797147D02*
X149216256Y-83721147D01*
X150736256Y-82873600D02*
X150660256Y-82797600D01*
X149216256Y-83721147D02*
X149216256Y-82873600D01*
X151800256Y-83797135D02*
X151572256Y-83797135D01*
X151116256Y-83721135D02*
X151040256Y-83797135D01*
X153396256Y-83721135D02*
X153320256Y-83797135D01*
X149976256Y-83721135D02*
X149976256Y-82873600D01*
X153016256Y-83721135D02*
X153016256Y-82873600D01*
X152560256Y-83797135D02*
X152332256Y-83797135D01*
X151420256Y-82797600D02*
X151192256Y-82797600D01*
X146906454Y-82797600D02*
X140393254Y-76284400D01*
X149672256Y-82797600D02*
X149596256Y-82873600D01*
%TO.N,/MCU/SDRAM_DQ0*%
X147396129Y-94454504D02*
X147326129Y-94524504D01*
X147396129Y-94104504D02*
X149161468Y-94104504D01*
X147396129Y-93054504D02*
X147326129Y-93124504D01*
X147703800Y-88092955D02*
X147703800Y-89834504D01*
X149231468Y-92774504D02*
X149231468Y-92984504D01*
X148831464Y-95784504D02*
X148761464Y-95854504D01*
X147396140Y-90604504D02*
X149161468Y-90604504D01*
X149161468Y-89904504D02*
X149231468Y-89974504D01*
X149231468Y-89974504D02*
X149231468Y-90184504D01*
X147396129Y-94804504D02*
X149161468Y-94804504D01*
X149231468Y-90184504D02*
X149161468Y-90254504D01*
X147326140Y-91234504D02*
X147396140Y-91304504D01*
X149231468Y-94384504D02*
X149161468Y-94454504D01*
X149161468Y-94804504D02*
X149231468Y-94874504D01*
X147396129Y-92004504D02*
X149161468Y-92004504D01*
X149231468Y-93474504D02*
X149231468Y-93684504D01*
X149161468Y-90954504D02*
X147396140Y-90954504D01*
X148761464Y-95504504D02*
X148831464Y-95574504D01*
X149231468Y-90674504D02*
X149231468Y-90884504D01*
X147326129Y-94524504D02*
X147326129Y-94734504D01*
X147396140Y-91304504D02*
X149161468Y-91304504D01*
X149161468Y-93054504D02*
X147396129Y-93054504D01*
X147326129Y-94034504D02*
X147396129Y-94104504D01*
X149231468Y-95084504D02*
X149161468Y-95154504D01*
X149231468Y-92074504D02*
X149231468Y-92284504D01*
X149231468Y-91584504D02*
X149161468Y-91654504D01*
X149161468Y-92004504D02*
X149231468Y-92074504D01*
X147396129Y-92704504D02*
X149161468Y-92704504D01*
X149161468Y-92354504D02*
X147396129Y-92354504D01*
X149161468Y-94454504D02*
X147396129Y-94454504D01*
X149231468Y-93684504D02*
X149161468Y-93754504D01*
X147396140Y-90954504D02*
X147326140Y-91024504D01*
X149231468Y-94174504D02*
X149231468Y-94384504D01*
X147326129Y-92424504D02*
X147326129Y-92634504D01*
X149231468Y-92984504D02*
X149161468Y-93054504D01*
X147703800Y-89834504D02*
X147773800Y-89904504D01*
X147326117Y-95224504D02*
X147326117Y-95434504D01*
X147326140Y-90324504D02*
X147326140Y-90534504D01*
X148761464Y-95854504D02*
X147773800Y-95854504D01*
X147396117Y-95154504D02*
X147326117Y-95224504D01*
X149161468Y-90254504D02*
X147396140Y-90254504D01*
X147703800Y-96316800D02*
X147703800Y-96621600D01*
X147396117Y-95504504D02*
X148761464Y-95504504D01*
X147773800Y-89904504D02*
X149161468Y-89904504D01*
X147773800Y-95854504D02*
X147703800Y-95924504D01*
X147326129Y-94734504D02*
X147396129Y-94804504D01*
X128487100Y-80772000D02*
X140382845Y-80772000D01*
X147326129Y-92634504D02*
X147396129Y-92704504D01*
X147326140Y-90534504D02*
X147396140Y-90604504D01*
X149161468Y-95154504D02*
X147396117Y-95154504D01*
X147703800Y-95924504D02*
X147703800Y-96316800D01*
X149161468Y-94104504D02*
X149231468Y-94174504D01*
X149231468Y-94874504D02*
X149231468Y-95084504D01*
X149231468Y-90884504D02*
X149161468Y-90954504D01*
X147326129Y-93124504D02*
X147326129Y-93334504D01*
X147326117Y-95434504D02*
X147396117Y-95504504D01*
X148831464Y-95574504D02*
X148831464Y-95784504D01*
X140382845Y-80772000D02*
X147703800Y-88092955D01*
X149161468Y-90604504D02*
X149231468Y-90674504D01*
X147326129Y-91934504D02*
X147396129Y-92004504D01*
X149161468Y-91654504D02*
X147396129Y-91654504D01*
X147396129Y-92354504D02*
X147326129Y-92424504D01*
X147396129Y-91654504D02*
X147326129Y-91724504D01*
X149161468Y-91304504D02*
X149231468Y-91374504D01*
X149161468Y-92704504D02*
X149231468Y-92774504D01*
X149161468Y-93754504D02*
X147396129Y-93754504D01*
X149231468Y-92284504D02*
X149161468Y-92354504D01*
X149161468Y-93404504D02*
X149231468Y-93474504D01*
X147396129Y-93754504D02*
X147326129Y-93824504D01*
X149231468Y-91374504D02*
X149231468Y-91584504D01*
X147326129Y-91724504D02*
X147326129Y-91934504D01*
X147326140Y-91024504D02*
X147326140Y-91234504D01*
X147396140Y-90254504D02*
X147326140Y-90324504D01*
X147396129Y-93404504D02*
X149161468Y-93404504D01*
X147326129Y-93824504D02*
X147326129Y-94034504D01*
X147326129Y-93334504D02*
X147396129Y-93404504D01*
%TO.N,/MCU/SDRAM_ADD3*%
X147502530Y-77863505D02*
X147262530Y-77863505D01*
X146462530Y-77863492D02*
X146382530Y-77943492D01*
X151908129Y-78472863D02*
X151984129Y-78396863D01*
X147582530Y-79472800D02*
X147582530Y-77943505D01*
X151832129Y-79552800D02*
X151908129Y-79476800D01*
X147262530Y-77863505D02*
X147182530Y-77943505D01*
X148382530Y-77943505D02*
X148302530Y-77863505D01*
X151452129Y-78596854D02*
X151528129Y-78672854D01*
X147182530Y-79472800D02*
X147102530Y-79552800D01*
X146382530Y-79472800D02*
X146302530Y-79552800D01*
X151984129Y-78396863D02*
X152212129Y-78396863D01*
X147982530Y-79472800D02*
X147902530Y-79552800D01*
X152288129Y-79476800D02*
X152364129Y-79552800D01*
X145146577Y-79552800D02*
X141033203Y-75439426D01*
X147662530Y-79552800D02*
X147582530Y-79472800D01*
X151604129Y-79552800D02*
X151832129Y-79552800D01*
X151908129Y-79476800D02*
X151908129Y-78472863D01*
X140828178Y-75234400D02*
X114824700Y-75234400D01*
X146782530Y-79472800D02*
X146782530Y-77943492D01*
X146862530Y-79552800D02*
X146782530Y-79472800D01*
X148302530Y-77863505D02*
X148062530Y-77863505D01*
X151148129Y-78672854D02*
X151224129Y-78596854D01*
X114824700Y-75234400D02*
X109287100Y-80772000D01*
X151224129Y-78596854D02*
X151452129Y-78596854D01*
X152364129Y-79552800D02*
X152615951Y-79552800D01*
X146782530Y-77943492D02*
X146702530Y-77863492D01*
X153187400Y-79197200D02*
X153187400Y-78587600D01*
X146702530Y-77863492D02*
X146462530Y-77863492D01*
X141033203Y-75439426D02*
X141033203Y-75439425D01*
X147902530Y-79552800D02*
X147662530Y-79552800D01*
X146382530Y-77943492D02*
X146382530Y-79472800D01*
X152288129Y-78472863D02*
X152288129Y-79476800D01*
X152212129Y-78396863D02*
X152288129Y-78472863D01*
X148062530Y-77863505D02*
X147982530Y-77943505D01*
X147182530Y-77943505D02*
X147182530Y-79472800D01*
X146302530Y-79552800D02*
X145940355Y-79552800D01*
X145940355Y-79552800D02*
X145146577Y-79552800D01*
X147982530Y-77943505D02*
X147982530Y-79472800D01*
X147102530Y-79552800D02*
X146862530Y-79552800D01*
X151148129Y-79476800D02*
X151148129Y-78672854D01*
X152831800Y-79552800D02*
X153187400Y-79197200D01*
X148382530Y-79472800D02*
X148382530Y-77943505D01*
X151528129Y-78672854D02*
X151528129Y-79476800D01*
X147582530Y-77943505D02*
X147502530Y-77863505D01*
X151528129Y-79476800D02*
X151604129Y-79552800D01*
X148462530Y-79552800D02*
X148382530Y-79472800D01*
X151072129Y-79552800D02*
X148462530Y-79552800D01*
X151072129Y-79552800D02*
X151148129Y-79476800D01*
X152615951Y-79552800D02*
X152831800Y-79552800D01*
X141033203Y-75439425D02*
X140828178Y-75234400D01*
%TO.N,/MCU/SDRAM_DQ5*%
X135940400Y-87089800D02*
X135940400Y-85776885D01*
X125842400Y-88708727D02*
X125740400Y-88606727D01*
X134410400Y-87556715D02*
X134308400Y-87658715D01*
X130942400Y-87658715D02*
X130840400Y-87556715D01*
X130330400Y-85776885D02*
X130330400Y-87556715D01*
X126148400Y-88708727D02*
X125842400Y-88708727D01*
X131350400Y-85776885D02*
X131350400Y-87556715D01*
X133798400Y-85674885D02*
X133492400Y-85674885D01*
X126862400Y-88708715D02*
X126760400Y-88606715D01*
X129820400Y-87556715D02*
X129820400Y-85776873D01*
X122087100Y-84168800D02*
X122087100Y-83052000D01*
X128290400Y-87606717D02*
X128188400Y-87708717D01*
X131860400Y-87606717D02*
X131860400Y-85776885D01*
X132982400Y-87708717D02*
X132880400Y-87606717D01*
X126352400Y-85674885D02*
X126250400Y-85776885D01*
X134002400Y-87658715D02*
X133900400Y-87556715D01*
X128698400Y-85674885D02*
X128392400Y-85674885D01*
X138633200Y-89924400D02*
X137764900Y-89056100D01*
X134920400Y-87556715D02*
X134920400Y-85776885D01*
X137764900Y-87502200D02*
X137454500Y-87191800D01*
X124803638Y-86885338D02*
X122087100Y-84168800D01*
X127372400Y-85674885D02*
X127270400Y-85776885D01*
X128392400Y-85674885D02*
X128290400Y-85776885D01*
X135838400Y-85674885D02*
X135532400Y-85674885D01*
X125638400Y-87191800D02*
X125110100Y-87191800D01*
X135430400Y-87556715D02*
X135328400Y-87658715D01*
X135022400Y-87658715D02*
X134920400Y-87556715D01*
X126760400Y-88606715D02*
X126760400Y-85776885D01*
X125740400Y-87293800D02*
X125638400Y-87191800D01*
X135430400Y-85776885D02*
X135430400Y-87556715D01*
X129310400Y-85776873D02*
X129310400Y-87556715D01*
X127780400Y-87606717D02*
X127780400Y-85776885D01*
X133288400Y-87708717D02*
X132982400Y-87708717D01*
X125740400Y-88606727D02*
X125740400Y-87293800D01*
X127882400Y-87708717D02*
X127780400Y-87606717D01*
X129412400Y-85674873D02*
X129310400Y-85776873D01*
X128800400Y-87556715D02*
X128800400Y-85776885D01*
X137764900Y-89056100D02*
X137764900Y-87502200D01*
X129820400Y-85776873D02*
X129718400Y-85674873D01*
X132880400Y-85776885D02*
X132778400Y-85674885D01*
X134512400Y-85674885D02*
X134410400Y-85776885D01*
X128800400Y-85776885D02*
X128698400Y-85674885D01*
X129922400Y-87658715D02*
X129820400Y-87556715D01*
X130840400Y-85776885D02*
X130738400Y-85674885D01*
X127270400Y-88606715D02*
X127168400Y-88708715D01*
X131350400Y-87556715D02*
X131248400Y-87658715D01*
X136042400Y-87191800D02*
X135940400Y-87089800D01*
X134818400Y-85674885D02*
X134512400Y-85674885D01*
X130228400Y-87658715D02*
X129922400Y-87658715D01*
X132370400Y-87606717D02*
X132268400Y-87708717D01*
X130432400Y-85674885D02*
X130330400Y-85776885D01*
X129718400Y-85674873D02*
X129412400Y-85674873D01*
X132268400Y-87708717D02*
X131962400Y-87708717D01*
X127168400Y-88708715D02*
X126862400Y-88708715D01*
X131452400Y-85674885D02*
X131350400Y-85776885D01*
X126250400Y-88606727D02*
X126148400Y-88708727D01*
X131860400Y-85776885D02*
X131758400Y-85674885D01*
X133390400Y-85776885D02*
X133390400Y-87606717D01*
X127678400Y-85674885D02*
X127372400Y-85674885D01*
X134920400Y-85776885D02*
X134818400Y-85674885D01*
X131758400Y-85674885D02*
X131452400Y-85674885D01*
X132472400Y-85674885D02*
X132370400Y-85776885D01*
X132880400Y-87606717D02*
X132880400Y-85776885D01*
X135940400Y-85776885D02*
X135838400Y-85674885D01*
X128902400Y-87658715D02*
X128800400Y-87556715D01*
X130738400Y-85674885D02*
X130432400Y-85674885D01*
X126250400Y-85776885D02*
X126250400Y-88606727D01*
X131248400Y-87658715D02*
X130942400Y-87658715D01*
X128290400Y-85776885D02*
X128290400Y-87606717D01*
X133390400Y-87606717D02*
X133288400Y-87708717D01*
X126760400Y-85776885D02*
X126658400Y-85674885D01*
X128188400Y-87708717D02*
X127882400Y-87708717D01*
X134308400Y-87658715D02*
X134002400Y-87658715D01*
X132778400Y-85674885D02*
X132472400Y-85674885D01*
X127780400Y-85776885D02*
X127678400Y-85674885D01*
X125110100Y-87191800D02*
X124803638Y-86885338D01*
X132370400Y-85776885D02*
X132370400Y-87606717D01*
X129208400Y-87658715D02*
X128902400Y-87658715D01*
X133492400Y-85674885D02*
X133390400Y-85776885D01*
X137454500Y-87191800D02*
X136042400Y-87191800D01*
X133900400Y-87556715D02*
X133900400Y-85776885D01*
X129310400Y-87556715D02*
X129208400Y-87658715D01*
X133900400Y-85776885D02*
X133798400Y-85674885D01*
X135532400Y-85674885D02*
X135430400Y-85776885D01*
X130840400Y-87556715D02*
X130840400Y-85776885D01*
X127270400Y-85776885D02*
X127270400Y-88606715D01*
X126658400Y-85674885D02*
X126352400Y-85674885D01*
X134410400Y-85776885D02*
X134410400Y-87556715D01*
X135328400Y-87658715D02*
X135022400Y-87658715D01*
X130330400Y-87556715D02*
X130228400Y-87658715D01*
X131962400Y-87708717D02*
X131860400Y-87606717D01*
%TO.N,/MCU/SDRAM_DQ7*%
X119947051Y-86994234D02*
X119696735Y-86743918D01*
X123868659Y-90748989D02*
X124654673Y-89962972D01*
X139520400Y-91924400D02*
X138607800Y-92837000D01*
X133621562Y-91068429D02*
X133505562Y-91184429D01*
X125489061Y-90630483D02*
X125238746Y-90380168D01*
X127705562Y-91184409D02*
X127705562Y-91808400D01*
X125071868Y-90380168D02*
X124285851Y-91166182D01*
X122450212Y-89497395D02*
X122199896Y-89247079D01*
X130025562Y-91184409D02*
X130025562Y-92664371D01*
X132925562Y-92664371D02*
X132925562Y-91184409D01*
X134665562Y-92040400D02*
X134665562Y-92664371D01*
X121317126Y-86458548D02*
X121066811Y-86208233D01*
X123820287Y-88961709D02*
X123569972Y-88711394D01*
X129445562Y-91184409D02*
X129329562Y-91068409D01*
X130025562Y-92664371D02*
X129909562Y-92780371D01*
X133041562Y-92780371D02*
X132925562Y-92664371D01*
X127705562Y-91808400D02*
X127589562Y-91924400D01*
X127821562Y-91068409D02*
X127705562Y-91184409D01*
X134665562Y-92664371D02*
X134549562Y-92780371D01*
X128981562Y-91068409D02*
X128865562Y-91184409D01*
X120482738Y-85624160D02*
X120198751Y-85340173D01*
X132345562Y-91184409D02*
X132345562Y-92664371D01*
X120531111Y-87578319D02*
X120531111Y-87411441D01*
X131185562Y-92664371D02*
X131069562Y-92780371D01*
X119696735Y-86577040D02*
X120482738Y-85791038D01*
X131301562Y-91068409D02*
X131185562Y-91184409D01*
X127589562Y-91924400D02*
X126999064Y-91924400D01*
X132345562Y-92664371D02*
X132229562Y-92780371D01*
X129445562Y-92664371D02*
X129445562Y-91184409D01*
X123569972Y-88711394D02*
X123403094Y-88711394D01*
X133389562Y-92780371D02*
X133041562Y-92780371D01*
X128169562Y-91068409D02*
X127821562Y-91068409D01*
X121365509Y-88412692D02*
X121365509Y-88245814D01*
X123403094Y-88711394D02*
X122617090Y-89497395D01*
X121734320Y-87042620D02*
X120948303Y-87828634D01*
X135661400Y-91924400D02*
X134781562Y-91924400D01*
X122199896Y-89080201D02*
X122985899Y-88294199D01*
X120948303Y-87828634D02*
X120781427Y-87828635D01*
X134085562Y-92664371D02*
X134085562Y-91184429D01*
X131069562Y-92780371D02*
X130721562Y-92780371D01*
X123820286Y-89128585D02*
X123820287Y-88961709D01*
X120781427Y-87828635D02*
X120531111Y-87578319D01*
X125120238Y-92000569D02*
X124953362Y-92000570D01*
X129909562Y-92780371D02*
X129561562Y-92780371D01*
X120198751Y-85340173D02*
X119687100Y-84828522D01*
X128285562Y-92664371D02*
X128285562Y-91184409D01*
X130141562Y-91068409D02*
X130025562Y-91184409D01*
X130605562Y-91184409D02*
X130489562Y-91068409D01*
X128401562Y-92780371D02*
X128285562Y-92664371D01*
X132461562Y-91068409D02*
X132345562Y-91184409D01*
X123284588Y-90331796D02*
X123034272Y-90081480D01*
X122985899Y-88294199D02*
X122985899Y-88127321D01*
X128865562Y-92664371D02*
X128749562Y-92780371D01*
X120113929Y-86994234D02*
X119947051Y-86994234D01*
X131185562Y-91184409D02*
X131185562Y-92664371D01*
X122568707Y-87877007D02*
X121782703Y-88663008D01*
X131765562Y-92664371D02*
X131765562Y-91184409D01*
X124654673Y-89962972D02*
X124654674Y-89796096D01*
X136245600Y-92837000D02*
X135813800Y-92405200D01*
X122199896Y-89247079D02*
X122199896Y-89080201D01*
X133505562Y-91184429D02*
X133505562Y-92664371D01*
X119696735Y-86743918D02*
X119696735Y-86577040D01*
X131649562Y-91068409D02*
X131301562Y-91068409D01*
X123868659Y-90915867D02*
X123868659Y-90748989D01*
X120899933Y-86208233D02*
X120113929Y-86994234D01*
X132925562Y-91184409D02*
X132809562Y-91068409D01*
X124703046Y-91750254D02*
X124703046Y-91583376D01*
X130489562Y-91068409D02*
X130141562Y-91068409D01*
X132809562Y-91068409D02*
X132461562Y-91068409D01*
X124237481Y-89545781D02*
X123451464Y-90331795D01*
X133969562Y-91068429D02*
X133621562Y-91068429D01*
X129561562Y-92780371D02*
X129445562Y-92664371D01*
X121901198Y-87042620D02*
X121734320Y-87042620D01*
X133505562Y-92664371D02*
X133389562Y-92780371D01*
X122151512Y-87292934D02*
X121901198Y-87042620D01*
X120482738Y-85791038D02*
X120482738Y-85624160D01*
X126073133Y-91214555D02*
X125906255Y-91214555D01*
X119687100Y-84828522D02*
X119687100Y-83052000D01*
X122735585Y-87877007D02*
X122568707Y-87877007D01*
X124285851Y-91166182D02*
X124118975Y-91166183D01*
X121615825Y-88663008D02*
X121365509Y-88412692D01*
X124703046Y-91583376D02*
X125489060Y-90797359D01*
X128865562Y-91184409D02*
X128865562Y-92664371D01*
X123034272Y-90081480D02*
X123034272Y-89914602D01*
X124953362Y-92000570D02*
X124703046Y-91750254D01*
X121365509Y-88245814D02*
X122151512Y-87459812D01*
X134549562Y-92780371D02*
X134201562Y-92780371D01*
X129329562Y-91068409D02*
X128981562Y-91068409D01*
X130605562Y-92664371D02*
X130605562Y-91184409D01*
X138607800Y-92837000D02*
X136245600Y-92837000D01*
X134781562Y-91924400D02*
X134665562Y-92040400D01*
X123034272Y-89914602D02*
X123820286Y-89128585D01*
X121782703Y-88663008D02*
X121615825Y-88663008D01*
X128285562Y-91184409D02*
X128169562Y-91068409D01*
X124654674Y-89796096D02*
X124404359Y-89545781D01*
X134085562Y-91184429D02*
X133969562Y-91068429D01*
X126782978Y-91924400D02*
X126073133Y-91214555D01*
X121066811Y-86208233D02*
X120899933Y-86208233D01*
X131765562Y-91184409D02*
X131649562Y-91068409D01*
X121317125Y-86625424D02*
X121317126Y-86458548D01*
X125906255Y-91214555D02*
X125120238Y-92000569D01*
X128749562Y-92780371D02*
X128401562Y-92780371D01*
X135813800Y-92405200D02*
X135813800Y-92076800D01*
X122151512Y-87459812D02*
X122151512Y-87292934D01*
X140944600Y-91924400D02*
X139520400Y-91924400D01*
X120531111Y-87411441D02*
X121317125Y-86625424D01*
X132229562Y-92780371D02*
X131881562Y-92780371D01*
X124118975Y-91166183D02*
X123868659Y-90915867D01*
X135813800Y-92076800D02*
X135661400Y-91924400D01*
X131881562Y-92780371D02*
X131765562Y-92664371D01*
X125489060Y-90797359D02*
X125489061Y-90630483D01*
X126999064Y-91924400D02*
X126782978Y-91924400D01*
X122617090Y-89497395D02*
X122450212Y-89497395D01*
X134201562Y-92780371D02*
X134085562Y-92664371D01*
X122985899Y-88127321D02*
X122735585Y-87877007D01*
X123451464Y-90331795D02*
X123284588Y-90331796D01*
X124404359Y-89545781D02*
X124237481Y-89545781D01*
X130721562Y-92780371D02*
X130605562Y-92664371D01*
X125238746Y-90380168D02*
X125071868Y-90380168D01*
%TO.N,/MCU/SDRAM_DQ1*%
X151804366Y-92392923D02*
X151874366Y-92462923D01*
X149966440Y-94142923D02*
X149896440Y-94212923D01*
X149688504Y-92042923D02*
X149618504Y-92112923D01*
X151874379Y-93862923D02*
X151874379Y-94072923D01*
X151804366Y-93442923D02*
X149688504Y-93442923D01*
X151874366Y-93162923D02*
X151874366Y-93372923D01*
X151804366Y-91692923D02*
X151874366Y-91762923D01*
X148331376Y-89116511D02*
X148331376Y-89215506D01*
X140527820Y-80422000D02*
X128961400Y-80422000D01*
X148232381Y-88621537D02*
X148331376Y-88621537D01*
X151804366Y-91342923D02*
X149688504Y-91342923D01*
X149688504Y-91342923D02*
X149618504Y-91412923D01*
X149688504Y-92392923D02*
X151804366Y-92392923D01*
X128752600Y-80213200D02*
X127445900Y-80213200D01*
X149618504Y-90712923D02*
X149618504Y-90922923D01*
X149618504Y-93022923D02*
X149688504Y-93092923D01*
X149966440Y-90292923D02*
X151804366Y-90292923D01*
X149688504Y-90642923D02*
X149618504Y-90712923D01*
X149896440Y-94212923D02*
X149896440Y-94919250D01*
X148479869Y-88473045D02*
X148578864Y-88473045D01*
X149688504Y-93092923D02*
X151804366Y-93092923D01*
X151874366Y-92462923D02*
X151874366Y-92672923D01*
X149688504Y-90992923D02*
X151804366Y-90992923D01*
X151874366Y-93372923D02*
X151804366Y-93442923D01*
X151804366Y-92742923D02*
X149688504Y-92742923D01*
X148083888Y-88374049D02*
X148083888Y-88473044D01*
X149618504Y-91412923D02*
X149618504Y-91622923D01*
X140732845Y-80627025D02*
X140527820Y-80422000D01*
X148331376Y-88621537D02*
X148479869Y-88473045D01*
X148083888Y-88473044D02*
X148232381Y-88621537D01*
X149896440Y-94919250D02*
X149896440Y-95259160D01*
X149896440Y-90222923D02*
X149966440Y-90292923D01*
X148974844Y-88968020D02*
X149073839Y-88968020D01*
X149618504Y-91622923D02*
X149688504Y-91692923D01*
X151874379Y-94072923D02*
X151804379Y-94142923D01*
X148727355Y-88621536D02*
X148727355Y-88720531D01*
X149896440Y-89790621D02*
X149896440Y-90222923D01*
X149073839Y-88968020D02*
X149466804Y-89360985D01*
X148479869Y-89363999D02*
X148578864Y-89363999D01*
X151874366Y-90362923D02*
X151874366Y-90572923D01*
X149688504Y-93442923D02*
X149618504Y-93512923D01*
X151804366Y-92042923D02*
X149688504Y-92042923D01*
X149618504Y-93512923D02*
X149618504Y-93722923D01*
X148578864Y-88473045D02*
X148727355Y-88621536D01*
X151874366Y-91762923D02*
X151874366Y-91972923D01*
X151874366Y-91972923D02*
X151804366Y-92042923D01*
X151874366Y-90572923D02*
X151804366Y-90642923D01*
X151804366Y-90642923D02*
X149688504Y-90642923D01*
X127445900Y-80213200D02*
X126887100Y-80772000D01*
X149618504Y-93722923D02*
X149688504Y-93792923D01*
X149618504Y-92112923D02*
X149618504Y-92322923D01*
X148727355Y-88720531D02*
X148331376Y-89116511D01*
X149688504Y-92742923D02*
X149618504Y-92812923D01*
X148578864Y-89363999D02*
X148974844Y-88968020D01*
X128961400Y-80422000D02*
X128752600Y-80213200D01*
X151804366Y-90292923D02*
X151874366Y-90362923D01*
X149618504Y-92812923D02*
X149618504Y-93022923D01*
X149688504Y-91692923D02*
X151804366Y-91692923D01*
X151804366Y-90992923D02*
X151874366Y-91062923D01*
X148331376Y-89215506D02*
X148479869Y-89363999D01*
X151874366Y-91062923D02*
X151874366Y-91272923D01*
X149896440Y-95259160D02*
X148203800Y-96951800D01*
X151804379Y-94142923D02*
X149966440Y-94142923D01*
X149466804Y-89360985D02*
X149896440Y-89790621D01*
X151874366Y-91272923D02*
X151804366Y-91342923D01*
X149618504Y-92322923D02*
X149688504Y-92392923D01*
X151804379Y-93792923D02*
X151874379Y-93862923D01*
X151874366Y-92672923D02*
X151804366Y-92742923D01*
X148232380Y-88225556D02*
X148083888Y-88374049D01*
X151804366Y-93092923D02*
X151874366Y-93162923D01*
X149688504Y-93792923D02*
X151804379Y-93792923D01*
X148232380Y-88126561D02*
X148232380Y-88225556D01*
X149618504Y-90922923D02*
X149688504Y-90992923D01*
X148232380Y-88126561D02*
X140732845Y-80627025D01*
%TO.N,/MCU/SDRAM_DQ3*%
X154035120Y-89731597D02*
X154035119Y-89853219D01*
X157525009Y-91106595D02*
X156467564Y-92164041D01*
X156771619Y-92468097D02*
X157829065Y-91410652D01*
X155251341Y-91069441D02*
X155433775Y-91251875D01*
X155859452Y-91677552D02*
X156041886Y-91859986D01*
X154643231Y-90339708D02*
X154643230Y-90461330D01*
X156004732Y-89586319D02*
X156126354Y-89586318D01*
X155251342Y-90947819D02*
X155251341Y-91069441D01*
X154947286Y-90643764D02*
X156004732Y-89586319D01*
X157606300Y-93424400D02*
X159969200Y-93424400D01*
X154910132Y-88370096D02*
X155092565Y-88552529D01*
X156308787Y-89768751D02*
X156308787Y-89890373D01*
X124487100Y-80772000D02*
X124487100Y-79373300D01*
X155700676Y-89160640D02*
X155700676Y-89282262D01*
X156467564Y-92164041D02*
X156467563Y-92285663D01*
X154825664Y-90643764D02*
X154947286Y-90643764D01*
X157525009Y-90984973D02*
X157525009Y-91106595D01*
X124487100Y-79373300D02*
X125826000Y-78034400D01*
X157075675Y-92772152D02*
X157075674Y-92893774D01*
X156467563Y-92285663D02*
X156649997Y-92468097D01*
X153398453Y-89216553D02*
X153609442Y-89427542D01*
X156041886Y-91859986D02*
X156163508Y-91859986D01*
X154217553Y-90035653D02*
X154339175Y-90035653D01*
X150312321Y-89216553D02*
X153398453Y-89216553D01*
X139130168Y-78034400D02*
X150312321Y-89216553D01*
X157829065Y-91410652D02*
X157950687Y-91410651D01*
X155518243Y-88978207D02*
X155700676Y-89160640D01*
X156916898Y-90498484D02*
X155859453Y-91555930D01*
X125826000Y-78034400D02*
X139130168Y-78034400D01*
X156308787Y-89890373D02*
X155251342Y-90947819D01*
X157075674Y-92893774D02*
X157391338Y-93209438D01*
X158133120Y-91714706D02*
X157075675Y-92772152D01*
X155092565Y-88674151D02*
X154035120Y-89731597D01*
X158133120Y-91593084D02*
X158133120Y-91714706D01*
X156734465Y-90194429D02*
X156916898Y-90376862D01*
X156126354Y-89586318D02*
X156308787Y-89768751D01*
X156612843Y-90194430D02*
X156734465Y-90194429D01*
X157220954Y-90802541D02*
X157342576Y-90802540D01*
X154035119Y-89853219D02*
X154217553Y-90035653D01*
X156163508Y-91859986D02*
X157220954Y-90802541D01*
X155700676Y-89282262D02*
X154643231Y-90339708D01*
X154339175Y-90035653D02*
X155396621Y-88978208D01*
X155092565Y-88552529D02*
X155092565Y-88674151D01*
X153731064Y-89427542D02*
X154788510Y-88370097D01*
X155396621Y-88978208D02*
X155518243Y-88978207D01*
X153609442Y-89427542D02*
X153731064Y-89427542D01*
X155555397Y-91251875D02*
X156612843Y-90194430D01*
X156649997Y-92468097D02*
X156771619Y-92468097D01*
X156916898Y-90376862D02*
X156916898Y-90498484D01*
X154643230Y-90461330D02*
X154825664Y-90643764D01*
X154788510Y-88370097D02*
X154910132Y-88370096D01*
X155433775Y-91251875D02*
X155555397Y-91251875D01*
X157950687Y-91410651D02*
X158133120Y-91593084D01*
X157342576Y-90802540D02*
X157525009Y-90984973D01*
X155859453Y-91555930D02*
X155859452Y-91677552D01*
X157391338Y-93209438D02*
X157606300Y-93424400D01*
%TO.N,/MCU/SDRAM_DQ14*%
X144203800Y-99491800D02*
X144203800Y-102184200D01*
%TO.N,/MCU/SDRAM_ADD5*%
X146811729Y-75396017D02*
X146931729Y-75276017D01*
X149237711Y-75844400D02*
X152228800Y-75844400D01*
X114211063Y-74534400D02*
X142224748Y-74534400D01*
X147411729Y-75724400D02*
X147531729Y-75844400D01*
X142224748Y-74534400D02*
X143534748Y-75844400D01*
X147291729Y-75276017D02*
X147411729Y-75396017D01*
X147411729Y-75396017D02*
X147411729Y-75724400D01*
X108412100Y-92914600D02*
X108412100Y-80333362D01*
X146691729Y-75844400D02*
X146811729Y-75724400D01*
X108412100Y-80333362D02*
X108617125Y-80128337D01*
X108617125Y-80128337D02*
X114211063Y-74534400D01*
X110087100Y-94589600D02*
X108412100Y-92914600D01*
X147531729Y-75844400D02*
X149237711Y-75844400D01*
X143534748Y-75844400D02*
X146691729Y-75844400D01*
X146931729Y-75276017D02*
X147291729Y-75276017D01*
X146811729Y-75724400D02*
X146811729Y-75396017D01*
%TO.N,/MCU/SDRAM_ADD2*%
X115274700Y-75584400D02*
X110087100Y-80772000D01*
X146365259Y-80679400D02*
X146295259Y-80749400D01*
X147065259Y-80679400D02*
X146995259Y-80749400D01*
X149515259Y-80041502D02*
X149445259Y-79971502D01*
X140683203Y-75584400D02*
X115274700Y-75584400D01*
X153660100Y-78181200D02*
X153662400Y-78183500D01*
X146645259Y-79921500D02*
X146435259Y-79921500D01*
X149935259Y-79971502D02*
X149865259Y-80041502D01*
X149235259Y-79971502D02*
X149165259Y-80041502D01*
X147135259Y-79971520D02*
X147065259Y-80041520D01*
X150565259Y-80679400D02*
X150495259Y-80749400D01*
X149515259Y-80679400D02*
X149515259Y-80041502D01*
X151195259Y-80749400D02*
X150985259Y-80749400D01*
X149865259Y-80679400D02*
X149795259Y-80749400D01*
X150915259Y-80679400D02*
X150915259Y-80041520D01*
X148465259Y-80679400D02*
X148395259Y-80749400D01*
X152385259Y-80749400D02*
X152315259Y-80679400D01*
X147415259Y-80679400D02*
X147415259Y-80041520D01*
X150985259Y-80749400D02*
X150915259Y-80679400D01*
X147415259Y-80041520D02*
X147345259Y-79971520D01*
X146365259Y-79991500D02*
X146365259Y-80679400D01*
X148815259Y-80679400D02*
X148815259Y-80041520D01*
X149165259Y-80041502D02*
X149165259Y-80679400D01*
X153662400Y-78183500D02*
X153662400Y-79916000D01*
X151895259Y-80749400D02*
X151685259Y-80749400D01*
X147345259Y-79971520D02*
X147135259Y-79971520D01*
X151615259Y-80041520D02*
X151545259Y-79971520D01*
X151965259Y-80679400D02*
X151895259Y-80749400D01*
X150145259Y-79971502D02*
X149935259Y-79971502D01*
X151265259Y-80041520D02*
X151265259Y-80679400D01*
X147765259Y-80679400D02*
X147695259Y-80749400D01*
X148535259Y-79971520D02*
X148465259Y-80041520D01*
X151545259Y-79971520D02*
X151335259Y-79971520D01*
X149865259Y-80041502D02*
X149865259Y-80679400D01*
X150565259Y-80041520D02*
X150565259Y-80679400D01*
X151965259Y-80041520D02*
X151965259Y-80679400D01*
X148395259Y-80749400D02*
X148185259Y-80749400D01*
X148115259Y-80679400D02*
X148115259Y-80041502D01*
X146295259Y-80749400D02*
X145848203Y-80749400D01*
X152035259Y-79971520D02*
X151965259Y-80041520D01*
X146995259Y-80749400D02*
X146785259Y-80749400D01*
X152315259Y-80041520D02*
X152245259Y-79971520D01*
X149095259Y-80749400D02*
X148885259Y-80749400D01*
X151335259Y-79971520D02*
X151265259Y-80041520D01*
X146435259Y-79921500D02*
X146365259Y-79991500D01*
X147765259Y-80041502D02*
X147765259Y-80679400D01*
X145848203Y-80749400D02*
X145572308Y-80473505D01*
X146715259Y-80679400D02*
X146715259Y-79991500D01*
X148815259Y-80041520D02*
X148745259Y-79971520D01*
X150215259Y-80041502D02*
X150145259Y-79971502D01*
X150285259Y-80749400D02*
X150215259Y-80679400D01*
X146785259Y-80749400D02*
X146715259Y-80679400D01*
X149165259Y-80679400D02*
X149095259Y-80749400D01*
X150215259Y-80679400D02*
X150215259Y-80041502D01*
X149445259Y-79971502D02*
X149235259Y-79971502D01*
X148045259Y-79971502D02*
X147835259Y-79971502D01*
X147695259Y-80749400D02*
X147485259Y-80749400D01*
X150915259Y-80041520D02*
X150845259Y-79971520D01*
X153662400Y-79916000D02*
X152829000Y-80749400D01*
X152829000Y-80749400D02*
X152385259Y-80749400D01*
X151615259Y-80679400D02*
X151615259Y-80041520D01*
X151685259Y-80749400D02*
X151615259Y-80679400D01*
X147835259Y-79971502D02*
X147765259Y-80041502D01*
X151265259Y-80679400D02*
X151195259Y-80749400D01*
X147065259Y-80041520D02*
X147065259Y-80679400D01*
X150635259Y-79971520D02*
X150565259Y-80041520D01*
X150845259Y-79971520D02*
X150635259Y-79971520D01*
X149585259Y-80749400D02*
X149515259Y-80679400D01*
X152245259Y-79971520D02*
X152035259Y-79971520D01*
X148465259Y-80041520D02*
X148465259Y-80679400D01*
X152315259Y-80679400D02*
X152315259Y-80041520D01*
X148185259Y-80749400D02*
X148115259Y-80679400D01*
X145572308Y-80473505D02*
X140683203Y-75584400D01*
X148115259Y-80041502D02*
X148045259Y-79971502D01*
X149795259Y-80749400D02*
X149585259Y-80749400D01*
X148885259Y-80749400D02*
X148815259Y-80679400D01*
X147485259Y-80749400D02*
X147415259Y-80679400D01*
X146715259Y-79991500D02*
X146645259Y-79921500D01*
X150495259Y-80749400D02*
X150285259Y-80749400D01*
X148745259Y-79971520D02*
X148535259Y-79971520D01*
%TO.N,/MCU/SDRAM_ADD1*%
X152116423Y-81099400D02*
X152458423Y-81099400D01*
X148696423Y-81099400D02*
X149038423Y-81099400D01*
X149722423Y-81213400D02*
X149836423Y-81099400D01*
X150862423Y-81213400D02*
X150976423Y-81099400D01*
X152458423Y-81099400D02*
X152572423Y-81213400D01*
X147442423Y-81213400D02*
X147556423Y-81099400D01*
X148582423Y-82162700D02*
X148582423Y-81213400D01*
X147442423Y-82112700D02*
X147442423Y-81213400D01*
X149266423Y-82276700D02*
X149608423Y-82276700D01*
X146986423Y-82226700D02*
X147328423Y-82226700D01*
X147556423Y-81099400D02*
X147898423Y-81099400D01*
X153028423Y-82276682D02*
X153142423Y-82162682D01*
X147898423Y-81099400D02*
X148012423Y-81213400D01*
X148468423Y-82276700D02*
X148582423Y-82162700D01*
X152002423Y-81213400D02*
X152116423Y-81099400D01*
X152686423Y-82276682D02*
X153028423Y-82276682D01*
X149836423Y-81099400D02*
X150178423Y-81099400D01*
X147328423Y-82226700D02*
X147442423Y-82112700D01*
X153642794Y-81099400D02*
X153837344Y-81099400D01*
X150406423Y-82276700D02*
X150748423Y-82276700D01*
X153256423Y-81099400D02*
X153642794Y-81099400D01*
X115724700Y-75934400D02*
X140538228Y-75934400D01*
X150862423Y-82162700D02*
X150862423Y-81213400D01*
X148126423Y-82276700D02*
X148468423Y-82276700D01*
X153142423Y-81213400D02*
X153256423Y-81099400D01*
X152572423Y-81213400D02*
X152572423Y-82162682D01*
X153142423Y-82162682D02*
X153142423Y-81213400D01*
X152572423Y-82162682D02*
X152686423Y-82276682D01*
X110887100Y-80772000D02*
X115724700Y-75934400D01*
X148582423Y-81213400D02*
X148696423Y-81099400D01*
X148012423Y-81213400D02*
X148012423Y-82162700D01*
X149038423Y-81099400D02*
X149152423Y-81213400D01*
X151432423Y-81213400D02*
X151432423Y-82162700D01*
X150976423Y-81099400D02*
X151318423Y-81099400D01*
X149722423Y-82162700D02*
X149722423Y-81213400D01*
X149608423Y-82276700D02*
X149722423Y-82162700D01*
X146872423Y-81213400D02*
X146872423Y-82112700D01*
X151318423Y-81099400D02*
X151432423Y-81213400D01*
X150292423Y-82162700D02*
X150406423Y-82276700D01*
X151432423Y-82162700D02*
X151546423Y-82276700D01*
X151888423Y-82276700D02*
X152002423Y-82162700D01*
X150292423Y-81213400D02*
X150292423Y-82162700D01*
X146872423Y-82112700D02*
X146986423Y-82226700D01*
X150748423Y-82276700D02*
X150862423Y-82162700D01*
X145703228Y-81099400D02*
X146758423Y-81099400D01*
X148012423Y-82162700D02*
X148126423Y-82276700D01*
X140538228Y-75934400D02*
X145703228Y-81099400D01*
X152002423Y-82162700D02*
X152002423Y-81213400D01*
X146758423Y-81099400D02*
X146872423Y-81213400D01*
X149152423Y-81213400D02*
X149152423Y-82162700D01*
X149152423Y-82162700D02*
X149266423Y-82276700D01*
X151546423Y-82276700D02*
X151888423Y-82276700D01*
X150178423Y-81099400D02*
X150292423Y-81213400D01*
%TO.N,/MCU/SDRAM_ADD4*%
X150307405Y-76853664D02*
X150201405Y-76747664D01*
X149035405Y-76371400D02*
X148717405Y-76371400D01*
X147975405Y-76371400D02*
X147599311Y-76371400D01*
X150837405Y-76371400D02*
X150731405Y-76477400D01*
X149141405Y-76477400D02*
X149035405Y-76371400D01*
X149247405Y-76803662D02*
X149141405Y-76697662D01*
X149777405Y-76371400D02*
X149671405Y-76477400D01*
X150731405Y-76477400D02*
X150731405Y-76747664D01*
X150201405Y-76477400D02*
X150095405Y-76371400D01*
X114356037Y-74884400D02*
X108762100Y-80478337D01*
X143566774Y-76371400D02*
X142079774Y-74884400D01*
X149565405Y-76803662D02*
X149247405Y-76803662D01*
X150095405Y-76371400D02*
X149777405Y-76371400D01*
X148187405Y-77103661D02*
X148081405Y-76997661D01*
X150201405Y-76747664D02*
X150201405Y-76477400D01*
X148611405Y-76477400D02*
X148611405Y-76997661D01*
X148081405Y-76477400D02*
X147975405Y-76371400D01*
X147599311Y-76371400D02*
X143566774Y-76371400D01*
X149671405Y-76697662D02*
X149565405Y-76803662D01*
X148611405Y-76997661D02*
X148505405Y-77103661D01*
X149671405Y-76477400D02*
X149671405Y-76697662D01*
X152703800Y-76057300D02*
X152389700Y-76371400D01*
X149141405Y-76697662D02*
X149141405Y-76477400D01*
X142079774Y-74884400D02*
X114356037Y-74884400D01*
X152703800Y-75438000D02*
X152703800Y-76057300D01*
X152389700Y-76371400D02*
X150837405Y-76371400D01*
X108762100Y-80478337D02*
X108762100Y-91727800D01*
X148717405Y-76371400D02*
X148611405Y-76477400D01*
X150731405Y-76747664D02*
X150625405Y-76853664D01*
X148081405Y-76997661D02*
X148081405Y-76477400D01*
X150625405Y-76853664D02*
X150307405Y-76853664D01*
X148505405Y-77103661D02*
X148187405Y-77103661D01*
X108762100Y-91727800D02*
X109287100Y-92252800D01*
%TO.N,/MCU/LED_0*%
X163776600Y-76134226D02*
X163776600Y-60607000D01*
X166598600Y-84988400D02*
X166598600Y-78956226D01*
X166598600Y-78956226D02*
X163776600Y-76134226D01*
X163776600Y-60607000D02*
X169341800Y-55041800D01*
%TO.N,/MCU/LED_1*%
X163426600Y-65827426D02*
X162382200Y-64783026D01*
X163426600Y-76279200D02*
X163426600Y-65827426D01*
X165989000Y-78841600D02*
X163426600Y-76279200D01*
X165989000Y-84988400D02*
X165989000Y-78841600D01*
X162382200Y-64783026D02*
X162382200Y-55041800D01*
%TO.N,/IO/DBG_USART_TX*%
X160655000Y-108229400D02*
X160655000Y-105460800D01*
X155625800Y-113258600D02*
X160655000Y-108229400D01*
%TO.N,/IO/DBG_USART_RX*%
X161264600Y-108468332D02*
X161264600Y-105460800D01*
X156050066Y-113682866D02*
X161264600Y-108468332D01*
%TO.N,/IO/EXT_RX*%
X169434800Y-88662800D02*
X168656000Y-87884000D01*
X130342600Y-117957600D02*
X131815800Y-116484400D01*
X142544800Y-116484400D02*
X145584200Y-119523800D01*
X169434800Y-107540478D02*
X169434800Y-88662800D01*
X157451478Y-119523800D02*
X169434800Y-107540478D01*
X131815800Y-116484400D02*
X142544800Y-116484400D01*
X168656000Y-87884000D02*
X165455600Y-87884000D01*
X145584200Y-119523800D02*
X157451478Y-119523800D01*
%TO.N,/IO/EXT_TX*%
X164770637Y-86538637D02*
X167805611Y-86538637D01*
X145324600Y-119873800D02*
X142367000Y-116916200D01*
X169784800Y-107685452D02*
X157596452Y-119873800D01*
X169784800Y-88517826D02*
X169784800Y-107685452D01*
X167805611Y-86538637D02*
X169784800Y-88517826D01*
X133309400Y-116916200D02*
X132242600Y-117983000D01*
X142367000Y-116916200D02*
X133309400Y-116916200D01*
X157596452Y-119873800D02*
X145324600Y-119873800D01*
%TO.N,/MEMORY/SD_DAT0*%
X151873358Y-107438800D02*
X151973358Y-107338800D01*
X144703800Y-106400600D02*
X144884603Y-106581403D01*
X144203800Y-103342944D02*
X144203800Y-103660944D01*
X146583358Y-106306818D02*
X146913358Y-106306818D01*
X150873358Y-107338800D02*
X150873358Y-106436057D01*
X152963358Y-107238800D02*
X153073358Y-107128800D01*
X153733358Y-107238800D02*
X155977749Y-107238800D01*
X147573358Y-107338800D02*
X147573358Y-106419211D01*
X144309800Y-103766944D02*
X145597800Y-103766944D01*
X143703800Y-104720944D02*
X143809800Y-104826944D01*
X148013358Y-106309211D02*
X148123358Y-106419211D01*
X147023358Y-107338800D02*
X147123358Y-107438800D01*
X148123358Y-106419211D02*
X148123358Y-107338800D01*
X153513358Y-106347603D02*
X153623358Y-106457603D01*
X149883358Y-106317427D02*
X150213358Y-106317427D01*
X144703800Y-99320048D02*
X144703800Y-102600944D01*
X149773358Y-106427427D02*
X149883358Y-106317427D01*
X152083358Y-106347590D02*
X152413358Y-106347590D01*
X145703800Y-105250944D02*
X145597800Y-105356944D01*
X144203800Y-103660944D02*
X144309800Y-103766944D01*
X147023358Y-106416818D02*
X147023358Y-107338800D01*
X151973358Y-106457590D02*
X152083358Y-106347590D01*
X149223358Y-107338800D02*
X149323358Y-107438800D01*
X145703800Y-102812944D02*
X145703800Y-103130944D01*
X145597800Y-105356944D02*
X144809800Y-105356944D01*
X148673358Y-107338800D02*
X148673358Y-106422508D01*
X145703800Y-104932944D02*
X145703800Y-105250944D01*
X151523358Y-107438800D02*
X151873358Y-107438800D01*
X147473358Y-107438800D02*
X147573358Y-107338800D01*
X145597800Y-103766944D02*
X145703800Y-103872944D01*
X148783358Y-106312508D02*
X149113358Y-106312508D01*
X149673358Y-107438800D02*
X149773358Y-107338800D01*
X147123358Y-107438800D02*
X147473358Y-107438800D01*
X149323358Y-107438800D02*
X149673358Y-107438800D01*
X145703800Y-103872944D02*
X145703800Y-104190944D01*
X150323358Y-106427427D02*
X150323358Y-107338800D01*
X149113358Y-106312508D02*
X149223358Y-106422508D01*
X147683358Y-106309211D02*
X148013358Y-106309211D01*
X153623358Y-106457603D02*
X153623358Y-107128800D01*
X146473358Y-107128800D02*
X146473358Y-106416818D01*
X146913358Y-106306818D02*
X147023358Y-106416818D01*
X144884603Y-106581403D02*
X145542000Y-107238800D01*
X151973358Y-107338800D02*
X151973358Y-106457590D01*
X147573358Y-106419211D02*
X147683358Y-106309211D01*
X146363358Y-107238800D02*
X146473358Y-107128800D01*
X153623358Y-107128800D02*
X153733358Y-107238800D01*
X153073358Y-107128800D02*
X153073358Y-106457603D01*
X145597800Y-104296944D02*
X143809800Y-104296944D01*
X150873358Y-106436057D02*
X150983358Y-106326057D01*
X151313358Y-106326057D02*
X151423358Y-106436057D01*
X149773358Y-107338800D02*
X149773358Y-106427427D01*
X144375152Y-98991400D02*
X144703800Y-99320048D01*
X150773358Y-107438800D02*
X150873358Y-107338800D01*
X153073358Y-106457603D02*
X153183358Y-106347603D01*
X152523358Y-107128800D02*
X152633358Y-107238800D01*
X150213358Y-106317427D02*
X150323358Y-106427427D01*
X145597800Y-103236944D02*
X144309800Y-103236944D01*
X152633358Y-107238800D02*
X152963358Y-107238800D01*
X153183358Y-106347603D02*
X153513358Y-106347603D01*
X145597800Y-102706944D02*
X145703800Y-102812944D01*
X144309800Y-103236944D02*
X144203800Y-103342944D01*
X150983358Y-106326057D02*
X151313358Y-106326057D01*
X144809800Y-105356944D02*
X144703800Y-105462944D01*
X155977749Y-107238800D02*
X158318200Y-107238800D01*
X150323358Y-107338800D02*
X150423358Y-107438800D01*
X144703800Y-105462944D02*
X144703800Y-106400600D01*
X142703800Y-97205800D02*
X142703800Y-98457000D01*
X143809800Y-104296944D02*
X143703800Y-104402944D01*
X150423358Y-107438800D02*
X150773358Y-107438800D01*
X145703800Y-104190944D02*
X145597800Y-104296944D01*
X145703800Y-103130944D02*
X145597800Y-103236944D01*
X148123358Y-107338800D02*
X148223358Y-107438800D01*
X152523358Y-106457590D02*
X152523358Y-107128800D01*
X151423358Y-106436057D02*
X151423358Y-107338800D01*
X144703800Y-102600944D02*
X144809800Y-102706944D01*
X143238200Y-98991400D02*
X144375152Y-98991400D01*
X142703800Y-98457000D02*
X143238200Y-98991400D01*
X144809800Y-102706944D02*
X145597800Y-102706944D01*
X148673358Y-106422508D02*
X148783358Y-106312508D01*
X145542000Y-107238800D02*
X146363358Y-107238800D01*
X152413358Y-106347590D02*
X152523358Y-106457590D01*
X148223358Y-107438800D02*
X148573358Y-107438800D01*
X143703800Y-104402944D02*
X143703800Y-104720944D01*
X145597800Y-104826944D02*
X145703800Y-104932944D01*
X146473358Y-106416818D02*
X146583358Y-106306818D01*
X148573358Y-107438800D02*
X148673358Y-107338800D01*
X143809800Y-104826944D02*
X145597800Y-104826944D01*
X151423358Y-107338800D02*
X151523358Y-107438800D01*
X149223358Y-106422508D02*
X149223358Y-107338800D01*
%TO.N,/MCU/SDRAM_ADD12*%
X132834410Y-94985328D02*
X132730410Y-95089328D01*
X130338410Y-95089345D02*
X130234410Y-94985345D01*
X130130410Y-93887000D02*
X129817683Y-93887000D01*
X131898410Y-93887000D02*
X131794410Y-93991000D01*
X131794410Y-93991000D02*
X131794410Y-94985328D01*
X138554410Y-93991000D02*
X138450410Y-93887000D01*
X133874410Y-94985345D02*
X133770410Y-95089345D01*
X140218410Y-93887000D02*
X140114410Y-93991000D01*
X139178410Y-93887000D02*
X139074410Y-93991000D01*
X131378410Y-95089328D02*
X131274410Y-94985328D01*
X134914410Y-94985328D02*
X134810410Y-95089328D01*
X140114410Y-94985345D02*
X140010410Y-95089345D01*
X132730410Y-95089328D02*
X132418410Y-95089328D01*
X141154410Y-93991000D02*
X141154410Y-94985345D01*
X141050410Y-95089345D02*
X140738410Y-95089345D01*
X136890410Y-95089328D02*
X136578410Y-95089328D01*
X115589700Y-93887000D02*
X114887100Y-94589600D01*
X136370410Y-93887000D02*
X136058410Y-93887000D01*
X134914410Y-93991000D02*
X134914410Y-94985328D01*
X129817683Y-93887000D02*
X115589700Y-93887000D01*
X142194410Y-94985345D02*
X142090410Y-95089345D01*
X133874410Y-93991000D02*
X133874410Y-94985345D01*
X134290410Y-93887000D02*
X133978410Y-93887000D01*
X133770410Y-95089345D02*
X133458410Y-95089345D01*
X132314410Y-94985328D02*
X132314410Y-93991000D01*
X141258410Y-93887000D02*
X141154410Y-93991000D01*
X139594410Y-94985345D02*
X139594410Y-93991000D01*
X141674410Y-94985345D02*
X141674410Y-93991000D01*
X133354410Y-94985345D02*
X133354410Y-93991000D01*
X136994410Y-93991000D02*
X136994410Y-94985328D01*
X141570410Y-93887000D02*
X141258410Y-93887000D01*
X139698410Y-95089345D02*
X139594410Y-94985345D01*
X134498410Y-95089328D02*
X134394410Y-94985328D01*
X138554410Y-94985345D02*
X138554410Y-93991000D01*
X130234410Y-94985345D02*
X130234410Y-93991000D01*
X133250410Y-93887000D02*
X132938410Y-93887000D01*
X135850410Y-95089345D02*
X135538410Y-95089345D01*
X136058410Y-93887000D02*
X135954410Y-93991000D01*
X142298410Y-93887000D02*
X142194410Y-93991000D01*
X130234410Y-93991000D02*
X130130410Y-93887000D01*
X137098410Y-93887000D02*
X136994410Y-93991000D01*
X132418410Y-95089328D02*
X132314410Y-94985328D01*
X139594410Y-93991000D02*
X139490410Y-93887000D01*
X137618410Y-95089328D02*
X137514410Y-94985328D01*
X138034410Y-93991000D02*
X138034410Y-94985328D01*
X133354410Y-93991000D02*
X133250410Y-93887000D01*
X131274410Y-94985328D02*
X131274410Y-93991000D01*
X137514410Y-94985328D02*
X137514410Y-93991000D01*
X135330410Y-93887000D02*
X135018410Y-93887000D01*
X134394410Y-94985328D02*
X134394410Y-93991000D01*
X133458410Y-95089345D02*
X133354410Y-94985345D01*
X131170410Y-93887000D02*
X130858410Y-93887000D01*
X132314410Y-93991000D02*
X132210410Y-93887000D01*
X148703800Y-99653545D02*
X142937255Y-93887000D01*
X134810410Y-95089328D02*
X134498410Y-95089328D01*
X137514410Y-93991000D02*
X137410410Y-93887000D01*
X141674410Y-93991000D02*
X141570410Y-93887000D01*
X136578410Y-95089328D02*
X136474410Y-94985328D01*
X135954410Y-94985345D02*
X135850410Y-95089345D01*
X135538410Y-95089345D02*
X135434410Y-94985345D01*
X131690410Y-95089328D02*
X131378410Y-95089328D01*
X140634410Y-93991000D02*
X140530410Y-93887000D01*
X138034410Y-94985328D02*
X137930410Y-95089328D01*
X140530410Y-93887000D02*
X140218410Y-93887000D01*
X136994410Y-94985328D02*
X136890410Y-95089328D01*
X140114410Y-93991000D02*
X140114410Y-94985345D01*
X136474410Y-94985328D02*
X136474410Y-93991000D01*
X136474410Y-93991000D02*
X136370410Y-93887000D01*
X141154410Y-94985345D02*
X141050410Y-95089345D01*
X140010410Y-95089345D02*
X139698410Y-95089345D01*
X139074410Y-94985345D02*
X138970410Y-95089345D01*
X142937255Y-93887000D02*
X142298410Y-93887000D01*
X130858410Y-93887000D02*
X130754410Y-93991000D01*
X135954410Y-93991000D02*
X135954410Y-94985345D01*
X142194410Y-93991000D02*
X142194410Y-94985345D01*
X132938410Y-93887000D02*
X132834410Y-93991000D01*
X132834410Y-93991000D02*
X132834410Y-94985328D01*
X138658410Y-95089345D02*
X138554410Y-94985345D01*
X130650410Y-95089345D02*
X130338410Y-95089345D01*
X135434410Y-94985345D02*
X135434410Y-93991000D01*
X137930410Y-95089328D02*
X137618410Y-95089328D01*
X142090410Y-95089345D02*
X141778410Y-95089345D01*
X141778410Y-95089345D02*
X141674410Y-94985345D01*
X139490410Y-93887000D02*
X139178410Y-93887000D01*
X138450410Y-93887000D02*
X138138410Y-93887000D01*
X132210410Y-93887000D02*
X131898410Y-93887000D01*
X139074410Y-93991000D02*
X139074410Y-94985345D01*
X130754410Y-93991000D02*
X130754410Y-94985345D01*
X135434410Y-93991000D02*
X135330410Y-93887000D01*
X137410410Y-93887000D02*
X137098410Y-93887000D01*
X131274410Y-93991000D02*
X131170410Y-93887000D01*
X135018410Y-93887000D02*
X134914410Y-93991000D01*
X138138410Y-93887000D02*
X138034410Y-93991000D01*
X131794410Y-94985328D02*
X131690410Y-95089328D01*
X133978410Y-93887000D02*
X133874410Y-93991000D01*
X140634410Y-94985345D02*
X140634410Y-93991000D01*
X140738410Y-95089345D02*
X140634410Y-94985345D01*
X130754410Y-94985345D02*
X130650410Y-95089345D01*
X134394410Y-93991000D02*
X134290410Y-93887000D01*
X138970410Y-95089345D02*
X138658410Y-95089345D01*
%TO.N,/MEMORY/SD_DAT1*%
X153290396Y-107673800D02*
X152900396Y-107673800D01*
X143115200Y-101652534D02*
X143205200Y-101742534D01*
X141965200Y-100662534D02*
X142055200Y-100752534D01*
X143115200Y-100752534D02*
X143205200Y-100842534D01*
X141965200Y-103992534D02*
X141965200Y-104262534D01*
X141965200Y-102192534D02*
X141965200Y-102462534D01*
X152900396Y-107673800D02*
X152800396Y-107773800D01*
X151502396Y-109225001D02*
X151148396Y-109225001D01*
X143115200Y-100302534D02*
X142055200Y-100302534D01*
X143205200Y-102642534D02*
X143205200Y-102912534D01*
X150558396Y-107873800D02*
X150440396Y-107991800D01*
X150440396Y-109107020D02*
X150322396Y-109225020D01*
X143205200Y-103542534D02*
X143205200Y-103812534D01*
X154470396Y-107673800D02*
X154080396Y-107673800D01*
X142055200Y-102102534D02*
X141965200Y-102192534D01*
X142055200Y-101202534D02*
X141965200Y-101292534D01*
X149732396Y-107873800D02*
X146507200Y-107873800D01*
X151030396Y-109107001D02*
X151030396Y-107991800D01*
X153980396Y-107773800D02*
X153980396Y-109109344D01*
X152682396Y-109225001D02*
X152328396Y-109225001D01*
X143115200Y-102102534D02*
X142055200Y-102102534D01*
X152210396Y-109107001D02*
X152210396Y-107991800D01*
X142055200Y-103902534D02*
X141965200Y-103992534D01*
X155042396Y-109228498D02*
X154688396Y-109228498D01*
X146507200Y-107873800D02*
X145682025Y-107873800D01*
X152800396Y-109107001D02*
X152682396Y-109225001D01*
X142055200Y-100302534D02*
X141965200Y-100392534D01*
X152328396Y-109225001D02*
X152210396Y-109107001D01*
X141965200Y-101292534D02*
X141965200Y-101562534D01*
X143115200Y-101202534D02*
X142055200Y-101202534D01*
X142055200Y-100752534D02*
X143115200Y-100752534D01*
X143205200Y-100212534D02*
X143115200Y-100302534D01*
X153508396Y-109227344D02*
X153390396Y-109109344D01*
X151620396Y-109107001D02*
X151502396Y-109225001D01*
X155278396Y-107873800D02*
X155160396Y-107991800D01*
X142055200Y-101652534D02*
X143115200Y-101652534D01*
X153862396Y-109227344D02*
X153508396Y-109227344D01*
X152092396Y-107873800D02*
X151738396Y-107873800D01*
X149850396Y-107991800D02*
X149732396Y-107873800D01*
X142055200Y-104352534D02*
X143115200Y-104352534D01*
X141965200Y-103092534D02*
X141965200Y-103362534D01*
X150912396Y-107873800D02*
X150558396Y-107873800D01*
X143115200Y-104352534D02*
X143205200Y-104442534D01*
X143205200Y-102012534D02*
X143115200Y-102102534D01*
X153980396Y-109109344D02*
X153862396Y-109227344D01*
X141965200Y-103362534D02*
X142055200Y-103452534D01*
X143205200Y-101742534D02*
X143205200Y-102012534D01*
X142055200Y-103002534D02*
X141965200Y-103092534D01*
X150322396Y-109225020D02*
X149968396Y-109225020D01*
X143205200Y-101112534D02*
X143115200Y-101202534D01*
X149850396Y-109107020D02*
X149850396Y-107991800D01*
X141965200Y-102462534D02*
X142055200Y-102552534D01*
X153390396Y-109109344D02*
X153390396Y-107773800D01*
X141965200Y-101562534D02*
X142055200Y-101652534D01*
X155160396Y-107991800D02*
X155160396Y-109110498D01*
X158318200Y-107873800D02*
X155278396Y-107873800D01*
X154688396Y-109228498D02*
X154570396Y-109110498D01*
X143205200Y-104442534D02*
X143205200Y-105086346D01*
X154080396Y-107673800D02*
X153980396Y-107773800D01*
X143205200Y-99466400D02*
X143205200Y-100212534D01*
X152800396Y-107773800D02*
X152800396Y-109107001D01*
X142055200Y-102552534D02*
X143115200Y-102552534D01*
X152210396Y-107991800D02*
X152092396Y-107873800D01*
X143115200Y-103902534D02*
X142055200Y-103902534D01*
X142055200Y-103452534D02*
X143115200Y-103452534D01*
X145682025Y-107873800D02*
X143205200Y-105396975D01*
X150440396Y-107991800D02*
X150440396Y-109107020D01*
X143115200Y-102552534D02*
X143205200Y-102642534D01*
X154570396Y-109110498D02*
X154570396Y-107773800D01*
X141965200Y-100392534D02*
X141965200Y-100662534D01*
X149968396Y-109225020D02*
X149850396Y-109107020D01*
X143115200Y-103002534D02*
X142055200Y-103002534D01*
X151738396Y-107873800D02*
X151620396Y-107991800D01*
X151620396Y-107991800D02*
X151620396Y-109107001D01*
X143205200Y-102912534D02*
X143115200Y-103002534D01*
X141965200Y-104262534D02*
X142055200Y-104352534D01*
X151030396Y-107991800D02*
X150912396Y-107873800D01*
X143205200Y-105396975D02*
X143205200Y-105086346D01*
X143115200Y-103452534D02*
X143205200Y-103542534D01*
X153390396Y-107773800D02*
X153290396Y-107673800D01*
X143205200Y-100842534D02*
X143205200Y-101112534D01*
X143205200Y-103812534D02*
X143115200Y-103902534D01*
X151148396Y-109225001D02*
X151030396Y-109107001D01*
X155160396Y-109110498D02*
X155042396Y-109228498D01*
X154570396Y-107773800D02*
X154470396Y-107673800D01*
%TO.N,/MEMORY/SD_CLK*%
X155422600Y-97053400D02*
X154660600Y-97053400D01*
X168351200Y-105892600D02*
X168351200Y-99949000D01*
X153619200Y-96012000D02*
X150228800Y-96012000D01*
X154660600Y-97053400D02*
X153619200Y-96012000D01*
X164084000Y-95681800D02*
X160034048Y-95681800D01*
X159644448Y-96071400D02*
X156404600Y-96071400D01*
X168351200Y-99949000D02*
X164084000Y-95681800D01*
X160034048Y-95681800D02*
X159644448Y-96071400D01*
X156404600Y-96071400D02*
X155422600Y-97053400D01*
%TO.N,/MCU/~{SDRAM_WE}*%
X139926528Y-76984400D02*
X144069264Y-81127136D01*
X119510000Y-76984400D02*
X139926528Y-76984400D01*
X117287100Y-79207300D02*
X119510000Y-76984400D01*
X117287100Y-80772000D02*
X117287100Y-79207300D01*
%TO.N,/MCU/~{SDRAM_CAS}*%
X118612100Y-79177700D02*
X118612100Y-80955700D01*
X159969200Y-84924400D02*
X146515141Y-84924400D01*
X118313200Y-81254600D02*
X116969700Y-81254600D01*
X116969700Y-81254600D02*
X116487100Y-80772000D01*
X139275142Y-77684400D02*
X120105400Y-77684400D01*
X146515141Y-84924400D02*
X139275142Y-77684400D01*
X118612100Y-80955700D02*
X118313200Y-81254600D01*
X120105400Y-77684400D02*
X118612100Y-79177700D01*
%TO.N,/MCU/SDRAM_CKE*%
X146227800Y-92608400D02*
X145299200Y-93537000D01*
X116017300Y-91922600D02*
X115687100Y-92252800D01*
X145299200Y-93537000D02*
X117844800Y-93537000D01*
X146227800Y-88290400D02*
X146227800Y-92608400D01*
X116230400Y-91922600D02*
X116017300Y-91922600D01*
X117844800Y-93537000D02*
X116230400Y-91922600D01*
X141249400Y-83312000D02*
X146227800Y-88290400D01*
%TO.N,/MCU/~{SDRAM_CS}*%
X114887100Y-80772000D02*
X115789500Y-81674400D01*
X136931800Y-81674400D02*
X136956800Y-81649400D01*
X115789500Y-81674400D02*
X136931800Y-81674400D01*
%TO.N,/MCU/SDRAM_BA0*%
X114087100Y-83083400D02*
X115324700Y-83083400D01*
X146927800Y-96690400D02*
X149703800Y-99466400D01*
X141240271Y-82124400D02*
X146927800Y-87811929D01*
X115324700Y-83083400D02*
X116283700Y-82124400D01*
X116283700Y-82124400D02*
X141240271Y-82124400D01*
X146927800Y-87811929D02*
X146927800Y-96690400D01*
%TO.N,/MCU/SDRAM_CLK*%
X135145555Y-96469087D02*
X135039555Y-96363087D01*
X145227797Y-97207833D02*
X145465384Y-97445420D01*
X149242801Y-101481975D02*
X149512801Y-101481975D01*
X143485487Y-95623915D02*
X143643879Y-95623915D01*
X149152801Y-100425225D02*
X149152801Y-101391975D01*
X135993555Y-95573800D02*
X135675555Y-95573800D01*
X143881466Y-95861502D02*
X143881466Y-96019894D01*
X142179552Y-95573800D02*
X136735555Y-95573800D01*
X132919555Y-96363075D02*
X132919555Y-95679800D01*
X133979555Y-95679800D02*
X133873555Y-95573800D01*
X134615555Y-95573800D02*
X134509555Y-95679800D01*
X143643879Y-95623915D02*
X143881466Y-95861502D01*
X148252801Y-100075231D02*
X148252801Y-101391988D01*
X147049302Y-99029338D02*
X147049302Y-99187730D01*
X131859555Y-96363075D02*
X131859555Y-95679800D01*
X135463555Y-96469087D02*
X135145555Y-96469087D01*
X143570341Y-96964589D02*
X143728733Y-96964590D01*
X144673425Y-96653461D02*
X144673425Y-96811853D01*
X133025555Y-96469075D02*
X132919555Y-96363075D01*
X129633555Y-95573800D02*
X129249811Y-95573800D01*
X144124711Y-97360568D02*
X144124711Y-97518960D01*
X131223555Y-96469075D02*
X130905555Y-96469075D01*
X131965555Y-96469075D02*
X131859555Y-96363075D01*
X131435555Y-95573800D02*
X131329555Y-95679800D01*
X147892801Y-99985231D02*
X148162801Y-99985231D01*
X149602801Y-101391975D02*
X149602801Y-100648600D01*
X130269555Y-96363087D02*
X130163555Y-96469087D01*
X145861364Y-97999792D02*
X146019756Y-97999792D01*
X133343555Y-96469075D02*
X133025555Y-96469075D01*
X143332752Y-96727001D02*
X143570341Y-96964589D01*
X129739555Y-96363087D02*
X129739555Y-95679800D01*
X142778382Y-96172630D02*
X142936774Y-96172631D01*
X146653323Y-98791751D02*
X146811715Y-98791751D01*
X148702801Y-101391988D02*
X148702801Y-100425225D01*
X142936774Y-96172631D02*
X143485487Y-95623915D01*
X143728733Y-96964590D02*
X144277446Y-96415874D01*
X131753555Y-95573800D02*
X131435555Y-95573800D01*
X144435838Y-96415874D02*
X144673425Y-96653461D01*
X130693555Y-95573800D02*
X130375555Y-95573800D01*
X129739555Y-95679800D02*
X129633555Y-95573800D01*
X150393400Y-100558600D02*
X151384000Y-99568000D01*
X135675555Y-95573800D02*
X135569555Y-95679800D01*
X133979555Y-96363075D02*
X133979555Y-95679800D01*
X143881466Y-96019894D02*
X143332752Y-96568609D01*
X133449555Y-96363075D02*
X133343555Y-96469075D01*
X147049302Y-99187730D02*
X146500588Y-99736445D01*
X134085555Y-96469075D02*
X133979555Y-96363075D01*
X135569555Y-95679800D02*
X135569555Y-96363087D01*
X145465384Y-97445420D02*
X145465384Y-97603812D01*
X134403555Y-96469075D02*
X134085555Y-96469075D01*
X149602801Y-100648600D02*
X149692801Y-100558600D01*
X133873555Y-95573800D02*
X133555555Y-95573800D01*
X136099555Y-95679800D02*
X135993555Y-95573800D01*
X145708629Y-99102878D02*
X145946218Y-99340466D01*
X148612801Y-101481988D02*
X148702801Y-101391988D01*
X146811715Y-98791751D02*
X147049302Y-99029338D01*
X145069405Y-97207833D02*
X145227797Y-97207833D01*
X149062801Y-100335225D02*
X149152801Y-100425225D01*
X129845555Y-96469087D02*
X129739555Y-96363087D01*
X130905555Y-96469075D02*
X130799555Y-96363075D01*
X136735555Y-95573800D02*
X136629555Y-95679800D01*
X135039555Y-96363087D02*
X135039555Y-95679800D01*
X116859000Y-95573800D02*
X116487100Y-95201900D01*
X146738177Y-100132425D02*
X146862331Y-100256579D01*
X130799555Y-96363075D02*
X130799555Y-95679800D01*
X147802801Y-100075231D02*
X147892801Y-99985231D01*
X146019756Y-97999792D02*
X146257343Y-98237379D01*
X136629555Y-96363087D02*
X136523555Y-96469087D01*
X145946218Y-99340466D02*
X146104610Y-99340467D01*
X144916670Y-98310919D02*
X145154259Y-98548507D01*
X135569555Y-96363087D02*
X135463555Y-96469087D01*
X136629555Y-95679800D02*
X136629555Y-96363087D01*
X148792801Y-100335225D02*
X149062801Y-100335225D01*
X143332752Y-96568609D02*
X143332752Y-96727001D01*
X145708629Y-98944486D02*
X145708629Y-99102878D01*
X142778382Y-96172630D02*
X142179552Y-95573800D01*
X146257343Y-98395771D02*
X145708629Y-98944486D01*
X130375555Y-95573800D02*
X130269555Y-95679800D01*
X133555555Y-95573800D02*
X133449555Y-95679800D01*
X149692801Y-100558600D02*
X150195614Y-100558600D01*
X146257343Y-98237379D02*
X146257343Y-98395771D01*
X148702801Y-100425225D02*
X148792801Y-100335225D01*
X146500588Y-99894837D02*
X146738177Y-100132425D01*
X147164352Y-100558600D02*
X147712801Y-100558600D01*
X145465384Y-97603812D02*
X144916670Y-98152527D01*
X146500588Y-99736445D02*
X146500588Y-99894837D01*
X130799555Y-95679800D02*
X130693555Y-95573800D01*
X132389555Y-95679800D02*
X132389555Y-96363075D01*
X144673425Y-96811853D02*
X144124711Y-97360568D01*
X144277446Y-96415874D02*
X144435838Y-96415874D01*
X144520692Y-97756549D02*
X145069405Y-97207833D01*
X133449555Y-95679800D02*
X133449555Y-96363075D01*
X136099555Y-96363087D02*
X136099555Y-95679800D01*
X132919555Y-95679800D02*
X132813555Y-95573800D01*
X135039555Y-95679800D02*
X134933555Y-95573800D01*
X136205555Y-96469087D02*
X136099555Y-96363087D01*
X132283555Y-96469075D02*
X131965555Y-96469075D01*
X131329555Y-96363075D02*
X131223555Y-96469075D01*
X131859555Y-95679800D02*
X131753555Y-95573800D01*
X149512801Y-101481975D02*
X149602801Y-101391975D01*
X148342801Y-101481988D02*
X148612801Y-101481988D01*
X144124711Y-97518960D02*
X144362300Y-97756548D01*
X150195614Y-100558600D02*
X150393400Y-100558600D01*
X134509555Y-95679800D02*
X134509555Y-96363075D01*
X146104610Y-99340467D02*
X146653323Y-98791751D01*
X129249811Y-95573800D02*
X116859000Y-95573800D01*
X132495555Y-95573800D02*
X132389555Y-95679800D01*
X132813555Y-95573800D02*
X132495555Y-95573800D01*
X145312651Y-98548508D02*
X145861364Y-97999792D01*
X147802801Y-100468600D02*
X147802801Y-100075231D01*
X144362300Y-97756548D02*
X144520692Y-97756549D01*
X148252801Y-101391988D02*
X148342801Y-101481988D01*
X134933555Y-95573800D02*
X134615555Y-95573800D01*
X116487100Y-95201900D02*
X116487100Y-94589600D01*
X148162801Y-99985231D02*
X148252801Y-100075231D01*
X145154259Y-98548507D02*
X145312651Y-98548508D01*
X132389555Y-96363075D02*
X132283555Y-96469075D01*
X147712801Y-100558600D02*
X147802801Y-100468600D01*
X130269555Y-95679800D02*
X130269555Y-96363087D01*
X146862331Y-100256579D02*
X147164352Y-100558600D01*
X134509555Y-96363075D02*
X134403555Y-96469075D01*
X149152801Y-101391975D02*
X149242801Y-101481975D01*
X131329555Y-95679800D02*
X131329555Y-96363075D01*
X136523555Y-96469087D02*
X136205555Y-96469087D01*
X130163555Y-96469087D02*
X129845555Y-96469087D01*
X144916670Y-98152527D02*
X144916670Y-98310919D01*
%TO.N,/MCU/SDRAM_LDQM*%
X118087100Y-78902274D02*
X119654974Y-77334400D01*
X118087100Y-80772000D02*
X118087100Y-78902274D01*
X146722903Y-84574400D02*
X155836600Y-84574400D01*
X155836600Y-84574400D02*
X159994600Y-80416400D01*
X119654974Y-77334400D02*
X139482903Y-77334400D01*
X139482903Y-77334400D02*
X146722903Y-84574400D01*
%TO.N,/MCU/SDRAM_BA1*%
X116428674Y-82474400D02*
X141095297Y-82474400D01*
X149228800Y-99502937D02*
X149228800Y-99851200D01*
X146577800Y-96851937D02*
X149228800Y-99502937D01*
X146577800Y-87956903D02*
X146577800Y-96851937D01*
X141095297Y-82474400D02*
X146577800Y-87956903D01*
X149924400Y-100126800D02*
X150203800Y-99847400D01*
X113287100Y-83083400D02*
X113871300Y-83667600D01*
X149504400Y-100126800D02*
X149924400Y-100126800D01*
X149228800Y-99851200D02*
X149504400Y-100126800D01*
X113871300Y-83667600D02*
X115235474Y-83667600D01*
X115235474Y-83667600D02*
X116428674Y-82474400D01*
%TO.N,/MCU/SDRAM_UDQM*%
X111962100Y-86927800D02*
X111962100Y-81966900D01*
X117287100Y-92252800D02*
X111962100Y-86927800D01*
X117294600Y-76634400D02*
X140248280Y-76634400D01*
X140248280Y-76634400D02*
X147838280Y-84224400D01*
X147838280Y-84224400D02*
X155383444Y-84224400D01*
X155383444Y-84224400D02*
X159729900Y-79877944D01*
X111962100Y-81966900D02*
X117294600Y-76634400D01*
%TD*%
M02*
